<svg xmlns="http://www.w3.org/2000/svg" xmlns:xlink="http://www.w3.org/1999/xlink" width="80.517" height="42.577" viewBox="0 0 80.517 42.577">
  <defs>
    <clipPath id="clip-path">
      <rect id="Rectangle_1976" data-name="Rectangle 1976" width="80.517" height="42.577" fill="#fff"/>
    </clipPath>
  </defs>
  <g id="Group_1764" data-name="Group 1764" transform="translate(0)">
    <g id="Group_1617" data-name="Group 1617" transform="translate(0)">
      <path id="Path_4456" data-name="Path 4456" d="M105.973,25.874a3.151,3.151,0,0,1-3.114-3.114,2.565,2.565,0,0,0-2.653-2.653H94.439a2.658,2.658,0,0,0-2.652,2.653,3.042,3.042,0,0,1-.894,2.191,2.966,2.966,0,0,1-2.22.923c-.024,0-.047,0-.071,0h-.786a1.879,1.879,0,0,0-1.879,1.88v1.621a1.879,1.879,0,0,0,1.879,1.879h1.621a1.88,1.88,0,0,0,1.88-1.879v-.649c0-.067.009-.134.009-.2a3.151,3.151,0,0,1,3.114-3.114h5.767a3.054,3.054,0,0,1,3.114,3.114V40.1a3.151,3.151,0,0,1-3.114,3.114H94.439a3.16,3.16,0,0,1-3.1-2.8v-.629a3.16,3.16,0,0,1,3.1-2.8h5.454a2.529,2.529,0,0,0,1.9-.779,2.606,2.606,0,0,0,.75-1.875,2.565,2.565,0,0,0-2.653-2.653H94.439a2.658,2.658,0,0,0-2.652,2.653,3.159,3.159,0,0,1-2.707,3.086h-1.24a1.88,1.88,0,0,0-1.88,1.879v1.621a1.88,1.88,0,0,0,1.88,1.88h1.4a2.947,2.947,0,0,1,1.654.848,3.015,3.015,0,0,1,.894,2.22,2.658,2.658,0,0,0,2.652,2.653h5.767a2.658,2.658,0,0,0,2.653-2.653,2.966,2.966,0,0,1,.923-2.22,3.042,3.042,0,0,1,2.191-.894,2.658,2.658,0,0,0,2.653-2.653V28.527a2.565,2.565,0,0,0-2.653-2.653" transform="translate(-60.925 -14.255)" fill="#fff"/>
      <path id="Path_4457" data-name="Path 4457" d="M217.723,31.406h1.621a1.879,1.879,0,0,0,1.879-1.88V27.905a1.879,1.879,0,0,0-1.879-1.88h-.756c-.029,0-.057,0-.086,0a3.151,3.151,0,0,1-3.114-3.114,2.565,2.565,0,0,0-2.653-2.653h-5.767a2.658,2.658,0,0,0-2.652,2.653,3.164,3.164,0,0,1-2.595,3.07H200.35a1.879,1.879,0,0,0-1.879,1.88v1.621a1.879,1.879,0,0,0,1.879,1.879h1.3a2.956,2.956,0,0,1,1.774.864,3.016,3.016,0,0,1,.894,2.22,2.658,2.658,0,0,0,2.652,2.653h5.767a3.045,3.045,0,0,1,3.109,2.986v.248a3.148,3.148,0,0,1-3.109,2.995h-5.767a3.151,3.151,0,0,1-3.114-3.114c0-.027,0-.052,0-.079v-.775a1.879,1.879,0,0,0-1.879-1.88H200.35a1.88,1.88,0,0,0-1.88,1.88v1.621a1.88,1.88,0,0,0,1.88,1.879h.711c.047,0,.093.006.14.006a3.054,3.054,0,0,1,3.114,3.114,2.658,2.658,0,0,0,2.652,2.653h5.767a2.529,2.529,0,0,0,1.9-.779,2.605,2.605,0,0,0,.75-1.875,3.162,3.162,0,0,1,2.6-3.07h1.356a1.879,1.879,0,0,0,1.879-1.88V39.4a1.879,1.879,0,0,0-1.879-1.879h-1.272a3.159,3.159,0,0,1-2.685-3.083,2.565,2.565,0,0,0-2.653-2.653h-5.767a3.114,3.114,0,0,1,0-6.228h5.767a3.044,3.044,0,0,1,3.109,2.986v.98a1.88,1.88,0,0,0,1.88,1.88" transform="translate(-140.707 -14.36)" fill="#fff"/>
      <path id="Path_4458" data-name="Path 4458" d="M182.138,35.941v1.81a1.759,1.759,0,0,1-1.76,1.757h-1.807a1.756,1.756,0,0,1-1.757-1.757V36.382a4.312,4.312,0,0,0-1.165-2.048,2.959,2.959,0,0,0-2.183-.883h-.006a2.614,2.614,0,0,1-2.611-2.577.149.149,0,0,1,0-.038V17.355a.44.44,0,0,1,.006-.091c0-.063.006-.128.013-.188.01-.084.022-.166.038-.247.013-.059.028-.122.044-.182.006-.022.013-.044.019-.063.019-.063.044-.125.069-.188a1.47,1.47,0,0,1,.088-.191.226.226,0,0,1,.022-.038,1.379,1.379,0,0,1,.113-.194c.041-.063.085-.122.132-.182s.088-.107.135-.157a.571.571,0,0,1,.044-.05s.006-.006.006-.01a.026.026,0,0,1,.012-.013,3.273,3.273,0,0,0-.194-4.985l-.448-.451a1.521,1.521,0,0,1-.225-.272v0a1.747,1.747,0,0,1,0-1.932v0a1.521,1.521,0,0,1,.225-.272v0l1.278-1.274v0c.044-.044.088-.081.132-.119h0a1.476,1.476,0,0,1,.291-.194,1.753,1.753,0,0,1,1.635,0,1.477,1.477,0,0,1,.291.194h0c.044.038.088.075.132.119v0l1.278,1.274v0a1.674,1.674,0,0,1,.226.272,1.511,1.511,0,0,1,.088.153,1.607,1.607,0,0,1,.128.313,1.759,1.759,0,0,1-.442,1.747l-.492.495a.077.077,0,0,0-.019.016,3.113,3.113,0,0,0-.407.407.091.091,0,0,0-.016.019l-.031.028a1.269,1.269,0,0,0-.075.107l-.019.028a3.279,3.279,0,0,0,.226,4.124c.006.01.013.016.019.025a.425.425,0,0,0,.035.04c.034.041.075.078.113.116a.315.315,0,0,1,.044.05.619.619,0,0,1,.044.05,2.036,2.036,0,0,1,.135.157,1.787,1.787,0,0,1,.132.182,1.35,1.35,0,0,1,.113.194.251.251,0,0,1,.022.038,1.507,1.507,0,0,1,.088.191c.025.063.05.125.069.188.006.022.013.044.019.063.016.06.031.122.044.182a2.477,2.477,0,0,1,.05.435.441.441,0,0,1,.006.091V30.836a.164.164,0,0,1,0,.038A4.106,4.106,0,0,0,177.3,33.31a2.963,2.963,0,0,0,1.7.874h1.378a1.759,1.759,0,0,1,1.76,1.757" transform="translate(-120.825 -4.146)" fill="#fff"/>
      <path id="Path_4459" data-name="Path 4459" d="M26.7,29.972H25.073a1.881,1.881,0,0,0-1.879,1.882V32.6c0,.034,0,.069,0,.1a3.155,3.155,0,0,1-3.116,3.116H8.5A2.989,2.989,0,0,1,6.3,34.892a3.063,3.063,0,0,1,0-4.384A3,3,0,0,1,8.5,29.587h5.765a2.529,2.529,0,0,0,1.9-.78,2.592,2.592,0,0,0,.749-1.873,3.155,3.155,0,0,1,3.116-3.116,2.53,2.53,0,0,0,1.9-.777,2.607,2.607,0,0,0,.751-1.876v-6.9a2.57,2.57,0,0,0-2.652-2.653,3,3,0,0,1-2.192-.921,3.063,3.063,0,0,1,0-4.384A3,3,0,0,1,20.03,5.39c.025,0,.05,0,.078,0h.78A1.866,1.866,0,0,0,22.607,4.25c.022-.056.044-.113.063-.172a1.819,1.819,0,0,0,.091-.57V1.885a1.826,1.826,0,0,0-.091-.573,1.607,1.607,0,0,0-.134-.319c-.019-.038-.041-.072-.063-.11A1.859,1.859,0,0,0,20.888,0H19.234a1.867,1.867,0,0,0-1.866,1.866V3.132A2.871,2.871,0,0,1,14.5,5.853a.858.858,0,0,1-.091,0h-.056a.922.922,0,0,1-.094,0H8.5A2.652,2.652,0,0,0,5.844,8.505,3.005,3.005,0,0,1,4.92,10.7a3,3,0,0,1-2.192.921,2.547,2.547,0,0,0-1.873.78,2.553,2.553,0,0,0-.78,1.873v6.9a2.559,2.559,0,0,0,.78,1.876,2.555,2.555,0,0,0,1.873.777,3.059,3.059,0,0,1,3.116,3.116,3.005,3.005,0,0,1-.924,2.192,3.022,3.022,0,0,1-1.794.9H1.879A1.879,1.879,0,0,0,0,31.9v1.622A1.881,1.881,0,0,0,1.879,35.4H3.295a2.907,2.907,0,0,1,1.653.874,3.052,3.052,0,0,1,.9,2.192,2.53,2.53,0,0,0,.777,1.9,2.612,2.612,0,0,0,1.876.749H20.075a2.561,2.561,0,0,0,2.652-2.653,3.155,3.155,0,0,1,3.116-3.116H26.7a1.876,1.876,0,0,0,1.879-1.879V31.855A1.879,1.879,0,0,0,26.7,29.972M5.38,21.166v-6.9A2.993,2.993,0,0,1,6.3,12.082,2.988,2.988,0,0,1,8.5,11.158h5.765a3.055,3.055,0,0,1,3.116,3.113v6.9a3.048,3.048,0,0,1-.9,2.192,2.968,2.968,0,0,1-2.22.924H8.5A3,3,0,0,1,6.3,23.359a3,3,0,0,1-.924-2.192" fill="#fff"/>
      <text id="Seamless_Security_" data-name="Seamless Security_" transform="translate(31.334 37.251)" fill="#fff" font-size="1" font-family="ClearSans, Clear Sans"><tspan x="0" y="0" letter-spacing="0.049em">S</tspan><tspan y="0" letter-spacing="0.05em">e</tspan><tspan y="0" letter-spacing="0.049em">a</tspan><tspan y="0" letter-spacing="0.05em">mless</tspan><tspan y="0" xml:space="preserve" letter-spacing="0.049em"> S</tspan><tspan y="0" letter-spacing="0.05em">ecu</tspan><tspan y="0" letter-spacing="0.049em">r</tspan><tspan y="0" letter-spacing="0.05em">ity</tspan><tspan y="0">_</tspan></text>
    </g>
  </g>
</svg>
