<svg id="Group_1624" data-name="Group 1624" xmlns="http://www.w3.org/2000/svg" xmlns:xlink="http://www.w3.org/1999/xlink" width="123.213" height="16.094" viewBox="0 0 123.213 16.094">
  <defs>
    <clipPath id="clip-path">
      <rect id="Rectangle_1978" data-name="Rectangle 1978" width="123.213" height="16.094" fill="#fff"/>
    </clipPath>
  </defs>
  <g id="Group_1619" data-name="Group 1619">
    <path id="Path_4460" data-name="Path 4460" d="M482.147,17.358a10.311,10.311,0,0,1-3.407-.539,6.631,6.631,0,0,1-4.191-4.313,9.892,9.892,0,0,1-.2-5.7,6.62,6.62,0,0,1,4.537-4.844,9.5,9.5,0,0,1,6.135-.029,6.975,6.975,0,0,1,4.965,6.213,8.989,8.989,0,0,1-.6,4.809,7.031,7.031,0,0,1-5.671,4.264c-.184.03-.37.055-.556.07-.372.029-.746.049-1.017.067m2.929-7.874c-.068-.554-.1-1.117-.214-1.661a3.454,3.454,0,0,0-1.271-2.155,2.654,2.654,0,0,0-3.979,1.027,6.286,6.286,0,0,0,.018,5.457,2.5,2.5,0,0,0,2.66,1.492,2.546,2.546,0,0,0,2.369-1.78,7.7,7.7,0,0,0,.417-2.38" transform="translate(-440.736 -1.339)" fill="#fff"/>
    <path id="Path_4461" data-name="Path 4461" d="M231.506,10.3a8.27,8.27,0,0,1,1.313-4.659,7.168,7.168,0,0,1,5.392-3.072,9.345,9.345,0,0,1,5.144.7,6.972,6.972,0,0,1,4.087,5.568,9.614,9.614,0,0,1-.268,4.334,6.848,6.848,0,0,1-4.82,4.8,9.846,9.846,0,0,1-5.573.029,6.767,6.767,0,0,1-5.042-5.652c-.131-.672-.159-1.365-.234-2.048m5.03.063a5.935,5.935,0,0,0,.686,3,2.546,2.546,0,0,0,2.4,1.3,2.422,2.422,0,0,0,2.421-1.582,8.318,8.318,0,0,0,.457-2.105,5.553,5.553,0,0,0-.644-3.42,2.581,2.581,0,0,0-2.4-1.365,2.516,2.516,0,0,0-2.3,1.4,5.583,5.583,0,0,0-.619,2.771" transform="translate(-215.248 -2.313)" fill="#fff"/>
    <path id="Path_4462" data-name="Path 4462" d="M743.407,21.808c-.2.012-.331.026-.466.027-1.754,0-3.509,0-5.263.007a.476.476,0,0,1-.469-.268q-1.622-2.662-3.261-5.314c-.072-.117-.152-.228-.2-.3-.386.356-.772.694-1.13,1.059a.6.6,0,0,0-.093.388c0,1.343.012,2.686.02,4.029,0,.126,0,.251,0,.411h-5.035V6.831h4.964v4.7l.094.035c.168-.183.339-.364.5-.55q1.8-2.01,3.6-4.018a.594.594,0,0,1,.373-.2c1.847-.02,3.7-.024,5.543-.03a.7.7,0,0,1,.127.042l-5.523,5.65,6.214,9.351" transform="translate(-676.417 -6.291)" fill="#fff"/>
    <path id="Path_4463" data-name="Path 4463" d="M15.3,10.512h-4.71a.931.931,0,0,1-.056-.155A2.444,2.444,0,0,0,7.659,8.106a2.525,2.525,0,0,0-2.381,2.238,8.335,8.335,0,0,0-.014,3.923,2.759,2.759,0,0,0,3.629,2.146,2.287,2.287,0,0,0,1.674-2.039c.06-.311.175-.387.474-.385,1.321.008,2.643-.009,3.964-.017h.432c-.019.183-.025.34-.053.493A6.515,6.515,0,0,1,9.2,20.139a9.823,9.823,0,0,1-5.012-.7A6.588,6.588,0,0,1,.246,14.448,9.154,9.154,0,0,1,.892,8.3a6.782,6.782,0,0,1,5.5-3.791,9.691,9.691,0,0,1,5.287.694,6.019,6.019,0,0,1,3.62,5.082,2.031,2.031,0,0,1,0,.228" transform="translate(0 -4.104)" fill="#fff"/>
    <path id="Path_4464" data-name="Path 4464" d="M1324.062,15.85a6.5,6.5,0,0,1-5.114-2.1,7.52,7.52,0,0,1-1.8-3.812,10.576,10.576,0,0,1,.3-5.256,6.5,6.5,0,0,1,6.982-4.668,6.911,6.911,0,0,1,3.841,1.239,6.69,6.69,0,0,1,2.487,3.593,10.592,10.592,0,0,1,.126,5.771,6.584,6.584,0,0,1-6.827,5.235m-5.609-7.936c0,.315-.017.631,0,.945a8.244,8.244,0,0,0,.127.936c.442,2.369,1.9,4.507,4.789,4.794a5.189,5.189,0,0,0,5.879-3.578,9.166,9.166,0,0,0,.054-5.952,5.025,5.025,0,0,0-4.543-3.792,5.153,5.153,0,0,0-5.57,2.946,7.729,7.729,0,0,0-.742,3.7" transform="translate(-1224.469 0)" fill="#fff"/>
    <path id="Path_4465" data-name="Path 4465" d="M960.41,12.032h1.376c.045.24.085.477.135.713a3.379,3.379,0,0,0,2.864,2.8,6.183,6.183,0,0,0,3.254-.152,2.846,2.846,0,0,0,1.97-3.325,2.188,2.188,0,0,0-1.253-1.677,18.977,18.977,0,0,0-2.4-.856c-.971-.3-1.965-.518-2.935-.817a3.475,3.475,0,0,1-2.651-2.867A3.554,3.554,0,0,1,962.258,2.1a6.35,6.35,0,0,1,4.135-1.027,5.2,5.2,0,0,1,3.336,1.271,3.98,3.98,0,0,1,1.293,3.167h-1.356c-.031-.23-.05-.472-.1-.708a2.793,2.793,0,0,0-1.8-2.168,5.006,5.006,0,0,0-4.425.292,2.44,2.44,0,0,0-.038,4.2,7.272,7.272,0,0,0,1.442.617c1.331.4,2.671.763,4.015,1.115a3.606,3.606,0,0,1,2.75,3.875,3.831,3.831,0,0,1-2.792,3.714,7.613,7.613,0,0,1-5.937-.222,4.31,4.31,0,0,1-2.375-4.2" transform="translate(-892.955 -0.984)" fill="#fff"/>
    <path id="Path_4466" data-name="Path 4466" d="M1131.811,21.089V6.054h1.393v6.42h9.036V6.03h1.46V21.051h-1.413V13.729h-9.023v7.36Z" transform="translate(-1052.326 -5.606)" fill="#fff"/>
    <path id="Path_4467" data-name="Path 4467" d="M1537.089,13.547v6.6h-1.444V5.141a.478.478,0,0,1,.125-.025c2.094.008,4.187,0,6.28.035a4.865,4.865,0,0,1,2.375.657,3.242,3.242,0,0,1,1.5,1.867,5.268,5.268,0,0,1,.171,2.56,3.543,3.543,0,0,1-2.518,2.835,9.333,9.333,0,0,1-3.033.474c-.994.017-1.989,0-2.983,0h-.474m-.012-7.277V12.3c1.054,0,2.069.018,3.083-.006a17.626,17.626,0,0,0,2.129-.152,2.48,2.48,0,0,0,2.25-1.683,3.66,3.66,0,0,0,.077-2.072,2.442,2.442,0,0,0-2.28-1.885c-1.739-.166-3.494-.165-5.259-.235" transform="translate(-1427.8 -4.757)" fill="#fff"/>
    <rect id="Rectangle_1977" data-name="Rectangle 1977" width="4.462" height="4.264" transform="translate(118.751 11.124)" fill="#fff"/>
  </g>
</svg>
