<svg xmlns="http://www.w3.org/2000/svg" width="100.445" height="27.996" viewBox="0 0 100.445 27.996">
  <path id="Path_1520" data-name="Path 1520" d="M67.369,78.768l.19.05a.544.544,0,0,1-.01.093V79a.362.362,0,0,0,.19.285,2.2,2.2,0,0,0,.451.213c.181.054.359.1.532.132a2.525,2.525,0,0,0,.421.051c.093,0,.206-.008.34-.021a1.893,1.893,0,0,0,.412-.082,1.125,1.125,0,0,0,.34-.182.4.4,0,0,0,.141-.316.343.343,0,0,0-.251-.325,2.506,2.506,0,0,0-.612-.152c-.248-.04-.515-.076-.8-.112a4.455,4.455,0,0,1-.8-.183,1.788,1.788,0,0,1-.622-.366.93.93,0,0,1-.241-.681,1.214,1.214,0,0,1,.532-1.036,2.5,2.5,0,0,1,1.492-.387,3.307,3.307,0,0,1,.8.082,3.5,3.5,0,0,1,.572.162,2.466,2.466,0,0,1,.371.174.614.614,0,0,0,.22.07.271.271,0,0,0,.121-.021.651.651,0,0,1,.1-.061l.109.112-.5.955-.18-.06-.02-.123a.206.206,0,0,0-.091-.122,1.667,1.667,0,0,0-.62-.3,3.444,3.444,0,0,0-.943-.12,2.447,2.447,0,0,0-.38.029,1.155,1.155,0,0,0-.321.082.6.6,0,0,0-.221.163.355.355,0,0,0,.161.559,3.441,3.441,0,0,0,.622.152l.8.113a3.61,3.61,0,0,1,.8.184,1.526,1.526,0,0,1,.612.385.952.952,0,0,1,.251.7,1.16,1.16,0,0,1-.221.731,1.489,1.489,0,0,1-.531.448,2.245,2.245,0,0,1-.713.214c-.12.016-.238.028-.353.035L69,81.437h-.59l.348-1.054a2.818,2.818,0,0,1-.286-.04c-.222-.048-.425-.1-.613-.152s-.334-.117-.462-.162a.927.927,0,0,0-.23-.08.148.148,0,0,0-.121.061l-.139-.1Zm60.7,0,.19.05a.457.457,0,0,1-.01.093V79a.361.361,0,0,0,.19.285,2.195,2.195,0,0,0,.451.213c.18.054.358.1.529.132a2.591,2.591,0,0,0,.423.051c.092,0,.205-.008.34-.021a1.911,1.911,0,0,0,.412-.082,1.118,1.118,0,0,0,.34-.182.4.4,0,0,0,.141-.316.345.345,0,0,0-.253-.325,2.474,2.474,0,0,0-.611-.152c-.247-.04-.513-.076-.8-.112a4.443,4.443,0,0,1-.8-.183,1.779,1.779,0,0,1-.622-.366.931.931,0,0,1-.241-.681,1.218,1.218,0,0,1,.53-1.036,2.511,2.511,0,0,1,1.494-.387,3.309,3.309,0,0,1,.8.082,3.586,3.586,0,0,1,.572.162,2.522,2.522,0,0,1,.37.174.607.607,0,0,0,.222.07.278.278,0,0,0,.121-.021.719.719,0,0,1,.1-.061l.112.112-.5.955-.18-.06-.021-.123a.211.211,0,0,0-.088-.122,1.715,1.715,0,0,0-.622-.3,3.442,3.442,0,0,0-.944-.12,2.423,2.423,0,0,0-.38.029,1.165,1.165,0,0,0-.321.082.615.615,0,0,0-.222.163.353.353,0,0,0-.078.233.338.338,0,0,0,.241.326,3.451,3.451,0,0,0,.622.152l.8.113a3.569,3.569,0,0,1,.8.184,1.514,1.514,0,0,1,.611.385.947.947,0,0,1,.25.7,1.15,1.15,0,0,1-.219.731,1.481,1.481,0,0,1-.53.448,2.237,2.237,0,0,1-.713.214c-.12.016-.239.028-.354.035l-.52,1.048h-.588l.345-1.054c-.094-.008-.191-.022-.287-.04-.219-.048-.425-.1-.611-.152s-.333-.117-.46-.162a.927.927,0,0,0-.231-.08.149.149,0,0,0-.12.061l-.139-.1ZM57.237,75.333a.562.562,0,0,0,.171.41.56.56,0,0,0,.812,0,.559.559,0,0,0,.171-.41.567.567,0,0,0-.171-.414.565.565,0,0,0-.812,0A.571.571,0,0,0,57.237,75.333Zm82.735,5.042h1.522V80.19c-.185,0-.277-.051-.277-.154v-3.8c0-.1.092-.152.277-.152V75.9h-1.522v.183a.441.441,0,0,1,.222.04.116.116,0,0,1,.06.112v3.8a.143.143,0,0,1-.06.124.584.584,0,0,1-.222.03Zm-24.6,0h1.341V80.19a.378.378,0,0,1-.139-.02c-.034-.015-.05-.048-.05-.1a.337.337,0,0,1,.021-.11l.069-.152.283-.549h2.144l.271.579.049.131a.306.306,0,0,1,.021.113.115.115,0,0,1-.06.112.192.192,0,0,1-.1.029v.155h1.422V80.19a.466.466,0,0,1-.13-.061A.383.383,0,0,1,120.4,80l-1.624-3.456a1.849,1.849,0,0,0-.1-.192.379.379,0,0,1-.04-.154c0-.046.01-.073.028-.079l.072-.213h-1.513v.183c.07.047.079.07.079.11a.4.4,0,0,1-.04.174l-.09.225-1.494,3.3a1.239,1.239,0,0,1-.121.183.293.293,0,0,1-.189.112Zm1.822-1.872.713-1.707.812,1.707ZM105.73,80.19v.184h1.3V80.19c-.123,0-.18-.051-.18-.154V76.653h1.3a.283.283,0,0,1,.151.042.139.139,0,0,1,.069.132h.181V75.658h-.181a.226.226,0,0,1-.069.192.242.242,0,0,1-.151.052h-3.569a.241.241,0,0,1-.15-.052.224.224,0,0,1-.069-.192h-.181v1.169h.181a.138.138,0,0,1,.069-.132.282.282,0,0,1,.15-.042h1.3v3.384a.154.154,0,0,1-.049.124A.2.2,0,0,1,105.73,80.19Zm-14.1.184h1.233V80.19c-.141,0-.21-.051-.21-.154V77.081l2.486,2.682.21.234c.065.068.1.115.1.143l-.072.235h1.3V80.19c-.121,0-.181-.051-.181-.154v-3.8c0-.1.06-.152.181-.152V75.9H95.46v.183c.134,0,.2.05.2.152V78.99l-2.405-2.58c-.148-.149-.219-.241-.219-.274l.07-.233H91.632v.183c.119,0,.18.05.18.152v3.8c0,.1-.061.154-.18.154Zm-12.586,0h1.342V80.19a.368.368,0,0,1-.139-.02c-.035-.015-.051-.048-.051-.1a.378.378,0,0,1,.02-.11l.071-.152.28-.549h2.146l.271.579.051.131a.316.316,0,0,1,.02.113.113.113,0,0,1-.06.112.2.2,0,0,1-.1.029v.155h1.423V80.19a.441.441,0,0,1-.13-.061A.344.344,0,0,1,84.077,80l-1.624-3.456c-.035-.074-.067-.137-.1-.192a.386.386,0,0,1-.042-.154c0-.046.012-.073.031-.079l.068-.213H80.9v.183c.072.047.081.07.081.11a.44.44,0,0,1-.039.174l-.091.225-1.493,3.3a1.128,1.128,0,0,1-.121.183.289.289,0,0,1-.19.112ZM80.869,78.5l.713-1.707.812,1.707Zm-23.8,1.872h1.524V80.19c-.189,0-.281-.051-.281-.154V76.5c0-.1.092-.152.281-.152v-.183H57.07v.183a.41.41,0,0,1,.22.042.112.112,0,0,1,.06.11v3.534a.142.142,0,0,1-.06.124.575.575,0,0,1-.22.03Zm-13.128,0h1.232V80.19c-.139,0-.21-.051-.21-.154V77.081l2.486,2.682.21.234c.067.068.1.115.1.143l-.07.235h1.3V80.19c-.12,0-.18-.051-.18-.154v-3.8c0-.1.06-.152.18-.152V75.9H47.772v.183c.133,0,.2.05.2.152V78.99l-2.4-2.58c-.147-.149-.221-.241-.221-.274l.07-.233H43.942v.183c.121,0,.18.05.18.152v3.8c0,.1-.06.154-.18.154ZM124.36,70.8l.474.276a.565.565,0,0,1,.439-.276,1.926,1.926,0,0,1,.881.276q.51.238,1.355.583a14.944,14.944,0,0,0,2.168.549,21.6,21.6,0,0,0,3.252.2,23.25,23.25,0,0,0,2.98-.2,10.648,10.648,0,0,0,3.014-.894,6.4,6.4,0,0,0,2.3-1.785,4.388,4.388,0,0,0,.949-2.919,4.639,4.639,0,0,0-.609-2.507,4.148,4.148,0,0,0-1.559-1.511,6.506,6.506,0,0,0-2.2-.824,18.009,18.009,0,0,0-2.505-.378q-1.287-.1-2.542-.17a14.8,14.8,0,0,1-2.2-.276A4.447,4.447,0,0,1,129,60.326a1.424,1.424,0,0,1-.576-1.237,1.26,1.26,0,0,1,.407-.962,3.214,3.214,0,0,1,1.083-.652,6.529,6.529,0,0,1,1.425-.343,9.325,9.325,0,0,1,1.556-.139,9.568,9.568,0,0,1,1.964.207,10.654,10.654,0,0,1,1.83.48,6.541,6.541,0,0,1,1.455.722,2.672,2.672,0,0,1,.917.79,1.9,1.9,0,0,1,.27.788l.337.137,2.339-4.293-.407-.274a.924.924,0,0,1-.675.206,3.124,3.124,0,0,1-1.119-.274c-.428-.183-.972-.378-1.626-.584a21.735,21.735,0,0,0-2.27-.583,15.435,15.435,0,0,0-3.116-.275,11.655,11.655,0,0,0-3.657.515,8.036,8.036,0,0,0-2.574,1.27,5.258,5.258,0,0,0-1.524,1.821,4.956,4.956,0,0,0-.475,2.095,5.1,5.1,0,0,0,.576,2.576,4.8,4.8,0,0,0,1.559,1.546,7.415,7.415,0,0,0,2.2.789,23.174,23.174,0,0,0,2.54.344c.858.068,1.693.126,2.508.171a14.862,14.862,0,0,1,2.2.206,4.167,4.167,0,0,1,1.556.549,1.278,1.278,0,0,1,.611,1.167,1.514,1.514,0,0,1-.643,1.272,5.032,5.032,0,0,1-1.524.755,9.7,9.7,0,0,1-1.8.379c-.608.045-1.106.068-1.49.068a10.342,10.342,0,0,1-1.761-.173,16.43,16.43,0,0,1-1.9-.515,11.445,11.445,0,0,1-1.592-.686,2.573,2.573,0,0,1-.914-.824,1.077,1.077,0,0,1-.136-.55l-.338-.172Zm-5.519-10.676V60.9a4.6,4.6,0,0,0,1.432-.6,5.471,5.471,0,0,0,1.217-1.039,5.042,5.042,0,0,0,.833-1.33,3.736,3.736,0,0,0,.335-1.548,2.869,2.869,0,0,0-.5-1.718,1.613,1.613,0,0,0-1.429-.7,1.544,1.544,0,0,0-1.122.508,1.7,1.7,0,0,0-.477,1.21,1.5,1.5,0,0,0,.428,1.136,1.568,1.568,0,0,0,1.05.387,3.577,3.577,0,0,1,.4.024.274.274,0,0,1,.264.194,1.458,1.458,0,0,1-.191.869,3.659,3.659,0,0,1-.62.823,4.694,4.694,0,0,1-.812.654A3.406,3.406,0,0,1,118.841,60.122ZM96.813,54.266v.619a1.853,1.853,0,0,1,.817.241,1.827,1.827,0,0,1,.747.584L104.925,65v6.123a.6.6,0,0,1-.2.483.886.886,0,0,1-.509.136v.62h5.362v-.62c-.518,0-.779-.205-.779-.62V65l5.769-8.294c.273-.412.5-.733.678-.963a3.1,3.1,0,0,1,.546-.551,1.142,1.142,0,0,1,.508-.241,1.851,1.851,0,0,1,.509-.068v-.619h-5.94v.619a2.719,2.719,0,0,1,.578.068q.337.07.338.311a.791.791,0,0,1-.169.447q-.17.243-.442.654L107.2,61.9q-.441-.722-1.152-1.755c-.477-.688-.939-1.355-1.392-2q-.646-1-1.155-1.754a3.066,3.066,0,0,1-.474-1c0-.23.09-.367.271-.413a1.634,1.634,0,0,1,.576-.1v-.619ZM87.991,71.125V57.431h5.6a1.044,1.044,0,0,1,.576.173.684.684,0,0,1,.307.653h.611V53.441h-.611a.683.683,0,0,1-.307.652,1.049,1.049,0,0,1-.576.174H78.523a1.242,1.242,0,0,1-.613-.174.712.712,0,0,1-.271-.652h-.611v4.817h.611a.713.713,0,0,1,.271-.653,1.236,1.236,0,0,1,.613-.173h5.6V71.125a.6.6,0,0,1-.2.483.627.627,0,0,1-.408.136v.62h5.227v-.62C88.238,71.745,87.991,71.539,87.991,71.125ZM67.22,72.365h5.635v-.62c-.589,0-.882-.205-.882-.62V55.5q0-.619.882-.619v-.619H67.22v.619q.883,0,.883.619V71.125c0,.414-.295.62-.883.62Zm-5.293-2.752-2.239-3.648-.476.275a.647.647,0,0,1,.137.413q0,.447-.679.964a7.7,7.7,0,0,1-1.628.894,16.236,16.236,0,0,1-2.172.654,11.379,11.379,0,0,1-2.275.241,9.2,9.2,0,0,1-2.749-.412,7.005,7.005,0,0,1-2.274-1.206,6.031,6.031,0,0,1-1.527-1.927,5.893,5.893,0,0,1-.578-2.649,5.678,5.678,0,0,1,.578-2.615,5.9,5.9,0,0,1,1.527-1.961,7.014,7.014,0,0,1,2.274-1.205,9.218,9.218,0,0,1,2.749-.412,9.018,9.018,0,0,1,1.833.206,14.331,14.331,0,0,1,1.9.516,6.336,6.336,0,0,1,1.528.722c.406.252.633.5.678.756a1.018,1.018,0,0,1,.035.242.72.72,0,0,1,.034.206l.338.24,2.648-4.162-.509-.413c-.045.068-.112.161-.2.275a.3.3,0,0,1-.271.172,3.028,3.028,0,0,1-.747-.275,13.548,13.548,0,0,0-1.663-.583q-1.052-.309-2.477-.585a16.085,16.085,0,0,0-3.122-.275,14.36,14.36,0,0,0-4.107.583A10.693,10.693,0,0,0,44.991,56.4a8.512,8.512,0,0,0-2.377,2.924,8.789,8.789,0,0,0,2.377,10.907,10.588,10.588,0,0,0,3.495,1.687,15.237,15.237,0,0,0,4.107.548,12.617,12.617,0,0,0,3.122-.377,16.126,16.126,0,0,0,2.648-.895q1.187-.516,1.934-.929a3.247,3.247,0,0,1,.985-.413.381.381,0,0,1,.169.034h.2Z" transform="translate(-41.732 -53.441)" fill="#fff" fill-rule="evenodd"/>
</svg>
