<svg xmlns="http://www.w3.org/2000/svg" width="109.176" height="31.53" viewBox="0 0 109.176 31.53">
  <g id="Group_1755" data-name="Group 1755" transform="translate(0)">
    <path id="Path_20" data-name="Path 20" d="M556.229,479.678v2.8H548.8v-2.8Z" transform="translate(-529.58 -465.036)" fill="#fff"/>
    <path id="Path_21" data-name="Path 21" d="M203.441,259.289l-.2,3.445h-2.438V239.982h3.575v5.46c0,1.04-.163,3.12-.26,4.388.553-1.853,2.405-3.413,5.753-3.413,5.233,0,7.118,2.8,7.118,8.386,0,5.558-1.983,8.418-7.216,8.418C205.066,263.222,203.863,261.011,203.441,259.289Zm9.946-4.485c0-3.965-1.073-5.558-4.551-5.558-3.445,0-4.583,1.593-4.583,5.558,0,4,1.138,5.591,4.583,5.591C212.347,260.394,213.387,258.834,213.387,254.8Z" transform="translate(-200.808 -238.582)" fill="#fff"/>
    <path id="Path_22" data-name="Path 22" d="M739.452,380.4v-2.983a23.807,23.807,0,0,0,6.3,1.051c4.169,0,5.66-1.695,5.66-5.05,0-.949.1-2.135.17-2.779-.678,1.8-2.407,3.356-5.966,3.356-5.457,0-7.423-2.949-7.423-8.135,0-4.982,2.034-8.135,7.525-8.135,5.016,0,6.169,2.44,6.609,4.034l.2-3.525h2.542v15.185c0,4.745-2.2,7.931-8.948,7.931A25.888,25.888,0,0,1,739.452,380.4Zm12-14.541c0-3.288-1.152-5.186-4.745-5.186-3.661,0-4.779,1.83-4.779,5.186s1.084,5.186,4.745,5.186C750.3,371.049,751.451,369.184,751.451,365.863Z" transform="translate(-708.51 -349.823)" fill="#fff"/>
    <g id="Group_14" data-name="Group 14" transform="translate(48.398 7.905)">
      <path id="Path_23" data-name="Path 23" d="M1076.871,366.473c0-5.627,2.034-8.745,8.813-8.745,6.745,0,8.779,3.118,8.779,8.745,0,5.66-2.034,8.779-8.779,8.779C1078.9,375.252,1076.871,372.133,1076.871,366.473Zm13.864,0c0-4.169-1.153-5.864-5.051-5.864-3.966,0-5.051,1.661-5.051,5.864s1.119,5.864,5.051,5.864S1090.734,370.71,1090.734,366.473Z" transform="translate(-1076.871 -357.728)" fill="#fff"/>
      <path id="Path_24" data-name="Path 24" d="M1416.152,366.473c0-5.627,2.034-8.745,8.813-8.745,6.745,0,8.779,3.118,8.779,8.745,0,5.66-2.034,8.779-8.779,8.779C1418.186,375.252,1416.152,372.133,1416.152,366.473Zm13.863,0c0-4.169-1.152-5.864-5.05-5.864-3.966,0-5.051,1.661-5.051,5.864s1.119,5.864,5.051,5.864S1430.015,370.71,1430.015,366.473Z" transform="translate(-1397.408 -357.728)" fill="#fff"/>
    </g>
    <path id="Path_25" data-name="Path 25" d="M1755.432,251.7c0-5.8,2.1-8.745,7.423-8.745,3.525,0,5.423,1.627,6,3.559-.135-1.322-.271-3.491-.271-4.576v-5.694h3.728v23.727h-2.542l-.2-3.661c-.44,1.932-1.762,4.169-6.677,4.169C1757.432,260.482,1755.432,257.6,1755.432,251.7Zm13.253,0c0-4.237-1.288-5.8-4.779-5.8-3.525,0-4.746,1.525-4.746,5.8s1.254,5.83,4.779,5.83C1767.4,257.533,1768.685,255.974,1768.685,251.7Z" transform="translate(-1669.547 -235.053)" fill="#fff"/>
    <path id="Path_26" data-name="Path 26" d="M2100.775,216.883a2.363,2.363,0,0,1-.165.927,2.161,2.161,0,0,1-.476.718,2.131,2.131,0,0,1-.706.465,2.219,2.219,0,0,1-.844.17,2.323,2.323,0,0,1-.9-.164,2.144,2.144,0,0,1-.714-.471,2.225,2.225,0,0,1-.472-.713,2.347,2.347,0,0,1-.18-.9,2.315,2.315,0,0,1,.163-.925,2.153,2.153,0,0,1,.476-.718,2.178,2.178,0,0,1,.7-.467,2.3,2.3,0,0,1,.856-.17,2.206,2.206,0,0,1,2.063,1.321,2.4,2.4,0,0,1,.2.926m-.486,0a2.091,2.091,0,0,0-.146-.755,1.755,1.755,0,0,0-.381-.591,1.673,1.673,0,0,0-1.24-.511,1.706,1.706,0,0,0-.688.143,1.6,1.6,0,0,0-.548.387,1.791,1.791,0,0,0-.363.6,2.216,2.216,0,0,0,.014,1.483,1.728,1.728,0,0,0,.358.59,1.715,1.715,0,0,0,2.51.01,1.779,1.779,0,0,0,.362-.593A2.131,2.131,0,0,0,2100.289,216.886Zm-2.166,1.314-.414,0-.039-2.507.956-.007a1.152,1.152,0,0,1,.685.164.641.641,0,0,1,.241.549.6.6,0,0,1-.181.5.83.83,0,0,1-.462.192l.72,1.1-.467,0-.667-1.068-.391,0Zm.441-1.428c.075,0,.148,0,.217-.01a.469.469,0,0,0,.188-.054.318.318,0,0,0,.124-.118.4.4,0,0,0,.047-.215.314.314,0,0,0-.054-.183.37.37,0,0,0-.132-.1.638.638,0,0,0-.178-.046c-.065-.005-.128-.007-.187-.007l-.5,0,.009.734Z" transform="translate(-1991.599 -214.635)" fill="#fff"/>
  </g>
</svg>
