<svg xmlns="http://www.w3.org/2000/svg" xmlns:xlink="http://www.w3.org/1999/xlink" width="95.726" height="29" viewBox="0 0 95.726 29">
  <defs>
    <clipPath id="clip-path">
      <rect id="Rectangle_2456" data-name="Rectangle 2456" width="52" height="29" transform="translate(0 8)" stroke="#707070" stroke-width="1"/>
    </clipPath>
  </defs>
  <g id="Group_1950" data-name="Group 1950" transform="translate(-1495 -90)">
    <g id="Group_1949" data-name="Group 1949" transform="translate(-45 27)">
      <g id="Mask_Group_8" data-name="Mask Group 8" transform="translate(1540 55)" clip-path="url(#clip-path)">
        <path id="Menu" d="M-.332,6.195H2.26L4.878-12.344h.267L4.781,6.195H7.955l4.871-18.538h.267L10.476,6.195h2.593L16.219-16.1H11.857L7.01,2.535H6.792L7.18-16.1H2.818ZM24.434-13.749l.339-2.351H18.448L15.3,6.195h6.325l.339-2.351H18.424L19.49-3.814h3.49l.339-2.326H19.83L20.9-13.749ZM23.852,6.195h2.593L28.626-9.242l.267-2.351h.194L30.1,6.195h3.683L36.938-16.1H34.345L32.189-.663l-.267,2.351h-.194L30.686-16.1H27ZM47.771-16.1H44.959L42.391,2.2c-.194,1.43-.945,1.842-1.769,1.842s-1.43-.412-1.236-1.842l2.569-18.3H39.168L36.575,2.22c-.436,3.175,1.212,4.192,3.708,4.192,2.52,0,4.459-1.018,4.9-4.192Z" transform="translate(0.333 -2.9)" style="mix-blend-mode: exclusion;isolation: isolate"/>
        <path id="Close" d="M8.65-7.375H6.55L6.05-3.8C5.825-2.075,4.925-1.55,3.9-1.55S2.125-2.075,2.35-3.8L4.525-19.2c.225-1.7,1.15-2.25,2.15-2.25,1.025,0,1.775.55,1.55,2.25l-.5,3.525h2.1l.5-3.525c.425-3.075-1.15-4.025-3.375-4.025-2.25,0-4.075.95-4.525,4.025L.25-3.775C-.175-.7,1.4.25,3.65.25,5.875.25,7.7-.7,8.125-3.775Zm4,5.6L15.65-23h-2.1L10.3,0h6.225l.25-1.775ZM25.9-23.225c-2.275,0-4.075.95-4.525,4.025L19.225-3.8C18.775-.725,20.35.225,22.6.225c2.225,0,4.05-.95,4.5-4.025l2.175-15.4C29.7-22.275,28.125-23.225,25.9-23.225ZM27.175-19.2,25-3.8c-.225,1.7-1.175,2.25-2.15,2.25-1.1,0-1.775-.55-1.55-2.25l2.175-15.4c.225-1.7,1.15-2.25,2.15-2.25C26.725-21.45,27.4-20.9,27.175-19.2Zm11.9,3.4.5-3.425c.425-3.025-1.1-4-3.325-4-2.25,0-4,.95-4.425,4l-.45,3.125C30.6-10.575,36.4-11.175,35.8-6.825l-.425,3.05c-.25,1.7-1.125,2.225-2.175,2.225s-1.775-.525-1.525-2.225L32.15-7.2H30.125L29.65-3.775c-.45,3.025,1.125,4,3.3,4,2.25,0,4.05-.975,4.475-4l.45-3.125c.775-5.525-5.025-4.95-4.425-9.275l.425-3.05c.25-1.7,1.1-2.225,2.15-2.225s1.775.525,1.525,2.225L37.075-15.8Zm9.2-5.425L48.525-23h-5.85L39.425,0h5.85l.25-1.775h-3.75l1.25-8.85H46.75l.225-1.75h-3.7l1.25-8.85Z" transform="translate(0 33.987)"/>
      </g>
    </g>
    <path id="Path_5395" data-name="Path 5395" d="M0,0H34.675" transform="translate(1565.5 117.26) rotate(-45)" fill="none" stroke="#000" stroke-linecap="round" stroke-width="1"/>
    <path id="Path_5396" data-name="Path 5396" d="M0,0H34.675" transform="translate(1565.5 92.74) rotate(45)" fill="none" stroke="#000" stroke-linecap="round" stroke-width="1"/>
  </g>
</svg>
