<svg xmlns="http://www.w3.org/2000/svg" width="88.948" height="88.518" viewBox="0 0 88.948 88.518">
  <path id="Path_5563" data-name="Path 5563" d="M-1933.108,1011.568c.211,23.913-19.486,44.331-44.576,44.259a44.454,44.454,0,0,1-44.369-44.516,44.393,44.393,0,0,1,45.273-44A44.178,44.178,0,0,1-1933.108,1011.568Zm-44.354,20.259c4.149,0,8.3-.022,12.446.019a1.242,1.242,0,0,0,1.425-1q3.839-11.871,7.746-23.72a1.108,1.108,0,0,0-.489-1.479q-10.227-7.343-20.408-14.75a1.049,1.049,0,0,0-1.472.01q-10.185,7.4-20.407,14.751a1.1,1.1,0,0,0-.466,1.485q3.906,11.849,7.749,23.719a1.185,1.185,0,0,0,1.331.983C-1985.825,1031.807-1981.644,1031.827-1977.462,1031.827Z" transform="translate(2022.054 -967.309)" fill="#d9ff50"/>
</svg>
