<svg xmlns="http://www.w3.org/2000/svg" width="535" height="195.417" viewBox="0 0 535 195.417">
  <path id="About" d="M-200,0h42.292L-175-191.666h-75.625L-268.125,0h42.5l2.083-29.792h21.458Zm-20.833-66.667,6.25-85.208h3.542l6.25,85.208ZM-66.458-97.5V-100c10.833-5.417,13.75-13.542,13.75-25v-23.125c0-31.875-6.875-43.542-38.542-43.542h-58.958V0h59.375c32.917,0,39.792-11.667,39.792-43.542V-69.583C-51.042-82.5-55.417-91.458-66.458-97.5ZM-102.292-155c5.417,0,6.875,2.083,6.875,7.5v28.958c0,5-1.25,6.875-6.667,6.875h-4.167V-155ZM-95-44.375c0,5.417-1.458,7.292-6.667,7.292h-4.583V-82.917h4.792c5.417,0,6.458,2.083,6.458,7.083ZM7.5-193.541c-30,0-49.375,11.042-49.375,43.542V-41.667C-41.875-9.167-22.5,1.875,7.5,1.875c29.792,0,49.375-11.042,49.375-43.542V-150C56.875-182.5,37.292-193.541,7.5-193.541Zm5.417,43.75V-41.875c0,5.417-2.5,7.083-5.417,7.083-3.125,0-5.417-1.667-5.417-7.083V-149.792c0-5.417,2.292-7.083,5.417-7.083C10.417-156.875,12.917-155.208,12.917-149.792Zm151.875-41.875H120.833V-41.875c0,5.417-2.5,7.083-5.417,7.083-3.125,0-5.417-1.667-5.417-7.083V-191.666H66.042v150c0,32.5,19.375,43.542,49.375,43.542,29.792,0,49.375-11.042,49.375-43.542Zm102.083,0H173.542V-155h24.792V0h43.75V-155h24.792Z" transform="translate(268.125 193.542)"/>
</svg>
