<svg xmlns="http://www.w3.org/2000/svg" xmlns:xlink="http://www.w3.org/1999/xlink" width="102.289" height="369.398" viewBox="0 0 102.289 369.398">
  <defs>
    <clipPath id="clip-path">
      <rect id="Rectangle_49" data-name="Rectangle 49" width="86.243" height="86.243" fill="#d9ff50"/>
    </clipPath>
    <clipPath id="clip-path-4">
      <rect id="Rectangle_37" data-name="Rectangle 37" width="79.809" height="79.809" fill="#d9ff50"/>
    </clipPath>
    <clipPath id="clip-path-5">
      <rect id="Rectangle_38" data-name="Rectangle 38" width="73.375" height="73.375" fill="#d9ff50"/>
    </clipPath>
    <clipPath id="clip-path-6">
      <rect id="Rectangle_39" data-name="Rectangle 39" width="66.941" height="66.941" fill="#d9ff50"/>
    </clipPath>
    <clipPath id="clip-path-7">
      <rect id="Rectangle_40" data-name="Rectangle 40" width="60.507" height="60.507" fill="#d9ff50"/>
    </clipPath>
    <clipPath id="clip-path-8">
      <rect id="Rectangle_41" data-name="Rectangle 41" width="54.073" height="54.073" fill="#d9ff50"/>
    </clipPath>
    <clipPath id="clip-path-9">
      <rect id="Rectangle_42" data-name="Rectangle 42" width="47.639" height="47.639" fill="#d9ff50"/>
    </clipPath>
    <clipPath id="clip-path-10">
      <rect id="Rectangle_43" data-name="Rectangle 43" width="41.205" height="41.205" fill="#d9ff50"/>
    </clipPath>
    <clipPath id="clip-path-11">
      <rect id="Rectangle_44" data-name="Rectangle 44" width="34.771" height="34.771" fill="#d9ff50"/>
    </clipPath>
    <clipPath id="clip-path-12">
      <rect id="Rectangle_45" data-name="Rectangle 45" width="28.337" height="28.336" fill="#d9ff50"/>
    </clipPath>
    <clipPath id="clip-path-13">
      <rect id="Rectangle_46" data-name="Rectangle 46" width="21.903" height="21.902" fill="#d9ff50"/>
    </clipPath>
    <clipPath id="clip-path-14">
      <rect id="Rectangle_47" data-name="Rectangle 47" width="15.469" height="15.469" fill="#d9ff50"/>
    </clipPath>
  </defs>
  <g id="Group_1794" data-name="Group 1794" transform="translate(-100.977 -515.735)">
    <g id="Group_117" data-name="Group 117" transform="matrix(-0.208, -0.978, 0.978, -0.208, 118.908, 618.024)">
      <g id="Group_116" data-name="Group 116" clip-path="url(#clip-path)">
        <g id="Group_115" data-name="Group 115">
          <g id="Group_114" data-name="Group 114">
            <g id="Group_113" data-name="Group 113" clip-path="url(#clip-path)">
              <g id="Group_79" data-name="Group 79">
                <g id="Group_78" data-name="Group 78">
                  <g id="Group_77" data-name="Group 77" clip-path="url(#clip-path)">
                    <path id="Path_123" data-name="Path 123" d="M44.662,2.04A42.67,42.67,0,0,1,87.283,44.662c0,2.339-.16,4.935-2.067,6.131a.334.334,0,0,0-.145.37,7.339,7.339,0,0,1,.065,4.682A6.372,6.372,0,0,1,82,58.992a.333.333,0,0,0-.112.483,4.415,4.415,0,0,1,.835,3.54,8.936,8.936,0,0,1-1.632,3.275.331.331,0,0,0-.036.063,23.884,23.884,0,0,1-3.794,5.768A42.622,42.622,0,0,1,2.04,44.662c0-2.5.235-5,1.936-6.354a.333.333,0,0,0,.116-.34,8.237,8.237,0,0,1-.045-4.514A7.327,7.327,0,0,1,6.646,30a.333.333,0,0,0,.093-.405c-1.1-2.3,0-4.506,1.359-6.546a.326.326,0,0,0,.021-.036A29.827,29.827,0,0,1,12.065,17.2,42.559,42.559,0,0,1,44.662,2.04M8.722,23.345l-.033.058a10.193,10.193,0,0,0-1.6,3.249,3.934,3.934,0,0,0,.512,3.09l.168.272-.258.188a7.039,7.039,0,0,0-2.8,3.441,7.853,7.853,0,0,0,.159,4.6l.068.248-.218.136c-1.656,1.032-1.995,3.161-1.995,6.04a41.933,41.933,0,0,0,74,27.016,23.382,23.382,0,0,0,3.716-5.663l.015-.036.023-.032c1.781-2.454,2.413-4.33.372-6.663l-.3-.341.408-.2c3.675-1.769,4.537-3.839,3.292-7.909l-.089-.292.279-.124c1.786-.794,2.144-2.793,2.144-5.76a41.933,41.933,0,0,0-74-27.016,29.085,29.085,0,0,0-3.869,5.7M44.662,1.707A42.891,42.891,0,0,0,11.81,16.986,30.153,30.153,0,0,0,7.82,22.862C6.4,25,5.276,27.307,6.438,29.736c-2.771,2.2-3.561,4.67-2.67,8.311-1.8,1.436-2.061,4.016-2.061,6.615A42.956,42.956,0,0,0,77.514,72.337a24.211,24.211,0,0,0,3.845-5.851c1.557-2.159,2.68-4.518.8-7.2,3.38-1.861,4.312-4.248,3.235-8.208,2.041-1.281,2.223-3.964,2.223-6.414A43,43,0,0,0,44.662,1.707m0,84.554a41.646,41.646,0,0,1-41.6-41.6c0-2.768.312-4.807,1.838-5.757l.43-.268L5.2,38.149c-.979-3.55-.3-5.631,2.516-7.677l.509-.37-.331-.535c-1.167-1.887-.45-3.69,1.083-5.988l.044-.076a28.736,28.736,0,0,1,3.83-5.642,41.6,41.6,0,0,1,73.414,26.8c0,2.833-.326,4.735-1.946,5.456l-.548.244.175.574c1.2,3.918.411,5.813-3.118,7.511l-.8.386.587.671c1.9,2.177,1.332,3.875-.391,6.248l-.045.063-.03.071a23.061,23.061,0,0,1-3.664,5.578,41.539,41.539,0,0,1-31.816,14.8" transform="translate(-1.54 -1.54)" fill="#d9ff50"/>
                  </g>
                </g>
              </g>
              <g id="Group_82" data-name="Group 82" transform="translate(3.217 3.217)">
                <g id="Group_81" data-name="Group 81">
                  <g id="Group_80" data-name="Group 80" clip-path="url(#clip-path-4)">
                    <path id="Path_124" data-name="Path 124" d="M74.393,34.987a39.449,39.449,0,0,1,39.4,39.4c0,2.151-.145,4.541-1.873,5.675a.333.333,0,0,0-.14.363,6.921,6.921,0,0,1,.018,4.3,5.989,5.989,0,0,1-2.83,2.928.334.334,0,0,0-.111.476,4.1,4.1,0,0,1,.714,3.257,8.408,8.408,0,0,1-1.512,3.02.334.334,0,0,0-.035.062,22.261,22.261,0,0,1-3.511,5.325,39.405,39.405,0,0,1-69.529-25.4c0-2.3.213-4.6,1.757-5.878a.333.333,0,0,0,.112-.334,7.694,7.694,0,0,1-.023-4.156,6.834,6.834,0,0,1,2.37-3.2.333.333,0,0,0,.094-.4c-.963-2.126.139-4.031,1.306-6.049A37.411,37.411,0,0,1,44.263,49a39.348,39.348,0,0,1,30.13-14.008M40.316,60.847l-.252.186a6.536,6.536,0,0,0-2.56,3.18,7.308,7.308,0,0,0,.131,4.231l.066.244-.213.136c-1.5.962-1.811,2.921-1.811,5.568a38.716,38.716,0,0,0,68.313,24.957,21.727,21.727,0,0,0,3.433-5.22l.015-.036.023-.031c1.635-2.256,2.222-3.98.389-6.12l-.289-.338.4-.2c3.35-1.645,4.14-3.554,3.018-7.3l-.086-.287.272-.125c1.612-.742,1.942-2.659,1.942-5.308A38.716,38.716,0,0,0,44.79,49.44,36.756,36.756,0,0,0,41.2,54.726c-1.353,2.34-2.157,4.011-1.047,5.853l.162.269M74.393,34.654A39.681,39.681,0,0,0,44.008,48.781a37.719,37.719,0,0,0-3.692,5.433c-1.159,2-2.355,4.072-1.321,6.354-2.528,2.047-3.258,4.334-2.462,7.689-1.639,1.356-1.878,3.739-1.878,6.135a39.738,39.738,0,0,0,70.117,25.617,22.583,22.583,0,0,0,3.562-5.407c1.436-2,2.477-4.176.8-6.658,3.032-1.727,3.913-4,2.969-7.6,1.857-1.218,2.023-3.694,2.023-5.953A39.783,39.783,0,0,0,74.393,34.654m0,78.12A38.425,38.425,0,0,1,36.011,74.392c0-2.537.282-4.407,1.657-5.287l.418-.268-.129-.48c-.877-3.255-.253-5.167,2.3-7.055l.5-.367-.319-.529c-1.018-1.689-.282-3.21,1.05-5.514a36.439,36.439,0,0,1,3.555-5.237,38.382,38.382,0,0,1,67.73,24.737c0,2.521-.3,4.337-1.748,5.006l-.535.246.169.564c1.075,3.588.357,5.33-2.846,6.9l-.785.385.569.664c1.7,1.983,1.168,3.536-.406,5.708l-.045.062-.03.07a21.406,21.406,0,0,1-3.381,5.135,38.327,38.327,0,0,1-29.343,13.64" transform="translate(-34.488 -34.487)" fill="#d9ff50"/>
                  </g>
                </g>
              </g>
              <g id="Group_85" data-name="Group 85" transform="translate(6.434 6.434)">
                <g id="Group_84" data-name="Group 84">
                  <g id="Group_83" data-name="Group 83" clip-path="url(#clip-path-5)">
                    <path id="Path_125" data-name="Path 125" d="M104.125,67.938a36.228,36.228,0,0,1,36.187,36.187c0,1.409,0,4.033-1.683,5.216a.333.333,0,0,0-.131.355,6.447,6.447,0,0,1,0,3.927,5.53,5.53,0,0,1-2.547,2.7.333.333,0,0,0-.111.468,3.786,3.786,0,0,1,.595,2.973,7.88,7.88,0,0,1-1.392,2.765.334.334,0,0,0-.034.061,20.627,20.627,0,0,1-3.228,4.881,36.188,36.188,0,0,1-63.84-23.343c0-2.1.191-4.206,1.579-5.4a.333.333,0,0,0,.107-.327,7.157,7.157,0,0,1,0-3.8,6.344,6.344,0,0,1,2.143-2.937.333.333,0,0,0,.094-.387c-.83-1.963.222-3.78,1.24-5.537a34.324,34.324,0,0,1,3.362-4.941,36.134,36.134,0,0,1,27.663-12.856M72.859,91.685l-.245.184a6.034,6.034,0,0,0-2.319,2.919,6.761,6.761,0,0,0,.1,3.866l.063.239-.206.136c-1.35.891-1.627,2.682-1.627,5.1a35.5,35.5,0,0,0,62.624,22.9,20.129,20.129,0,0,0,3.143-4.759l.055-.1c1.481-2.051,2.018-3.621.4-5.563l-.279-.334.388-.2c3.025-1.52,3.743-3.27,2.745-6.686l-.082-.281.264-.126c1.445-.692,1.741-2.442,1.741-4.857A35.5,35.5,0,0,0,76.989,81.239,33.7,33.7,0,0,0,73.7,86.081c-1.236,2.135-1.973,3.659-.992,5.339l.155.265m31.266-24.08A36.467,36.467,0,0,0,76.207,80.579a34.633,34.633,0,0,0-3.4,4.989C71.8,87.32,70.658,89.287,71.553,91.4c-2.287,1.893-2.956,4-2.254,7.069-1.479,1.275-1.695,3.46-1.695,5.654a36.521,36.521,0,0,0,64.428,23.558,20.946,20.946,0,0,0,3.279-4.962c1.315-1.832,2.275-3.833.807-6.114,2.734-1.607,3.537-3.7,2.7-6.994,1.825-1.283,1.825-3.984,1.825-5.489a36.562,36.562,0,0,0-36.521-36.521m0,71.685A35.2,35.2,0,0,1,68.96,104.126c0-2.307.251-4.008,1.477-4.818l.405-.268-.123-.47c-.777-2.96-.21-4.7,2.094-6.434l.483-.362-.3-.522c-.892-1.527-.22-2.909.993-5a33.405,33.405,0,0,1,3.259-4.794,35.165,35.165,0,0,1,62.046,22.672c0,2.289-.264,3.939-1.552,4.556l-.519.249.161.553c.953,3.26.3,4.848-2.575,6.295l-.764.384.548.656c1.494,1.79,1,3.2-.421,5.169l-.073.129a19.761,19.761,0,0,1-3.1,4.693,35.115,35.115,0,0,1-26.871,12.482" transform="translate(-67.437 -67.438)" fill="#d9ff50"/>
                  </g>
                </g>
              </g>
              <g id="Group_88" data-name="Group 88" transform="translate(9.651 9.651)">
                <g id="Group_87" data-name="Group 87">
                  <g id="Group_86" data-name="Group 86" clip-path="url(#clip-path-6)">
                    <path id="Path_126" data-name="Path 126" d="M133.855,100.886a33.008,33.008,0,0,1,32.97,32.97c0,1.364,0,3.647-1.492,4.758a.333.333,0,0,0-.125.346,5.976,5.976,0,0,1-.023,3.559,5.078,5.078,0,0,1-2.267,2.465.333.333,0,0,0-.111.458,3.481,3.481,0,0,1,.478,2.691,7.1,7.1,0,0,1-1.272,2.511.329.329,0,0,0-.034.059,19,19,0,0,1-2.945,4.438,32.97,32.97,0,0,1-58.15-21.284c0-1.9.17-3.811,1.4-4.926a.333.333,0,0,0,.1-.318,6.625,6.625,0,0,1,.02-3.446,5.858,5.858,0,0,1,1.916-2.677.333.333,0,0,0,.094-.377c-.706-1.787.249-3.433,1.173-5.026a31.341,31.341,0,0,1,3.066-4.5,32.924,32.924,0,0,1,25.2-11.7M105.4,122.519l-.237.182c-2.15,1.648-2.712,3.375-2,6.161l.059.233-.2.136c-1.2.822-1.444,2.443-1.444,4.625A32.281,32.281,0,0,0,158.509,154.7a18.488,18.488,0,0,0,2.861-4.316l.054-.095c1.335-1.854,1.828-3.272.413-5.022l-.266-.328.375-.194c2.7-1.4,3.347-2.986,2.472-6.075l-.078-.274.254-.128c1.279-.643,1.542-2.226,1.542-4.406a32.282,32.282,0,0,0-56.95-20.822,30.69,30.69,0,0,0-3,4.4c-1.12,1.93-1.79,3.308-.937,4.826l.146.26m28.456-21.966a33.257,33.257,0,0,0-25.45,11.822,31.642,31.642,0,0,0-3.1,4.545c-.923,1.592-1.96,3.378-1.195,5.315-2.046,1.738-2.654,3.662-2.046,6.448-1.319,1.192-1.513,3.181-1.513,5.173a33.3,33.3,0,0,0,58.738,21.5,19.328,19.328,0,0,0,3-4.518c1.194-1.668,2.072-3.49.807-5.569,2.437-1.486,3.163-3.4,2.44-6.387,1.626-1.211,1.627-3.659,1.627-5.025a33.341,33.341,0,0,0-33.3-33.3m0,65.252a31.984,31.984,0,0,1-31.948-31.948c0-2.076.221-3.611,1.3-4.35l.39-.268-.116-.458c-.677-2.667-.166-4.243,1.885-5.815l.467-.358-.288-.513c-.768-1.366-.159-2.61.935-4.495a30.372,30.372,0,0,1,2.963-4.35A31.948,31.948,0,0,1,165.8,133.856c0,2.056-.231,3.542-1.358,4.108l-.5.252.153.539c.831,2.932.249,4.368-2.3,5.688l-.739.382.523.646c1.292,1.6.844,2.86-.434,4.632l-.072.125a18.117,18.117,0,0,1-2.817,4.251,31.905,31.905,0,0,1-24.4,11.324" transform="translate(-100.384 -100.386)" fill="#d9ff50"/>
                  </g>
                </g>
              </g>
              <g id="Group_91" data-name="Group 91" transform="translate(12.868 12.868)">
                <g id="Group_90" data-name="Group 90">
                  <g id="Group_89" data-name="Group 89" clip-path="url(#clip-path-7)">
                    <path id="Path_127" data-name="Path 127" d="M163.586,133.833a29.787,29.787,0,0,1,29.753,29.753c0,1.22,0,3.262-1.3,4.3a.333.333,0,0,0-.117.335,5.51,5.51,0,0,1-.043,3.193,4.635,4.635,0,0,1-1.991,2.234.333.333,0,0,0-.111.446,3.183,3.183,0,0,1,.365,2.41,6.6,6.6,0,0,1-1.151,2.257.334.334,0,0,0-.033.057,17.38,17.38,0,0,1-2.662,3.994,29.753,29.753,0,0,1-52.461-19.226c0-1.7.149-3.419,1.229-4.45a.334.334,0,0,0,.1-.308,5.19,5.19,0,0,1,1.733-5.512.333.333,0,0,0,.093-.364c-.584-1.612.274-3.088,1.1-4.516a28.3,28.3,0,0,1,2.77-4.053,29.712,29.712,0,0,1,22.728-10.551m-25.648,19.52-.227.179c-1.9,1.492-2.4,3.044-1.794,5.538l.055.226-.189.136c-1.047.752-1.262,2.205-1.262,4.156a29.064,29.064,0,0,0,51.246,18.78,16.851,16.851,0,0,0,2.579-3.874l.053-.092c1.19-1.657,1.64-2.924.429-4.482l-.251-.323.36-.193c2.376-1.273,2.952-2.7,2.2-5.466l-.072-.265.243-.129c1.114-.593,1.343-2.011,1.343-3.956a29.064,29.064,0,0,0-51.266-18.757,27.606,27.606,0,0,0-2.7,3.955c-1,1.725-1.606,2.958-.881,4.314l.136.255M163.586,133.5A30.044,30.044,0,0,0,140.6,144.169a28.615,28.615,0,0,0-2.8,4.1c-.833,1.432-1.766,3.038-1.129,4.8a5.537,5.537,0,0,0-1.84,5.829c-1.161,1.109-1.332,2.9-1.332,4.691a30.087,30.087,0,0,0,53.048,19.441,17.706,17.706,0,0,0,2.712-4.073c1.073-1.5,1.87-3.147.8-5.025,2.144-1.365,2.793-3.1,2.179-5.783,1.429-1.138,1.429-3.332,1.429-4.56A30.121,30.121,0,0,0,163.586,133.5m0,58.818a28.763,28.763,0,0,1-28.731-28.731c0-1.848.191-3.215,1.123-3.885l.371-.267-.108-.444c-.578-2.374-.124-3.783,1.676-5.2l.447-.351-.268-.5c-.645-1.206-.1-2.312.876-3.989a27.3,27.3,0,0,1,2.667-3.907,28.731,28.731,0,0,1,50.678,18.542c0,1.826-.2,3.147-1.166,3.662l-.478.254.142.522c.71,2.606.2,3.889-2.035,5.084l-.708.379.493.635c1.092,1.4.685,2.523-.447,4.1l-.07.122a16.483,16.483,0,0,1-2.535,3.81,28.694,28.694,0,0,1-21.927,10.166" transform="translate(-133.332 -133.333)" fill="#d9ff50"/>
                  </g>
                </g>
              </g>
              <g id="Group_94" data-name="Group 94" transform="translate(16.085 16.085)">
                <g id="Group_93" data-name="Group 93">
                  <g id="Group_92" data-name="Group 92" clip-path="url(#clip-path-8)">
                    <path id="Path_128" data-name="Path 128" d="M193.317,166.78a26.566,26.566,0,0,1,26.536,26.536c0,1.077,0,2.879-1.118,3.841a.333.333,0,0,0-.109.322c.469,2.227-.064,3.673-1.785,4.835a.333.333,0,0,0-.111.427c.909,1.792-.224,3.375-.768,4.136a.331.331,0,0,0-.032.055,15.762,15.762,0,0,1-2.379,3.55,26.536,26.536,0,0,1-46.771-17.167c0-1.5.128-3.026,1.056-3.973a.333.333,0,0,0,.09-.3,4.768,4.768,0,0,1,1.532-4.9.333.333,0,0,0,.092-.349c-.466-1.438.3-2.744,1.032-4.007a25.658,25.658,0,0,1,2.474-3.609,26.5,26.5,0,0,1,20.261-9.4m-22.84,17.407-.215.174a4.274,4.274,0,0,0-1.583,4.917l.05.217-.177.135c-.951.724-1.082,2.2-1.082,3.687a25.846,25.846,0,0,0,45.557,16.721,15.2,15.2,0,0,0,2.3-3.432l.051-.088c1.045-1.462,1.451-2.577.444-3.944l-.232-.314.341-.191c2.054-1.149,2.558-2.42,1.928-4.858l-.066-.255.229-.131c.951-.543,1.146-1.8,1.146-3.508a25.847,25.847,0,0,0-45.582-16.692,24.579,24.579,0,0,0-2.4,3.512c-.887,1.521-1.424,2.608-.825,3.8l.124.247m22.84-17.74a26.834,26.834,0,0,0-20.515,9.517,25.978,25.978,0,0,0-2.508,3.657c-.742,1.272-1.573,2.7-1.061,4.277a5.116,5.116,0,0,0-1.634,5.212c-1,1.024-1.151,2.618-1.151,4.207A26.869,26.869,0,0,0,213.806,210.7a16.094,16.094,0,0,0,2.428-3.627c.626-.876,1.775-2.546.795-4.481,1.83-1.237,2.419-2.833,1.924-5.18,1.234-1.062,1.234-3,1.234-4.094a26.9,26.9,0,0,0-26.87-26.87m0,52.384A25.543,25.543,0,0,1,167.8,193.317c0-1.4.115-2.786.95-3.421l.348-.265-.1-.427a3.942,3.942,0,0,1,1.468-4.583l.423-.343-.244-.487c-.525-1.048-.042-2.017.815-3.487a24.259,24.259,0,0,1,2.371-3.464,25.514,25.514,0,0,1,44.994,16.477c0,1.6-.166,2.755-.978,3.218l-.45.257.13.5c.59,2.283.144,3.414-1.768,4.484l-.671.375.456.619c.895,1.214.53,2.189-.456,3.565l-.067.117a14.837,14.837,0,0,1-2.254,3.368,25.482,25.482,0,0,1-19.455,9.009" transform="translate(-166.28 -166.28)" fill="#d9ff50"/>
                  </g>
                </g>
              </g>
              <g id="Group_97" data-name="Group 97" transform="translate(19.302 19.302)">
                <g id="Group_96" data-name="Group 96">
                  <g id="Group_95" data-name="Group 95" clip-path="url(#clip-path-9)">
                    <path id="Path_129" data-name="Path 129" d="M223.048,199.727a23.346,23.346,0,0,1,23.319,23.319c0,1.3-.113,2.614-.934,3.383a.334.334,0,0,0-.1.306,3.753,3.753,0,0,1-1.537,4.245.334.334,0,0,0-.109.407,3.6,3.6,0,0,1-.751,3.608.334.334,0,0,0-.03.052,14.367,14.367,0,0,1-2.1,3.107,23.318,23.318,0,0,1-41.081-15.108,5.167,5.167,0,0,1,.886-3.5.333.333,0,0,0,.082-.279,4.36,4.36,0,0,1,1.333-4.3.333.333,0,0,0,.091-.328c-.347-1.274.345-2.457.956-3.5a22.59,22.59,0,0,1,2.178-3.165,23.29,23.29,0,0,1,17.793-8.246m-20.035,15.294-.2.169a3.859,3.859,0,0,0-1.374,4.3l.044.205-.162.133c-.794.65-.9,1.932-.9,3.22a22.629,22.629,0,0,0,39.867,14.661,13.586,13.586,0,0,0,2.015-2.991l.048-.084a4.58,4.58,0,0,0,.857-1.693,2.162,2.162,0,0,0-.4-1.716l-.208-.3.317-.187c1.711-1.013,2.161-2.165,1.658-4.253l-.058-.241.21-.132c.79-.495.952-1.582.952-3.062a22.63,22.63,0,0,0-39.9-14.627,21.936,21.936,0,0,0-2.109,3.068c-.748,1.278-1.24,2.262-.767,3.3l.109.238m20.035-15.627A23.623,23.623,0,0,0,205,207.758a22.9,22.9,0,0,0-2.212,3.213c-.619,1.057-1.373,2.347-.99,3.756a4.709,4.709,0,0,0-1.431,4.6,5.446,5.446,0,0,0-.972,3.72,23.652,23.652,0,0,0,41.669,15.324,14.693,14.693,0,0,0,2.145-3.182,3.884,3.884,0,0,0,.783-3.938,4.1,4.1,0,0,0,1.669-4.578c.9-.846,1.039-2.233,1.039-3.627a23.679,23.679,0,0,0-23.653-23.653m0,45.949a22.322,22.322,0,0,1-22.3-22.3c0-1.206.095-2.4.781-2.962l.32-.262-.086-.4a3.53,3.53,0,0,1,1.263-3.974l.393-.332-.214-.468c-.407-.89.033-1.762.752-2.989a21.623,21.623,0,0,1,2.076-3.021,22.3,22.3,0,0,1,39.31,14.412c0,1.369-.135,2.366-.8,2.779l-.414.259.114.474c.466,1.937.073,2.955-1.5,3.888l-.624.369.41.6c.7,1.024.379,1.859-.464,3.04l-.064.111a13.22,13.22,0,0,1-1.972,2.928,22.271,22.271,0,0,1-16.983,7.851" transform="translate(-199.228 -199.227)" fill="#d9ff50"/>
                  </g>
                </g>
              </g>
              <g id="Group_100" data-name="Group 100" transform="translate(22.519 22.519)">
                <g id="Group_99" data-name="Group 99">
                  <g id="Group_98" data-name="Group 98" clip-path="url(#clip-path-10)">
                    <path id="Path_130" data-name="Path 130" d="M252.779,232.675a20.125,20.125,0,0,1,20.1,20.1,4.211,4.211,0,0,1-.756,2.924.333.333,0,0,0-.087.284,3.424,3.424,0,0,1-1.3,3.665.334.334,0,0,0-.107.38,3.314,3.314,0,0,1-.726,3.084.337.337,0,0,0-.028.048,12.755,12.755,0,0,1-1.814,2.665,20.1,20.1,0,0,1-35.392-13.05,4.753,4.753,0,0,1,.72-3.021.333.333,0,0,0,.072-.258,4.047,4.047,0,0,1,1.138-3.707.333.333,0,0,0,.087-.3,4.266,4.266,0,0,1,.877-3,19.024,19.024,0,0,1,1.882-2.722,20.079,20.079,0,0,1,15.326-7.094m-17.232,13.182-.18.161A3.5,3.5,0,0,0,234.2,249.7l.036.19-.143.13a3.732,3.732,0,0,0-.728,2.757,19.412,19.412,0,0,0,34.178,12.6,11.982,11.982,0,0,0,1.733-2.55l.045-.078c1-1.412.919-2.149.47-2.879l-.178-.289.286-.182c1.4-.892,1.774-1.881,1.391-3.651l-.048-.223.187-.132c.67-.472.762-1.537.762-2.618a19.413,19.413,0,0,0-34.214-12.562,18.379,18.379,0,0,0-1.813,2.625c-.636,1.082-1.059,1.915-.708,2.794l.089.224m17.232-13.515a20.411,20.411,0,0,0-15.58,7.211,19.349,19.349,0,0,0-1.915,2.769,4.567,4.567,0,0,0-.915,3.237,4.39,4.39,0,0,0-1.229,3.987,5.036,5.036,0,0,0-.8,3.232,20.435,20.435,0,0,0,35.979,13.266,13.085,13.085,0,0,0,1.861-2.737,3.6,3.6,0,0,0,.766-3.394,3.768,3.768,0,0,0,1.419-3.982,4.489,4.489,0,0,0,.847-3.154,20.459,20.459,0,0,0-20.436-20.436m0,39.515a19.1,19.1,0,0,1-19.08-19.08,3.5,3.5,0,0,1,.618-2.509l.282-.255-.071-.374a3.171,3.171,0,0,1,1.06-3.372l.353-.316-.176-.441c-.3-.739.08-1.47.686-2.5a18.046,18.046,0,0,1,1.78-2.578,19.08,19.08,0,0,1,33.626,12.347c0,.991-.075,1.961-.621,2.346l-.367.259.1.439c.352,1.625.027,2.489-1.244,3.3l-.562.359.35.568c.459.746.342,1.382-.467,2.523l-.06.1a11.627,11.627,0,0,1-1.692,2.49,19.06,19.06,0,0,1-14.512,6.694" transform="translate(-232.176 -232.175)" fill="#d9ff50"/>
                  </g>
                </g>
              </g>
              <g id="Group_103" data-name="Group 103" transform="translate(25.736 25.736)">
                <g id="Group_102" data-name="Group 102">
                  <g id="Group_101" data-name="Group 101" clip-path="url(#clip-path-11)">
                    <path id="Path_131" data-name="Path 131" d="M282.509,265.623a16.9,16.9,0,0,1,16.885,16.885,3.89,3.89,0,0,1-.583,2.466.333.333,0,0,0-.073.254,3.2,3.2,0,0,1-1.062,3.1.333.333,0,0,0-.1.342,3.025,3.025,0,0,1-.694,2.569.348.348,0,0,0-.025.042,11.152,11.152,0,0,1-1.532,2.223,16.884,16.884,0,0,1-29.7-10.991,4.372,4.372,0,0,1,.558-2.546.334.334,0,0,0,.061-.231,3.7,3.7,0,0,1,.948-3.122.334.334,0,0,0,.082-.269,3.99,3.99,0,0,1,.792-2.5,16.01,16.01,0,0,1,1.586-2.277,16.867,16.867,0,0,1,12.858-5.941m-14.433,11.071-.153.149a3.141,3.141,0,0,0-.96,3.075l.027.169-.119.123a3.38,3.38,0,0,0-.558,2.3A16.195,16.195,0,0,0,294.8,293.05a10.4,10.4,0,0,0,1.453-2.111l.041-.07c.6-.862.893-1.557.479-2.357l-.138-.266.244-.173a2.657,2.657,0,0,0,1.127-3.057l-.036-.2.155-.129a2.873,2.873,0,0,0,.578-2.182,16.2,16.2,0,0,0-28.53-10.5,15.382,15.382,0,0,0-1.518,2.181,2.915,2.915,0,0,0-.647,2.3l.065.2m14.433-11.4a17.2,17.2,0,0,0-13.112,6.059,16.327,16.327,0,0,0-1.619,2.323,4.291,4.291,0,0,0-.836,2.715,4.046,4.046,0,0,0-1.031,3.381,4.659,4.659,0,0,0-.621,2.74,17.218,17.218,0,0,0,30.288,11.208,11.484,11.484,0,0,0,1.577-2.291,3.326,3.326,0,0,0,.741-2.851,3.537,3.537,0,0,0,1.173-3.389,4.172,4.172,0,0,0,.658-2.677,17.238,17.238,0,0,0-17.219-17.219m0,33.081a15.881,15.881,0,0,1-15.863-15.863,3.2,3.2,0,0,1,.464-2.068l.233-.243-.052-.332a2.811,2.811,0,0,1,.863-2.784l.3-.292-.127-.4c-.189-.595.136-1.215.616-2.027a15.054,15.054,0,0,1,1.484-2.135,15.862,15.862,0,0,1,27.942,10.281c0,.763-.054,1.59-.458,1.925l-.3.253.071.39a2.342,2.342,0,0,1-.992,2.725l-.48.341.271.523c.3.579.179,1.109-.463,2.023l-.054.092a10.033,10.033,0,0,1-1.412,2.053,15.849,15.849,0,0,1-12.04,5.537" transform="translate(-265.123 -265.122)" fill="#d9ff50"/>
                  </g>
                </g>
              </g>
              <g id="Group_106" data-name="Group 106" transform="translate(28.953 28.953)">
                <g id="Group_105" data-name="Group 105">
                  <g id="Group_104" data-name="Group 104" clip-path="url(#clip-path-12)">
                    <path id="Path_132" data-name="Path 132" d="M312.241,298.573a13.683,13.683,0,0,1,13.668,13.668,3.644,3.644,0,0,1-.416,2.009.334.334,0,0,0-.055.212,3,3,0,0,1-.842,2.546.333.333,0,0,0-.091.287,2.868,2.868,0,0,1-.652,2.064.336.336,0,0,0-.02.034,9.637,9.637,0,0,1-1.249,1.782,13.667,13.667,0,0,1-24.012-8.933,4.148,4.148,0,0,1,.4-2.073.334.334,0,0,0,.046-.19,3.523,3.523,0,0,1,.764-2.553.333.333,0,0,0,.072-.223,3.686,3.686,0,0,1,.705-2.007,13.236,13.236,0,0,1,1.29-1.833,13.656,13.656,0,0,1,10.39-4.788m-11.64,8.961-.117.128a2.9,2.9,0,0,0-.759,2.478l.015.138-.085.11a3.175,3.175,0,0,0-.394,1.853,12.978,12.978,0,0,0,22.8,8.483,8.886,8.886,0,0,0,1.173-1.675l.034-.057a1.981,1.981,0,0,0,.484-1.854l-.084-.227.186-.156a2.448,2.448,0,0,0,.87-2.476l-.021-.161.111-.119a2.716,2.716,0,0,0,.4-1.758,12.979,12.979,0,0,0-22.846-8.432,12.566,12.566,0,0,0-1.222,1.738,2.722,2.722,0,0,0-.585,1.817l.034.17m11.64-9.295a13.989,13.989,0,0,0-10.644,4.9,13.559,13.559,0,0,0-1.323,1.879,3.97,3.97,0,0,0-.752,2.193,3.862,3.862,0,0,0-.835,2.782,4.441,4.441,0,0,0-.448,2.243,14,14,0,0,0,24.6,9.151,9.959,9.959,0,0,0,1.292-1.845,3.172,3.172,0,0,0,.706-2.306,3.344,3.344,0,0,0,.936-2.806,3.933,3.933,0,0,0,.472-2.194,14.017,14.017,0,0,0-14-14m0,26.647a12.66,12.66,0,0,1-12.646-12.646,2.984,2.984,0,0,1,.324-1.649l.167-.216-.029-.271a2.566,2.566,0,0,1,.674-2.219l.229-.252-.066-.335a2.5,2.5,0,0,1,.544-1.582,12.233,12.233,0,0,1,1.189-1.692,12.645,12.645,0,0,1,22.259,8.215,2.546,2.546,0,0,1-.314,1.53l-.218.233.041.317a2.128,2.128,0,0,1-.754,2.178l-.365.306.165.447c.159.431.037.853-.452,1.558l-.045.075a8.533,8.533,0,0,1-1.134,1.62,12.639,12.639,0,0,1-9.569,4.381" transform="translate(-298.072 -298.073)" fill="#d9ff50"/>
                  </g>
                </g>
              </g>
              <g id="Group_109" data-name="Group 109" transform="translate(32.17 32.17)">
                <g id="Group_108" data-name="Group 108">
                  <g id="Group_107" data-name="Group 107" clip-path="url(#clip-path-13)">
                    <path id="Path_133" data-name="Path 133" d="M341.971,331.521a10.463,10.463,0,0,1,10.451,10.451,3.717,3.717,0,0,1-.256,1.558.335.335,0,0,0-.032.143,3.169,3.169,0,0,1-.64,2.036.333.333,0,0,0-.068.195,3.037,3.037,0,0,1-.6,1.58l-.013.022a8.21,8.21,0,0,1-.968,1.342,10.45,10.45,0,0,1-18.321-6.876,4.178,4.178,0,0,1,.25-1.607.333.333,0,0,0,.027-.128,3.584,3.584,0,0,1,.591-2.017.332.332,0,0,0,.053-.149,3.78,3.78,0,0,1,.614-1.526,10.214,10.214,0,0,1,.994-1.388,10.445,10.445,0,0,1,7.922-3.635m-8.852,6.856-.065.09a2.955,2.955,0,0,0-.568,1.909l0,.088-.041.078a3.28,3.28,0,0,0-.239,1.43,9.761,9.761,0,0,0,17.113,6.422,7.49,7.49,0,0,0,.9-1.243l.023-.037a2.056,2.056,0,0,0,.489-1.394l-.017-.152.1-.115a2.551,2.551,0,0,0,.628-1.928l0-.1.053-.088a2.862,2.862,0,0,0,.242-1.363,9.762,9.762,0,0,0-17.162-6.366,9.519,9.519,0,0,0-.926,1.3,2.782,2.782,0,0,0-.525,1.366v.11m8.852-7.19a10.778,10.778,0,0,0-8.175,3.751,10.54,10.54,0,0,0-1.026,1.433,4.07,4.07,0,0,0-.661,1.665,3.926,3.926,0,0,0-.646,2.2,4.478,4.478,0,0,0-.277,1.738,10.784,10.784,0,0,0,18.905,7.1,8.55,8.55,0,0,0,1.008-1.4,3.344,3.344,0,0,0,.66-1.758,3.508,3.508,0,0,0,.708-2.24,4.013,4.013,0,0,0,.288-1.7,10.8,10.8,0,0,0-10.785-10.784m0,20.213a9.44,9.44,0,0,1-9.429-9.429,3.062,3.062,0,0,1,.2-1.276l.08-.154,0-.173a2.64,2.64,0,0,1,.5-1.707l.127-.176v-.217a2.527,2.527,0,0,1,.477-1.2,9.2,9.2,0,0,1,.894-1.251,9.429,9.429,0,0,1,16.576,6.149,2.657,2.657,0,0,1-.195,1.192l-.1.173.008.2a2.213,2.213,0,0,1-.545,1.694l-.2.226.034.3a1.786,1.786,0,0,1-.438,1.175l-.03.049a7.156,7.156,0,0,1-.859,1.192,9.429,9.429,0,0,1-7.1,3.226" transform="translate(-331.019 -331.021)" fill="#d9ff50"/>
                  </g>
                </g>
              </g>
              <g id="Group_112" data-name="Group 112" transform="translate(35.387 35.387)">
                <g id="Group_111" data-name="Group 111">
                  <g id="Group_110" data-name="Group 110" clip-path="url(#clip-path-14)">
                    <path id="Path_134" data-name="Path 134" d="M371.7,364.468a7.234,7.234,0,1,1-7.234,7.234,7.242,7.242,0,0,1,7.234-7.234m0,13.779a6.545,6.545,0,1,0-6.545-6.545,6.553,6.553,0,0,0,6.545,6.545m0-14.113a7.568,7.568,0,1,0,7.568,7.567,7.576,7.576,0,0,0-7.568-7.567m0,13.779a6.212,6.212,0,1,1,6.212-6.212,6.219,6.219,0,0,1-6.212,6.212" transform="translate(-363.967 -363.968)" fill="#d9ff50"/>
                  </g>
                </g>
              </g>
            </g>
          </g>
        </g>
      </g>
    </g>
    <path id="Path_5160" data-name="Path 5160" d="M9.742,0H12.1l-3.3-26.833H4.4L1.108,0H3.471l.7-5.892H9.042ZM4.433-7.962,6.417-24.617H6.8L8.779-7.962Zm21.846-16.8v-2.071H19.454V0H21.9V-12.308h4.375V-14.35H21.9V-24.762Zm12.337-2.071H36.2v22.4c0,1.983-.992,2.625-2.158,2.625-1.2,0-2.158-.642-2.158-2.625v-22.4h-2.45v22.4c0,3.587,1.983,4.7,4.608,4.7,2.6,0,4.579-1.108,4.579-4.7Zm5.6,24.762V-26.833h-2.45V0h7.262V-2.071Zm10.237,0V-26.833H52V0h7.262V-2.071Zm7.788-10.267h6.417V-14.5H62.242Zm18.579-6.1v-4c0-3.529-1.867-4.667-4.492-4.667s-4.521,1.137-4.521,4.667v3.646c0,6.446,6.679,5.8,6.679,10.85V-4.4c0,1.983-.963,2.6-2.158,2.6-1.254,0-2.187-.612-2.187-2.6v-4H71.779v4c0,3.529,1.925,4.667,4.55,4.667s4.55-1.137,4.55-4.667V-8.05c0-6.446-6.679-5.8-6.679-10.85v-3.529c0-1.983.933-2.6,2.129-2.6s2.129.612,2.129,2.6v4Zm9.858-6.329v-2.071H83.854V0h6.825V-2.071H86.3V-12.4h4.317v-2.042H86.3V-24.762ZM103.279,0l-2.187-9.45c1.225-.7,1.779-1.983,1.779-4.025v-8.633c0-3.237-.642-4.725-4.2-4.725H93.829V0h2.45V-8.867H99.05L101.062,0Zm-7-10.762V-24.792H98.2c1.75,0,2.275.583,2.275,2.625v8.75c0,1.837-.408,2.508-1.721,2.625Zm8.429-16.071L108,0h4.4l3.3-26.833h-2.362L110.4-2.217h-.379l-2.946-24.617ZM118.387,0h2.45V-26.833h-2.45Zm14.787-8.6h-2.421v4.171c0,2.012-.992,2.625-2.158,2.625-1.2,0-2.158-.612-2.158-2.625V-22.4c0-1.983.963-2.625,2.158-2.625,1.167,0,2.158.642,2.158,2.625v4.112h2.421V-22.4c0-3.587-1.983-4.7-4.579-4.7-2.625,0-4.608,1.108-4.608,4.7v18c0,3.587,1.983,4.7,4.608,4.7,2.6,0,4.579-1.108,4.579-4.7Zm9.975-16.158v-2.071h-6.825V0h6.825V-2.071h-4.375V-12.4h4.317v-2.042h-4.317V-24.762Zm12.017,6.329v-4c0-3.529-1.867-4.667-4.492-4.667s-4.521,1.137-4.521,4.667v3.646c0,6.446,6.679,5.8,6.679,10.85V-4.4c0,1.983-.963,2.6-2.158,2.6-1.254,0-2.187-.612-2.187-2.6v-4h-2.362v4c0,3.529,1.925,4.667,4.55,4.667s4.55-1.137,4.55-4.667V-8.05c0-6.446-6.679-5.8-6.679-10.85v-3.529c0-1.983.933-2.6,2.129-2.6s2.129.612,2.129,2.6v4ZM172.054-8.6h-2.421v4.171c0,2.012-.992,2.625-2.158,2.625-1.2,0-2.158-.612-2.158-2.625V-22.4c0-1.983.963-2.625,2.158-2.625,1.167,0,2.158.642,2.158,2.625v4.112h2.421V-22.4c0-3.587-1.983-4.7-4.579-4.7-2.625,0-4.608,1.108-4.608,4.7v18c0,3.587,1.983,4.7,4.608,4.7,2.6,0,4.579-1.108,4.579-4.7Zm12.6,8.6-2.187-9.45c1.225-.7,1.779-1.983,1.779-4.025v-8.633c0-3.237-.642-4.725-4.2-4.725H175.2V0h2.45V-8.867h2.771L182.437,0Zm-7-10.762V-24.792h1.925c1.75,0,2.275.583,2.275,2.625v8.75c0,1.837-.408,2.508-1.721,2.625Zm16.392-14v-2.071h-6.825V0h6.825V-2.071h-4.375V-12.4h4.317v-2.042h-4.317V-24.762ZM205.129,0h2.363l-3.3-26.833h-4.4L196.5,0h2.362l.7-5.892h4.871Zm-5.308-7.962L201.8-24.617h.379l1.983,16.654Zm17.15-18.871h-9.217v2.071h3.383V0h2.45V-24.762h3.383ZM219.712,0h2.45V-26.833h-2.45Zm5.133-26.833L228.142,0h4.4l3.3-26.833h-2.363L230.533-2.217h-.379l-2.946-24.617Zm20.5,2.071v-2.071h-6.825V0h6.825V-2.071h-4.375V-12.4h4.317v-2.042h-4.317V-24.762Zm16.829,6.329v-4c0-3.529-1.867-4.667-4.492-4.667s-4.521,1.137-4.521,4.667v3.646c0,6.446,6.679,5.8,6.679,10.85V-4.4c0,1.983-.962,2.6-2.158,2.6-1.254,0-2.188-.612-2.188-2.6v-4h-2.362v4c0,3.529,1.925,4.667,4.55,4.667s4.55-1.137,4.55-4.667V-8.05c0-6.446-6.679-5.8-6.679-10.85v-3.529c0-1.983.933-2.6,2.129-2.6s2.129.612,2.129,2.6v4Zm11-8.4h-9.217v2.071h3.383V0h2.45V-24.762h3.383Zm11.929,0h-2.421v22.4c0,1.983-.992,2.625-2.158,2.625-1.2,0-2.158-.642-2.158-2.625v-22.4h-2.45v22.4c0,3.587,1.983,4.7,4.608,4.7,2.6,0,4.579-1.108,4.579-4.7Zm8.079,0h-4.929V0h4.929c3.587,0,4.258-1.487,4.258-4.725V-22.108C297.442-25.346,296.771-26.833,293.183-26.833ZM294.992-4.7c0,2.071-.525,2.625-2.3,2.625H290.7V-24.762h1.983c1.779,0,2.3.554,2.3,2.625Zm5.6,4.7h2.45V-26.833h-2.45ZM310.8-27.1c-2.625,0-4.608,1.108-4.608,4.7V-4.433c0,3.587,1.983,4.7,4.608,4.7,2.6,0,4.579-1.108,4.579-4.7V-22.4C315.379-25.987,313.4-27.1,310.8-27.1Zm2.158,4.7V-4.433c0,1.983-.992,2.625-2.158,2.625-1.2,0-2.158-.642-2.158-2.625V-22.4c0-1.983.962-2.625,2.158-2.625C311.967-25.025,312.958-24.383,312.958-22.4ZM319,.262a1.426,1.426,0,0,0,1.429-1.4A1.431,1.431,0,0,0,319-2.567a1.431,1.431,0,0,0-1.429,1.429A1.426,1.426,0,0,0,319,.262Z" transform="translate(153 886.242) rotate(-90)" fill="#f8f9fa"/>
  </g>
</svg>
