<svg xmlns="http://www.w3.org/2000/svg" xmlns:xlink="http://www.w3.org/1999/xlink" width="299.562" height="291.943" viewBox="0 0 299.562 291.943">

  <g id="Group_1963" data-name="Group 1963" transform="translate(0 137.138) rotate(-50)">
    <g id="Group_1959" data-name="Group 1959">
      <path id="Path_5441" data-name="Path 5441" d="M86.1,99.753c2.93-3,5.233-5.932,8.112-8.1,2.149-1.622,5.016-2.326,7.616-3.3,1.1-.412,1.992-.667,2.315-2.058,1.731-7.438,3.577-14.848,5.371-22.271a14.013,14.013,0,0,0,.156-1.648c-4.455,1.353-8.587,2.706-12.775,3.849-3.335.911-6.588,2.4-10.258,1.168a9.68,9.68,0,0,1-6.6-6.216,56.026,56.026,0,0,1-2.009-7.634C77.138,48.806,80,43.015,85.337,42.165c3.972-.633,8.013-.836,12.025-1.211a16.969,16.969,0,0,0,4.7-.849c-6.009-3.927-12-7.876-18.032-11.77a11.088,11.088,0,0,1-5.394-7.4,10.333,10.333,0,0,1,3.888-10.47,58.247,58.247,0,0,1,5.711-3.771C92.734,4.2,97.911,4.542,102.2,8.7c5.429,5.253,10.967,10.394,16.461,15.58.374.353.778.675,1.507,1.3.924-4.3,1.659-8.327,2.677-12.277.821-3.186,1.476-6.588,3.122-9.345,2.094-3.507,5.86-4.483,9.888-3.709,2.237.43,4.413,1.237,6.661,1.539,4.643.624,8.626,6.73,7.084,11.671-1.452,4.655-3.557,9.106-5.5,13.967.777-.3,1.525-.551,2.238-.877,5.348-2.44,10.671-4.933,16.037-7.332,4.248-1.9,8.471-2.219,12.407.795a10.294,10.294,0,0,1,2.115,2.3c3.882,5.6,2.2,17.491-3.114,20.8-1.722,1.073-3.9,1.455-5.91,2.014a74.092,74.092,0,0,0-9.6,3.027c4.106,1.326,8.191,2.722,12.323,3.96,4.632,1.389,7.816,4.168,8.212,9.126a16.2,16.2,0,0,1-1.153,6.574,24.2,24.2,0,0,1-3.2,5.419,10.513,10.513,0,0,1-14.192,3.12c-2.578-1.469-5.089-3.057-7.793-4.69,1.157,13.123-1.755,25.173-7.1,36.764a3.138,3.138,0,0,0,.205,2.563,40.951,40.951,0,0,1,5.951,17.032c1.005,7.964-.8,15.357-6.9,20.921-3.06,2.788-3.726,5.3-3.023,9.461,3.4,20.1-1.474,38.379-13.724,54.568C115.736,229.015,99.3,237.994,79.5,240.3c-22.019,2.564-41.339-4.142-57.51-19.215C10.3,210.191,3.624,196.469.952,180.711c-6.035-35.589,17.143-72.6,54.392-80.622,11.6-2.5,17.132-2.712,30.757-.335" transform="translate(1.249 -1.048)" fill="#794d92"/>
      <path id="Path_5442" data-name="Path 5442" d="M43.253,284.249a48.9,48.9,0,1,0,49.791-47.983h0A48.9,48.9,0,0,0,43.253,284.249Z" transform="translate(-20.379 -111.334)" fill="none" stroke="#000" stroke-width="1.808"/>
      <path id="Path_5443" data-name="Path 5443" d="M90.475,206.724c.462,1.244,7.671-2.612,12.386-11.21a.539.539,0,0,1,.065.021l4.792-7.853h.029a12.15,12.15,0,0,1,1.922-2.488c7.337-7.159,22.345-3.677,33.519,7.777s14.287,26.543,6.948,33.7l-8.245,8.158.012.038c-7.572,6-10.166,13.591-8.877,13.847.954.539,4.4-4.011,10.437-8.215a62.015,62.015,0,1,1-46-46.539c-3.26,7.315-7.715,11.858-6.99,12.763" transform="translate(-9.88 -85.518)" fill="#211d1e"/>
      <g id="Path_5509" data-name="Path 5509" transform="translate(2895.42 1576.087)" fill="#fff">
        <path d="M -2727.66796875 -1508.013427734375 C -2727.9501953125 -1508.013427734375 -2728.226318359375 -1508.091674804688 -2728.466796875 -1508.239624023438 L -2748.767333984375 -1520.662841796875 C -2748.95263671875 -1520.774658203125 -2749.112060546875 -1520.9248046875 -2749.23828125 -1521.107666015625 L -2749.24072265625 -1521.111083984375 L -2749.242919921875 -1521.114624023438 C -2749.40966796875 -1521.365112304688 -2749.49853515625 -1521.656127929688 -2749.5 -1521.955932617188 C -2749.502197265625 -1522.474365234375 -2749.24658203125 -1522.955078125 -2748.816162109375 -1523.242309570312 C -2748.563232421875 -1523.411010742188 -2748.269287109375 -1523.500122070312 -2747.9658203125 -1523.500122070312 C -2747.80712890625 -1523.500122070312 -2747.650146484375 -1523.4755859375 -2747.4990234375 -1523.427124023438 L -2724.34619140625 -1515.969360351562 C -2723.71240234375 -1515.76513671875 -2723.28564453125 -1515.181274414062 -2723.2841796875 -1514.516357421875 C -2723.283447265625 -1514.358154296875 -2723.30810546875 -1514.19921875 -2723.357177734375 -1514.045166015625 C -2723.387939453125 -1513.94775390625 -2723.431640625 -1513.848754882812 -2723.486572265625 -1513.751953125 L -2726.34033203125 -1508.779663085938 C -2726.54833984375 -1508.422241210938 -2726.89501953125 -1508.161010742188 -2727.292724609375 -1508.060302734375 C -2727.4140625 -1508.029296875 -2727.540771484375 -1508.013427734375 -2727.66796875 -1508.013427734375 Z" stroke="none"/>
        <path d="M -2727.66796875 -1508.513427734375 C -2727.58349609375 -1508.513427734375 -2727.49853515625 -1508.523803710938 -2727.41552734375 -1508.545043945312 C -2727.14501953125 -1508.613525390625 -2726.9140625 -1508.787841796875 -2726.77392578125 -1509.028564453125 L -2723.92138671875 -1513.998657226562 C -2723.8857421875 -1514.0615234375 -2723.85546875 -1514.127685546875 -2723.83349609375 -1514.197143554688 C -2723.7998046875 -1514.302734375 -2723.78369140625 -1514.409912109375 -2723.7841796875 -1514.515258789062 C -2723.78515625 -1514.949462890625 -2724.0634765625 -1515.352905273438 -2724.49951171875 -1515.493408203125 L -2747.6513671875 -1522.950927734375 C -2747.950439453125 -1523.046875 -2748.277099609375 -1523.000854492188 -2748.53857421875 -1522.826416015625 C -2748.83935546875 -1522.625732421875 -2749.00146484375 -1522.294921875 -2749 -1521.95849609375 C -2748.9990234375 -1521.763427734375 -2748.94287109375 -1521.566284179688 -2748.82666015625 -1521.3916015625 C -2748.7421875 -1521.269165039062 -2748.63330078125 -1521.165893554688 -2748.50634765625 -1521.08935546875 L -2728.20458984375 -1508.665405273438 C -2728.0419921875 -1508.565307617188 -2727.85595703125 -1508.513427734375 -2727.66796875 -1508.513427734375 M -2727.66796875 -1507.513427734375 C -2728.042724609375 -1507.513427734375 -2728.40966796875 -1507.617309570312 -2728.728759765625 -1507.813842773438 L -2749.0263671875 -1520.235229492188 C -2749.274169921875 -1520.38525390625 -2749.48388671875 -1520.583251953125 -2749.649658203125 -1520.82373046875 L -2749.6591796875 -1520.837646484375 C -2749.880126953125 -1521.169799804688 -2749.998046875 -1521.555541992188 -2750 -1521.953491210938 C -2750.0029296875 -1522.640502929688 -2749.6640625 -1523.277587890625 -2749.093505859375 -1523.658203125 C -2748.75830078125 -1523.881958007812 -2748.368408203125 -1524.000122070312 -2747.9658203125 -1524.000122070312 C -2747.75537109375 -1524.000122070312 -2747.547119140625 -1523.967529296875 -2747.346435546875 -1523.9033203125 L -2724.19287109375 -1516.445190429688 C -2723.352294921875 -1516.17431640625 -2722.7861328125 -1515.399658203125 -2722.7841796875 -1514.517578125 C -2722.783203125 -1514.30810546875 -2722.815673828125 -1514.09716796875 -2722.880859375 -1513.893188476562 C -2722.921875 -1513.763671875 -2722.9794921875 -1513.632446289062 -2723.051513671875 -1513.50537109375 L -2723.05419921875 -1513.500854492188 L -2725.90966796875 -1508.525512695312 C -2726.183349609375 -1508.055297851562 -2726.642822265625 -1507.709106445312 -2727.170166015625 -1507.57568359375 C -2727.33056640625 -1507.534545898438 -2727.498779296875 -1507.513427734375 -2727.66796875 -1507.513427734375 Z" stroke="none" fill="#fff"/>
      </g>
      <g id="Path_5511" data-name="Path 5511" transform="translate(2878.84 1531.296)" fill="#fff">
        <path d="M -2748.0087890625 -1496.908935546875 C -2748.2392578125 -1496.908935546875 -2748.461181640625 -1496.960571289062 -2748.668701171875 -1497.062377929688 C -2748.899169921875 -1497.17529296875 -2749.09814453125 -1497.346435546875 -2749.24365234375 -1497.557250976562 L -2749.2373046875 -1497.564453125 L -2749.244140625 -1497.559814453125 C -2749.412109375 -1497.807861328125 -2749.50048828125 -1498.09765625 -2749.499755859375 -1498.397705078125 C -2749.499267578125 -1498.505004882812 -2749.487548828125 -1498.611938476562 -2749.46435546875 -1498.715942382812 L -2744.426513671875 -1522.315307617188 C -2744.281982421875 -1523.001220703125 -2743.668212890625 -1523.5 -2742.967041015625 -1523.5 C -2742.86669921875 -1523.5 -2742.765625 -1523.489624023438 -2742.66650390625 -1523.469360351562 C -2742.65185546875 -1523.466674804688 -2742.63720703125 -1523.463500976562 -2742.62255859375 -1523.460083007812 L -2742.616943359375 -1523.458740234375 L -2742.612548828125 -1523.457763671875 L -2742.6083984375 -1523.456787109375 L -2736.96533203125 -1522.084716796875 C -2736.29345703125 -1521.921264648438 -2735.82421875 -1521.324462890625 -2735.82421875 -1520.633544921875 C -2735.82421875 -1520.51513671875 -2735.83837890625 -1520.396118164062 -2735.866455078125 -1520.279663085938 C -2735.890869140625 -1520.179321289062 -2735.925537109375 -1520.081787109375 -2735.969482421875 -1519.988525390625 L -2746.6572265625 -1497.753662109375 C -2746.913330078125 -1497.231201171875 -2747.4306640625 -1496.908935546875 -2748.0087890625 -1496.908935546875 Z" stroke="none"/>
        <path d="M -2748.0087890625 -1497.408935546875 C -2747.63818359375 -1497.408935546875 -2747.281982421875 -1497.615234375 -2747.10791015625 -1497.97021484375 L -2736.421630859375 -1520.2021484375 C -2736.39208984375 -1520.2646484375 -2736.368896484375 -1520.32958984375 -2736.3525390625 -1520.396728515625 C -2736.33349609375 -1520.475830078125 -2736.32421875 -1520.555419921875 -2736.32421875 -1520.633544921875 C -2736.32421875 -1521.08154296875 -2736.62890625 -1521.48828125 -2737.08349609375 -1521.598876953125 L -2742.7265625 -1522.970947265625 C -2742.738525390625 -1522.9736328125 -2742.75 -1522.9765625 -2742.76171875 -1522.978515625 C -2743.29931640625 -1523.092529296875 -2743.824462890625 -1522.747680664062 -2743.9375 -1522.2109375 L -2748.975830078125 -1498.609619140625 C -2748.99169921875 -1498.538818359375 -2748.99951171875 -1498.467529296875 -2748.999755859375 -1498.396484375 C -2749.000244140625 -1498.19970703125 -2748.942138671875 -1498.005615234375 -2748.830078125 -1497.840087890625 L -2748.832275390625 -1497.84130859375 C -2748.73486328125 -1497.7001953125 -2748.6025390625 -1497.586669921875 -2748.448486328125 -1497.51123046875 C -2748.306640625 -1497.441650390625 -2748.156494140625 -1497.408935546875 -2748.0087890625 -1497.408935546875 M -2748.0087890625 -1496.408935546875 C -2748.311767578125 -1496.408935546875 -2748.6162109375 -1496.479614257812 -2748.888916015625 -1496.613403320312 C -2749.196044921875 -1496.763793945312 -2749.461181640625 -1496.992065429688 -2749.6552734375 -1497.273193359375 L -2749.635986328125 -1497.294555664062 L -2749.658203125 -1497.279418945312 C -2749.882568359375 -1497.610961914062 -2750.000732421875 -1497.998168945312 -2749.999755859375 -1498.39892578125 C -2749.999267578125 -1498.542358398438 -2749.9833984375 -1498.684814453125 -2749.95263671875 -1498.823608398438 L -2744.91552734375 -1522.419677734375 C -2744.722900390625 -1523.334228515625 -2743.9033203125 -1524 -2742.967041015625 -1524 C -2742.834228515625 -1524 -2742.70068359375 -1523.986572265625 -2742.56982421875 -1523.9599609375 C -2742.5498046875 -1523.956176757812 -2742.52978515625 -1523.951782226562 -2742.50927734375 -1523.947143554688 L -2742.490234375 -1523.942626953125 L -2736.84716796875 -1522.570556640625 C -2735.950439453125 -1522.352416992188 -2735.32421875 -1521.555908203125 -2735.32421875 -1520.633544921875 C -2735.32421875 -1520.475708007812 -2735.343017578125 -1520.3173828125 -2735.38037109375 -1520.162719726562 C -2735.4130859375 -1520.028198242188 -2735.458984375 -1519.898559570312 -2735.517578125 -1519.774780273438 L -2735.520263671875 -1519.768920898438 L -2746.2099609375 -1497.529907226562 C -2746.549072265625 -1496.838500976562 -2747.23828125 -1496.408935546875 -2748.0087890625 -1496.408935546875 Z" stroke="none" fill="#fff"/>
      </g>
      <g id="Path_5508" data-name="Path 5508" transform="translate(2837.968 1571.638)" fill="#fff">
        <path d="M -2746.476806640625 -1513.50634765625 L -2746.477294921875 -1513.50634765625 C -2746.972900390625 -1513.50634765625 -2747.434814453125 -1513.751342773438 -2747.713134765625 -1514.161743164062 C -2747.804443359375 -1514.295532226562 -2747.8740234375 -1514.445434570312 -2747.918701171875 -1514.605712890625 L -2749.4482421875 -1520.2138671875 C -2749.483154296875 -1520.34375 -2749.50048828125 -1520.47509765625 -2749.50048828125 -1520.606323242188 C -2749.499267578125 -1521.280883789062 -2749.0439453125 -1521.8740234375 -2748.39306640625 -1522.049438476562 C -2748.29541015625 -1522.076049804688 -2748.192626953125 -1522.092895507812 -2748.08935546875 -1522.098754882812 L -2723.4638671875 -1523.497192382812 C -2723.435302734375 -1523.4990234375 -2723.403564453125 -1523.5 -2723.372314453125 -1523.5 C -2722.585205078125 -1523.5 -2721.9296875 -1522.88427734375 -2721.880126953125 -1522.098266601562 C -2721.878173828125 -1522.067260742188 -2721.877197265625 -1522.03466796875 -2721.877197265625 -1522.002075195312 C -2721.8779296875 -1521.3369140625 -2722.306640625 -1520.762329101562 -2722.94384765625 -1520.571899414062 L -2746.040283203125 -1513.571533203125 C -2746.18017578125 -1513.528442382812 -2746.32763671875 -1513.50634765625 -2746.476806640625 -1513.50634765625 Z" stroke="none"/>
        <path d="M -2746.47705078125 -1514.00634765625 C -2746.47705078125 -1514.00634765625 -2746.476806640625 -1514.00634765625 -2746.476806640625 -1514.00634765625 C -2746.3798828125 -1514.00634765625 -2746.28125 -1514.0205078125 -2746.185302734375 -1514.050048828125 L -2723.087158203125 -1521.050903320312 C -2722.6640625 -1521.177368164062 -2722.377685546875 -1521.565795898438 -2722.377197265625 -1522.002075195312 C -2722.377197265625 -1522.023559570312 -2722.377685546875 -1522.045043945312 -2722.379150390625 -1522.066772460938 C -2722.412353515625 -1522.5947265625 -2722.85107421875 -1523 -2723.372314453125 -1523 C -2723.39306640625 -1523 -2723.414306640625 -1522.999389648438 -2723.435546875 -1522.998046875 L -2748.060791015625 -1521.599609375 C -2748.128662109375 -1521.595703125 -2748.19677734375 -1521.584716796875 -2748.262939453125 -1521.566650390625 C -2748.707275390625 -1521.446899414062 -2748.999755859375 -1521.045166015625 -2749.00048828125 -1520.606323242188 C -2749.00048828125 -1520.520141601562 -2748.9892578125 -1520.432739257812 -2748.9658203125 -1520.345458984375 L -2747.437255859375 -1514.740478515625 C -2747.407470703125 -1514.634033203125 -2747.361083984375 -1514.533081054688 -2747.299072265625 -1514.442260742188 C -2747.11083984375 -1514.16455078125 -2746.80029296875 -1514.00634765625 -2746.47705078125 -1514.00634765625 M -2746.476806640625 -1513.00634765625 L -2746.477294921875 -1513.00634765625 C -2747.138916015625 -1513.00634765625 -2747.755615234375 -1513.33349609375 -2748.126953125 -1513.88134765625 C -2748.248046875 -1514.058715820312 -2748.3408203125 -1514.258056640625 -2748.400390625 -1514.471069335938 L -2748.402099609375 -1514.477416992188 L -2749.9306640625 -1520.082397460938 C -2749.977294921875 -1520.25634765625 -2750.00048828125 -1520.431396484375 -2750.00048828125 -1520.606323242188 C -2749.9990234375 -1521.506958007812 -2749.3916015625 -1522.298217773438 -2748.523193359375 -1522.5322265625 C -2748.3935546875 -1522.567626953125 -2748.256103515625 -1522.590087890625 -2748.1181640625 -1522.597900390625 L -2723.49560546875 -1523.996215820312 C -2723.45458984375 -1523.998779296875 -2723.4130859375 -1524 -2723.372314453125 -1524 C -2722.322021484375 -1524 -2721.447265625 -1523.178466796875 -2721.381103515625 -1522.129760742188 C -2721.378662109375 -1522.091796875 -2721.377197265625 -1522.048706054688 -2721.377197265625 -1522.002075195312 C -2721.378173828125 -1521.11376953125 -2721.9501953125 -1520.347045898438 -2722.80078125 -1520.0927734375 L -2745.895263671875 -1513.093017578125 C -2746.08056640625 -1513.035888671875 -2746.27783203125 -1513.00634765625 -2746.476806640625 -1513.00634765625 Z" stroke="none" fill="#fff"/>
      </g>
      <g id="Path_5510" data-name="Path 5510" transform="translate(2887.399 1549.117)" fill="#fff">
        <path d="M -2747.95703125 -1506.35546875 C -2748.463623046875 -1506.35546875 -2748.9365234375 -1506.605346679688 -2749.2216796875 -1507.023803710938 L -2749.22314453125 -1507.02587890625 L -2749.224609375 -1507.028076171875 C -2749.30126953125 -1507.143188476562 -2749.3623046875 -1507.265502929688 -2749.40576171875 -1507.391723632812 C -2749.466796875 -1507.557250976562 -2749.498291015625 -1507.730834960938 -2749.499755859375 -1507.90771484375 C -2749.50341796875 -1508.518920898438 -2749.145263671875 -1509.0712890625 -2748.5869140625 -1509.317504882812 L -2717.896484375 -1523.358520507812 C -2717.694580078125 -1523.4521484375 -2717.4765625 -1523.500244140625 -2717.25146484375 -1523.500244140625 C -2716.955810546875 -1523.500244140625 -2716.667724609375 -1523.415771484375 -2716.418212890625 -1523.255981445312 C -2715.974609375 -1522.971801757812 -2715.707275390625 -1522.487915039062 -2715.703369140625 -1521.961669921875 L -2715.654296875 -1515.7314453125 C -2715.6513671875 -1515.016235351562 -2716.1318359375 -1514.396118164062 -2716.822509765625 -1514.221557617188 L -2747.5615234375 -1506.407592773438 C -2747.691162109375 -1506.373046875 -2747.82421875 -1506.35546875 -2747.95703125 -1506.35546875 Z" stroke="none"/>
        <path d="M -2747.95703125 -1506.85546875 C -2747.867431640625 -1506.85546875 -2747.777099609375 -1506.867309570312 -2747.687744140625 -1506.891479492188 L -2716.945068359375 -1514.706298828125 C -2716.478515625 -1514.82421875 -2716.15234375 -1515.24560546875 -2716.154296875 -1515.7275390625 L -2716.203369140625 -1521.957885742188 C -2716.2060546875 -1522.313354492188 -2716.388427734375 -1522.64306640625 -2716.68798828125 -1522.8349609375 C -2716.988037109375 -1523.027221679688 -2717.364990234375 -1523.053833007812 -2717.6884765625 -1522.90380859375 L -2748.382080078125 -1508.861450195312 C -2748.76904296875 -1508.692260742188 -2749.002197265625 -1508.312255859375 -2748.999755859375 -1507.911865234375 C -2748.998779296875 -1507.794555664062 -2748.97802734375 -1507.675415039062 -2748.934814453125 -1507.5595703125 C -2748.904296875 -1507.469604492188 -2748.861328125 -1507.384521484375 -2748.80859375 -1507.305419921875 C -2748.613525390625 -1507.019287109375 -2748.2919921875 -1506.85546875 -2747.95703125 -1506.85546875 M -2747.95703125 -1505.85546875 C -2748.629150390625 -1505.85546875 -2749.25634765625 -1506.186889648438 -2749.634765625 -1506.7421875 L -2749.640625 -1506.750610351562 C -2749.740234375 -1506.89990234375 -2749.819580078125 -1507.059204101562 -2749.876953125 -1507.22412109375 C -2749.95654296875 -1507.442260742188 -2749.997802734375 -1507.670654296875 -2749.999755859375 -1507.903564453125 C -2750.004638671875 -1508.714233398438 -2749.53076171875 -1509.446411132812 -2748.79150390625 -1509.773803710938 L -2718.106689453125 -1523.812255859375 C -2717.836669921875 -1523.93701171875 -2717.548828125 -1524.000244140625 -2717.25146484375 -1524.000244140625 C -2716.85986328125 -1524.000244140625 -2716.478515625 -1523.888427734375 -2716.1484375 -1523.676879882812 C -2715.56201171875 -1523.30126953125 -2715.208740234375 -1522.661376953125 -2715.203369140625 -1521.965454101562 L -2715.154296875 -1515.735473632812 C -2715.150390625 -1514.7880859375 -2715.7861328125 -1513.9677734375 -2716.699951171875 -1513.73681640625 L -2747.435302734375 -1505.923828125 C -2747.60595703125 -1505.87841796875 -2747.781494140625 -1505.85546875 -2747.95703125 -1505.85546875 Z" stroke="none" fill="#fff"/>
      </g>
      <g id="Path_5507" data-name="Path 5507" transform="translate(2838.51 1536.425)" fill="#fff">
        <path d="M -2719.695556640625 -1498.5712890625 C -2719.99755859375 -1498.5712890625 -2720.290771484375 -1498.658569335938 -2720.543212890625 -1498.82373046875 L -2748.79736328125 -1517.287475585938 C -2749.23486328125 -1517.572998046875 -2749.49755859375 -1518.056030273438 -2749.499755859375 -1518.579345703125 C -2749.5009765625 -1518.881713867188 -2749.413818359375 -1519.176025390625 -2749.248291015625 -1519.4306640625 C -2749.127197265625 -1519.615356445312 -2748.972412109375 -1519.768676757812 -2748.787109375 -1519.887573242188 L -2743.54833984375 -1523.25341796875 C -2743.29931640625 -1523.414306640625 -2743.010009765625 -1523.499633789062 -2742.71240234375 -1523.499633789062 C -2742.312744140625 -1523.499633789062 -2741.933349609375 -1523.347534179688 -2741.64453125 -1523.071411132812 L -2718.63037109375 -1501.24462890625 C -2718.32470703125 -1500.955322265625 -2718.1484375 -1500.547485351562 -2718.146484375 -1500.1259765625 C -2718.14501953125 -1499.7255859375 -2718.29541015625 -1499.345458984375 -2718.5703125 -1499.055297851562 C -2718.861572265625 -1498.747680664062 -2719.271728515625 -1498.5712890625 -2719.695556640625 -1498.5712890625 Z" stroke="none"/>
        <path d="M -2719.695556640625 -1499.0712890625 C -2719.41552734375 -1499.0712890625 -2719.137939453125 -1499.18310546875 -2718.933349609375 -1499.399169921875 C -2718.740478515625 -1499.602783203125 -2718.6455078125 -1499.863525390625 -2718.646484375 -1500.123779296875 C -2718.647705078125 -1500.400634765625 -2718.7578125 -1500.6767578125 -2718.974365234375 -1500.8818359375 L -2741.989990234375 -1522.7099609375 C -2742.33935546875 -1523.0439453125 -2742.87255859375 -1523.09521484375 -2743.278076171875 -1522.832763671875 L -2748.51708984375 -1519.466796875 C -2748.641845703125 -1519.38671875 -2748.748046875 -1519.28173828125 -2748.8291015625 -1519.157958984375 C -2748.945068359375 -1518.979736328125 -2749.00048828125 -1518.779296875 -2748.999755859375 -1518.58154296875 C -2748.998291015625 -1518.240234375 -2748.8310546875 -1517.906494140625 -2748.52392578125 -1517.7060546875 L -2720.26953125 -1499.2421875 C -2720.09375 -1499.127197265625 -2719.894287109375 -1499.0712890625 -2719.695556640625 -1499.0712890625 M -2719.695556640625 -1498.0712890625 C -2720.09521484375 -1498.0712890625 -2720.48291015625 -1498.186767578125 -2720.81689453125 -1498.405395507812 L -2749.071044921875 -1516.868896484375 C -2749.6494140625 -1517.246459960938 -2749.996826171875 -1517.885131835938 -2749.999755859375 -1518.577270507812 C -2750.001220703125 -1518.977661132812 -2749.88623046875 -1519.366821289062 -2749.667236328125 -1519.703369140625 C -2749.5068359375 -1519.948486328125 -2749.302001953125 -1520.151245117188 -2749.057373046875 -1520.308349609375 L -2743.818603515625 -1523.674072265625 C -2743.48974609375 -1523.886596679688 -2743.1064453125 -1523.999633789062 -2742.71240234375 -1523.999633789062 C -2742.183349609375 -1523.999633789062 -2741.681396484375 -1523.79833984375 -2741.299072265625 -1523.432739257812 L -2718.2861328125 -1501.607421875 C -2717.88232421875 -1501.224975585938 -2717.64892578125 -1500.685546875 -2717.646484375 -1500.128173828125 C -2717.64453125 -1499.598266601562 -2717.84375 -1499.095336914062 -2718.207275390625 -1498.71142578125 C -2718.592529296875 -1498.3046875 -2719.135009765625 -1498.0712890625 -2719.695556640625 -1498.0712890625 Z" stroke="none" fill="#fff"/>
      </g>
      <path id="Path_5454" data-name="Path 5454" d="M227.1,106.319,225.1,140.012a1.049,1.049,0,0,1-1.532.868L218.039,138a1.049,1.049,0,0,1-.531-1.179l7.529-30.812a1.049,1.049,0,0,1,2.067.311" transform="translate(-102.485 -49.577)" fill="#fff" stroke="#fff" stroke-width="1"/>
      <path id="Path_5455" data-name="Path 5455" d="M227.1,106.319,225.1,140.012a1.049,1.049,0,0,1-1.532.868L218.039,138a1.049,1.049,0,0,1-.531-1.179l7.529-30.812a1.049,1.049,0,0,1,2.067.311" transform="translate(-102.485 -49.577)" fill="none"/>
      <path id="Path_5456" data-name="Path 5456" d="M204.294,204.648c-3.983,3.885-2.293,12.075,3.771,18.291s14.21,8.106,18.193,4.221,2.293-12.075-3.771-18.291-14.21-8.106-18.192-4.221" transform="translate(-95.255 -95.487)" fill="#fff"/>
      <path id="Path_5457" data-name="Path 5457" d="M230.7,159.031c13.286-12.963,30.807-43.15,6.6-73.482" transform="translate(-108.716 -40.314)" fill="none" stroke="#211d1e" stroke-linecap="round" stroke-width="17.008"/>
      <path id="Path_5458" data-name="Path 5458" d="M112.4,290.984s6.42,1.633,8.056.905c1.712-.76,2.854-2.241,4.506-6.938s6.438-19.164,6.438-19.164-5.442-2.44-8.555.434a12.177,12.177,0,0,0-3.811,5.753c-1.433,4.081-6.637,19.009-6.637,19.009" transform="translate(-52.964 -124.794)" fill="#fff"/>
      <path id="Path_5459" data-name="Path 5459" d="M155.766,292.108a59.3,59.3,0,0,1,4.993-10.658c1.316-2.3,3.827-3.482,5.268-2.992s1.733,1.393,2.3,3.391-1.179,6.53-1.179,6.53l-5.908,15.714s-6.4-2.352-7.187-3.087-.387-2.506.053-4,1.662-4.893,1.662-4.893" transform="translate(-72.382 -131.169)" fill="#fff"/>
      <path id="Path_5460" data-name="Path 5460" d="M53.378,322.233a6.583,6.583,0,0,0,6.5,3.6,6.806,6.806,0,0,0,4.21-2.325l.139.047a5.7,5.7,0,0,1-9.381,2.06,5.76,5.76,0,0,1-1.608-3.367Z" transform="translate(-25.088 -151.849)" fill="#fff"/>
      <path id="Path_5461" data-name="Path 5461" d="M198.172,363.719a6.066,6.066,0,0,0,7.182,7.043l.081.123a5.329,5.329,0,0,1-8.122-3.834,5.4,5.4,0,0,1,.731-3.413Z" transform="translate(-92.964 -171.361)" fill="#fff"/>
      <path id="Path_5462" data-name="Path 5462" d="M133.854,350.8c.272,1.208.508,2.836,1.595,3.52l.924.295c-.521.572-2.19,2.566-2.742,3.177a13.16,13.16,0,0,1-8.588,4.417c-4.453.479-10.132-3.736-11.568-5.486a57.84,57.84,0,0,0-10.939-7.405A13.8,13.8,0,0,0,94.893,348a84.06,84.06,0,0,0-12.178,3.5c-6.973,2.209-16.48.792-19.754-6.543l.327.527A13.474,13.474,0,0,1,61,338.27a30.933,30.933,0,0,1,.319-6.98l.345.007c.125,4.36.289,9.31,3.06,12.886,2.227,4.128,7.457,5.806,11.933,5.395a21.507,21.507,0,0,0,6.726-1.64A70.426,70.426,0,0,1,93.5,344.806a15.952,15.952,0,0,1,10.449,1.493,54.279,54.279,0,0,1,11.447,8.245c3.872,4.522,9.457,7.429,15.037,3.922a24.862,24.862,0,0,0,4.455-3.619l.023.3c-1.263-1.027-1.321-2.842-1.4-4.339h.345" transform="translate(-28.711 -156.118)" fill="#fff"/>
    </g>
  </g>
</svg>
