<svg xmlns="http://www.w3.org/2000/svg" width="138.42" height="138.34" viewBox="0 0 138.42 138.34">
  <g id="Group_1886" data-name="Group 1886" transform="matrix(-0.966, -0.259, 0.259, -0.966, 166.767, 301.853)">
    <g id="Group_1880" data-name="Group 1880" transform="matrix(-0.966, 0.259, -0.259, -0.966, 173.695, 212.877)">
      <g id="Group_1877" data-name="Group 1877">
        <path id="Path_5748" data-name="Path 5748" d="M20.2,20.96a3.861,3.861,0,0,1-.967.449c-.384.011-.728-.324-1.139-.38A85.048,85.048,0,0,1,19.3,11.053c.439-2.336,1-4.63,1.45-6.937.321-1.661.6-4.283-1.346-4.107-3.217.288-4.45,3.237-5.281,6.074a81.007,81.007,0,0,0-1.794,9.6c-.7-1.239-1.9-3.087-3.624-3.279-2.049-.23-2.9,1.311-3.349,2.8-1.967-.9-3.808.871-3.59,3.14A1.75,1.75,0,0,0,.037,20.027a7.367,7.367,0,0,0,1.45,4.833,3.756,3.756,0,0,1,.38.552c.073.2.041.453.1.656a6.994,6.994,0,0,0,.656,1.416,2.612,2.612,0,0,0-.69,2.486,5.593,5.593,0,0,0,3.037,3.279,10.346,10.346,0,0,0,5.04,1.311c2.517,0,5.15-1.025,4.8-3.761,2.391-.953,3.814-2.376,5.8-3.9a11.829,11.829,0,0,1,5.107-2.174,7.379,7.379,0,0,0,2-.449,2.823,2.823,0,0,0,1.277-2A3.141,3.141,0,0,0,27.3,19.3a5.261,5.261,0,0,0-4.487.069c-.971.429-1.707,1.1-2.623,1.589" transform="translate(0.618 0.617)"/>
        <path id="Path_5749" data-name="Path 5749" d="M10.631,35.792A10.952,10.952,0,0,1,5.289,34.4a6.221,6.221,0,0,1-3.334-3.664,3.262,3.262,0,0,1,.535-2.723A6.4,6.4,0,0,1,2,26.865a2.031,2.031,0,0,1-.071-.442,1.466,1.466,0,0,0-.02-.178c-.023-.04-.089-.123-.133-.18-.058-.074-.124-.158-.182-.246A7.726,7.726,0,0,1,.042,20.571,2.443,2.443,0,0,1,1.75,18.409a3.857,3.857,0,0,1,.962-2.443,2.928,2.928,0,0,1,2.873-.934c.681-1.763,1.8-2.655,3.336-2.655a4.219,4.219,0,0,1,.467.027,4.851,4.851,0,0,1,3.2,2.191q.051-.336.1-.668a56.519,56.519,0,0,1,1.458-7.4c.892-3.044,2.281-6.2,5.819-6.515a1.861,1.861,0,0,1,1.678.632c.632.765.736,2.1.329,4.207-.213,1.1-.456,2.217-.692,3.3-.26,1.189-.528,2.419-.757,3.638a83.714,83.714,0,0,0-1.164,9.427c.054.025.1.049.153.073a1.672,1.672,0,0,0,.293.122,4.959,4.959,0,0,0,.507-.258c.078-.043.151-.083.215-.117a11.78,11.78,0,0,0,1.064-.667,10.111,10.111,0,0,1,1.6-.939,7.034,7.034,0,0,1,2.777-.6,4.421,4.421,0,0,1,2.273.561,3.8,3.8,0,0,1,1.993,3.563,3.422,3.422,0,0,1-1.61,2.488,4.966,4.966,0,0,1-1.624.421c-.192.026-.373.051-.543.084A11.277,11.277,0,0,0,21.6,28c-.429.33-.836.658-1.228.975a18.511,18.511,0,0,1-4.3,2.835,3.363,3.363,0,0,1-.825,2.337,6.124,6.124,0,0,1-4.622,1.644M2.349,19.569c-.9,0-1.058.957-1.081,1.149a6.565,6.565,0,0,0,1.351,4.416c.033.049.079.108.128.171a1.9,1.9,0,0,1,.32.515,1.9,1.9,0,0,1,.091.506,1.233,1.233,0,0,0,.021.178,6.489,6.489,0,0,0,.6,1.289l.249.437-.377.333a2.011,2.011,0,0,0-.5,1.871c.278,1.092,1.124,1.984,2.741,2.892a9.713,9.713,0,0,0,4.737,1.232,5.014,5.014,0,0,0,3.695-1.225,2.207,2.207,0,0,0,.491-1.84l-.061-.475.444-.177a16.376,16.376,0,0,0,4.4-2.824c.4-.322.811-.655,1.252-.993a12.476,12.476,0,0,1,5.366-2.291c.2-.039.41-.068.61-.1a3.928,3.928,0,0,0,1.229-.3A2.241,2.241,0,0,0,29,22.825a2.542,2.542,0,0,0-1.39-2.373,3.26,3.26,0,0,0-1.648-.391,5.856,5.856,0,0,0-2.278.492,9.031,9.031,0,0,0-1.4.833,12.843,12.843,0,0,1-1.179.736c-.06.031-.125.068-.194.106a2.549,2.549,0,0,1-1.042.414h-.039a1.932,1.932,0,0,1-.855-.249,1.406,1.406,0,0,0-.348-.137l-.573-.079.041-.577a86.794,86.794,0,0,1,1.216-10.046c.232-1.237.5-2.475.765-3.674.234-1.071.476-2.179.686-3.267.423-2.187.138-2.936-.069-3.187a.565.565,0,0,0-.489-.194c-.04,0-.082,0-.125.006-2.792.25-3.93,2.855-4.744,5.633a55.615,55.615,0,0,0-1.422,7.237c-.114.751-.231,1.527-.355,2.285l-.283,1.724L12.407,16.6c-.682-1.2-1.75-2.813-3.156-2.97-1.338-.151-2.149.562-2.689,2.36l-.2.678-.644-.295a1.9,1.9,0,0,0-.793-.183,1.75,1.75,0,0,0-1.3.605,2.72,2.72,0,0,0-.63,2.1l.066.688Z"/>
        <rect id="Rectangle_2457" data-name="Rectangle 2457" width="30.248" height="35.792" fill="none"/>
      </g>
      <g id="Group_1879" data-name="Group 1879">
        <path id="Path_5750" data-name="Path 5750" d="M4.316,5.764c.015.573-.132,1.106-.519,1.241-.616.218-1.38-.3-1.76-.656a6.947,6.947,0,0,1-2-5.177A1.293,1.293,0,0,1,1.072,0,9.892,9.892,0,0,0,4.316,5.764" transform="translate(1.345 19.471)" fill="#fff"/>
        <path id="Path_5751" data-name="Path 5751" d="M5.635,8.463a.927.927,0,0,1-.414.829c-.554.185-1.6-.488-2.07-.829A8.418,8.418,0,0,1,.01,2.7C-.116.938.988-.4,2.7.111A9.993,9.993,0,0,0,5.084,7.773c.148.177.523.53.551.69" transform="translate(3.131 16.185)" fill="#fff"/>
        <path id="Path_5752" data-name="Path 5752" d="M23.325,18.764a2.621,2.621,0,0,1,2.52,2.589c-.092,1.115-.908,1.492-2.036,1.657a16.769,16.769,0,0,0-3.451.9c-2.694,1-4.509,3.318-6.938,4.728a10.546,10.546,0,0,1-5.177,1.416c.245.455.993.4,1.623.38a12.768,12.768,0,0,0,1.794-.207c.165,1.927-1.73,2.681-3.451,2.8a9.779,9.779,0,0,1-5.074-1.07C1.725,31.24.364,30.252.062,28.911a2.227,2.227,0,0,1,.379-1.829,6.8,6.8,0,0,0,4.35,2.864c-.025-.151-.209-.184-.311-.241A8.213,8.213,0,0,1,.441,25.459c1.022.8,3.076.466,2.934-1.173.826.635,3.016,1.074,3.037-.587a2.384,2.384,0,0,0,2.21.346A2.224,2.224,0,0,0,9.761,21.9,7.1,7.1,0,0,0,8.208,17.8c-.273-.38-.513-.812-.9-.967-.107.335.165.678.31.967A9.928,9.928,0,0,1,8.9,21.352c.1,1.247-.39,2.467-1.726,1.83a4.035,4.035,0,0,1-.587-.38,10.043,10.043,0,0,1-3.037-6.213c-.145-1.99.523-4.058,2.14-4.28a2.494,2.494,0,0,1,1,.1,4.877,4.877,0,0,1,2.07,1.726,9.326,9.326,0,0,1,1.416,2.383,1.809,1.809,0,0,0,.346-1.106,37.079,37.079,0,0,1,.62-3.727c.391-1.541.664-3.2,1.036-4.763.713-3,1.521-6.365,4.66-6.9.83-.141,1,.449,1,1.313a12.884,12.884,0,0,1-.346,2.381c-.981,5.056-2.422,10.424-2.313,16.394-1.269-.141-2.821-.091-3.279.794a7.106,7.106,0,0,1,2.657-.241,6.388,6.388,0,0,1,1.243.276,3.855,3.855,0,0,0,1.1.38,3.794,3.794,0,0,0,1.381-.621c1.5-.782,2.6-2.161,5.039-1.933" transform="translate(3.01 1.432)" fill="#fff"/>
        <rect id="Rectangle_2458" data-name="Rectangle 2458" width="30.248" height="35.792" fill="none"/>
      </g>
    </g>
    <g id="Group_1885" data-name="Group 1885" transform="translate(97.934 143.04)">
      <path id="Path_5771" data-name="Path 5771" d="M12.34,704.695c2.489-.11,3.377,1.316,3.474,3.5s-.662,3.685-3.15,3.8l-9.18.408c-2.488.11-3.377-1.316-3.474-3.5s.662-3.685,3.15-3.8l2.421-.108L5.714,708l-2.4.107c-.622.028-.794.322-.779.675s.213.631.835.6l9.147-.406c.622-.028.794-.322.779-.675s-.213-.631-.835-.6l-2.438.108-.134-3.01Z" transform="translate(-0.001 -649.948)"/>
      <path id="Path_5772" data-name="Path 5772" d="M3.032,576.741l15.328,2.195-.427,2.982-6.248-.895-.184,1.283,6.248.895-.427,2.982L1.994,583.989l.427-2.982L9,581.949l.184-1.283L2.6,579.724Z" transform="translate(-1.839 -531.939)"/>
      <path id="Path_5773" data-name="Path 5773" d="M38.9,457l8.662,2.968c2.356.808,2.662,2.46,1.953,4.53s-1.964,3.188-4.321,2.38l-8.662-2.968c-2.357-.807-2.662-2.46-1.953-4.53S36.543,456.2,38.9,457m-1.932,3.2c-.115.334-.032.665.557.867l8.63,2.957c.589.2.857-.009.972-.343s.032-.665-.557-.867l-8.63-2.957c-.589-.2-.857.009-.972.343" transform="translate(-31.583 -421.259)"/>
      <path id="Path_5774" data-name="Path 5774" d="M90.741,340.295l7.955,4.533c2.164,1.233,2.156,2.914,1.072,4.815s-2.525,2.765-4.689,1.531l-7.955-4.533c-2.164-1.233-2.156-2.914-1.072-4.815s2.525-2.765,4.689-1.532m-2.5,2.782c-.175.307-.156.647.385.956l7.926,4.517c.541.308.844.151,1.019-.156s.156-.647-.385-.956l-7.926-4.517c-.541-.308-.844-.151-1.018.156" transform="translate(-78.708 -313.33)"/>
      <path id="Path_5775" data-name="Path 5775" d="M162.776,241.605l-1.7-1.432c-.476-.4-.791-.315-1.03-.032s-.271.608.205,1.01l1.454,1.226c1.583,1.335,3.8-2.318,6.686.113l1.6,1.345c1.878,1.584,1.61,3.207.211,4.867s-2.944,2.185-4.822.6l-1.711-1.443,1.866-2.213,1.7,1.432c.476.4.791.315,1.041.019s.271-.608-.205-1.01l-1.454-1.226c-1.583-1.335-3.793,2.305-6.675-.126l-1.6-1.345c-1.879-1.584-1.61-3.208-.221-4.854s2.933-2.172,4.811-.588l1.711,1.443Z" transform="translate(-144.809 -218.583)"/>
      <path id="Path_5776" data-name="Path 5776" d="M234.279,155.409l2.558,2.995,1.7-1.454,1.618,1.894-1.7,1.454,2.6,3.046,1.741-1.486,1.64,1.92-4.032,3.443-10.056-11.775L234.38,152l1.64,1.92Z" transform="translate(-212.455 -140.195)"/>
      <path id="Path_5777" data-name="Path 5777" d="M368.968,26.14l5.061,14.685-4.289,1.87-5.646-10.887-.154.067,4.134,11.546-4.289,1.87-7.314-13.7,2.685-1.17,5.544,10.95.154-.067-4.079-11.588,3.888-1.695,5.714,10.876.154-.067L366.283,27.31Z" transform="translate(-328.78 -24.109)"/>
      <rect id="Rectangle_2462" data-name="Rectangle 2462" width="3.013" height="15.484" transform="matrix(0.979, -0.202, 0.202, 0.979, 43.616, 1.521)"/>
      <path id="Path_5778" data-name="Path 5778" d="M640.986,5.5l-.147-2.217c-.041-.621-.322-.788-.692-.764s-.626.227-.585.849l.126,1.9c.137,2.066,4.309,1.131,4.559,4.893l.138,2.083c.163,2.452-1.192,3.385-3.359,3.53s-3.616-.6-3.779-3.055l-.148-2.234,2.889-.192.147,2.217c.041.621.322.788.708.763.37-.025.626-.227.585-.849l-.126-1.9c-.137-2.066-4.292-1.132-4.542-4.894l-.138-2.082c-.163-2.452,1.192-3.385,3.342-3.528,2.166-.144,3.6.6,3.762,3.056l.148,2.234Z" transform="translate(-587.156 -0.001)"/>
      <path id="Path_5779" data-name="Path 5779" d="M749.284,3.495l-.381,3.92,2.228.216-.241,2.479-2.228-.216-.387,3.987,2.278.221-.244,2.513-5.277-.512L746.529.69l5.277.512-.244,2.513Z" transform="translate(-687.158 -0.637)"/>
      <path id="Path_5780" data-name="Path 5780" d="M825.37,27.043l-.6,2.451-5.393-1.33,3.709-15.034,2.925.722-3.1,12.583Z" transform="translate(-755.724 -12.11)"/>
      <path id="Path_5781" data-name="Path 5781" d="M915.92,35.357l-6.184,8.278-2.04,5.112-2.751-1.1,2.04-5.112L908.2,32.276l2.673,1.067-.986,5.7.156.062,3.206-4.81Z" transform="translate(-834.649 -29.769)"/>
      <path id="Path_5782" data-name="Path 5782" d="M1221.54,288.516l.453,3.121-1.877.172-.122-3.149-2.474,1.953-1.087-1.54,2.668-1.678-2.927-1.168.79-1.712,2.79,1.471-.453-3.121,1.877-.172.122,3.149,2.474-1.953,1.087,1.54-2.668,1.678,2.927,1.168-.79,1.712Z" transform="translate(-1121.701 -260.733)"/>
      <path id="Path_5783" data-name="Path 5783" d="M1255.019,659.178c-2.489.1-3.374-1.325-3.465-3.511s.672-3.683,3.161-3.787l9.182-.383c2.489-.1,3.374,1.325,3.465,3.511s-.672,3.683-3.161,3.787l-2.422.1-.125-3.01,2.4-.1c.622-.026.8-.32.781-.673s-.211-.631-.834-.605l-9.148.381c-.622.026-.8.32-.781.673s.212.631.834.605l2.438-.1.126,3.01Z" transform="translate(-1154.325 -600.883)"/>
      <path id="Path_5784" data-name="Path 5784" d="M1257.47,766.244l-15.322-2.236.435-2.981,6.245.911.187-1.282-6.245-.911.435-2.981L1258.527,759l-.435,2.981-6.579-.96-.187,1.282,6.578.96Z" transform="translate(-1145.657 -697.976)"/>
      <path id="Path_5785" data-name="Path 5785" d="M1230.4,874.561l-8.654-2.991c-2.354-.814-2.655-2.467-1.941-4.535s1.973-3.182,4.327-2.369l8.654,2.991c2.354.814,2.656,2.467,1.941,4.535s-1.973,3.183-4.327,2.369m1.941-3.194c.115-.334.034-.665-.555-.869l-8.622-2.98c-.588-.2-.857.007-.972.341s-.034.665.555.868l8.622,2.98c.589.2.857-.007.973-.341" transform="translate(-1124.731 -797.251)"/>
      <path id="Path_5786" data-name="Path 5786" d="M1183.767,971.9l-7.943-4.555c-2.161-1.239-2.148-2.92-1.059-4.818s2.532-2.758,4.693-1.519l7.943,4.555c2.161,1.239,2.148,2.92,1.059,4.818s-2.532,2.758-4.693,1.519m2.5-2.775c.176-.307.157-.647-.383-.957l-7.914-4.538c-.54-.31-.843-.154-1.019.153s-.158.647.383.957l7.914,4.538c.54.31.843.154,1.019-.153" transform="translate(-1082.843 -885.82)"/>
      <path id="Path_5787" data-name="Path 5787" d="M1121.406,1055.707l1.695,1.437c.475.4.79.317,1.03.035s.272-.608-.2-1.01l-1.451-1.23c-1.579-1.339-3.81,2.308-6.686-.13l-1.592-1.349c-1.875-1.589-1.6-3.212-.2-4.868s2.949-2.178,4.824-.589l1.708,1.448-1.872,2.208-1.695-1.437c-.475-.4-.791-.317-1.041-.022s-.272.608.2,1.011l1.451,1.23c1.579,1.339,3.8-2.3,6.675.142l1.592,1.349c1.875,1.589,1.6,3.212.209,4.855s-2.938,2.165-4.813.576l-1.708-1.447Z" transform="translate(-1026.421 -965.709)"/>
      <path id="Path_5788" data-name="Path 5788" d="M1052.425,1118.587l-2.55-3-1.706,1.449-1.613-1.9,1.706-1.449-2.593-3.053-1.745,1.482-1.634-1.924,4.041-3.432,10.023,11.8-4.041,3.432-1.634-1.924Z" transform="translate(-961.325 -1020.784)"/>
      <path id="Path_5789" data-name="Path 5789" d="M876.278,1200.866l-5.022-14.7,4.294-1.858,5.616,10.9.154-.067-4.1-11.557,4.294-1.858,7.277,13.723-2.688,1.163-5.515-10.965-.155.067,4.047,11.6L880.588,1199,874.9,1188.11l-.155.067,4.217,11.526Z" transform="translate(-803.576 -1089.93)"/>
      <rect id="Rectangle_2463" data-name="Rectangle 2463" width="3.013" height="15.485" transform="translate(63.233 96.864) rotate(-11.514)"/>
      <path id="Path_5790" data-name="Path 5790" d="M720.116,1260.836l.141,2.217c.04.621.32.789.69.766s.626-.225.587-.847l-.121-1.9c-.132-2.066-4.306-1.142-4.546-4.9l-.133-2.083c-.156-2.452,1.2-3.382,3.368-3.52s3.615.613,3.771,3.065l.142,2.234-2.889.184-.141-2.217c-.04-.621-.32-.789-.706-.764-.37.023-.627.225-.587.847l.121,1.9c.132,2.066,4.289,1.143,4.529,4.906l.133,2.083c.156,2.452-1.2,3.382-3.351,3.519-2.167.138-3.6-.614-3.754-3.066l-.142-2.234Z" transform="translate(-661.046 -1153.406)"/>
      <path id="Path_5791" data-name="Path 5791" d="M623.475,1260.855l.391-3.919-2.227-.222.247-2.479,2.228.223.4-3.986-2.278-.227.251-2.512,5.276.527-1.539,15.408-5.276-.527.251-2.512Z" transform="translate(-572.711 -1150.806)"/>
      <path id="Path_5792" data-name="Path 5792" d="M549.171,1231.888l.611-2.449,5.389,1.345-3.749,15.023-2.923-.729,3.138-12.574Z" transform="translate(-505.892 -1133.935)"/>
      <path id="Path_5793" data-name="Path 5793" d="M407.174,1222.151l6.206-8.262,2.053-5.107,2.749,1.105-2.053,5.106-1.24,10.259-2.67-1.074,1-5.693-.156-.063-3.219,4.8Z" transform="translate(-375.544 -1114.882)"/>
      <path id="Path_5794" data-name="Path 5794" d="M126.381,1055.45l-.444-3.122,1.878-.167.113,3.149,2.479-1.946,1.083,1.543-2.672,1.671,2.923,1.176-.795,1.71-2.786-1.478.444,3.122-1.878.167-.113-3.149-2.479,1.946-1.083-1.543,2.673-1.671-2.923-1.176.795-1.71Z" transform="translate(-113.262 -970.428)"/>
      <rect id="Rectangle_2464" data-name="Rectangle 2464" width="113.043" height="112.93" transform="translate(0)" fill="none"/>
    </g>
  </g>
</svg>
