<svg xmlns="http://www.w3.org/2000/svg" width="158.348" height="158.152" viewBox="0 0 158.348 158.152">
  <g id="Close" transform="translate(-22340.656 9191.349)">
    <path id="Surat_yuvarlak" data-name="Surat yuvarlak" d="M1.867,58.941a47.364,47.364,0,1,0,34.364-57.5,47.364,47.364,0,0,0-34.364,57.5" transform="translate(22372.016 -9160.088)" fill="#d9ff50"/>
    <path id="Yazi" d="M-22255.367,9345.13l3.189-.437-.852-6.2-3.123.432-.381-2.764,3.123-.426-.859-6.247-3.189.438-.387-2.8,6.516-.9,2.859,20.813-6.516.9Zm-17.5,2.6c-2.646-.353-4.322-1.614-3.9-4.782l.426-3.235,3.33.443-.426,3.212c-.145,1.088.309,1.47.941,1.554.611.084,1.178-.163,1.318-1.251l1.711-12.856c.145-1.065-.332-1.475-.943-1.553-.633-.084-1.178.19-1.316,1.25l-.437,3.286-3.33-.443.441-3.308c.422-3.146,2.367-3.942,5.02-3.595,2.623.354,4.316,1.638,3.9,4.783l-1.717,12.9c-.359,2.714-1.855,3.671-3.93,3.671A8.333,8.333,0,0,1-22272.867,9347.731Zm-11.791-2.708,5.137-17.437-3.416-1,.8-2.719,6.639,1.957-5.937,20.15Zm39.221-2.63-.869-2.932,3.084-.92.863,2.91c.314,1.048.885,1.211,1.5,1.031s1-.634.689-1.682l-.75-2.518c-.914-3.067-6.039-.751-7.486-5.635l-.812-2.714c-.9-3.017.51-4.536,3.051-5.287s4.523-.253,5.422,2.77l.873,2.933-3.088.914-.863-2.91c-.314-1.049-.887-1.211-1.52-1.021s-1,.628-.7,1.682l.75,2.512c.914,3.067,6.018.763,7.469,5.641l.809,2.714c.9,3.022-.506,4.536-3.029,5.287a6.61,6.61,0,0,1-1.877.312C-22243.535,9345.48-22244.773,9344.615-22245.437,9342.394Zm-50.439-1.385c-2.424-1.127-3.641-2.831-2.289-5.73l5.484-11.757c1.357-2.894,3.447-3.057,5.865-1.924s3.645,2.837,2.293,5.736l-5.49,11.752c-.857,1.842-2.025,2.572-3.377,2.572A5.98,5.98,0,0,1-22295.877,9341.009Zm6.229-16.041-5.467,11.713c-.465.992-.146,1.491.438,1.766.555.258,1.166.191,1.631-.8l5.473-11.713c.461-.992.123-1.5-.437-1.766a1.274,1.274,0,0,0-.541-.137C-22288.949,9324.029-22289.328,9324.28-22289.648,9324.968Zm56.125,13.529-5.746-11.629c-1.42-2.865-.236-4.592,2.158-5.775,2.377-1.172,4.484-1.07,5.9,1.795l5.746,11.623c1.414,2.865.213,4.6-2.164,5.78a5.9,5.9,0,0,1-2.557.708C-22231.5,9341-22232.643,9340.283-22233.523,9338.5Zm-2.332-14.864c-.572.28-.881.791-.4,1.772l5.725,11.584c.488.98,1.076,1.048,1.648.762.555-.269.887-.79.4-1.777l-5.725-11.584c-.326-.662-.713-.9-1.1-.9A1.236,1.236,0,0,0-22235.855,9323.633Zm-71.623,10.7c-2.17-1.508-3-3.364-1.2-5.954l1.742-2.513,2.646,1.84-1.732,2.5c-.627.9-.4,1.446.129,1.811s1.123.393,1.744-.51l1.5-2.159c1.828-2.624-3.18-5.187-.275-9.369l1.615-2.321c1.8-2.59,3.863-2.438,6.039-.925s3.021,3.375,1.221,5.966l-1.742,2.512-2.646-1.839,1.732-2.489c.621-.9.393-1.452-.152-1.828s-1.115-.393-1.744.51l-1.5,2.159c-1.822,2.624,3.162,5.169.258,9.353l-1.615,2.326a3.889,3.889,0,0,1-3.172,2.016A5.142,5.142,0,0,1-22307.479,9334.331Zm79.607-15.194-2.934,2.023-1.607-2.326,5.689-3.931,11.938,17.28-2.764,1.906Zm-91.068,5.259,1.951-2.052,2.332,2.215,4.307-4.536-2.281-2.164,1.918-2.019,2.281,2.17,4.34-4.57-2.332-2.22,1.951-2.053,4.766,4.53-14.467,15.229Zm104.783,2.2-2.254-2.36,2.428-2.316,2.236,2.344c.758.791,1.346.673,1.8.236s.607-1.021-.15-1.817l-8.965-9.374c-.74-.774-1.357-.662-1.8-.236-.465.443-.588,1.038.152,1.812l2.287,2.395-2.428,2.32-2.3-2.41c-2.191-2.294-1.6-4.317.336-6.162,1.912-1.828,3.977-2.35,6.168-.057l8.994,9.414c2.209,2.311,1.586,4.329-.332,6.162a4.784,4.784,0,0,1-3.189,1.593A4.169,4.169,0,0,1-22214.156,9326.594Zm15.094-15.386,1.643-2.764-5.377-3.2-1.609,2.708-2.395-1.424,1.609-2.708-5.416-3.225-1.643,2.771-2.434-1.447,3.357-5.657,18.055,10.743-3.357,5.651Zm-131.275-1.52c-1.357-2.3-1.4-4.4,1.346-6.021l2.814-1.66,1.711,2.888-2.793,1.648c-.947.561-.965,1.155-.639,1.705.313.532.857.818,1.8.264l11.164-6.605c.926-.544.953-1.172.639-1.7-.324-.55-.875-.808-1.8-.258l-2.85,1.682-1.709-2.888,2.865-1.7c2.736-1.614,4.568-.577,5.932,1.722,1.346,2.282,1.385,4.407-1.346,6.021l-11.209,6.628a4.859,4.859,0,0,1-2.453.786C-22328.324,9312.2-22329.436,9311.212-22330.338,9309.688Zm135.328-7.928-2.836-1.149,1.205-2.988,2.814,1.144c1.016.409,1.5.062,1.744-.533s.129-1.177-.887-1.586l-2.434-.981c-1.412-.572-2.467.354-3.689,1.284-1.35,1.025-2.91,2.052-5.387,1.054l-2.625-1.065c-2.922-1.178-3.229-3.224-2.236-5.68s2.629-3.7,5.551-2.512l2.836,1.149-1.211,2.982-2.814-1.138c-1.016-.409-1.5-.067-1.75.549s-.129,1.178.887,1.587l2.434.987c1.4.566,2.455-.359,3.672-1.278,1.352-1.026,2.91-2.047,5.395-1.043l2.629,1.065c2.922,1.177,3.225,3.229,2.238,5.657-.732,1.813-1.8,2.949-3.488,2.949A5.533,5.533,0,0,1-22195.01,9301.761Zm-140.486-3.051,16.889-6.711-1.318-3.309,2.635-1.048,2.557,6.431-19.523,7.755Zm-3.762-11.3c-.6-2.607-.012-4.615,3.1-5.338l12.639-2.927c3.111-.718,4.529.829,5.131,3.431.594,2.58.01,4.615-3.1,5.338l-12.639,2.922a6.256,6.256,0,0,1-1.408.176C-22337.687,9291.009-22338.758,9289.56-22339.258,9287.407Zm16.473-4.985-12.594,2.91c-1.064.247-1.262.813-1.121,1.436.141.6.572,1.037,1.637.791l12.594-2.916c1.064-.247,1.262-.83,1.121-1.43a1,1,0,0,0-1.064-.865A2.514,2.514,0,0,0-22322.785,9282.422Zm132.166,7.587-12.666-2.781c-3.123-.685-3.734-2.686-3.162-5.3.566-2.585,1.969-4.172,5.086-3.487l12.666,2.781c3.123.684,3.729,2.708,3.162,5.3-.48,2.193-1.541,3.648-3.725,3.648A6.4,6.4,0,0,1-22190.619,9290.009Zm-13.064-7.475c-.135.628.068,1.188,1.139,1.419l12.621,2.77c1.07.235,1.492-.185,1.627-.808.129-.605-.068-1.188-1.139-1.418l-12.621-2.771a2.52,2.52,0,0,0-.535-.063A1.015,1.015,0,0,0-22203.684,9282.534Zm-137.459-8.365c-.15-2.646.8-4.44,3.947-4.62l3.051-.174.184,3.213-3.033.174c-1.092.067-1.385.583-1.346,1.222s.383,1.122,1.48,1.061l2.619-.151c3.189-.18,2.119-5.7,7.205-5.994l2.826-.157c3.145-.18,4.295,1.536,4.445,4.183s-.795,4.458-3.941,4.638l-3.057.174-.184-3.213,3.033-.174c1.094-.062,1.385-.583,1.346-1.245s-.381-1.121-1.475-1.06l-2.625.151c-3.189.185-2.119,5.68-7.205,5.972l-2.824.156c-.156.01-.3.014-.451.014C-22339.953,9278.337-22341,9276.658-22341.143,9274.169Zm135.879,2.7.459-6.9,20.959,1.379-.225,3.348-18.133-1.194-.23,3.555Zm-.119-12.363c-.234-2.642.65-4.575,3.809-4.856l12.969-1.154c3.184-.286,4.373,1.469,4.607,4.1.236,2.664-.627,4.576-3.812,4.861l-3.252.286-.3-3.342,3.23-.291c1.092-.1,1.367-.623,1.311-1.262-.055-.611-.42-1.11-1.514-1.01l-12.918,1.149c-1.07.1-1.367.65-1.312,1.262.057.64.443,1.11,1.514,1.015l3.3-.3.3,3.348-3.32.291c-.225.021-.441.03-.646.03C-22204.1,9268.637-22205.164,9266.976-22205.383,9264.5Zm-135.648,1.054.617-6.549,2.82.27-.3,3.207,6.225.589.3-3.141,2.775.264-.3,3.135,6.273.594.309-3.207,2.814.27-.617,6.549Zm131.3-19.249,19.662-7.4,2.316,6.151-2.652,1-1.133-3.011-5.854,2.2,1.105,2.955-2.6.981-1.111-2.955-5.9,2.221,1.133,3.017-2.652,1Zm-111.881,5.663-12.174-4.608c-2.994-1.133-3.3-3.225-2.359-5.7.947-2.5,2.557-3.847,5.545-2.708l3.051,1.154-1.184,3.141-3.033-1.149c-1.025-.388-1.5-.034-1.732.565-.219.578-.1,1.178.92,1.57l12.133,4.592c1,.382,1.508.012,1.727-.566.23-.6.084-1.188-.92-1.569l-3.094-1.172,1.188-3.14,3.117,1.183c2.973,1.121,3.3,3.2,2.361,5.7-.713,1.876-1.824,3.109-3.609,3.109A5.473,5.473,0,0,1-22321.613,9251.971Zm109.211-10.339c-1.3-2.31-1.25-4.356,1.5-5.9l2.668-1.5,1.576,2.8-2.646,1.485c-.953.538-.986,1.133-.662,1.71s.836.842,1.795.3l2.287-1.283c2.787-1.57-.588-6.033,3.846-8.528l2.467-1.385c2.748-1.548,4.537-.511,5.82,1.777,1.3,2.31,1.234,4.334-1.514,5.882l-2.662,1.5-1.576-2.8,2.641-1.491c.959-.539.992-1.133.678-1.688s-.84-.835-1.793-.3l-2.287,1.29c-2.787,1.564.6,6.05-3.836,8.545l-2.473,1.391a4.933,4.933,0,0,1-2.393.73C-22210.432,9244.168-22211.529,9243.189-22212.4,9241.632Zm-120.066-7.923,1.66-2.915,15.795,8.987,1.76-3.095,2.467,1.4-3.426,6.011Zm18.855,1.262-10.17-8.046c-2.506-1.979-2.17-4.07-.521-6.146,1.654-2.1,3.594-2.893,6.1-.908l10.172,8.046c2.506,1.979,2.18,4.049.521,6.146a4.455,4.455,0,0,1-3.357,2.041A4.48,4.48,0,0,1-22313.613,9234.971Zm-8.471-12.436c-.387.481-.461,1.093.4,1.771l10.133,8.018c.857.679,1.436.466,1.816-.017.4-.5.459-1.1-.4-1.777l-10.137-8.013a1.677,1.677,0,0,0-1-.437A1.028,1.028,0,0,0-22322.084,9222.535Zm104.2,11.012c-1.664-2.058-2.029-4.144.461-6.151l10.092-8.152c2.484-2.007,4.447-1.217,6.111.847,1.678,2.08,2.025,4.144-.459,6.151l-10.092,8.152a4.471,4.471,0,0,1-2.771,1.168A4.464,4.464,0,0,1-22217.881,9233.547Zm12.639-11.68-10.053,8.125c-.852.689-.773,1.295-.387,1.777.4.5.969.689,1.822,0l10.053-8.125c.852-.689.785-1.278.387-1.777a1.034,1.034,0,0,0-.812-.44A1.675,1.675,0,0,0-22205.242,9221.867Zm-20.953,2.916,14.17-15.5,2.477,2.265-12.262,13.412,2.625,2.4-1.906,2.092Zm-80.723,1.99-2.047-2.276,2.4-2.147,2.029,2.254c.729.818,1.318.724,1.811.28s.635-1-.094-1.816l-1.756-1.957c-.971-1.076-2.236-.8-3.656-.51-1.715.342-3.65.684-5.512-1.385l-1.889-2.108c-2.1-2.344-1.48-4.317.471-6.072,1.969-1.772,3.965-2.147,6.072.2l2.041,2.276-2.395,2.152-2.029-2.259c-.734-.819-1.318-.718-1.795-.292s-.633,1,.1,1.816l1.756,1.957c.963,1.071,2.236.785,3.654.5,1.723-.348,3.656-.7,5.523,1.38l1.895,2.107c2.1,2.344,1.48,4.317-.486,6.09a4.772,4.772,0,0,1-3.074,1.451A4.1,4.1,0,0,1-22306.918,9226.773Zm-1.447-21.015,5.5-3.611,1.553,2.366-2.691,1.767,3.438,5.226,2.635-1.732,1.531,2.327-2.637,1.732,3.467,5.265,2.686-1.767,1.559,2.361-5.5,3.616Zm77.545,16.075c-2.209-1.464-3.168-3.358-1.414-6l7.189-10.855c1.766-2.663,3.873-2.5,6.082-1.031,2.227,1.475,3.186,3.342,1.414,6l-1.8,2.72-2.8-1.851,1.789-2.7c.605-.913.363-1.457-.168-1.811-.512-.342-1.133-.364-1.738.55l-7.16,10.81c-.6.9-.348,1.469.168,1.812.531.353,1.143.348,1.732-.55l1.834-2.759,2.8,1.851-1.844,2.781a3.866,3.866,0,0,1-3.209,2.082A5.356,5.356,0,0,1-22230.82,9221.834Zm-16.945-7.962,6.494-19.978,6.252,2.029-.875,2.7-3.062-1-1.934,5.955,2.994.97-.857,2.652-2.994-.976-1.951,5.993,3.061,1-.869,2.691Zm-37.869-1.458-3.992-12.392c-.98-3.038.467-4.586,2.984-5.4,2.545-.818,4.6-.4,5.578,2.646l1,3.106-3.2,1.032-1-3.09c-.332-1.043-.908-1.194-1.52-1-.584.19-.988.656-.65,1.7l3.975,12.346c.33,1.021.936,1.184,1.52,1,.611-.2.98-.678.65-1.7l-1.01-3.157,3.191-1.025,1.025,3.173c.971,3.022-.443,4.581-2.988,5.4a6.674,6.674,0,0,1-2.021.361C-22283.674,9215.416-22284.939,9214.58-22285.635,9212.414Zm7.553-19.888,3.314-.516,2.814,17.953,3.516-.55.438,2.8-6.836,1.065Zm25,20.516c-2.613-.432-4.178-1.755-3.662-4.866l.5-3.017,3.174.521-.494,3c-.18,1.082.264,1.48.92,1.587s1.178-.129,1.357-1.211l.426-2.591c.521-3.15-5.074-3.313-4.244-8.337l.459-2.792c.516-3.112,2.439-3.858,5.035-3.426s4.148,1.749,3.639,4.855l-.5,3.021-3.18-.526.5-2.994c.18-1.082-.268-1.48-.9-1.587s-1.178.135-1.357,1.217l-.426,2.585c-.521,3.156,5.1,3.318,4.268,8.343l-.465,2.792c-.424,2.586-1.828,3.538-3.791,3.538A7.742,7.742,0,0,1-22253.086,9213.042Zm-14.27-4.979-.066-12.969c-.018-3.2,1.826-4.233,4.479-4.25,2.67-.012,4.5,1,4.52,4.2l.068,12.969c.016,3.2-1.807,4.233-4.475,4.25h-.043C-22265.5,9212.263-22267.338,9211.242-22267.355,9208.063Zm3.291-12.964.068,12.919c0,1.1.531,1.413,1.148,1.413.639-.006,1.139-.325,1.133-1.425l-.066-12.918c-.006-1.1-.512-1.413-1.15-1.413C-22263.549,9193.682-22264.07,9194-22264.064,9195.1Z" transform="translate(44682.316 -18381.693)" fill="#fff" stroke="rgba(0,0,0,0)" stroke-width="1"/>
    <g id="Agiz">
      <path id="Path_5390" data-name="Path 5390" d="M21.994,88.59c2.161,5.559,6.314,12.25,13,11.1,5.307-.692,9-4.383,13.151-7.613,8.536-6.691,17.3-1.154,25.609,2.076,4.845,1.846,9.46-2.076,11.041-6.476" transform="translate(22366.266 -9188.008)" fill="none" stroke="#231f20" stroke-miterlimit="10" stroke-width="1.377"/>
      <path id="Path_5391" data-name="Path 5391" d="M17.531,86.868a3.057,3.057,0,0,0,3.189,1.255,3.118,3.118,0,0,0,2.352-2.546" transform="translate(22367.426 -9187.463)" fill="none" stroke="#231f20" stroke-miterlimit="10" stroke-width="1.377"/>
      <path id="Path_5392" data-name="Path 5392" d="M109.752,86.232a2.481,2.481,0,0,1-3.179.588,4.377,4.377,0,0,1-2.338-3.064" transform="translate(22344.918 -9186.991)" fill="none" stroke="#231f20" stroke-miterlimit="10" stroke-width="1.377"/>
    </g>
    <path id="Goz" d="M.286,22.865C.281,21.044.212,19.259.146,17.5-.09,11.3-1.013.231,7.755,0c0,7.383,1.384,15.228-.692,22.149C6.6,23.533,2.91,23.995.373,24.456A9.685,9.685,0,0,0,.286,22.865Zm21.362-1.177c-2.188,0-4.447,0-4.479-1.827-.009-1.443-.081-2.884-.149-4.333-.493-5.838,1.582-18.066,6.2-14.144C27.138,4.845,24.6,14.534,24.6,21.918A11.323,11.323,0,0,0,21.648,21.687Z" transform="translate(22406.428 -9137.233)" fill="#231f20" stroke="rgba(0,0,0,0)" stroke-width="1"/>
  </g>
</svg>
