<?xml version="1.0" encoding="UTF-8"?><svg xmlns="http://www.w3.org/2000/svg" viewBox="0 0 164.39 164.39"><defs><style>.d{fill:#fff;}.e{fill:#231f20;}.f,.g{fill:#794d92;}.g{stroke-width:.78px;}.g,.h{stroke:#000;}.g,.h,.i{stroke-miterlimit:10;}.h{fill:#f2f2f2;}.i{fill:none;stroke:#231f20;stroke-width:1.01px;}</style></defs><g id="a"/><g id="b"><g id="c"><g><circle class="g" cx="82.19" cy="82.19" r="81.78"/><circle class="h" cx="82.27" cy="82.7" r="51.16"/><g><path class="d" d="M8.46,78.4l.39-3.38,10.96,.1,.02-.15-10.7-2.38,.39-3.38,13.75,1.57-.23,2.03-10.77-1.23-.02,.18,10.64,2.4-.28,2.42-10.91-.07-.02,.18,10.77,1.23-.23,2.03-13.75-1.57Z"/><path class="d" d="M22.05,65.36l-.52,1.96,2.45,.91-.54,2.07-13-4.95,.98-3.74,13.76,2.08-.55,2.08-2.58-.42Zm-1.83-.29l-7.32-1.18-.06,.22,6.96,2.58,.42-1.61Z"/><path class="d" d="M17.26,53.59l7.7,3.02c1.83,.72,2.44,1.41,1.66,3.38l-1.24,3.15-12.88-5.05,1.23-3.15c.77-1.97,1.68-2.07,3.52-1.35Zm-.79,2.06c-.67-.26-.94-.16-1.18,.45l-.24,.62,9.41,3.69,.24-.62c.23-.6,.11-.86-.56-1.12l-7.67-3.01Z"/><path class="d" d="M18.28,49.46l3.67,1.88,.95-1.85,1.63,.84-.95,1.85,3.7,1.89,.97-1.89,1.66,.85-1.98,3.86-12.32-6.31,1.98-3.86,1.66,.85-.97,1.89Z"/><path class="d" d="M30.75,42.59l1.84,1.28c1.61,1.13,2.05,1.93,.84,3.65l-1.96,2.8-11.34-7.93,1.94-2.77c1.17-1.68,2.07-1.54,3.69-.41l1.61,1.13c.75,.53,1.14,1.05,.99,1.9l.1,.07c.76-.44,1.48-.28,2.3,.29Zm-7.83-.94l3.43,2.4,.36-.52c.36-.52,.3-.82-.32-1.25l-1.86-1.3c-.59-.42-.88-.38-1.24,.14l-.37,.53Zm6.29,2.56c-.62-.43-.92-.37-1.28,.15l-.37,.53,3.65,2.55,.38-.54c.37-.53,.3-.82-.29-1.23l-2.08-1.46Z"/><path class="d" d="M28.98,31.13l5.05,7.48,3.85,3.36-1.42,1.63-3.85-3.36-8.09-3.99,1.39-1.6,4.94,2.69,.08-.09-3.33-4.53,1.39-1.6Z"/><path class="d" d="M41.3,34.91c.47,.55,.87,.49,1.18,.23,.32-.27,.44-.65-.03-1.2l-7.22-8.53,1.69-1.43,7.23,8.54c1.36,1.61,.88,2.9-.47,4.04-1.33,1.12-2.7,1.4-4.06-.21l-1.28-1.52,1.69-1.43,1.27,1.5Z"/><path class="d" d="M49.93,28.58c1.17,1.75,.55,2.98-.92,3.96-1.45,.97-2.84,1.08-4.01-.67l-6.22-9.3,1.84-1.23,6.21,9.29c.4,.6,.81,.58,1.14,.36,.35-.23,.51-.59,.11-1.19l-6.21-9.29,1.84-1.23,6.22,9.3Z"/><path class="d" d="M51.15,20.51l-.92-1.78c-.33-.64-.72-.68-1.1-.48-.37,.19-.57,.53-.24,1.17l.8,1.54c.97,1.87,4-.26,5.54,2.72l.86,1.66c.96,1.84,.23,3-1.32,3.8-1.55,.8-2.89,.72-3.85-1.12l-.93-1.79,1.88-.98,.92,1.78c.33,.64,.72,.68,1.11,.48,.39-.2,.57-.53,.24-1.17l-.8-1.54c-.97-1.87-3.99,.25-5.53-2.72l-.86-1.66c-.96-1.84-.23-3,1.3-3.79,1.55-.8,2.88-.72,3.84,1.13l.93,1.79-1.88,.98Z"/><path class="d" d="M58.57,14.3l-1.64,.64,4.38,11.14-2.07,.81-4.38-11.14-1.64,.64-.68-1.74,5.35-2.1,.68,1.74Z"/><path class="d" d="M66.43,13l2.17,7.98c.52,1.9,.32,2.8-1.72,3.35l-3.26,.89-3.62-13.35,3.26-.89c2.05-.55,2.67,.12,3.18,2.02Zm-2.13,.59c-.19-.7-.43-.85-1.06-.68l-.64,.17,2.65,9.75,.64-.17c.62-.17,.76-.42,.57-1.12l-2.16-7.95Z"/><path class="d" d="M70.21,11.38l.72,4.05,2.04-.36,.32,1.81-2.04,.36,.72,4.08,2.09-.37,.33,1.84-4.26,.76-2.42-13.62,4.26-.76,.33,1.83-2.09,.37Z"/><path class="d" d="M78.21,13.25l-.14-1.99c-.05-.72-.4-.91-.82-.88-.42,.03-.74,.26-.68,.98l.12,1.73c.15,2.1,3.77,1.35,4.01,4.69l.13,1.86c.15,2.07-.97,2.84-2.71,2.97-1.74,.12-2.95-.49-3.09-2.56l-.14-2.01,2.12-.15,.14,2c.05,.72,.4,.91,.83,.88,.44-.03,.74-.26,.68-.98l-.12-1.73c-.15-2.1-3.76-1.35-4-4.69l-.13-1.86c-.15-2.07,.97-2.85,2.7-2.97,1.74-.12,2.93,.49,3.08,2.56l.14,2.01-2.11,.15Z"/><path class="d" d="M82.02,8.49l2.21,.02-.15,13.83-2.21-.02,.15-13.83Z"/><path class="d" d="M89.55,13.5l.18-1.96c.07-.72-.24-.96-.68-1-.42-.04-.78,.14-.85,.86l-.8,8.47c-.07,.72,.23,.96,.72,1,.49,.05,.84-.13,.91-.85l.31-3.31-.93-.09,.17-1.78,3.01,.28-.48,5.1c-.2,2.1-1.46,2.66-3.21,2.49-1.74-.16-2.89-.95-2.69-3.05l.8-8.5c.2-2.1,1.47-2.66,3.21-2.49,1.75,.17,2.89,.95,2.69,3.05l-.19,1.98-2.18-.21Z"/><path class="d" d="M94.57,9.44l2.79,.61-.33,10.39,.13,.03,.29-1.63,1.83-8.37,2,.43-2.95,13.51-2.78-.61,.33-10.39-.15-.03-.29,1.63-1.83,8.37-2-.44,2.95-13.51Z"/><path class="d" d="M107.57,14.96l-1.48,3.94,1.97,.74-.65,1.72-1.97-.74-2.08,5.55-2.08-.78,4.87-12.95,4.05,1.52-.66,1.75-1.97-.74Z"/><path class="d" d="M110.02,29.15l1.39-5.17-.12-.06-3.32,4.21-1.95-.97,4.63-5.53,1.61-6.81,1.95,.98-1.34,4.97,.12,.06,3.16-4.07,1.95,.98-4.49,5.37-1.65,7.03-1.95-.98Z"/><path class="d" d="M155.9,76.69l.05,3.4-10.89,1.29v.15l10.92,.99,.05,3.4-13.83,.19-.03-2.04,10.84-.15v-.18l-10.86-1.02-.03-2.44,10.82-1.32v-.18l-10.84,.15-.03-2.04,13.83-.19Z"/><path class="d" d="M144.09,91.33l.26-2.02-2.55-.59,.28-2.12,13.53,3.25-.5,3.83-13.92-.31,.28-2.13,2.61,.08Zm1.86,.06l7.42,.24,.03-.22-7.23-1.67-.22,1.66Z"/><path class="d" d="M150.32,102.43l-8.02-2.03c-1.91-.48-2.59-1.09-2.08-3.14l.83-3.28,13.41,3.39-.83,3.28c-.52,2.06-1.41,2.26-3.32,1.78Zm.53-2.15c.7,.18,.95,.04,1.11-.59l.16-.64-9.8-2.47-.16,.64c-.16,.63,0,.87,.7,1.04l7.99,2.02Z"/><path class="d" d="M149.83,106.66l-3.88-1.4-.71,1.95-1.72-.62,.71-1.95-3.9-1.41-.72,2-1.75-.63,1.47-4.07,13.01,4.7-1.47,4.07-1.75-.63,.72-2Z"/><path class="d" d="M138.34,115.01l-1.98-1.04c-1.74-.92-2.27-1.65-1.29-3.51l1.59-3.02,12.24,6.43-1.57,2.99c-.95,1.81-1.86,1.79-3.6,.87l-1.74-.92c-.81-.43-1.26-.9-1.21-1.76l-.11-.06c-.7,.53-1.43,.47-2.31,0Zm1.32-1.8c.67,.35,.96,.25,1.25-.31l.3-.57-3.94-2.07-.31,.58c-.3,.57-.19,.85,.45,1.19l2.25,1.18Zm6.55,1.75l-3.7-1.94-.29,.56c-.29,.56-.19,.85,.47,1.2l2.01,1.06c.64,.34,.92,.26,1.21-.3l.3-.57Z"/><path class="d" d="M141.51,126.19l-5.95-6.79-4.24-2.85,1.21-1.8,4.24,2.85,8.53,2.95-1.18,1.76-5.24-2.05-.07,.1,3.87,4.07-1.18,1.76Z"/><path class="d" d="M128.83,123.97c-.53-.49-.92-.38-1.19-.08-.29,.31-.35,.7,.18,1.19l8.23,7.55-1.49,1.63-8.24-7.56c-1.55-1.42-1.24-2.77-.05-4.06,1.18-1.29,2.5-1.72,4.05-.3l1.46,1.34-1.5,1.63-1.45-1.33Z"/><path class="d" d="M121.05,131.35c-1.38-1.59-.92-2.89,.4-4.04,1.32-1.15,2.68-1.43,4.06,.15l7.35,8.43-1.67,1.45-7.34-8.42c-.47-.54-.87-.48-1.18-.21-.32,.28-.43,.65,.05,1.2l7.34,8.42-1.67,1.45-7.35-8.43Z"/><path class="d" d="M120.86,139.51l1.14,1.64c.41,.59,.8,.58,1.15,.34,.35-.24,.5-.6,.09-1.19l-.98-1.42c-1.2-1.73-3.93,.76-5.84-1.99l-1.06-1.53c-1.18-1.71-.61-2.94,.83-3.94,1.43-.99,2.78-1.08,3.96,.62l1.15,1.66-1.74,1.21-1.14-1.64c-.41-.59-.8-.58-1.16-.33-.36,.25-.5,.6-.09,1.2l.98,1.42c1.2,1.73,3.92-.75,5.83,2l1.06,1.53c1.18,1.71,.61,2.94-.81,3.92-1.43,.99-2.77,1.07-3.95-.63l-1.15-1.66,1.74-1.21Z"/><path class="d" d="M114.3,146.6l1.54-.85-5.76-10.49,1.95-1.07,5.76,10.49,1.54-.85,.9,1.63-5.03,2.76-.9-1.63Z"/><path class="d" d="M106.7,148.89l-3.17-7.64c-.75-1.82-.68-2.73,1.28-3.54l3.13-1.3,5.3,12.78-3.13,1.3c-1.96,.81-2.66,.22-3.41-1.6Zm2.04-.86c.28,.67,.54,.79,1.14,.54l.61-.25-3.87-9.34-.61,.25c-.6,.25-.7,.52-.42,1.18l3.16,7.62Z"/><path class="d" d="M102.96,151.03l-1.18-3.95-1.99,.6-.53-1.76,1.99-.6-1.19-3.98-2.03,.61-.54-1.79,4.15-1.25,3.98,13.25-4.15,1.25-.54-1.79,2.03-.61Z"/><path class="d" d="M94.92,150.12l.39,1.96c.14,.71,.5,.85,.92,.77,.41-.08,.7-.35,.56-1.06l-.33-1.7c-.41-2.07-3.91-.87-4.56-4.16l-.36-1.83c-.4-2.04,.61-2.94,2.33-3.28,1.71-.34,2.98,.12,3.38,2.15l.39,1.98-2.08,.41-.39-1.96c-.14-.71-.51-.85-.93-.77-.43,.08-.7,.35-.56,1.06l.33,1.7c.41,2.07,3.9,.87,4.55,4.16l.36,1.83c.4,2.04-.61,2.94-2.31,3.28-1.71,.34-2.97-.12-3.37-2.16l-.39-1.98,2.08-.41Z"/><path class="d" d="M91.74,155.34l-2.2,.25-1.58-13.75,2.2-.25,1.59,13.75Z"/><path class="d" d="M83.65,151.31l.06,1.97c.02,.72,.36,.92,.8,.91,.42-.01,.76-.24,.74-.96l-.27-8.51c-.02-.72-.35-.92-.84-.91-.5,.02-.82,.24-.8,.96l.11,3.32,.93-.03,.06,1.79-3.02,.1-.17-5.13c-.07-2.1,1.11-2.82,2.87-2.88,1.75-.05,2.98,.58,3.05,2.69l.28,8.54c.07,2.1-1.13,2.82-2.87,2.88-1.76,.06-2.98-.58-3.05-2.69l-.06-1.99,2.2-.07Z"/><path class="d" d="M79.17,155.97l-2.85-.25-1-10.36h-.13l-.09,1.64-.75,8.54-2.04-.18,1.21-13.79,2.83,.25,.99,10.36h.15l.08-1.64,.75-8.54,2.04,.18-1.21,13.79Z"/><path class="d" d="M65.55,152.12l.98-4.09-2.05-.49,.43-1.78,2.05,.49,1.38-5.76,2.17,.52-3.21,13.46-4.21-1.01,.43-1.81,2.05,.49Z"/><path class="d" d="M61.39,138.37l-.73,5.31,.13,.04,2.76-4.59,2.06,.72-3.9,6.07-.74,6.96-2.06-.72,.71-5.11-.13-.04-2.62,4.43-2.06-.72,3.78-5.89,.75-7.18,2.06,.72Z"/></g></g><g><g><path class="i" d="M50.08,89.85c.79,2.26,1.9,4.43,3.24,6.45,1.34,2.03,2.9,3.91,4.64,5.62,6.94,6.83,16.69,10.86,26.54,10.22,13.11-.95,25.51-9.77,30.28-22.19"/><path class="i" d="M46.77,88.65c1.26,2.28,5.08,1.56,5.75-1.14"/><path class="i" d="M118.6,88.57c-.71,1.04-2.03,1.63-3.37,1.45-1.34-.18-2.32-1.05-2.55-2.17"/></g><path class="e" d="M68,83.52c.1,.38,.24,.74,.44,1.09,1.28,2.27,4.22,2.9,6.54,3.53-1.26-3.08-.89-6.38-.71-9.62,.18-3.12,.85-6.38,.67-9.5-.09-1.62-.77-3.35-2.22-4.09-1.73-.87-3.77,.11-4.42,1.86-1.14,3.07-.18,7.32-.17,10.53,0,1.9-.66,4.21-.13,6.2Z"/><path class="e" d="M84.27,88.66c.71,2.75,5.47-.11,8.1,.13-1.43-6.44-1.91-12.87-1.91-19.31-6.91,1.67-9.06,9.3-6.95,15.51,.25,1.19,.53,2.41,.76,3.67Z"/></g><path class="f" d="M117.46,56.45c-5.08,1.29-5.22,2.68-6.28,7.88-.07,.36-.59,.36-.67,0-1.07-5.21-1.2-6.6-6.28-7.88-.34-.09-.34-.57,0-.66,5.08-1.29,5.22-2.68,6.28-7.88,.07-.36,.59-.36,.67,0,1.07,5.21,1.2,6.6,6.28,7.88,.34,.09,.34,.57,0,.66Z"/><path class="f" d="M102.38,46.89c-2.54,.64-2.61,1.34-3.14,3.94-.04,.18-.3,.18-.33,0-.53-2.6-.6-3.3-3.14-3.94-.17-.04-.17-.29,0-.33,2.54-.64,2.61-1.34,3.14-3.94,.04-.18,.3-.18,.33,0,.53,2.6,.6,3.3,3.14,3.94,.17,.04,.17,.29,0,.33Z"/></g></g></svg>