<svg xmlns="http://www.w3.org/2000/svg" width="965.918" height="391.397" viewBox="0 0 965.918 391.397">
  <g id="logolar" transform="translate(-6135 -14724.002)">
    <path id="Path_5354" data-name="Path 5354" d="M.693,168.928l16.251,46.883h10.6L12.3,168.928Zm28.956,0-5.37,23.211,5.153,15.846,3.048-15.058L37.7,215.811h9.29l-12.12-46.883Zm23.368,0L45.4,192.6l4.718,18.345L64.7,168.927Z" transform="translate(6135 14724.001)" fill="#fff"/>
    <path id="Path_5355" data-name="Path 5355" d="M45.926,192.612,53.4,169.389H64.011L50.191,209.2Zm6.713-24.142-7.727,24-.038.116,5.17,20.106L65.4,168.47ZM24.8,192.123l5.26-22.734h4.408L46.353,215.35H38.12l-5.67-24.826L29.317,206Zm4.431-23.656-5.481,23.691,5.792,17.814,2.963-14.636,4.783,20.935H47.637l-12.36-47.8Zm-27.848.922H11.926L26.867,215.35H17.325ZM0,168.466l16.576,47.8H28.225l-15.54-47.8Z" transform="translate(6135 14724.001)" fill="#fff"/>
    <path id="Path_5356" data-name="Path 5356" d="M80.451,198.32l2.758,9.074H73.048l-2.612,8.417H58.389L72.976,173.6,78.2,190.824l-2.1,7.5Zm9.725,17.491L75.952,168.928h10.16l16.111,46.883Z" transform="translate(6135 14724.001)" fill="#fff"/>
    <path id="Path_5357" data-name="Path 5357" d="M102.915,216.272H89.789l-14.5-47.805h11.2l.112.324Zm-12.351-.922h10.968L85.738,169.389H76.62Zm-20.128.922H57.7l15.311-44.311,5.72,18.858-1.977,7.039h4.088l3.038,10H73.434l-2.612,8.417Zm-11.354-.922H70.051l2.612-8.416h9.879l-2.477-8.152H75.443l2.233-7.953-4.731-15.6Z" transform="translate(6135 14724.001)" fill="#fff"/>
    <path id="Path_5358" data-name="Path 5358" d="M154.186,216.272H141.121v-18.41l-5.161,11.211L130.2,196.018l.076-.171,12.1-27.381h11.812Zm-12.047-.922h11.03V169.389H143.063l-11.771,26.63,4.688,10.617,6.159-13.38Zm-9.534.922h-8.223l-.13-.284L102.33,168.466h12.284l.128.289,19.528,43.969Zm-7.545-.922h6.872l1.237-2.634-19.243-43.327H103.858Zm-9.41.922H102.585V176.3l13.065,28.31ZM103.6,215.35h11.03V204.791l-11.03-23.9Z" transform="translate(6135 14724.001)" fill="#fff"/>
    <path id="Path_5359" data-name="Path 5359" d="M148.925,200.712a.718.718,0,0,0-.692.325,1.173,1.173,0,0,0-.1.548v1.306h1.523v-1.273a1.365,1.365,0,0,0-.092-.569.641.641,0,0,0-.639-.337" transform="translate(6135 14724.001)" fill="#fff"/>
    <path id="Path_5360" data-name="Path 5360" d="M103.09,215.811h12.047V204.7L103.09,178.6Z" transform="translate(6135 14724.001)" fill="#fff"/>
    <path id="Path_5361" data-name="Path 5361" d="M142.714,168.928,130.74,196.019l5.225,11.836,5.66-12.3v20.252h12.047V168.928Zm4.43,17.607,2.469-1.175-2.469-1.125v-1.343l3.543,1.894h2.126v1.183h-2.126l-3.543,1.959Zm0,1.99h1v3h1.2v-2.75h.985v2.75h1.458v-3.134h1.019v4.29h-5.669Zm0,8.683h2.336l-2.336-2.187v-1.529l2.331,2.323,3.337-2.442v1.519l-2.474,1.744.578.57h1.9v1.164h-5.669Zm0,4.129a2.469,2.469,0,0,1,.146-.893,1.4,1.4,0,0,1,.4-.53,1.75,1.75,0,0,1,.477-.285,1.575,1.575,0,0,1,.6-.1,1.7,1.7,0,0,1,.794.2,1.134,1.134,0,0,1,.552.673,1.059,1.059,0,0,1,.448-.555,1.866,1.866,0,0,1,.887-.163h.38a2.9,2.9,0,0,0,.527-.031.478.478,0,0,0,.323-.219h.142v1.306c-.125.036-.225.062-.3.077a2.767,2.767,0,0,1-.489.05l-.527.008a1.068,1.068,0,0,0-.723.187.956.956,0,0,0-.181.674v1.161h2.223v1.156h-5.669Zm5.669,11.991h-4.665v1.7h-1v-4.586h1v1.693h4.665Zm-.777-3.856a2.925,2.925,0,0,1-1.408.28h-3.484v-1.2h3.481a1.978,1.978,0,0,0,.854-.137,1.149,1.149,0,0,0,0-1.864,1.965,1.965,0,0,0-.854-.138h-3.481v-1.2h3.484a2.925,2.925,0,0,1,1.408.28,2.61,2.61,0,0,1,0,3.984Z" transform="translate(6135 14724.001)" fill="#fff"/>
    <path id="Path_5362" data-name="Path 5362" d="M103.09,168.928l21.627,46.883h7.547l1.452-3.09-19.45-43.793Z" transform="translate(6135 14724.001)" fill="#fff"/>
    <path id="Path_5363" data-name="Path 5363" d="M871.157,155.324,866.2,138.54h-2.193v-4.482h10.49v4.482h-2.67l4.911,16.784Zm9.3-11.444-2.718,10.013-2.193-7.438,2.527-9.489Zm3.2-9.822,7.3,21.265H885.7l-7.3-21.265Zm5.2,11.157,1.812-6.675h-2.622v-4.482h10.252v4.482H896.1l-4.386,14.971Z" transform="translate(6135 14724.001)" fill="#fff"/>
    <path id="Path_5364" data-name="Path 5364" d="M791.935,159.447v5.02a10.727,10.727,0,0,1-4.733-.909v-4.829a8.2,8.2,0,0,0,3.538.86,4.541,4.541,0,0,0,1.2-.142m-.956-20.892v-4.494H799.1v23.33c0,4.112-2.247,6.311-5.593,6.884V138.552Zm1.721-11.331a3.4,3.4,0,1,1,3.336,3.336,3.395,3.395,0,0,1-3.336-3.336" transform="translate(6135 14724.001)" fill="#fff"/>
    <path id="Path_5365" data-name="Path 5365" d="M816.008,151.224v4.59a9.548,9.548,0,0,1-1.147.048c-6.549,0-10.374-1.769-10.374-8.032v-9.275h-2.534v-4.494h8.127v13.29c0,2.821,1.291,3.873,4.59,3.873Zm9.705,3.49c-2.869.526-5.881.86-8.128,1.052V138.555H815v-4.494h8.176v16.733l2.534-.478Z" transform="translate(6135 14724.001)" fill="#fff"/>
    <path id="Path_5366" data-name="Path 5366" d="M834.6,155.765V151.51a6.985,6.985,0,0,0,1.435.143c1.721,0,3.3-.621,3.3-2.2,0-1.482-1.243-1.96-3.777-2.486-5.02-.908-7.171-2.964-7.171-6.6,0-4.494,3.682-6.789,8.51-6.789a5.754,5.754,0,0,1,.765.048v4.207a6.114,6.114,0,0,0-.765-.048c-1.864,0-2.916.861-2.916,2.1,0,1.2.765,1.817,3.251,2.343,5.689,1.1,7.7,3.107,7.7,6.932,0,4.542-3.681,6.693-8.892,6.693a12.368,12.368,0,0,1-1.44-.088m-6.071-7.076h4.637v6.884A13.941,13.941,0,0,1,828.532,154Zm10.566-8.127v-6.789a14.145,14.145,0,0,1,4.685,1.434v5.355Z" transform="translate(6135 14724.001)" fill="#fff"/>
    <path id="Path_5367" data-name="Path 5367" d="M846.555,134.06h3.2v-5.211H855.3v18.646c0,2.486,1.148,3.251,2.869,3.251a7.134,7.134,0,0,0,3.92-1.2v5.121a11.14,11.14,0,0,1-5.4,1.2c-3.682,0-6.932-1.769-6.932-6.885V138.554h-3.2Zm10.328,0h5.02v4.494h-5.02Z" transform="translate(6135 14724.001)" fill="#fff"/>
    <path id="Path_5368" data-name="Path 5368" d="M925.485,135.822a34.2,34.2,0,0,1,8.153-1.86v16.879h3.672v4.482H925.485v-4.482h2.575V139.827l-2.575.62Zm9.727,3v-5.006c.524-.048,1.288-.048,1.431-.048a16.159,16.159,0,0,1,4.005.525v5.054a11.023,11.023,0,0,0-4.005-.62,7.97,7.97,0,0,0-1.431.1Z" transform="translate(6135 14724.001)" fill="#fff"/>
    <path id="Path_5369" data-name="Path 5369" d="M942.267,122.9h8.154v27.942h2.336v4.482h-10.49v-4.482h2.527v-23.46h-2.527Zm20.6,27.942h3.051v4.482h-6.2l-8.249-10.061,3.767-3.814Zm-6.675-10.347,2-2.05H955.14v-4.386h10.633v4.482h-1.812l-5.2,5.006Z" transform="translate(6135 14724.001)" fill="#fff"/>
    <path id="Path_5370" data-name="Path 5370" d="M904.53,134.277l1.656,2.866c-2.856,2.328-4.11,5.273-3.145,8.875s3.517,5.526,7.154,6.142v3.325a11.209,11.209,0,0,1-4.708-1.377,11.383,11.383,0,0,1-5.3-6.028,11.58,11.58,0,0,1,4.343-13.8" transform="translate(6135 14724.001)" fill="#fff"/>
    <path id="Path_5371" data-name="Path 5371" d="M910.651,155.973l-.487-.034a11.72,11.72,0,0,1-4.9-1.433,11.86,11.86,0,0,1-5.5-6.264,12.068,12.068,0,0,1,4.513-14.347l.4-.266,2.092,3.621-.3.245c-2.856,2.328-3.863,5.155-2.992,8.4s3.152,5.195,6.789,5.81l.38.064Zm-6.268-21.039a11.165,11.165,0,0,0-3.765,12.982,10.969,10.969,0,0,0,5.09,5.792,10.763,10.763,0,0,0,4.031,1.277v-2.442c-3.8-.751-6.2-2.9-7.138-6.4s.069-6.568,3-9.1Z" transform="translate(6135 14724.001)" fill="#fff"/>
    <rect id="Rectangle_2309" data-name="Rectangle 2309" width="4.187" height="9.948" transform="translate(7044.341 14854.616)" fill="#fff"/>
    <path id="Path_5372" data-name="Path 5372" d="M918.342,134.277l-1.656,2.866c2.856,2.328,4.11,5.273,3.145,8.875s-3.517,5.526-7.154,6.142v3.325a11.209,11.209,0,0,0,4.708-1.377,11.383,11.383,0,0,0,5.3-6.028,11.58,11.58,0,0,0-4.343-13.8" transform="translate(6135 14724.001)" fill="#fff"/>
    <path id="Path_5373" data-name="Path 5373" d="M912.221,155.973v-4.2l.38-.064c3.637-.616,5.921-2.57,6.789-5.81s-.136-6.075-2.992-8.4l-.3-.245,2.093-3.621.4.266a12.068,12.068,0,0,1,4.513,14.347,11.86,11.86,0,0,1-5.5,6.264,11.72,11.72,0,0,1-4.9,1.433Zm.912-3.434v2.446a10.764,10.764,0,0,0,4.031-1.277,10.97,10.97,0,0,0,5.091-5.792,11.165,11.165,0,0,0-3.766-12.982l-1.217,2.109c2.93,2.528,3.939,5.586,3,9.1s-3.339,5.645-7.139,6.4Z" transform="translate(6135 14724.001)" fill="#fff"/>
    <path id="Path_5374" data-name="Path 5374" d="M111.771,70.446l.288.075a.8.8,0,0,1-.015.138v.135a.536.536,0,0,0,.288.423,3.4,3.4,0,0,0,.685.317q.413.12.809.2a3.937,3.937,0,0,0,.64.076,5.18,5.18,0,0,0,.517-.032,2.975,2.975,0,0,0,.626-.122,1.726,1.726,0,0,0,.517-.27.586.586,0,0,0,.214-.469.51.51,0,0,0-.382-.482,3.924,3.924,0,0,0-.93-.226c-.376-.06-.782-.113-1.218-.166a6.869,6.869,0,0,1-1.218-.271,2.735,2.735,0,0,1-.946-.543,1.364,1.364,0,0,1-.366-1.011,1.79,1.79,0,0,1,.808-1.538,3.862,3.862,0,0,1,2.268-.575,5.157,5.157,0,0,1,1.22.122,5.428,5.428,0,0,1,.869.24,3.776,3.776,0,0,1,.564.258.93.93,0,0,0,.334.1.413.413,0,0,0,.184-.031.952.952,0,0,1,.152-.093l.166.166-.761,1.417-.274-.088-.03-.183a.3.3,0,0,0-.139-.181,2.563,2.563,0,0,0-.94-.431,5.326,5.326,0,0,0-1.433-.178,3.716,3.716,0,0,0-.577.042,1.783,1.783,0,0,0-.488.122.908.908,0,0,0-.336.242.522.522,0,0,0,.244.83,5.293,5.293,0,0,0,.946.225l1.218.167a5.592,5.592,0,0,1,1.218.273,2.32,2.32,0,0,1,.93.572,1.393,1.393,0,0,1,.382,1.041,1.694,1.694,0,0,1-.336,1.086,2.243,2.243,0,0,1-.807.665,3.473,3.473,0,0,1-1.083.313c-.182.024-.362.042-.536.052l-.793,1.557h-.9l.529-1.566a4.231,4.231,0,0,1-.434-.059c-.337-.071-.646-.144-.931-.226s-.508-.173-.7-.241a1.4,1.4,0,0,0-.35-.119.226.226,0,0,0-.183.09l-.211-.151Zm92.245,0,.288.075a.641.641,0,0,1-.015.138v.135a.535.535,0,0,0,.289.423,3.388,3.388,0,0,0,.686.317c.273.08.544.147.8.2a3.973,3.973,0,0,0,.643.076c.14,0,.312-.011.517-.032a2.975,2.975,0,0,0,.626-.122,1.714,1.714,0,0,0,.517-.27.593.593,0,0,0,.214-.469.514.514,0,0,0-.384-.482,3.8,3.8,0,0,0-.928-.226c-.376-.06-.78-.113-1.219-.166a6.859,6.859,0,0,1-1.217-.271,2.71,2.71,0,0,1-.946-.543,1.364,1.364,0,0,1-.366-1.011,1.8,1.8,0,0,1,.805-1.538,3.881,3.881,0,0,1,2.271-.575,5.157,5.157,0,0,1,1.22.122,5.564,5.564,0,0,1,.869.24,3.868,3.868,0,0,1,.563.258.945.945,0,0,0,.337.1.439.439,0,0,0,.183-.031,1.152,1.152,0,0,1,.15-.091l.169.166-.763,1.417-.274-.088-.032-.183a.313.313,0,0,0-.134-.181,2.621,2.621,0,0,0-.946-.438,5.338,5.338,0,0,0-1.434-.178,3.717,3.717,0,0,0-.577.042,1.82,1.82,0,0,0-.488.122.934.934,0,0,0-.338.242.519.519,0,0,0-.119.346.5.5,0,0,0,.366.484,5.314,5.314,0,0,0,.946.225l1.217.167a5.543,5.543,0,0,1,1.219.273,2.309,2.309,0,0,1,.929.572,1.387,1.387,0,0,1,.379,1.041,1.681,1.681,0,0,1-.334,1.086,2.236,2.236,0,0,1-.805.665,3.447,3.447,0,0,1-1.083.318c-.182.024-.363.042-.538.052l-.791,1.557H205.6l.524-1.566c-.143-.012-.291-.033-.436-.059-.334-.071-.646-.144-.928-.226s-.506-.173-.7-.241a1.419,1.419,0,0,0-.352-.119.228.228,0,0,0-.182.09l-.211-.151Zm-107.642-5.1a.826.826,0,0,0,.26.609.866.866,0,0,0,1.225.009l.009-.009a.819.819,0,0,0,.26-.609.832.832,0,0,0-.26-.615.872.872,0,0,0-1.234,0A.84.84,0,0,0,96.374,65.346Zm125.732,7.485h2.313v-.273q-.422,0-.421-.228V66.689q0-.227.421-.226v-.271h-2.313v.271a.684.684,0,0,1,.337.06.17.17,0,0,1,.091.166V72.33a.21.21,0,0,1-.091.184.9.9,0,0,1-.337.044Zm-37.385,0h2.038v-.273a.6.6,0,0,1-.211-.029c-.052-.022-.076-.072-.076-.153a.487.487,0,0,1,.031-.164l.1-.226.43-.815h3.258l.411.86.074.194a.439.439,0,0,1,.031.168.17.17,0,0,1-.091.166.31.31,0,0,1-.151.043v.23h2.161v-.273a.738.738,0,0,1-.2-.091.573.573,0,0,1-.169-.2l-2.467-5.131a2.785,2.785,0,0,0-.151-.286.552.552,0,0,1-.06-.228c0-.068.014-.109.043-.118l.109-.317h-2.3v.271c.106.07.12.1.12.163a.592.592,0,0,1-.06.258l-.137.334-2.271,4.9a1.839,1.839,0,0,1-.183.271.446.446,0,0,1-.288.166Zm2.769-2.779,1.083-2.534,1.234,2.534Zm-17.421,2.506v.273h1.968v-.273c-.186,0-.274-.076-.274-.228V67.306h1.979a.439.439,0,0,1,.229.063.2.2,0,0,1,.1.2h.275v-1.74h-.267a.33.33,0,0,1-.1.286.378.378,0,0,1-.229.077h-5.424a.375.375,0,0,1-.228-.077.327.327,0,0,1-.105-.286h-.275v1.736h.275a.2.2,0,0,1,.105-.2.438.438,0,0,1,.228-.063H170.3v5.024a.226.226,0,0,1-.074.184.314.314,0,0,1-.163.049Zm-21.425.273h1.874v-.273c-.214,0-.32-.076-.32-.228V67.943l3.778,3.982.32.347c.1.1.152.171.152.212l-.109.349h1.983V72.56c-.184,0-.275-.076-.275-.228V66.689c0-.151.091-.226.275-.226v-.271h-1.86v.271c.2,0,.3.075.3.226v4.088l-3.655-3.831c-.224-.222-.334-.358-.334-.407l.106-.346h-2.24v.271c.181,0,.274.075.274.226v5.641c0,.153-.093.228-.274.228Zm-19.127,0h2.039v-.273a.559.559,0,0,1-.211-.029c-.053-.022-.078-.072-.078-.153a.573.573,0,0,1,.03-.164l.108-.226.425-.815h3.26l.411.86.077.194a.462.462,0,0,1,.03.168.166.166,0,0,1-.091.166.31.31,0,0,1-.151.043v.23h2.162v-.273a.67.67,0,0,1-.2-.091.511.511,0,0,1-.169-.2l-2.468-5.131c-.053-.11-.1-.2-.151-.286a.567.567,0,0,1-.063-.228c0-.068.018-.109.047-.118l.1-.317h-2.3v.271c.109.07.123.1.123.163a.641.641,0,0,1-.06.258l-.139.334-2.269,4.9a1.652,1.652,0,0,1-.183.271.442.442,0,0,1-.288.166Zm2.771-2.779,1.083-2.534,1.234,2.534ZM96.12,72.831h2.316v-.273c-.287,0-.427-.076-.427-.228V67.083c0-.15.14-.226.427-.226v-.272H96.12v.272a.636.636,0,0,1,.335.062.166.166,0,0,1,.092.164V72.33a.208.208,0,0,1-.092.184.887.887,0,0,1-.335.044Zm-19.95,0h1.872v-.273c-.211,0-.32-.076-.32-.228V67.943L81.5,71.925l.32.347c.1.1.153.171.153.212l-.107.349h1.981V72.56c-.182,0-.274-.076-.274-.228V66.689c0-.151.092-.226.274-.226v-.271H81.99v.271c.2,0,.3.075.3.226v4.088l-3.654-3.831c-.223-.222-.336-.358-.336-.407l.106-.346H76.17v.271c.183,0,.274.075.274.226v5.641c0,.153-.091.228-.274.228ZM198.379,58.613l.72.41a.862.862,0,0,1,.668-.41,2.973,2.973,0,0,1,1.339.41q.775.354,2.06.866a23.2,23.2,0,0,0,3.294.815,33.616,33.616,0,0,0,4.942.3,36.092,36.092,0,0,0,4.528-.3,16.479,16.479,0,0,0,4.58-1.327,9.7,9.7,0,0,0,3.5-2.65,6.42,6.42,0,0,0,1.442-4.335,6.764,6.764,0,0,0-.925-3.722,6.235,6.235,0,0,0-2.37-2.243A10.044,10.044,0,0,0,218.81,45.2,27.958,27.958,0,0,0,215,44.641q-1.955-.151-3.863-.252a23.056,23.056,0,0,1-3.343-.41,6.862,6.862,0,0,1-2.37-.915,2.1,2.1,0,0,1-.875-1.837,1.85,1.85,0,0,1,.627-1.426,4.914,4.914,0,0,1,1.646-.968,10.13,10.13,0,0,1,2.165-.509,14.524,14.524,0,0,1,2.365-.206,14.891,14.891,0,0,1,2.985.308,16.437,16.437,0,0,1,2.78.713,10.041,10.041,0,0,1,2.211,1.073,4.036,4.036,0,0,1,1.393,1.173,2.778,2.778,0,0,1,.411,1.169l.513.2L225.2,36.38l-.619-.407a1.421,1.421,0,0,1-1.027.306,4.823,4.823,0,0,1-1.7-.407c-.65-.271-1.477-.561-2.471-.867a33.834,33.834,0,0,0-3.449-.866,23.949,23.949,0,0,0-4.735-.409,18.094,18.094,0,0,0-5.558.764,12.327,12.327,0,0,0-3.912,1.885,7.856,7.856,0,0,0-2.316,2.7,7.224,7.224,0,0,0-.721,3.11,7.431,7.431,0,0,0,.875,3.824,7.2,7.2,0,0,0,2.369,2.3,11.452,11.452,0,0,0,3.343,1.172,35.826,35.826,0,0,0,3.86.51c1.3.1,2.573.187,3.811.254a23.174,23.174,0,0,1,3.347.306,6.422,6.422,0,0,1,2.365.815,1.885,1.885,0,0,1,.928,1.733,2.232,2.232,0,0,1-.977,1.888,7.725,7.725,0,0,1-2.316,1.12,14.973,14.973,0,0,1-2.732.562c-.924.067-1.681.1-2.264.1a16.007,16.007,0,0,1-2.676-.256,25.367,25.367,0,0,1-2.882-.764,17.639,17.639,0,0,1-2.419-1.019,3.875,3.875,0,0,1-1.389-1.223,1.565,1.565,0,0,1-.207-.816l-.514-.255Zm-8.388-15.851V43.91a7.073,7.073,0,0,0,2.176-.9,8.291,8.291,0,0,0,1.849-1.542,7.473,7.473,0,0,0,1.265-1.975,5.437,5.437,0,0,0,.509-2.3,4.187,4.187,0,0,0-.762-2.551,2.471,2.471,0,0,0-2.172-1.041,2.371,2.371,0,0,0-1.705.754,2.494,2.494,0,0,0-.724,1.8,2.208,2.208,0,0,0,.652,1.689,2.42,2.42,0,0,0,1.6.575,5.733,5.733,0,0,1,.615.036.416.416,0,0,1,.4.288,2.121,2.121,0,0,1-.291,1.29,5.437,5.437,0,0,1-.943,1.222,7.1,7.1,0,0,1-1.234.971,5.236,5.236,0,0,1-1.233.536Zm-33.476-8.694v.919a2.862,2.862,0,0,1,1.241.358,2.774,2.774,0,0,1,1.136.867l9.952,13.8V59.1a.875.875,0,0,1-.309.717,1.366,1.366,0,0,1-.773.2v.921h8.148v-.921c-.788,0-1.185-.3-1.185-.92v-9.09l8.767-12.314q.621-.918,1.03-1.43a4.629,4.629,0,0,1,.83-.819,1.75,1.75,0,0,1,.772-.358,2.89,2.89,0,0,1,.774-.1v-.919h-9.027v.919a4.251,4.251,0,0,1,.878.1q.513.1.514.462a1.16,1.16,0,0,1-.256.663q-.26.361-.672.971L172.3,45.407q-.67-1.073-1.751-2.605c-.724-1.021-1.427-2.012-2.116-2.963q-.983-1.484-1.755-2.6a4.519,4.519,0,0,1-.72-1.483.547.547,0,0,1,.411-.613,2.535,2.535,0,0,1,.875-.153v-.919ZM143.111,59.1V38.767h8.51a1.617,1.617,0,0,1,.875.257,1.009,1.009,0,0,1,.467.97h.928V32.842h-.928a1.006,1.006,0,0,1-.467.968,1.618,1.618,0,0,1-.875.258h-22.9a1.917,1.917,0,0,1-.931-.258,1.046,1.046,0,0,1-.411-.968h-.928v7.152h.928a1.049,1.049,0,0,1,.411-.97,1.916,1.916,0,0,1,.931-.257h8.508V59.1a.886.886,0,0,1-.308.717.967.967,0,0,1-.621.2v.921h7.943v-.921c-.757,0-1.132-.3-1.132-.917m-31.567,1.838h8.563v-.921c-.894,0-1.341-.3-1.341-.92V35.9q0-.92,1.341-.919v-.919h-8.563v.919q1.343,0,1.343.919V59.1c0,.615-.448.92-1.343.92ZM103.5,56.852l-3.4-5.416-.723.409a.949.949,0,0,1,.208.613q0,.663-1.032,1.431a11.79,11.79,0,0,1-2.474,1.328,25.108,25.108,0,0,1-3.3.971,17.69,17.69,0,0,1-3.457.358,14.286,14.286,0,0,1-4.178-.612,10.734,10.734,0,0,1-3.455-1.79,8.994,8.994,0,0,1-2.32-2.861,8.574,8.574,0,0,1-.878-3.933,8.274,8.274,0,0,1,.878-3.883,8.8,8.8,0,0,1,2.32-2.912,10.732,10.732,0,0,1,3.455-1.789,14.32,14.32,0,0,1,4.178-.612,14.024,14.024,0,0,1,2.786.306A22.133,22.133,0,0,1,95,39.227,9.76,9.76,0,0,1,97.313,40.3c.617.374.962.748,1.03,1.123a1.505,1.505,0,0,1,.053.359,1.06,1.06,0,0,1,.051.306l.514.357,4.024-6.18-.773-.613c-.069.1-.171.239-.311.408a.464.464,0,0,1-.411.255,4.674,4.674,0,0,1-1.136-.409,21.03,21.03,0,0,0-2.527-.866q-1.6-.459-3.765-.869a24.99,24.99,0,0,0-4.744-.409,22.313,22.313,0,0,0-6.239.865,16.4,16.4,0,0,0-5.311,2.608,13.394,13.394,0,0,0-3.612,16.243,12.877,12.877,0,0,0,3.612,4.293,16.251,16.251,0,0,0,5.311,2.5,23.659,23.659,0,0,0,6.242.814,19.646,19.646,0,0,0,4.744-.56A24.92,24.92,0,0,0,98.086,59.2q1.8-.765,2.939-1.379a4.974,4.974,0,0,1,1.5-.613.592.592,0,0,1,.256.051h.31Z" transform="translate(6135 14724.001)" fill="#fff" fill-rule="evenodd"/>
    <path id="Path_5375" data-name="Path 5375" d="M309.2,85.826h8.688l5.332,8.757,5.339-8.757h8.687v24.915h-8.286V98.4l-5.74,8.854h-.135L317.351,98.4v12.345H309.2Z" transform="translate(6135 14724.001)" fill="#fff"/>
    <path id="Path_5376" data-name="Path 5376" d="M337.5,101.128v-.068a9.826,9.826,0,0,1,9.421-10.215c.2-.008.389-.01.584-.006,6.94,0,10.106,4.809,10.106,10.714,0,.426,0,.93-.031,1.362H345.086a3.628,3.628,0,0,0,3.663,2.592,5.414,5.414,0,0,0,3.954-2l4.342,3.449a10.413,10.413,0,0,1-8.861,4.237c-6.412,0-10.684-4.015-10.684-10.068m12.745-1.78c-.178-1.855-1.281-2.918-2.709-2.918-1.384,0-2.316,1.1-2.56,2.918Z" transform="translate(6135 14724.001)" fill="#fff"/>
    <path id="Path_5377" data-name="Path 5377" d="M355.24,114.516,357.593,109a8.866,8.866,0,0,0,3.553,1.274,3.076,3.076,0,0,0,1.315-.283l-7.615-18.682h8.368l3.381,10.246,3.092-10.246h8.226l-6.723,18.079c-1.884,5.093-3.956,7.154-8.436,7.154a14.892,14.892,0,0,1-7.514-2.025" transform="translate(6135 14724.001)" fill="#fff"/>
    <path id="Path_5378" data-name="Path 5378" d="M375.554,101.379v-.073c0-6.589,4-10.966,8.868-10.966a7.758,7.758,0,0,1,6.245,2.855v-9.36h8.639V111.62h-8.639v-2.55c-1.411,1.515-3.013,3.042-6.17,3.042-5.02,0-8.942-4.373-8.942-10.733m15.3-.117v-.067a3.561,3.561,0,0,0-3.383-3.73l-.077,0a3.519,3.519,0,0,0-3.474,3.563c0,.057,0,.113.006.17v.067a3.473,3.473,0,1,0,6.928,0" transform="translate(6135 14724.001)" fill="#fff"/>
    <path id="Path_5379" data-name="Path 5379" d="M399.2,105.723v-.075c0-4.15,3.04-6.472,7.912-6.472a14.943,14.943,0,0,1,4.914.764V99.6c0-1.946-1.146-3.012-3.848-3.012a15.222,15.222,0,0,0-5.753,1.182l-1.513-5.745a23.7,23.7,0,0,1,8.755-1.521c4.26,0,6.964.875,8.787,2.7,1.563,1.565,2.167,3.54,2.167,6.583v11.842h-8.641V109.53A7.893,7.893,0,0,1,406,112.116c-4,0-6.811-2.284-6.811-6.391m12.9-1.792v-.872a6.1,6.1,0,0,0-1.981-.339c-1.706,0-2.661.992-2.661,2.315v.08a1.93,1.93,0,0,0,1.837,2.018c.046,0,.093,0,.139,0,1.529,0,2.666-1.226,2.666-3.2" transform="translate(6135 14724.001)" fill="#fff"/>
    <path id="Path_5380" data-name="Path 5380" d="M421.152,90.839h8.64v2.888a8.124,8.124,0,0,1,6.355-3.386c4.416,0,7.125,2.856,7.125,7.579v13.7h-8.646V100.7c0-1.8-1.021-2.826-2.357-2.826a2.55,2.55,0,0,0-2.49,2.61c0,.072.006.144.014.216v10.918h-8.64Z" transform="translate(6135 14724.001)" fill="#fff"/>
    <path id="Path_5381" data-name="Path 5381" d="M309.2,119.476h1.639v1.814H309.2Zm.163,5.4h1.313v13.769h-1.313Z" transform="translate(6135 14724.001)" fill="#fff"/>
    <path id="Path_5382" data-name="Path 5382" d="M314.978,135.887l.917-1.056a9.074,9.074,0,0,0,6.776,2.818c2.834,0,4.778-1.6,4.778-3.766v-.044c0-2-1.053-3.16-5.35-4.024-4.552-.944-6.361-2.427-6.361-5.32v-.05c0-2.8,2.564-4.968,6.069-4.968a9.477,9.477,0,0,1,6.481,2.3l-.891,1.1a8.2,8.2,0,0,0-5.637-2.133c-2.815,0-4.622,1.627-4.622,3.57v.053c0,2.022,1.027,3.179,5.506,4.129,4.4.89,6.21,2.432,6.21,5.206v.052c0,3.05-2.621,5.156-6.268,5.156a10.778,10.778,0,0,1-7.608-3.021" transform="translate(6135 14724.001)" fill="#fff"/>
    <path id="Path_5383" data-name="Path 5383" d="M338.3,121.043h-6.583v-1.3h14.569v1.3H339.7v17.6H338.3Z" transform="translate(6135 14724.001)" fill="#fff"/>
    <path id="Path_5384" data-name="Path 5384" d="M355.3,119.613h1.353l8.79,19.029h-1.529l-2.412-5.292H350.361l-2.4,5.292H346.5Zm5.609,12.469-4.96-10.93-4.993,10.93Z" transform="translate(6135 14724.001)" fill="#fff"/>
    <path id="Path_5385" data-name="Path 5385" d="M369.444,119.743h1.325l13.041,16.441V119.743h1.352v18.9h-1.053L370.8,121.857v16.786h-1.352Z" transform="translate(6135 14724.001)" fill="#fff"/>
    <path id="Path_5386" data-name="Path 5386" d="M390.768,119.743h7.8a6.784,6.784,0,0,1,4.908,1.677,4.027,4.027,0,0,1,1.215,2.966v.053a4.666,4.666,0,0,1-3.2,4.48c2.264.6,4.265,1.917,4.265,4.512v.047c0,3.163-2.7,5.159-6.782,5.159h-8.2Zm7.64,8.719c2.8,0,4.864-1.378,4.864-3.887v-.054c0-2.08-1.685-3.484-4.727-3.484h-6.372v7.425Zm.623,8.874c3.24,0,5.293-1.482,5.293-3.859v-.047c0-2.354-2-3.675-5.753-3.675h-6.4v7.588Z" transform="translate(6135 14724.001)" fill="#fff"/>
    <path id="Path_5387" data-name="Path 5387" d="M409.962,130.789V119.743h1.4v10.9c0,4.512,2.372,7.017,6.4,7.017,3.8,0,6.287-2.324,6.287-6.88V119.743h1.4v10.878c0,5.4-3.154,8.309-7.743,8.309-4.532,0-7.743-2.861-7.743-8.147" transform="translate(6135 14724.001)" fill="#fff"/>
    <path id="Path_5388" data-name="Path 5388" d="M430.779,119.743h1.4v17.6h11.093v1.3H430.779Z" transform="translate(6135 14724.001)" fill="#fff"/>
    <path id="Path_5389" data-name="Path 5389" d="M763.772,330.34l3.851,17.378.109-.067L763.983,330Z" transform="translate(6135 14724.001)" fill="#262223"/>
    <path id="Path_5390" data-name="Path 5390" d="M826.222,384.173l16.267-17.1-51.684-.279-15.284,17.03" transform="translate(6135 14724.001)" fill="#262223"/>
    <path id="Path_5391" data-name="Path 5391" d="M790,382.875s1.419,8.414,15.705,8.522,15.968-8.307,15.968-8.307Z" transform="translate(6135 14724.001)" fill="#262223"/>
    <path id="Path_5392" data-name="Path 5392" d="M763.908,330.2,777.114,301.1,790.8,366.869l-15.25,16.862-11.637-53.562" transform="translate(6135 14724.001)" fill="#fff"/>
    <path id="Path_5393" data-name="Path 5393" d="M775.522,383.825l-.018-.089-11.639-53.558,13.265-29.222.035.143,13.677,65.782-.014.015ZM763.965,330.2l11.6,53.438,15.185-16.788L777.1,301.25Z" transform="translate(6135 14724.001)" fill="#262223"/>
    <line id="Line_58" data-name="Line 58" x1="4.766" y2="4.323" transform="translate(6961.159 15025.016)" fill="none" stroke="#262223" stroke-miterlimit="10" stroke-width="0.45"/>
    <path id="Path_5394" data-name="Path 5394" d="M830.95,301.039l-7.2,6.485,7.175.846Z" transform="translate(6135 14724.001)" fill="#262223"/>
    <path id="Path_5395" data-name="Path 5395" d="M830.974,308.419l-.055-.007-7.271-.857.068-.062L831,300.934v.1Zm-7.12-.927,7.024.828.023-7.176Z" transform="translate(6135 14724.001)" fill="#262223"/>
    <path id="Path_5396" data-name="Path 5396" d="M777.236,301.038l13.588,65.679,13.379.071s1.72,10.618,16.428,10.71S836.3,366.957,836.3,366.957l6.118.032,2.822-65.95H830.95l-.1,5.833s-2.065-1.883-10.269-1.93a16.838,16.838,0,0,0-8.326,1.922l-.315-5.826Z" transform="translate(6135 14724.001)" fill="#fff"/>
    <path id="Path_5397" data-name="Path 5397" d="M820.631,377.578c-4.209-.026-10.006-.988-13.76-5.419a12.442,12.442,0,0,1-2.732-5.292L790.76,366.8l-.014-.069-13.618-65.768h34.9v.077l.3,5.686a17.467,17.467,0,0,1,8.136-1.86h.109c7.065.04,9.584,1.421,10.183,1.838l.1-5.741h14.468l-2.84,66.11-6.123-.032a11.4,11.4,0,0,1-2.351,5.275c-3.442,4.4-9.176,5.292-13.386,5.266m-29.735-10.94,13.382.07.011.069a12.084,12.084,0,0,0,2.712,5.286c3.714,4.379,9.462,5.329,13.637,5.355s9.856-.854,13.259-5.2a11.07,11.07,0,0,0,2.329-5.269l.007-.075,6.114.032,2.8-65.788H831.038l-.106,5.945-.149-.135c-.711-.644-3.762-1.87-10.205-1.907h-.108a16.857,16.857,0,0,0-8.167,1.908l-.132.082-.32-5.893H777.345Z" transform="translate(6135 14724.001)" fill="#221f1f"/>
    <path id="Path_5398" data-name="Path 5398" d="M820.631,377.578c-4.209-.026-10.006-.988-13.76-5.419a12.442,12.442,0,0,1-2.732-5.292L790.76,366.8l-.014-.069-13.618-65.768h34.9v.077l.3,5.686a17.467,17.467,0,0,1,8.136-1.86h.109c7.065.04,9.584,1.421,10.183,1.838l.1-5.741h14.468l-2.84,66.11-6.123-.032a11.4,11.4,0,0,1-2.351,5.275C830.575,376.713,824.841,377.6,820.631,377.578Zm-29.742-10.94,13.382.07.011.069a12.084,12.084,0,0,0,2.712,5.286c3.714,4.379,9.462,5.329,13.637,5.355s9.856-.854,13.259-5.2a11.07,11.07,0,0,0,2.329-5.269l.007-.075,6.114.032,2.8-65.788H831.038l-.106,5.945-.149-.135c-.711-.644-3.762-1.87-10.205-1.907h-.108a16.857,16.857,0,0,0-8.167,1.908l-.132.082-.32-5.893H777.345Z" transform="translate(6135 14724.001)" fill="none" stroke="#221f1f" stroke-miterlimit="10" stroke-width="0.35"/>
    <path id="Path_5399" data-name="Path 5399" d="M797.939,348.126l2.811-44.311h8.281l-6.447,58.942-8.771-.043-11.464-58.9h8.189l6.808,44.311c.046.32.576.322.593,0" transform="translate(6135 14724.001)" fill="#262223"/>
    <path id="Path_5400" data-name="Path 5400" d="M821.1,368.077c-6.684-.036-10.284-4.785-10.414-11.243l-.758-37.471c-.131-6.5,3.607-11.309,11.186-11.3,7.533,0,11.4,4.826,11.269,11.336l-.781,37.532c-.136,6.509-3.778,11.187-10.5,11.151m-3.163-10.716c.018,3.045,1.059,4.573,3.163,4.584s3.145-1.509,3.164-4.556l.249-38.622c.019-3.006-1.1-4.489-3.4-4.492-2.3.039-3.423,1.52-3.4,4.483Z" transform="translate(6135 14724.001)" fill="#262223"/>
    <path id="Path_5401" data-name="Path 5401" d="M834.272,362.914l1.556-59.092h6.284L839.9,362.94Z" transform="translate(6135 14724.001)" fill="#262223"/>
    <path id="Path_5402" data-name="Path 5402" d="M808.614,369.523l3.451-3.3.245.334-2.857,2.627,3.421-1.858.216.3-2.8,2.7,3.364-1.93.239.328-4.178,2.3-.245-.334,2.694-2.615-3.3,1.783Z" transform="translate(6135 14724.001)" fill="#262223"/>
    <path id="Path_5403" data-name="Path 5403" d="M811.875,372.829l-.344-.2,2.924-3.79.4.232-1.728,4.5-.333-.2.52-1.315-.608-.359Zm1.546-1.054.919-2.279-1.461,1.959Z" transform="translate(6135 14724.001)" fill="#262223"/>
    <path id="Path_5404" data-name="Path 5404" d="M815.3,374.382l-.359-.113.5-1.749.122-3.073.394.123-.19,2.517,1.185-2.206.393.123-1.54,2.616Z" transform="translate(6135 14724.001)" fill="#262223"/>
    <path id="Path_5405" data-name="Path 5405" d="M819.421,375.115l.25-4.5-.662-.043.017-.312,1.7.111-.018.312-.658-.043-.254,4.5Z" transform="translate(6135 14724.001)" fill="#262223"/>
    <path id="Path_5406" data-name="Path 5406" d="M822.37,375.2a.722.722,0,0,1-.789-.646.827.827,0,0,1,0-.086l-.14-3.364a.768.768,0,0,1,1.534-.06l.13,3.364a.716.716,0,0,1-.636.788.6.6,0,0,1-.1,0m-.013-.316a.37.37,0,0,0,.37-.37.347.347,0,0,0-.006-.065l-.135-3.417c-.011-.285-.147-.421-.4-.411-.228.009-.371.159-.359.441l.14,3.417a.372.372,0,0,0,.34.4.483.483,0,0,0,.054,0" transform="translate(6135 14724.001)" fill="#262223"/>
    <path id="Path_5407" data-name="Path 5407" d="M826.638,374.573l-1.289-4.636.37-.107,1.2,4.338.859-.25.081.3Z" transform="translate(6135 14724.001)" fill="#262223"/>
    <path id="Path_5408" data-name="Path 5408" d="M829.177,373.643l-2.078-4.316.346-.174,2.076,4.316Z" transform="translate(6135 14724.001)" fill="#262223"/>
    <path id="Path_5409" data-name="Path 5409" d="M831.328,371.483,828.987,368l.289-.26,2.633,4.039-.351.317-3.66-3.113.3-.268Z" transform="translate(6135 14724.001)" fill="#262223"/>
    <path id="Path_5410" data-name="Path 5410" d="M833.7,369.5l-4.3-2.04.561-1.176.281.132-.394.824,1.7.8.4-.824.271.128-.4.825,1.78.845.4-.831.276.131Z" transform="translate(6135 14724.001)" fill="#262223"/>
    <path id="Path_5411" data-name="Path 5411" d="M828.534,376.116l-7.233,8.026h.115l7.3-8.1Z" transform="translate(6135 14724.001)" fill="#a4a3a3"/>
    <path id="Path_5412" data-name="Path 5412" d="M790.338,383.927l14.051-17.286-.068-.058-14.1,17.343Z" transform="translate(6135 14724.001)" fill="#a4a3a3"/>
    <path id="Path_5413" data-name="Path 5413" d="M804.181,366.663h.109l.132.529.372-.909h-.233Z" transform="translate(6135 14724.001)" fill="#fff"/>
    <path id="Path_5414" data-name="Path 5414" d="M775.463,383.839l-11.8-53.555.012-.026,13.415-29.327.155.071-13.4,29.3,11.792,53.5Z" transform="translate(6135 14724.001)" fill="#221f1f"/>
    <path id="Path_5415" data-name="Path 5415" d="M826.017,305.231l4.816-4.3.114.128-4.816,4.3Z" transform="translate(6135 14724.001)" fill="#221f1f"/>
    <path id="Path_5416" data-name="Path 5416" d="M790.853,366.681,775.6,383.636l-.04.144.154.019,1.446-.713,9.02-8.258,4.677-7.373Z" transform="translate(6135 14724.001)" fill="#262223"/>
    <path id="Path_5417" data-name="Path 5417" d="M649.147,190.751a5.247,5.247,0,0,1-5.185-5.185,4.271,4.271,0,0,0-4.12-4.417q-.148,0-.3,0h-9.6a4.425,4.425,0,0,0-4.416,4.417,5.062,5.062,0,0,1-1.489,3.649,4.941,4.941,0,0,1-3.7,1.537.923.923,0,0,0-.118.005h-1.31a3.129,3.129,0,0,0-3.129,3.129h0v2.7a3.129,3.129,0,0,0,3.129,3.129h2.7a3.131,3.131,0,0,0,3.13-3.129v-1.082c.007-.111.015-.222.015-.336a5.246,5.246,0,0,1,5.184-5.186h9.6a5.085,5.085,0,0,1,5.185,4.983c0,.068,0,.135,0,.2v19.273a5.246,5.246,0,0,1-5.185,5.185h-9.6a5.261,5.261,0,0,1-5.16-4.661V213.92a5.261,5.261,0,0,1,5.16-4.661h9.082a4.21,4.21,0,0,0,3.169-1.3,4.341,4.341,0,0,0,1.248-3.121,4.27,4.27,0,0,0-4.118-4.417c-.1,0-.2,0-.3,0h-9.082a4.426,4.426,0,0,0-4.417,4.421,5.26,5.26,0,0,1-4.507,5.139h-2.07a3.131,3.131,0,0,0-3.13,3.129v2.7a3.13,3.13,0,0,0,3.128,3.132h2.332a4.909,4.909,0,0,1,2.754,1.411,5.017,5.017,0,0,1,1.493,3.689,4.426,4.426,0,0,0,4.416,4.417h9.6a4.425,4.425,0,0,0,4.42-4.417,4.936,4.936,0,0,1,1.536-3.7,5.062,5.062,0,0,1,3.651-1.48,4.427,4.427,0,0,0,4.417-4.417V195.169a4.271,4.271,0,0,0-4.12-4.417q-.148,0-.3,0" transform="translate(6135 14724.001)" fill="#fff"/>
    <path id="Path_5418" data-name="Path 5418" d="M702.375,199.788h2.7a3.129,3.129,0,0,0,3.129-3.129h0v-2.7a3.129,3.129,0,0,0-3.128-3.13h-1.261c-.048,0-.1-.006-.144-.006a5.247,5.247,0,0,1-5.185-5.186,4.27,4.27,0,0,0-4.118-4.417c-.1,0-.2,0-.3,0h-9.6a4.425,4.425,0,0,0-4.416,4.417,5.267,5.267,0,0,1-4.32,5.112h-2.285a3.129,3.129,0,0,0-3.129,3.129h0v2.7a3.129,3.129,0,0,0,3.129,3.129h2.159a4.927,4.927,0,0,1,2.954,1.438,5.02,5.02,0,0,1,1.489,3.7,4.426,4.426,0,0,0,4.416,4.417h9.6a5.07,5.07,0,0,1,5.176,4.962v.422a5.241,5.241,0,0,1-5.176,4.987h-9.6a5.246,5.246,0,0,1-5.184-5.185.953.953,0,0,0-.006-.131v-1.294a3.129,3.129,0,0,0-3.128-3.13h-2.7a3.13,3.13,0,0,0-3.13,3.13v2.7a3.131,3.131,0,0,0,3.13,3.129h1.184c.078,0,.154.011.233.011a5.085,5.085,0,0,1,5.185,4.983c0,.067,0,.135,0,.2a4.426,4.426,0,0,0,4.416,4.418h9.6a4.21,4.21,0,0,0,3.169-1.3,4.336,4.336,0,0,0,1.248-3.121,5.265,5.265,0,0,1,4.331-5.113h2.257A3.129,3.129,0,0,0,708.2,215.8h0v-2.7a3.129,3.129,0,0,0-3.129-3.129h-2.118a5.259,5.259,0,0,1-4.471-5.133,4.271,4.271,0,0,0-4.12-4.417q-.148,0-.3,0h-9.6a5.16,5.16,0,0,1-3.648-8.834,4.986,4.986,0,0,1,3.648-1.537h9.6A5.069,5.069,0,0,1,699.248,195v1.654a3.13,3.13,0,0,0,3.13,3.13" transform="translate(6135 14724.001)" fill="#fff"/>
    <path id="Path_5419" data-name="Path 5419" d="M676.229,224.346v3.014a2.929,2.929,0,0,1-2.927,2.925h-3.009a2.924,2.924,0,0,1-2.925-2.923v-2.281a7.18,7.18,0,0,0-1.939-3.41,4.926,4.926,0,0,0-3.635-1.47h-.011a4.352,4.352,0,0,1-4.348-4.292.271.271,0,0,1-.005-.063V193.4a.694.694,0,0,1,.01-.151c0-.1.009-.209.021-.313.016-.141.037-.276.063-.412.021-.1.047-.2.073-.3.011-.036.021-.073.031-.1.031-.1.073-.208.114-.313a2.466,2.466,0,0,1,.146-.318.392.392,0,0,1,.036-.063,2.308,2.308,0,0,1,.188-.323q.1-.15.219-.3c.078-.1.146-.177.224-.261a.966.966,0,0,1,.073-.083c0-.005.01-.011.01-.016a.043.043,0,0,1,.021-.021,5.448,5.448,0,0,0-.323-8.3l-.746-.751a2.549,2.549,0,0,1-.375-.454v-.005a2.908,2.908,0,0,1,0-3.217,2.55,2.55,0,0,1,.375-.454v-.02l2.127-2.122V175.1c.073-.073.146-.136.219-.2h.005a2.424,2.424,0,0,1,.485-.323,2.919,2.919,0,0,1,2.722,0,2.423,2.423,0,0,1,.485.323h.005c.073.063.146.125.219.2v.005l2.127,2.122v0a2.818,2.818,0,0,1,.376.454,2.469,2.469,0,0,1,.146.255,2.718,2.718,0,0,1,.214.521,2.93,2.93,0,0,1-.735,2.91l-.818.824a.135.135,0,0,0-.032.026,5.233,5.233,0,0,0-.678.678.153.153,0,0,0-.026.031l-.052.047a2.163,2.163,0,0,0-.125.177l-.032.047a5.458,5.458,0,0,0,.376,6.867c.01.016.021.026.031.042a.613.613,0,0,0,.058.067c.057.068.125.13.188.193a.524.524,0,0,1,.073.083.963.963,0,0,1,.073.083,3.281,3.281,0,0,1,.224.261,3.076,3.076,0,0,1,.219.3,2.3,2.3,0,0,1,.188.323.4.4,0,0,1,.037.063,2.475,2.475,0,0,1,.146.318,3.334,3.334,0,0,1,.115.313c.01.036.021.073.031.1.026.1.052.2.073.3a4.111,4.111,0,0,1,.083.725.694.694,0,0,1,.01.151v22.459a.329.329,0,0,1,0,.063,6.836,6.836,0,0,0,2.033,4.057,4.932,4.932,0,0,0,2.832,1.455h2.29a2.928,2.928,0,0,1,2.93,2.925" transform="translate(6135 14724.001)" fill="#fff"/>
    <path id="Path_5420" data-name="Path 5420" d="M618.587,221.311h-2.7a3.133,3.133,0,0,0-3.129,3.134v1.408a5.252,5.252,0,0,1-5.188,5.188H588.285a4.977,4.977,0,0,1-3.647-1.536,5.1,5.1,0,0,1-.088-7.212c.029-.03.058-.059.088-.088a4.992,4.992,0,0,1,3.65-1.533h9.6a4.21,4.21,0,0,0,3.17-1.3,4.315,4.315,0,0,0,1.246-3.118,5.252,5.252,0,0,1,5.188-5.188,4.212,4.212,0,0,0,3.165-1.293,4.34,4.34,0,0,0,1.251-3.123V195.167a4.28,4.28,0,0,0-4.139-4.417c-.092,0-.185,0-.277,0a4.992,4.992,0,0,1-3.65-1.533,5.1,5.1,0,0,1-.088-7.212l.088-.088a5,5,0,0,1,3.65-1.538c.042,0,.083-.005.13-.005h1.3a3.106,3.106,0,0,0,2.863-1.893c.036-.094.073-.188.1-.287a3.031,3.031,0,0,0,.153-.949v-2.7a3.033,3.033,0,0,0-.151-.954,2.646,2.646,0,0,0-.224-.532c-.032-.063-.068-.12-.1-.183a3.1,3.1,0,0,0-2.645-1.471h-2.753a3.11,3.11,0,0,0-3.108,3.108v2.106a4.779,4.779,0,0,1-4.771,4.531,1.462,1.462,0,0,1-.148,0h-.1c-.052,0-.105.006-.157,0h-9.6a4.416,4.416,0,0,0-4.413,4.417,5.244,5.244,0,0,1-5.188,5.183,4.439,4.439,0,0,0-4.418,4.418v11.48a4.428,4.428,0,0,0,4.418,4.417,5.094,5.094,0,0,1,5.188,5c0,.063,0,.127,0,.19a5.256,5.256,0,0,1-4.53,5.142h-2.071a3.127,3.127,0,0,0-3.129,3.127h0v2.7a3.13,3.13,0,0,0,3.129,3.129h2.357a4.842,4.842,0,0,1,2.753,1.453,5.082,5.082,0,0,1,1.491,3.65,4.215,4.215,0,0,0,1.293,3.17,4.351,4.351,0,0,0,3.123,1.246h19.28a4.264,4.264,0,0,0,4.416-4.106c0-.1,0-.207,0-.311a5.255,5.255,0,0,1,5.188-5.188h1.418a3.125,3.125,0,0,0,3.129-3.119v-2.71a3.129,3.129,0,0,0-3.124-3.134h-.005M583.1,206.648V195.167a5.261,5.261,0,0,1,5.192-5.184h9.6a5.087,5.087,0,0,1,5.188,4.982q0,.1,0,.2v11.482a5.074,5.074,0,0,1-1.491,3.65,4.942,4.942,0,0,1-3.7,1.538h-9.6a5.252,5.252,0,0,1-5.188-5.188" transform="translate(6135 14724.001)" fill="#fff"/>
    <path id="Path_5421" data-name="Path 5421" d="M629.569,236.654a1.088,1.088,0,0,1-.374.882,1.656,1.656,0,0,1-1.091.313,1.942,1.942,0,0,1-.914-.193,1.491,1.491,0,0,1-.6-.6l.44-.293a1.135,1.135,0,0,0,1.06.607,1.123,1.123,0,0,0,.678-.181.576.576,0,0,0,.248-.493.546.546,0,0,0-.079-.3.708.708,0,0,0-.208-.207,1.3,1.3,0,0,0-.3-.135c-.111-.033-.227-.066-.348-.1-.2-.049-.385-.1-.557-.151a1.7,1.7,0,0,1-.447-.2.892.892,0,0,1-.3-.314,1,1,0,0,1-.109-.494,1.1,1.1,0,0,1,.347-.854,1.5,1.5,0,0,1,1.039-.315,1.653,1.653,0,0,1,.879.2,1.533,1.533,0,0,1,.519.522l-.431.305a1.192,1.192,0,0,0-.386-.407,1.067,1.067,0,0,0-.581-.144.966.966,0,0,0-.615.175.563.563,0,0,0-.22.467.486.486,0,0,0,.066.261.528.528,0,0,0,.189.176,1.219,1.219,0,0,0,.306.123c.122.035.261.072.418.111q.275.073.524.153a1.634,1.634,0,0,1,.435.213.953.953,0,0,1,.295.34,1.143,1.143,0,0,1,.108.53" transform="translate(6135 14724.001)" fill="#fff"/>
    <path id="Path_5422" data-name="Path 5422" d="M631.064,236.289a1.407,1.407,0,0,0,.208.869.808.808,0,0,0,.668.258.721.721,0,0,0,.36-.086.958.958,0,0,0,.3-.28l.416.258a1.241,1.241,0,0,1-.427.406,1.4,1.4,0,0,1-.683.142,1.267,1.267,0,0,1-1.024-.4,1.821,1.821,0,0,1-.338-1.2,1.947,1.947,0,0,1,.329-1.246,1.212,1.212,0,0,1,.995-.4,1.121,1.121,0,0,1,.9.345,1.578,1.578,0,0,1,.3,1.058v.282Zm1.506-.4a1.091,1.091,0,0,0-.175-.642.633.633,0,0,0-.546-.228.676.676,0,0,0-.541.207,1.246,1.246,0,0,0-.238.663Z" transform="translate(6135 14724.001)" fill="#fff"/>
    <path id="Path_5423" data-name="Path 5423" d="M635.911,237.765v-.384a2.832,2.832,0,0,1-.472.34,1.074,1.074,0,0,1-.536.134.856.856,0,0,1-.678-.268.993.993,0,0,1-.239-.687,1.019,1.019,0,0,1,.125-.526.874.874,0,0,1,.36-.33,2.061,2.061,0,0,1,.684-.175l.756-.067v-.15a.534.534,0,0,0-.2-.483.993.993,0,0,0-.546-.129.887.887,0,0,0-.479.108.737.737,0,0,0-.242.235l-.413-.252a.933.933,0,0,1,.429-.392,1.689,1.689,0,0,1,.717-.136,1.484,1.484,0,0,1,.949.241,1.035,1.035,0,0,1,.287.832v2.089Zm0-1.559-.492.047a1.454,1.454,0,0,0-.706.195.512.512,0,0,0-.205.441.5.5,0,0,0,.137.395.716.716,0,0,0,.639.078,1.473,1.473,0,0,0,.22-.1,1.6,1.6,0,0,0,.209-.145c.068-.052.134-.1.2-.156Z" transform="translate(6135 14724.001)" fill="#fff"/>
    <path id="Path_5424" data-name="Path 5424" d="M641.22,237.765v-1.811a3.268,3.268,0,0,0-.035-.6.317.317,0,0,0-.123-.2.49.49,0,0,0-.267-.058.7.7,0,0,0-.343.109,2.941,2.941,0,0,0-.5.395v2.171h-.5v-1.811a3.071,3.071,0,0,0-.035-.585.35.35,0,0,0-.12-.215.44.44,0,0,0-.263-.064.787.787,0,0,0-.384.13,2.448,2.448,0,0,0-.463.374v2.171h-.5v-3.073h.5v.457a2.416,2.416,0,0,1,.445-.381.936.936,0,0,1,.527-.164.8.8,0,0,1,.5.143.729.729,0,0,1,.248.457,3.154,3.154,0,0,1,.489-.427.943.943,0,0,1,.554-.173.784.784,0,0,1,.451.118.683.683,0,0,1,.249.344,2.03,2.03,0,0,1,.079.648v2.051Z" transform="translate(6135 14724.001)" fill="#fff"/>
    <rect id="Rectangle_2312" data-name="Rectangle 2312" width="0.504" height="4.362" transform="translate(6778.02 14957.403)" fill="#fff"/>
    <path id="Path_5425" data-name="Path 5425" d="M645.21,236.289a1.407,1.407,0,0,0,.208.869.808.808,0,0,0,.668.258.721.721,0,0,0,.36-.086.958.958,0,0,0,.3-.28l.416.258a1.241,1.241,0,0,1-.427.406,1.4,1.4,0,0,1-.683.142,1.269,1.269,0,0,1-1.024-.4,1.821,1.821,0,0,1-.338-1.2,1.954,1.954,0,0,1,.329-1.246,1.213,1.213,0,0,1,.995-.4,1.121,1.121,0,0,1,.9.345,1.578,1.578,0,0,1,.3,1.058v.282Zm1.506-.4a1.1,1.1,0,0,0-.174-.642.636.636,0,0,0-.547-.228.674.674,0,0,0-.54.207,1.245,1.245,0,0,0-.239.663Z" transform="translate(6135 14724.001)" fill="#fff"/>
    <path id="Path_5426" data-name="Path 5426" d="M650.411,236.936a.817.817,0,0,1-.3.675,1.354,1.354,0,0,1-.867.245,1.561,1.561,0,0,1-.688-.146.938.938,0,0,1-.446-.408l.405-.246a.966.966,0,0,0,1.243.244.408.408,0,0,0,.166-.343.345.345,0,0,0-.059-.209.472.472,0,0,0-.181-.141,3.353,3.353,0,0,0-.5-.163,1.6,1.6,0,0,1-.772-.349.794.794,0,0,1-.224-.592.809.809,0,0,1,.293-.653,1.222,1.222,0,0,1,.811-.246,1.328,1.328,0,0,1,.674.158,1.046,1.046,0,0,1,.4.381l-.4.246a.843.843,0,0,0-1.109-.249.382.382,0,0,0-.174.346.33.33,0,0,0,.152.3,1.745,1.745,0,0,0,.478.172,3.127,3.127,0,0,1,.72.252.773.773,0,0,1,.295.289.892.892,0,0,1,.1.435" transform="translate(6135 14724.001)" fill="#fff"/>
    <path id="Path_5427" data-name="Path 5427" d="M653.615,236.936a.817.817,0,0,1-.3.675,1.354,1.354,0,0,1-.867.245,1.561,1.561,0,0,1-.688-.146.938.938,0,0,1-.446-.408l.4-.246a.966.966,0,0,0,1.243.244.408.408,0,0,0,.166-.343.345.345,0,0,0-.059-.209.472.472,0,0,0-.181-.141,3.351,3.351,0,0,0-.5-.163,1.6,1.6,0,0,1-.772-.349.794.794,0,0,1-.224-.592.808.808,0,0,1,.293-.653,1.222,1.222,0,0,1,.811-.246,1.329,1.329,0,0,1,.674.158,1.047,1.047,0,0,1,.4.381l-.4.246a.843.843,0,0,0-1.109-.249.382.382,0,0,0-.174.346.33.33,0,0,0,.152.3,1.747,1.747,0,0,0,.478.172,3.126,3.126,0,0,1,.72.252.774.774,0,0,1,.3.289.892.892,0,0,1,.095.435" transform="translate(6135 14724.001)" fill="#fff"/>
    <path id="Path_5428" data-name="Path 5428" d="M659.391,236.654a1.088,1.088,0,0,1-.374.882,1.656,1.656,0,0,1-1.091.313,1.942,1.942,0,0,1-.914-.193,1.49,1.49,0,0,1-.6-.6l.44-.293a1.272,1.272,0,0,0,1.739.426.575.575,0,0,0,.247-.493.545.545,0,0,0-.079-.3.707.707,0,0,0-.208-.207,1.3,1.3,0,0,0-.3-.135c-.111-.033-.227-.066-.348-.1-.2-.049-.385-.1-.557-.151a1.7,1.7,0,0,1-.447-.2.892.892,0,0,1-.3-.314,1,1,0,0,1-.109-.494,1.094,1.094,0,0,1,.348-.854,1.5,1.5,0,0,1,1.038-.315,1.653,1.653,0,0,1,.879.2,1.534,1.534,0,0,1,.519.522l-.431.305a1.2,1.2,0,0,0-.385-.407,1.073,1.073,0,0,0-.582-.144.966.966,0,0,0-.615.175.563.563,0,0,0-.22.467.486.486,0,0,0,.066.261.527.527,0,0,0,.189.176,1.219,1.219,0,0,0,.306.123q.183.052.418.111c.183.049.358.1.524.153a1.632,1.632,0,0,1,.435.213.952.952,0,0,1,.3.34,1.144,1.144,0,0,1,.108.53" transform="translate(6135 14724.001)" fill="#fff"/>
    <path id="Path_5429" data-name="Path 5429" d="M660.886,236.289a1.407,1.407,0,0,0,.208.869.808.808,0,0,0,.668.258.721.721,0,0,0,.36-.086.959.959,0,0,0,.3-.28l.416.258a1.241,1.241,0,0,1-.427.406,1.4,1.4,0,0,1-.683.142,1.269,1.269,0,0,1-1.024-.4,1.821,1.821,0,0,1-.338-1.2,1.954,1.954,0,0,1,.329-1.246,1.213,1.213,0,0,1,1-.4,1.121,1.121,0,0,1,.9.345,1.578,1.578,0,0,1,.3,1.058v.282Zm1.506-.4a1.1,1.1,0,0,0-.174-.642.636.636,0,0,0-.547-.228.674.674,0,0,0-.54.207,1.245,1.245,0,0,0-.239.663Z" transform="translate(6135 14724.001)" fill="#fff"/>
    <path id="Path_5430" data-name="Path 5430" d="M666.295,237.29a1.179,1.179,0,0,1-.4.406,1.327,1.327,0,0,1-.7.159,1.249,1.249,0,0,1-1.019-.409,1.839,1.839,0,0,1-.343-1.211,1.875,1.875,0,0,1,.34-1.216,1.22,1.22,0,0,1,1-.416,1.145,1.145,0,0,1,1.081.563l-.413.252a.9.9,0,0,0-.268-.278.733.733,0,0,0-.406-.1.668.668,0,0,0-.628.32,1.779,1.779,0,0,0-.186.887,2.016,2.016,0,0,0,.088.671.741.741,0,0,0,.273.369.813.813,0,0,0,.474.129.763.763,0,0,0,.4-.093.98.98,0,0,0,.293-.285Z" transform="translate(6135 14724.001)" fill="#fff"/>
    <path id="Path_5431" data-name="Path 5431" d="M669.212,237.765v-.457a2.309,2.309,0,0,1-.516.391,1.131,1.131,0,0,1-.55.157.961.961,0,0,1-.5-.116.658.658,0,0,1-.278-.348,1.917,1.917,0,0,1-.087-.647v-2.053h.5v1.813a2.349,2.349,0,0,0,.046.586.376.376,0,0,0,.145.213.534.534,0,0,0,.29.065.929.929,0,0,0,.448-.147,3.232,3.232,0,0,0,.5-.356v-2.174h.5v3.073Z" transform="translate(6135 14724.001)" fill="#fff"/>
    <path id="Path_5432" data-name="Path 5432" d="M672.674,235.19a.634.634,0,0,0-.234-.035.978.978,0,0,0-.437.1,2.014,2.014,0,0,0-.487.382v2.124h-.5v-3.073h.5v.5a3.407,3.407,0,0,1,.443-.38.884.884,0,0,1,.518-.165.638.638,0,0,1,.3.062Z" transform="translate(6135 14724.001)" fill="#fff"/>
    <path id="Path_5433" data-name="Path 5433" d="M674.265,233.912a.293.293,0,0,1-.079.239.406.406,0,0,1-.252.063.331.331,0,0,1-.255-.079.324.324,0,0,1-.07-.223.3.3,0,0,1,.076-.227.361.361,0,0,1,.249-.072.378.378,0,0,1,.255.07.3.3,0,0,1,.076.229m-.583.779h.5v3.073h-.5Z" transform="translate(6135 14724.001)" fill="#fff"/>
    <path id="Path_5434" data-name="Path 5434" d="M677.017,237.765a1.937,1.937,0,0,1-.58.091.824.824,0,0,1-.672-.246,1.2,1.2,0,0,1-.2-.774v-1.722h-.44v-.422h.44v-.856h.5v.856h.779v.422h-.779v1.626a1.366,1.366,0,0,0,.075.533.326.326,0,0,0,.332.161,1.026,1.026,0,0,0,.413-.082Z" transform="translate(6135 14724.001)" fill="#fff"/>
    <path id="Path_5435" data-name="Path 5435" d="M677.534,238.418a1.069,1.069,0,0,0,.442.085q.355,0,.6-.642l.1-.263-1.123-2.907h.545l.847,2.25.853-2.25h.527L679.016,238a1.921,1.921,0,0,1-.445.715.9.9,0,0,1-.618.208,1.809,1.809,0,0,1-.293-.026,1.541,1.541,0,0,1-.252-.062Z" transform="translate(6135 14724.001)" fill="#fff"/>
    <rect id="Rectangle_2313" data-name="Rectangle 2313" width="3.059" height="0.299" transform="translate(6815.737 14962.217)" fill="#fff"/>
    <path id="Path_5436" data-name="Path 5436" d="M604.461,29.115a18.75,18.75,0,0,1-6.192-.98,12.052,12.052,0,0,1-7.617-7.839,17.984,17.984,0,0,1-.358-10.353,12.032,12.032,0,0,1,8.246-8.806,17.28,17.28,0,0,1,11.152-.054c5.4,1.806,8.329,5.7,9.025,11.293a16.336,16.336,0,0,1-1.088,8.742,12.781,12.781,0,0,1-10.307,7.751c-.335.055-.673.1-1.011.127-.677.053-1.356.089-1.849.121m5.325-14.312c-.124-1.008-.178-2.03-.389-3.019a6.274,6.274,0,0,0-2.31-3.918,4.826,4.826,0,0,0-7.233,1.867,11.426,11.426,0,0,0,.033,9.919,4.553,4.553,0,0,0,4.835,2.712,4.626,4.626,0,0,0,4.306-3.235,14.01,14.01,0,0,0,.758-4.327" transform="translate(6135 14724.001)" fill="#fff"/>
    <path id="Path_5437" data-name="Path 5437" d="M558.742,14.525a15.027,15.027,0,0,1,2.387-8.469,13.03,13.03,0,0,1,9.8-5.584A16.988,16.988,0,0,1,580.28,1.73a12.675,12.675,0,0,1,7.428,10.121,17.47,17.47,0,0,1-.487,7.878,12.446,12.446,0,0,1-8.761,8.733,17.9,17.9,0,0,1-10.129.052c-5.2-1.476-8.15-5.05-9.165-10.273-.238-1.222-.288-2.481-.425-3.723m9.142.115a10.782,10.782,0,0,0,1.247,5.457,4.628,4.628,0,0,0,4.365,2.359,4.4,4.4,0,0,0,4.4-2.875,15.146,15.146,0,0,0,.83-3.826,10.1,10.1,0,0,0-1.17-6.217,4.691,4.691,0,0,0-4.363-2.481A4.572,4.572,0,0,0,569.008,9.6a10.151,10.151,0,0,0-1.126,5.037" transform="translate(6135 14724.001)" fill="#fff"/>
    <path id="Path_5438" data-name="Path 5438" d="M650.956,28.2c-.356.021-.6.048-.846.048-3.189,0-6.378-.007-9.567.013a.866.866,0,0,1-.853-.488q-2.948-4.839-5.927-9.659c-.13-.212-.276-.414-.364-.545-.7.648-1.4,1.262-2.055,1.925a1.1,1.1,0,0,0-.17.706c0,2.441.022,4.882.036,7.324v.747h-9.153V.983h9.023V9.521l.17.064c.306-.333.616-.662.917-1q3.272-3.654,6.551-7.3A1.077,1.077,0,0,1,639.4.92c3.358-.037,6.717-.043,10.075-.054a1.24,1.24,0,0,1,.23.076L639.662,11.209l11.294,17" transform="translate(6135 14724.001)" fill="#fff"/>
    <path id="Path_5439" data-name="Path 5439" d="M557,11.65H548.44a1.656,1.656,0,0,1-.1-.282q-.78-4.393-5.227-4.092c-2.254.152-3.726,1.49-4.328,4.068a15.156,15.156,0,0,0-.025,7.13c.964,3.927,4.064,4.517,6.6,3.9,1.9-.463,2.7-1.944,3.043-3.706.109-.566.318-.7.861-.7,2.4.014,4.8-.017,7.205-.031h.784c-.034.333-.045.619-.1.9-1.1,6.049-5.123,9.74-11.248,10.315a17.855,17.855,0,0,1-9.109-1.28,11.977,11.977,0,0,1-7.159-9.069,16.637,16.637,0,0,1,1.174-11.177,12.329,12.329,0,0,1,10-6.891A17.608,17.608,0,0,1,550.421,2,10.939,10.939,0,0,1,557,11.234a3.576,3.576,0,0,1,0,.414" transform="translate(6135 14724.001)" fill="#fff"/>
    <path id="Path_5440" data-name="Path 5440" d="M710.216,28.81a11.818,11.818,0,0,1-9.3-3.821,13.666,13.666,0,0,1-3.266-6.928,19.216,19.216,0,0,1,.55-9.553c1.915-5.719,6.39-8.8,12.69-8.485a12.568,12.568,0,0,1,6.983,2.251,12.157,12.157,0,0,1,4.52,6.53,19.26,19.26,0,0,1,.229,10.491c-1.581,6.115-6.059,9.512-12.409,9.515m-10.2-14.426c0,.573-.031,1.148.009,1.718a14.979,14.979,0,0,0,.232,1.7c.8,4.306,3.462,8.192,8.705,8.713,4.9.487,8.922-1.494,10.685-6.5a16.659,16.659,0,0,0,.1-10.818c-1.278-3.993-3.962-6.464-8.257-6.892-4.342-.433-8.011,1.071-10.125,5.356a14.055,14.055,0,0,0-1.348,6.726" transform="translate(6135 14724.001)" fill="#fff"/>
    <path id="Path_5441" data-name="Path 5441" d="M651.8,20.077h2.5c.082.436.154.868.246,1.3a6.141,6.141,0,0,0,5.206,5.081,11.24,11.24,0,0,0,5.914-.276,5.172,5.172,0,0,0,3.58-6.044,3.977,3.977,0,0,0-2.277-3.049,34.49,34.49,0,0,0-4.358-1.556c-1.764-.54-3.571-.941-5.334-1.484a6.317,6.317,0,0,1-4.818-5.211,6.459,6.459,0,0,1,2.7-6.811A11.536,11.536,0,0,1,662.677.159a9.444,9.444,0,0,1,6.065,2.311,7.233,7.233,0,0,1,2.349,5.757h-2.465c-.056-.418-.09-.858-.178-1.288A5.078,5.078,0,0,0,665.182,3a9.1,9.1,0,0,0-8.042.53,4.435,4.435,0,0,0-.07,7.641,13.207,13.207,0,0,0,2.62,1.122c2.419.722,4.855,1.388,7.3,2.027a6.555,6.555,0,0,1,5,7.043,6.964,6.964,0,0,1-5.076,6.75,13.839,13.839,0,0,1-10.792-.4,7.835,7.835,0,0,1-4.32-7.635" transform="translate(6135 14724.001)" fill="#fff"/>
    <path id="Path_5442" data-name="Path 5442" d="M673.668,28.14V.814H676.2V12.483h16.424V.77h2.653v27.3h-2.568V14.764h-16.4V28.14Z" transform="translate(6135 14724.001)" fill="#fff"/>
    <path id="Path_5443" data-name="Path 5443" d="M727.843,15.979v12h-2.625V.7a.879.879,0,0,1,.227-.045c3.8.014,7.61,0,11.414.064a8.842,8.842,0,0,1,4.317,1.194A5.893,5.893,0,0,1,743.907,5.3a9.573,9.573,0,0,1,.31,4.653,6.437,6.437,0,0,1-4.576,5.153,16.96,16.96,0,0,1-5.514.862c-1.806.031-3.615.007-5.421.007h-.863m-.022-13.227V13.718c1.915,0,3.761.033,5.6-.011a32.114,32.114,0,0,0,3.87-.276c1.884-.276,3.456-1.079,4.089-3.059a6.653,6.653,0,0,0,.14-3.766,4.439,4.439,0,0,0-4.145-3.426c-3.162-.3-6.352-.3-9.559-.428" transform="translate(6135 14724.001)" fill="#fff"/>
    <rect id="Rectangle_2315" data-name="Rectangle 2315" width="8.111" height="7.751" transform="translate(6880.041 14744.221)" fill="#fff"/>
    <rect id="Rectangle_2317" data-name="Rectangle 2317" width="9.793" height="3.685" transform="translate(6407.981 14970.819)" fill="#fff"/>
    <path id="Path_5444" data-name="Path 5444" d="M251.112,254.814l-.257,4.542h-3.214V229.361h4.714v7.2c0,1.371-.214,4.114-.343,5.785.728-2.443,3.171-4.5,7.584-4.5,6.9,0,9.384,3.685,9.384,11.055,0,7.327-2.614,11.1-9.513,11.1-6.213,0-7.8-2.916-8.355-5.187m13.112-5.913c0-5.228-1.414-7.327-6-7.327-4.542,0-6.042,2.1-6.042,7.327,0,5.271,1.5,7.37,6.042,7.37,4.629,0,6-2.057,6-7.371Z" transform="translate(6135 14724.001)" fill="#fff"/>
    <path id="Path_5445" data-name="Path 5445" d="M288.433,267.831V263.9a31.392,31.392,0,0,0,8.311,1.385c5.5,0,7.462-2.234,7.462-6.658,0-1.251.134-2.815.224-3.664-.894,2.368-3.173,4.424-7.865,4.424-7.194,0-9.786-3.888-9.786-10.724,0-6.569,2.681-10.724,9.92-10.724,6.613,0,8.133,3.217,8.714,5.318l.268-4.647h3.351v20.019c0,6.256-2.9,10.456-11.8,10.456a34.133,34.133,0,0,1-8.8-1.253m15.818-19.17c0-4.334-1.519-6.837-6.256-6.837-4.826,0-6.3,2.413-6.3,6.837s1.43,6.837,6.256,6.837c4.782,0,6.3-2.458,6.3-6.837Z" transform="translate(6135 14724.001)" fill="#fff"/>
    <path id="Path_5446" data-name="Path 5446" d="M311.446,249.466c0-7.418,2.681-11.529,11.618-11.529,8.892,0,11.573,4.111,11.573,11.529,0,7.462-2.681,11.573-11.573,11.573-8.937,0-11.618-4.111-11.618-11.573m18.276,0c0-5.5-1.519-7.731-6.658-7.731-5.228,0-6.658,2.19-6.658,7.731s1.475,7.73,6.658,7.73,6.658-2.145,6.658-7.73" transform="translate(6135 14724.001)" fill="#fff"/>
    <path id="Path_5447" data-name="Path 5447" d="M336.156,249.466c0-7.418,2.681-11.529,11.618-11.529,8.892,0,11.573,4.111,11.573,11.529,0,7.462-2.681,11.573-11.573,11.573-8.937,0-11.618-4.111-11.618-11.573m18.276,0c0-5.5-1.519-7.731-6.658-7.731-5.228,0-6.658,2.19-6.658,7.731s1.475,7.73,6.658,7.73,6.658-2.145,6.658-7.73" transform="translate(6135 14724.001)" fill="#fff"/>
    <path id="Path_5448" data-name="Path 5448" d="M360.867,249.465c0-7.641,2.77-11.529,9.786-11.529,4.647,0,7.15,2.145,7.909,4.692-.179-1.743-.358-4.6-.358-6.033v-7.507h4.915v31.28h-3.351l-.268-4.826c-.581,2.547-2.324,5.5-8.8,5.5-7.2,0-9.833-3.8-9.833-11.577m17.472,0c0-5.586-1.7-7.641-6.3-7.641-4.647,0-6.256,2.011-6.256,7.641s1.653,7.686,6.3,7.686c4.558,0,6.252-2.055,6.252-7.686Z" transform="translate(6135 14724.001)" fill="#fff"/>
    <path id="Path_5449" data-name="Path 5449" d="M391.571,230.48a3.115,3.115,0,0,1-.217,1.222,2.86,2.86,0,0,1-.626.947,2.828,2.828,0,0,1-.93.614,2.919,2.919,0,0,1-1.114.224,3.078,3.078,0,0,1-1.188-.217,2.837,2.837,0,0,1-.941-.621,2.936,2.936,0,0,1-.622-.94,3.12,3.12,0,0,1-.238-1.187,3.068,3.068,0,0,1,.216-1.22,2.817,2.817,0,0,1,1.556-1.561,3.029,3.029,0,0,1,1.128-.224,2.907,2.907,0,0,1,2.72,1.742,3.166,3.166,0,0,1,.257,1.221m-.641,0a2.755,2.755,0,0,0-.192-.995,2.332,2.332,0,0,0-.5-.779,2.209,2.209,0,0,0-1.635-.673,2.252,2.252,0,0,0-.908.188,2.113,2.113,0,0,0-.723.51,2.36,2.36,0,0,0-.478.786,2.913,2.913,0,0,0,.019,1.956,2.264,2.264,0,0,0,3.668.9c.039-.037.077-.074.113-.113a2.335,2.335,0,0,0,.477-.781,2.787,2.787,0,0,0,.158-1Zm-2.855,1.733h-.545l-.052-3.3,1.259-.01a1.521,1.521,0,0,1,.9.216.845.845,0,0,1,.318.724.791.791,0,0,1-.238.655,1.1,1.1,0,0,1-.61.253l.949,1.448h-.616l-.878-1.408-.514.006Zm.581-1.883c.1,0,.2-.006.286-.013a.613.613,0,0,0,.247-.072.421.421,0,0,0,.164-.155.519.519,0,0,0,.062-.284.413.413,0,0,0-.071-.241.479.479,0,0,0-.174-.132.859.859,0,0,0-.234-.061c-.086-.007-.169-.009-.247-.009h-.658l.013.967Z" transform="translate(6135 14724.001)" fill="#fff"/>
    <path id="Path_5450" data-name="Path 5450" d="M559.9,325.658a19.357,19.357,0,0,0-14.974-8.082c-13.638-.593-18.862,13.441-18.862,13.441-3.8-13.459-15.076-13.014-16.258-12.975l-12.1.005v31.945l-14.45-31.286h-1.016l-16.034,33.206-6.895-33.865-13.666,24.491-12.989-24.962-7.85,38.064H431.3l3.727-20.443,10.73,20.331,10.392-20.219,3.84,20.443,12.086-.113,3.953-9.939h12.65l3.953,10.052h15.505a19.241,19.241,0,0,0,8.147-1.741c7.119-3.324,9.046-9.518,9.78-10.344a18.789,18.789,0,0,0,18.41,12.664c8.522-.346,13.337-4.314,16.056-8.6a19.863,19.863,0,0,0-.629-22.073m-81.048,14.169,3.5-8.471,3.727,8.471Zm28.519,9.731a12.687,12.687,0,0,1-2.6-.269V324.62a12.6,12.6,0,1,1,2.6,24.938m49.585-11.54a12.8,12.8,0,1,1,0-1.552,12.753,12.753,0,0,1,0,1.552" transform="translate(6135 14724.001)" fill="#fff"/>
  </g>
</svg>
