<svg xmlns="http://www.w3.org/2000/svg" width="856.042" height="195.417" viewBox="0 0 856.042 195.417">
  <path id="Path_5159" data-name="Path 5159" d="M-382.708-36.667v-155h-43.958V0h74.375V-36.667ZM-271.458-155v-36.667h-71.25V0h71.25V-36.667H-298.75V-78.333h26.667v-36.25H-298.75V-155Zm102.083-36.667h-93.333V-155h24.792V0h43.75V-155h24.792Zm18.958,96.875h24.375c6.25-16.25,13.542-45.417,13.542-86.042v-10.833h-48.125v37.708h14.583C-145-137.292-148.125-109.792-150.417-94.792ZM-7.083-122.708v-27.5c0-32.083-18.333-43.333-47.917-43.333-29.375,0-48.125,11.25-48.125,43.333v25.833c0,46.875,53.542,37.5,53.542,59.583v23.125c0,5.417-2.292,7.083-5.417,7.083-3.542,0-5.625-1.667-5.625-7.083V-68.958h-42.292v27.5c0,32.083,18.542,43.333,48.125,43.333S-6.458-9.375-6.458-41.458V-67.292c0-46.875-53.75-37.5-53.75-59.583V-150c0-5.417,2.083-7.083,5.417-7.083s5.417,1.667,5.417,7.083v27.292Zm131.042-68.958H30.625V-155H55.417V0h43.75V-155h24.792ZM187.292,0h42.292L212.292-191.666H136.667L119.167,0h42.5l2.083-29.792h21.458ZM166.458-66.667l6.25-85.208h3.542l6.25,85.208Zm114.583,30v-155H237.083V0h74.375V-36.667ZM387.708,0h41.667L403.75-101.458l23.75-90.208H383.75L366.667-121.25h-1.875v-70.417h-43.75V0h43.75V-51.458l6.667-22.708Z" transform="translate(426.667 193.542)"/>
</svg>
