<?xml version="1.0" encoding="UTF-8"?><svg xmlns="http://www.w3.org/2000/svg" viewBox="0 0 223.34 276.02"><defs><style>.d{fill:#d9ff50;stroke:#e4e4e4;stroke-width:2.5px;}.d,.e,.f{stroke-miterlimit:10;}.g{fill:#e4e4e4;}.h{fill:#231f20;}.e{stroke:#000;stroke-width:1.25px;}.e,.f{fill:none;}.f{stroke:#231f20;stroke-width:1.3px;}</style></defs><g id="a"/><g id="b"><g id="c"><g><rect class="d" x="7.65" y="6.11" width="208.05" height="263.8" rx="9.94" ry="9.94" transform="translate(-7.23 6.18) rotate(-3.07)"/><g><g><path d="M50,45.93l.85,15.88c.26,4.84-.72,6.67-5.75,6.94l-8.89,.48-1.56-29.1,8.89-.48c5.03-.27,6.2,1.44,6.46,6.28Zm-6.67,.45c-.04-.82-.28-1.13-1.07-1.08l-.63,.03,.96,17.97,.63-.03c.79-.04,1-.37,.95-1.19l-.84-15.69Z"/><path d="M62.18,67.83l-2.43-8.02-.92,.05,.44,8.13-6.67,.36-1.56-29.1,8.95-.48c4.93-.26,6.04,1.45,6.3,6.29l.44,8.16c.12,2.18-.53,3.71-1.65,4.72l3.08,9.57-5.98,.32Zm-3.62-13.07l.98-.08c.57-.09,.71-.42,.67-1.11l-.43-8.1c-.04-.82-.28-1.13-1.07-1.08l-.7,.04,.55,10.34Z"/><path d="M82.69,43.89l.88,16.45c.26,4.93-2.62,6.77-7.14,7.01-4.56,.24-7.59-1.27-7.85-6.21l-.88-16.45c-.26-4.93,2.59-6.77,7.14-7.01,4.52-.24,7.59,1.27,7.85,6.21Zm-7.55-.64c-.48,.03-.81,.3-.77,1.12l.88,16.39c.04,.82,.41,1.06,.88,1.03,.44-.02,.81-.3,.76-1.12l-.88-16.39c-.04-.82-.44-1.06-.88-1.03Z"/><path d="M99,43.3l.55,10.19c.26,4.84-.66,6.67-5.59,6.93l-2.28,.12,.31,5.69-6.67,.36-1.56-29.1,8.95-.48c4.93-.26,6.04,1.45,6.3,6.29Zm-6.51,.41c-.04-.82-.28-1.13-1.07-1.08l-.7,.04,.66,12.34,.7-.04c.79-.04,1-.37,.95-1.19l-.54-10.06Z"/><path d="M116.38,60.38l-3.26,.17-.07,4.54-6.45,.35,1.1-29.24,11.48-.62,4.19,28.96-6.42,.34-.56-4.51Zm-.71-5.58l-1.64-12.89-.54,.03-.25,12.99,2.44-.13Z"/><path d="M140.55,58.04l.3,5.57-11.29,.61-1.56-29.1,6.67-.36,1.26,23.53,4.62-.25Z"/><path d="M140.74,34.43l6.67-.36,1.56,29.1-6.67,.36-1.56-29.1Z"/><path d="M148.81,34l8.35-.45,3.69,17.88,.41-.02-.42-4.23-.74-13.79,6.14-.33,1.56,29.1-8.38,.45-3.69-17.88-.38,.02,.42,4.23,.74,13.79-6.14,.33-1.56-29.1Z"/><path d="M174.6,38.2l.33,6.14,4.05-.22,.29,5.5-4.05,.22,.34,6.33,4.14-.22,.3,5.57-10.82,.58-1.56-29.1,10.82-.58,.3,5.57-4.14,.22Z"/></g><g><path d="M51.88,80.91l.85,15.88c.26,4.84-.72,6.67-5.75,6.94l-8.89,.48-1.56-29.1,8.89-.48c5.03-.27,6.2,1.44,6.46,6.28Zm-6.67,.45c-.04-.82-.28-1.13-1.07-1.08l-.63,.03,.96,17.97,.63-.03c.79-.04,1-.37,.95-1.19l-.84-15.69Z"/><path d="M64.06,102.81l-2.43-8.02-.92,.05,.44,8.13-6.67,.36-1.56-29.1,8.95-.48c4.93-.26,6.04,1.45,6.3,6.29l.44,8.16c.12,2.18-.53,3.71-1.65,4.72l3.08,9.57-5.98,.32Zm-3.62-13.07l.98-.08c.57-.09,.71-.42,.67-1.11l-.43-8.1c-.04-.82-.28-1.13-1.07-1.08l-.7,.04,.55,10.34Z"/><path d="M84.57,78.87l.88,16.45c.26,4.93-2.62,6.77-7.14,7.01-4.56,.24-7.59-1.27-7.85-6.21l-.88-16.45c-.26-4.93,2.59-6.77,7.14-7.01,4.52-.24,7.59,1.27,7.85,6.21Zm-7.55-.64c-.48,.03-.81,.3-.77,1.12l.88,16.39c.04,.82,.41,1.06,.88,1.03,.44-.02,.81-.3,.76-1.12l-.88-16.39c-.04-.82-.44-1.06-.88-1.03Z"/><path d="M100.87,78.28l.55,10.19c.26,4.84-.66,6.67-5.59,6.93l-2.28,.12,.31,5.69-6.67,.36-1.56-29.1,8.95-.48c4.93-.26,6.04,1.45,6.3,6.29Zm-6.51,.41c-.04-.82-.28-1.13-1.07-1.08l-.7,.04,.66,12.34,.7-.04c.79-.04,1-.37,.95-1.19l-.54-10.06Z"/><path d="M118.25,95.36l-3.26,.17-.07,4.54-6.45,.35,1.1-29.24,11.48-.62,4.19,28.96-6.42,.34-.56-4.51Zm-.71-5.58l-1.64-12.89-.54,.03-.25,12.99,2.44-.13Z"/><path d="M142.42,93.02l.3,5.57-11.29,.61-1.56-29.1,6.67-.36,1.26,23.53,4.62-.25Z"/><path d="M142.62,69.41l6.67-.36,1.56,29.1-6.67,.36-1.56-29.1Z"/><path d="M150.68,68.98l8.35-.45,3.69,17.88,.41-.02-.42-4.23-.74-13.79,6.14-.33,1.56,29.1-8.38,.45-3.69-17.88-.38,.02,.42,4.23,.74,13.79-6.14,.33-1.56-29.1Z"/><path d="M176.47,73.18l.33,6.14,4.05-.22,.29,5.5-4.05,.22,.34,6.33,4.14-.22,.3,5.57-10.82,.58-1.56-29.1,10.82-.58,.3,5.57-4.14,.22Z"/></g><g><path d="M53.75,115.89l.85,15.88c.26,4.84-.72,6.67-5.75,6.94l-8.89,.48-1.56-29.1,8.89-.48c5.03-.27,6.2,1.44,6.46,6.28Zm-6.67,.45c-.04-.82-.28-1.13-1.07-1.08l-.63,.03,.96,17.97,.63-.03c.79-.04,1-.37,.95-1.19l-.84-15.69Z"/><path d="M65.93,137.79l-2.43-8.02-.92,.05,.44,8.13-6.67,.36-1.56-29.1,8.95-.48c4.93-.26,6.04,1.45,6.3,6.29l.44,8.16c.12,2.18-.53,3.71-1.65,4.72l3.08,9.57-5.98,.32Zm-3.62-13.07l.98-.08c.57-.09,.71-.42,.67-1.11l-.43-8.1c-.04-.82-.28-1.13-1.07-1.08l-.7,.04,.55,10.34Z"/><path d="M86.44,113.85l.88,16.45c.26,4.94-2.62,6.77-7.14,7.01-4.55,.24-7.59-1.27-7.85-6.21l-.88-16.45c-.26-4.93,2.59-6.77,7.14-7.01,4.52-.24,7.59,1.27,7.85,6.21Zm-7.55-.64c-.48,.03-.81,.3-.77,1.12l.88,16.39c.04,.82,.41,1.06,.88,1.03,.44-.02,.81-.3,.76-1.12l-.88-16.39c-.04-.82-.44-1.05-.88-1.03Z"/><path d="M102.75,113.26l.55,10.19c.26,4.84-.66,6.66-5.59,6.93l-2.28,.12,.31,5.69-6.67,.36-1.56-29.1,8.95-.48c4.93-.26,6.04,1.45,6.3,6.29Zm-6.51,.41c-.04-.82-.28-1.13-1.07-1.08l-.7,.04,.66,12.34,.7-.04c.79-.04,1-.37,.95-1.19l-.54-10.06Z"/><path d="M120.13,130.34l-3.26,.17-.07,4.54-6.45,.35,1.1-29.24,11.48-.62,4.19,28.96-6.42,.34-.56-4.51Zm-.71-5.58l-1.64-12.89-.54,.03-.25,12.99,2.44-.13Z"/><path d="M144.3,128l.3,5.57-11.29,.61-1.56-29.1,6.67-.36,1.26,23.53,4.62-.25Z"/><path d="M144.49,104.39l6.67-.36,1.56,29.1-6.67,.36-1.56-29.1Z"/><path d="M152.56,103.96l8.35-.45,3.69,17.88,.41-.02-.42-4.23-.74-13.79,6.14-.33,1.56,29.1-8.38,.45-3.69-17.88-.38,.02,.42,4.23,.74,13.79-6.14,.33-1.56-29.1Z"/><path d="M178.35,108.16l.33,6.14,4.05-.22,.29,5.5-4.05,.22,.34,6.33,4.14-.22,.3,5.57-10.82,.58-1.56-29.1,10.82-.58,.3,5.57-4.14,.22Z"/></g></g><g><polygon points="187.05 238.96 192.88 241.65 187.47 245.1 184.77 250.93 181.32 245.51 175.5 242.82 180.91 239.37 183.6 233.54 187.05 238.96"/><polygon points="33.74 179.92 39.57 182.62 34.16 186.07 31.46 191.89 28.01 186.48 22.19 183.79 27.6 180.34 30.29 174.51 33.74 179.92"/><polygon points="204.94 222.82 208.09 224.44 205.02 226.22 203.4 229.37 201.62 226.3 198.46 224.67 201.54 222.9 203.16 219.74 204.94 222.82"/></g></g><circle class="g" cx="113.89" cy="176.23" r="63.97"/><circle class="e" cx="114.09" cy="183.2" r="63.97"/><g><path class="f" d="M67.76,195.34c7.12,17.79,24.52,30.36,44.85,30.36s37.73-12.57,44.85-30.36"/><path class="f" d="M63.04,193.66c.98,1.43,2.76,2.19,4.56,1.79,1.79-.4,3.08-1.85,3.36-3.56"/><path class="f" d="M162.63,193.66c-.98,1.43-2.76,2.19-4.56,1.79-1.79-.4-3.08-1.85-3.36-3.56"/></g><path class="h" d="M96.14,181.66c-.62,5.78,6.28,5.35,10.59,7.07-3.88-18.11-.86-36.65,4.74-54.33-15.96-1.29-14.23,23.72-15.57,34.89-.1,4.11,.02,8.25,.23,12.37Z"/><path class="h" d="M119.34,189.48c1.51,3.46,6.16,4.65,9.62,4.12,6.15-.93,.96-5.97-.33-9.99-1.34-4.16-1.83-8.58-1.84-12.94,0-4.97,1.53-10.27,2.04-15.39,.16-1.66,1.23-5.38,.27-6.84-3.83-5.83-12.73,9.58-13.36,12.23-2.27,9.49-.24,20,3.6,28.81Z"/></g></g></svg>