<svg xmlns="http://www.w3.org/2000/svg" width="54.259" height="34" viewBox="0 0 54.259 34">
  <g id="_5296523_be_behance_design_community_portfolio_behance_logo_icon" data-name="5296523_be_behance_design community_portfolio_behance logo_icon" transform="translate(0 -95.584)">
    <path id="Path_88" data-name="Path 88" d="M15.192,123.274a9.413,9.413,0,0,0,2.059-.209,4.868,4.868,0,0,0,1.732-.708,3.551,3.551,0,0,0,1.194-1.331,4.627,4.627,0,0,0,.439-2.164,4.359,4.359,0,0,0-1.447-3.683,6.2,6.2,0,0,0-3.832-1.1H7.347v9.19Zm-.407-14.207a5.322,5.322,0,0,0,3.234-.935,3.509,3.509,0,0,0,1.253-3.036,3.967,3.967,0,0,0-.408-1.916,3.058,3.058,0,0,0-1.133-1.161,4.6,4.6,0,0,0-1.617-.586,9.889,9.889,0,0,0-1.89-.164H7.347v7.8h7.437Zm.95-13.484a20.449,20.449,0,0,1,4.354.424,9.483,9.483,0,0,1,3.371,1.377,6.463,6.463,0,0,1,2.179,2.545,8.991,8.991,0,0,1,.763,3.916,7.31,7.31,0,0,1-1.144,4.206,8.31,8.31,0,0,1-3.4,2.752,7.973,7.973,0,0,1,4.582,3.108,10.289,10.289,0,0,1,.538,9.732,8.512,8.512,0,0,1-2.64,3.022,11.623,11.623,0,0,1-3.8,1.731,17.009,17.009,0,0,1-4.364.561H0V95.584H15.735Z" transform="translate(0 0)" fill="#f2f2f2"/>
    <path id="Path_89" data-name="Path 89" d="M300.094,182.4a4.969,4.969,0,0,0-3.754-1.345,5.714,5.714,0,0,0-2.642.542,5.313,5.313,0,0,0-1.681,1.332,4.762,4.762,0,0,0-.89,1.7,7.55,7.55,0,0,0-.3,1.592h10.8A6.461,6.461,0,0,0,300.094,182.4Zm-7.627,12.7a6.764,6.764,0,0,0,7.76.446A4.267,4.267,0,0,0,302,193.4h5.846a11.093,11.093,0,0,1-4.31,6.237,12.546,12.546,0,0,1-7,1.88,13.939,13.939,0,0,1-5.155-.914,10.967,10.967,0,0,1-3.9-2.6,11.892,11.892,0,0,1-2.454-4.026,14.767,14.767,0,0,1-.867-5.151,14.172,14.172,0,0,1,.893-5.055,11.835,11.835,0,0,1,2.531-4.049,12,12,0,0,1,3.914-2.7,12.578,12.578,0,0,1,5.041-.982,11.445,11.445,0,0,1,5.37,1.194,10.723,10.723,0,0,1,3.768,3.2,13.131,13.131,0,0,1,2.124,4.586,17.145,17.145,0,0,1,.462,5.38H290.825A6.769,6.769,0,0,0,292.467,195.094Z" transform="translate(-254.046 -71.931)" fill="#f2f2f2"/>
    <rect id="Rectangle_28" data-name="Rectangle 28" width="13.529" height="3.293" transform="translate(35.42 97.824)" fill="#f2f2f2"/>
  </g>
</svg>
