<svg xmlns="http://www.w3.org/2000/svg" width="38.535" height="55.6" viewBox="0 0 38.535 55.6">
  <path id="Path_5329" data-name="Path 5329" d="M72.562,52.124c2.733,0,5.308,2.041,7.37,5.794,2.012-3.641,4.554-5.794,7.353-5.794,6.677,0,11.906,12.212,11.906,27.8s-5.23,27.8-11.906,27.8c-2.8,0-5.343-2.154-7.355-5.8-2.06,3.747-4.643,5.8-7.368,5.8-6.676,0-11.906-12.211-11.906-27.8s5.23-27.8,11.906-27.8m14.259,35.27c1.291,7.8.065,14.507-2.739,14.971a2.658,2.658,0,0,1-2.09-.728c1.617,2.669,3.479,4.147,5.293,4.147,4.812,0,9.965-10.391,9.965-25.859S92.1,54.066,87.285,54.066c-4.375,0-9.031,8.592-9.84,21.778a2.915,2.915,0,0,1,1.961-1.74c2.8-.464,6.125,5.487,7.416,13.29M64.88,76.509C67.68,76.045,71,82,72.3,89.8c1.249,7.546.143,14.06-2.466,14.9a4.449,4.449,0,0,0,2.732,1.083c2.219,0,4.438-2.1,6.248-5.921l.048-.14c-2.157-5.006-3.479-11.972-3.479-19.8S76.7,65.107,78.863,60.1c-1.821-3.895-4.047-6.039-6.3-6.039-4.709,0-9.74,9.952-9.954,24.87.551-1.393,1.32-2.27,2.272-2.428" transform="translate(-60.656 -52.124)"/>
</svg>
