<svg xmlns="http://www.w3.org/2000/svg" xmlns:xlink="http://www.w3.org/1999/xlink" width="159.848" height="159.853" viewBox="0 0 159.848 159.853">
  <defs>
    <clipPath id="clip-path">
      <rect id="Rectangle_2306" data-name="Rectangle 2306" width="159.848" height="159.853" fill="#fff"/>
    </clipPath>
  </defs>
  <g id="Group_1811" data-name="Group 1811" >
    <path id="Path_5300" data-name="Path 5300" d="M40.366,33.71l.059.071-3.7,3.033-.058-.071,0-.032a1.258,1.258,0,0,0-.246-.989L27.53,24.878a1.35,1.35,0,0,0-.936-.453l-.018.014-.058-.071,3.7-3.033.057.071-1.517,1.632a.629.629,0,0,0-.018.848l5.03,6.133c1.575-2.36,4.261-8.548,2.627-10.54-.583-.712-1.6-.714-2.609.118-1.618,1.328-1.689,3.525-.113,5.446a8.346,8.346,0,0,0,.887.937l-.5-.033a10.345,10.345,0,0,1-.814-.849c-1.837-2.24-1.9-4.958-.118-6.416a2.31,2.31,0,0,1,3.4.156c1.5,1.832.382,5.723-1,8.642.384-.4.858-.732,1.357-.486.862.362,3.461,1.682,5.346,2.6a2.948,2.948,0,0,0,2.95.081c.55-.453.123-1.411-1.1-2.429l.134-.2,1.811,1.519a2.382,2.382,0,0,1-.98,1.815c-1.476,1.211-2.576,1.1-5.25-.274-1.572-.792-3.706-2.016-4.68-1.754a21.392,21.392,0,0,1-1.151,1.9l3.674,4.479a.629.629,0,0,0,.836.15Zm-5.584-5.176-.035.029Z"/>
    <path id="Path_5301" data-name="Path 5301" d="M44.854,19.954,49.88,17.26a3.388,3.388,0,0,0-4.258-1.082c-5,2.6,1,12.429,6.218,9.267,1.184-.713,2.119-2.231,1.42-5.092l.283-.152c.9,2.753.079,5.255-2.293,6.526-2.8,1.5-5.721.327-7.481-2.957-1.737-3.242-1.056-6.4,1.681-7.866a4.9,4.9,0,0,1,5.939.861l.031.008-6.425,3.444Z"/>
    <path id="Path_5302" data-name="Path 5302" d="M57.25,14.255,62.707,12.6a3.392,3.392,0,0,0-3.963-1.9c-5.411,1.568-1.461,12.384,4.277,10.309,1.3-.467,2.515-1.771,2.393-4.714l.308-.094c.342,2.877-.957,5.169-3.532,5.948-3.037.921-5.673-.8-6.754-4.368-1.067-3.52.222-6.482,3.193-7.383a4.9,4.9,0,0,1,5.655,2.011l.028.016-6.976,2.113Z"/>
    <path id="Path_5303" data-name="Path 5303" d="M71.619,19.038a3.191,3.191,0,0,0,2.177.529c2.632-.254,3.548-2.976,3.236-6.2-.314-3.25-1.708-5.725-4.363-5.469-1.808.175-2.783,1.562-2.624,3.927l0-.023,1.02,10.574a.634.634,0,0,0,.615.611l1.537.128.008.091-3.983.385-.009-.091.024,0a1.345,1.345,0,0,0,.343-.98L68.321,9.284a1.348,1.348,0,0,0-.525-.9l-.024,0L67.764,8.3l1.922-.186.166,1.717A3.259,3.259,0,0,1,72.64,7.6c3.058-.389,5.549,1.959,5.9,5.621.351,3.639-1.562,6.318-4.721,6.624a3.794,3.794,0,0,1-2.142-.417.227.227,0,0,1-.1-.314Z"/>
    <path id="Path_5304" data-name="Path 5304" d="M96.578,18.121c.192-.791-.213-1.529-1.314-2.373l-3.637-2.779a2.689,2.689,0,0,1-1.24-2.83c.4-1.647,2.207-2.432,4.478-1.9a4.408,4.408,0,0,1,3.639,3.3l-2.434,1.6a1.015,1.015,0,0,0-.119-.184A3.452,3.452,0,0,0,97.43,11.08c.234-1.1-.827-2.133-2.629-2.539-1.735-.418-3.026.049-3.291,1.185a2.22,2.22,0,0,0,1.1,2.239l3.782,2.83a2.8,2.8,0,0,1,1.4,2.931c-.435,1.821-2.6,2.708-5.155,2.118a5.3,5.3,0,0,1-4.226-3.6l2.811-1.672a1.572,1.572,0,0,1,.134.209,3.212,3.212,0,0,0-1.638,1.877c-.283,1.223.926,2.4,2.918,2.875,2.041.457,3.648-.121,3.945-1.408"/>
    <path id="Path_5305" data-name="Path 5305" d="M109.922,21.978c-1.585,2.423-4.053,3.345-6.527,2.289-2.919-1.246-3.832-4.262-2.37-7.687,1.444-3.383,4.335-4.826,7.19-3.608a4.967,4.967,0,0,1,3.092,4.471l-4.8,1.753-.085-.212c1.186-.493,2.864-1.027,3.213-1.73a2.936,2.936,0,0,0-1.527-3.975c-5.155-2.277-9.077,8.552-3.345,10.648,1.3.478,3.065.258,4.861-2.076Z"/>
    <path id="Path_5306" data-name="Path 5306" d="M113.1,30.092l-.053.08-3.489-2.3.053-.08.034-.007a1.313,1.313,0,0,0,.909-.55l5.6-8.48a1.41,1.41,0,0,0,.161-1.073l-.021-.014.054-.08,2.687,1.774-.054.08-.647-.2a.827.827,0,0,0-.9.357l-2.725,4.13c1.881-2.068,4.609-4.326,6.506-3.276a2.611,2.611,0,0,1,1.2,3.552l-3.887.745c-.007-.034-.041-.2-.047-.233,1.311-.286,2.056-.456,2.585-1.085.828-1.036.75-2.1-.212-2.643-1.984-1.137-6.227,3.2-7.755,5.385l-1.257,1.9a.719.719,0,0,0,.1.9Z"/>
    <path id="Path_5307" data-name="Path 5307" d="M129.655,26.859c2.393,2.257,2.294,5.578-.214,8.238s-5.818,2.951-8.21.695c-2.41-2.271-2.294-5.576.214-8.236,2.524-2.678,5.819-2.953,8.21-.7m-8.236,8.732c2.008,1.9,4.66.791,6.885-1.566s3.152-5.086,1.161-6.965-4.658-.823-6.9,1.552c-2.224,2.36-3.154,5.086-1.147,6.979"/>
    <path id="Path_5308" data-name="Path 5308" d="M129.7,40.221a.632.632,0,0,0-.162.805l.545,1.045-.067.052-2.158-2.683.065-.053.03,0a1.072,1.072,0,0,0,.9-.217l10.958-8.818,1.9,2.355-.067.052-.92-.741a.629.629,0,0,0-.819-.015Z"/>
    <path id="Path_5309" data-name="Path 5309" d="M132.72,44.271a.632.632,0,0,0-.226.789l.46,1.084-.069.049-1.939-2.846.069-.049.03.006a1.075,1.075,0,0,0,.918-.142l11.625-7.92,1.7,2.5-.069.047-.858-.813a.634.634,0,0,0-.816-.08Z"/>
    <path id="Path_5310" data-name="Path 5310" d="M136.135,48.033a.6.6,0,0,0-.285.715l.361,1.082-.069.039-1.62-2.854.07-.039.026.008a1.094,1.094,0,0,0,.885-.065l8.142-4.619,1.422,2.5-.07.039-.762-.855a.6.6,0,0,0-.758-.121Zm11.454-7.051a.92.92,0,1,1-1.255-.348.912.912,0,0,1,1.255.348"/>
    <path id="Path_5311" data-name="Path 5311" d="M139.038,61.8l-1.375-3.574.081-.031.768,1.261a.624.624,0,0,0,.786.264l.779-.3,5.9-2.248c1.972-.758,2.729-1.545,2.3-2.486-.864-2-7.3-2.071-9.44-1.319l-1.726.664a.623.623,0,0,0-.407.723l.275,1.449-.082.032-1.375-3.573.1-.039a1.141,1.141,0,0,0,.978.094l8.688-3.342a1.148,1.148,0,0,0,.662-.726l.1-.039,1.375,3.572-.082.031-.767-1.26a.62.62,0,0,0-.785-.263l-5.258,2.021c2.73-.318,7.291-.045,8.137,2.033.705,1.709.082,2.844-1.952,3.627l-6.92,2.662a1.186,1.186,0,0,0-.662.727Z"/>
    <path id="Path_5312" data-name="Path 5312" d="M151.727,68.192a7.207,7.207,0,0,1,.089,1.009,1.657,1.657,0,0,1,1.178-1.093c1.045-.164,1.626.723,1.793,1.791a4.251,4.251,0,0,1-.107,1.833l-1.519-.625a1.917,1.917,0,0,0,.843-1.9.773.773,0,0,0-.953-.735c-.887.139-1.086,1.242-1.357,2.029a5.419,5.419,0,0,1-10.6-.641c-.25-1.591-1.338-3.189-3.133-2.908-.772.121-1.483.628-1.348,1.492.293,1.862,4,1.606,4.4,4.174a2.658,2.658,0,0,1-2.43,3.057,4.27,4.27,0,0,1-1.448-.029l-.791-5.042.227-.035c.274,1.446.59,4.352,2.7,4.021a1.569,1.569,0,0,0,1.4-1.918c-.392-2.5-4.413-1.869-4.851-4.663a2.181,2.181,0,0,1,1.821-2.636c1.521-.239,2.8.911,3.389,2.912a5.036,5.036,0,0,1,4.525-4.689,5.136,5.136,0,0,1,6.168,4.6M141.345,69.82c.428,2.726,2.858,3.531,5.675,3.09s4.881-1.976,4.457-4.679-2.839-3.558-5.679-3.112c-2.817.441-4.881,1.974-4.453,4.7"/>
    <path id="Path_5313" data-name="Path 5313" d="M149.031,106.177l.384,2.731c.006.175-.086.288-.253.274l-.844.02a.231.231,0,0,1-.236-.286l.505-2.737-2.623,1.066a.25.25,0,0,1-.348-.182l-.268-.914c-.035-.162.035-.283.209-.29l2.933-.135-2.07-2.12a.212.212,0,0,1,.037-.356l.817-.524a.247.247,0,0,1,.372.118l1.215,2.556,1.408-2.268a.216.216,0,0,1,.358-.036l.624.559a.237.237,0,0,1,.006.372l-2.084,1.714,2.831.516a.222.222,0,0,1,.176.313l-.386,1.009a.223.223,0,0,1-.34.118Z"/>
    <path id="Path_5314" data-name="Path 5314" d="M119.208,126.341l-.058-.071,3.714-3.02.057.071,0,.034a1.25,1.25,0,0,0,.241.988l8.855,10.89a1.346,1.346,0,0,0,.935.457l.017-.014.059.071-3.714,3.02-.059-.072,1.527-1.626a.628.628,0,0,0,.021-.848l-5.008-6.159c-1.583,2.356-4.3,8.537-2.672,10.537.58.714,1.593.72,2.611-.108,1.625-1.32,1.7-3.52.137-5.449a8.432,8.432,0,0,0-.884-.94l.5.035a10.167,10.167,0,0,1,.811.851c1.829,2.25,1.876,4.97.091,6.422a2.311,2.311,0,0,1-3.4-.171c-1.495-1.839-.359-5.728,1.038-8.643-.385.4-.86.728-1.358.481-.862-.367-3.457-1.7-5.34-2.628a2.949,2.949,0,0,0-2.951-.092c-.553.451-.128,1.412,1.09,2.436l-.134.2-1.806-1.528a2.383,2.383,0,0,1,.988-1.812c1.483-1.2,2.582-1.091,5.252.3,1.57.8,3.7,2.034,4.676,1.775a21.616,21.616,0,0,1,1.16-1.893l-3.658-4.5a.63.63,0,0,0-.834-.15Zm5.566,5.2.035-.029Z"/>
    <path id="Path_5315" data-name="Path 5315" d="M114.7,140l-5.037,2.676a3.393,3.393,0,0,0,4.255,1.1c5.008-2.582-.954-12.434-6.185-9.291-1.185.708-2.126,2.223-1.438,5.087l-.284.151c-.891-2.756-.057-5.256,2.319-6.518,2.8-1.488,5.722-.305,7.469,2.985,1.725,3.25,1.032,6.4-1.709,7.86a4.9,4.9,0,0,1-5.938-.882l-.03-.01,6.437-3.42Z"/>
    <path id="Path_5316" data-name="Path 5316" d="M102.309,145.747l-5.465,1.631a3.394,3.394,0,0,0,3.955,1.915c5.418-1.546,1.512-12.379-4.234-10.327-1.3.461-2.523,1.76-2.412,4.7l-.308.092c-.332-2.877.978-5.163,3.556-5.933,3.041-.908,5.67.826,6.736,4.4,1.052,3.525-.249,6.481-3.224,7.369a4.9,4.9,0,0,1-5.647-2.035l-.027-.014,6.984-2.085Z"/>
    <path id="Path_5317" data-name="Path 5317" d="M87.948,140.814a3.188,3.188,0,0,0-2.174-.54c-2.633.243-3.56,2.962-3.263,6.19.3,3.252,1.684,5.734,4.34,5.489,1.809-.166,2.79-1.55,2.641-3.915l0,.022-.976-10.579a.632.632,0,0,0-.61-.613l-1.536-.135-.01-.091,3.985-.367.009.091-.023,0a1.343,1.343,0,0,0-.348.978l1.22,13.236a1.354,1.354,0,0,0,.521.9l.023,0,.01.091-1.924.177-.159-1.717a3.257,3.257,0,0,1-2.8,2.22c-3.06.376-5.54-1.983-5.878-5.646-.336-3.641,1.589-6.311,4.748-6.6a3.784,3.784,0,0,1,2.14.426.226.226,0,0,1,.1.314Z"/>
    <path id="Path_5318" data-name="Path 5318" d="M63.055,141.672c-.195.79.207,1.53,1.305,2.378l3.625,2.795a2.69,2.69,0,0,1,1.228,2.836c-.4,1.645-2.217,2.421-4.486,1.881A4.4,4.4,0,0,1,61.1,148.25l2.439-1.585a1.022,1.022,0,0,0,.118.183,3.461,3.461,0,0,0-1.486,1.86c-.239,1.1.818,2.138,2.618,2.553,1.732.423,3.028-.038,3.3-1.173A2.211,2.211,0,0,0,67,147.847L63.23,145a2.8,2.8,0,0,1-1.385-2.937c.441-1.818,2.612-2.7,5.163-2.1a5.3,5.3,0,0,1,4.21,3.62L68.4,145.247a1.417,1.417,0,0,1-.135-.21,3.205,3.205,0,0,0,1.647-1.87c.288-1.221-.917-2.407-2.907-2.886-2.037-.466-3.648.106-3.951,1.391"/>
    <path id="Path_5319" data-name="Path 5319" d="M49.644,137.791c1.6-2.417,4.067-3.329,6.538-2.263,2.913,1.259,3.814,4.278,2.337,7.7-1.458,3.378-4.354,4.807-7.205,3.576a4.963,4.963,0,0,1-3.073-4.483l4.805-1.731c.012.029.072.181.083.211-1.187.489-2.867,1.015-3.219,1.716a2.937,2.937,0,0,0,1.51,3.982c5.145,2.3,9.112-8.514,3.39-10.634-1.294-.483-3.064-.27-4.87,2.056Z"/>
    <path id="Path_5320" data-name="Path 5320" d="M46.586,129.6l.053-.08,3.476,2.314-.052.08-.034.007a1.305,1.305,0,0,0-.912.547L43.49,140.92a1.411,1.411,0,0,0-.166,1.072l.021.013-.054.08L40.614,140.3l.054-.081.647.2a.826.826,0,0,0,.9-.353l2.74-4.116c-1.889,2.058-4.624,4.3-6.514,3.247a2.608,2.608,0,0,1-1.182-3.555l3.888-.728c.006.034.04.2.046.233-1.311.281-2.057.447-2.588,1.073-.832,1.032-.758,2.091.2,2.644,1.978,1.142,6.236-3.174,7.771-5.351l1.264-1.9a.717.717,0,0,0-.093-.9Z"/>
    <path id="Path_5321" data-name="Path 5321" d="M30.046,132.823c-2.383-2.266-2.27-5.588.25-8.236s5.831-2.928,8.213-.66c2.4,2.281,2.271,5.586-.249,8.235-2.536,2.665-5.832,2.927-8.214.661m8.274-8.7c-2-1.9-4.657-.811-6.892,1.538s-3.173,5.073-1.191,6.959,4.656.844,6.906-1.522c2.235-2.349,3.176-5.073,1.177-6.975"/>
    <path id="Path_5322" data-name="Path 5322" d="M30.02,119.389a.633.633,0,0,0,.168-.8l-.54-1.047.065-.051,2.146,2.692-.066.053-.029,0a1.079,1.079,0,0,0-.906.212l-11,8.766-1.884-2.365.066-.053.917.747a.629.629,0,0,0,.818.019Z"/>
    <path id="Path_5323" data-name="Path 5323" d="M26.967,115.324a.63.63,0,0,0,.229-.788l-.455-1.086.07-.047,1.927,2.855-.07.046-.029,0a1.075,1.075,0,0,0-.92.138l-11.658,7.871-1.692-2.5.07-.047.854.815a.631.631,0,0,0,.816.083Z"/>
    <path id="Path_5324" data-name="Path 5324" d="M12.065,118.57a.92.92,0,1,1,1.253.351.912.912,0,0,1-1.253-.351m11.484-7a.6.6,0,0,0,.288-.713l-.356-1.085.069-.039,1.607,2.859-.069.04-.027-.007a1.091,1.091,0,0,0-.884.061l-8.162,4.586L14.6,114.757l.07-.039.758.859a.6.6,0,0,0,.758.125Z"/>
    <path id="Path_5325" data-name="Path 5325" d="M20.64,97.8,22,101.375l-.083.031-.761-1.264a.622.622,0,0,0-.785-.267l-.782.3-5.911,2.223c-1.975.749-2.735,1.533-2.308,2.476.856,2,7.295,2.1,9.436,1.359l1.729-.657a.621.621,0,0,0,.41-.719l-.27-1.452.082-.031,1.36,3.579-.1.039a1.148,1.148,0,0,0-.978-.1l-8.7,3.3a1.16,1.16,0,0,0-.667.724l-.1.039-1.36-3.579.084-.031.762,1.264a.619.619,0,0,0,.783.267l5.266-2c-2.73.308-7.289.015-8.127-2.067-.7-1.713-.069-2.846,1.967-3.619l6.932-2.632a1.184,1.184,0,0,0,.666-.724Z"/>
    <path id="Path_5326" data-name="Path 5326" d="M8.126,91.313A7.4,7.4,0,0,1,8.041,90.3,1.653,1.653,0,0,1,6.859,91.39c-1.045.159-1.623-.729-1.786-1.8a4.244,4.244,0,0,1,.116-1.832l1.514.629a1.92,1.92,0,0,0-.85,1.9.774.774,0,0,0,.95.74C7.69,90.891,7.894,89.789,8.169,89a5.11,5.11,0,0,1,4.448-3.935,5.147,5.147,0,0,1,6.148,4.621c.242,1.592,1.325,3.194,3.12,2.92.773-.117,1.487-.622,1.356-1.486-.285-1.864-3.994-1.624-4.385-4.192A2.659,2.659,0,0,1,21.3,83.883a4.369,4.369,0,0,1,1.447.034l.771,5.047L23.289,89c-.268-1.448-.572-4.356-2.686-4.033A1.568,1.568,0,0,0,19.2,86.878c.38,2.5,4.4,1.887,4.832,4.683A2.181,2.181,0,0,1,22.2,94.19c-1.524.232-2.793-.923-3.378-2.927a5.036,5.036,0,0,1-4.544,4.671,5.137,5.137,0,0,1-6.149-4.621m10.389-1.586C18.1,87,15.671,86.184,12.852,86.615s-4.889,1.955-4.476,4.66,2.826,3.57,5.666,3.137c2.82-.431,4.889-1.956,4.473-4.685"/>
    <path id="Path_5327" data-name="Path 5327" d="M10.927,53.278l-.372-2.735c-.006-.175.087-.287.254-.272l.846-.018a.231.231,0,0,1,.233.288l-.516,2.736L14,52.222a.251.251,0,0,1,.348.183l.262.917a.21.21,0,0,1-.21.288l-2.935.123,2.063,2.131a.21.21,0,0,1-.039.355l-.818.522a.25.25,0,0,1-.373-.119l-1.2-2.564-1.42,2.264a.215.215,0,0,1-.357.034l-.623-.561a.237.237,0,0,1,0-.372l2.091-1.708-2.83-.527a.221.221,0,0,1-.174-.314l.389-1.009a.222.222,0,0,1,.341-.114Z"/>
  </g>
</svg>
