<svg id="Group_1816" data-name="Group 1816" xmlns="http://www.w3.org/2000/svg" xmlns:xlink="http://www.w3.org/1999/xlink" width="150.3" height="146.861" viewBox="0 0 150.3 146.861">
  <defs>
    <clipPath id="clip-path">
      <rect id="Rectangle_2308" data-name="Rectangle 2308" width="150.3" height="146.861" fill="none"/>
    </clipPath>
  </defs>
  <g id="Group_1815" data-name="Group 1815" clip-path="url(#clip-path)">
    <path id="Path_5331" data-name="Path 5331" d="M.59,45.621c1.76-4.612,6.365-6.4,11.418-4.475s7.283,6.3,5.518,10.932c-1.76,4.612-6.332,6.39-11.387,4.463C1.061,54.6-1.158,50.212.59,45.621M17.137,51.9c1.4-3.657-.863-7.318-5.732-9.175C6.561,40.882,2.381,42.117,1,45.75c-1.421,3.727.856,7.342,5.746,9.207,4.87,1.857,8.993.629,10.395-3.053"/>
    <path id="Path_5332" data-name="Path 5332" d="M18.817,39.492c1.936,1.451,3.059,1.794,3.758.822.894-1.263.269-3.62-.668-6.222l-9.461-7.406a1.413,1.413,0,0,0-1.1-.258l-.035.006-.078-.063,2.674-3.414.078.061-.762,1.46a.744.744,0,0,0,.2.951l7.379,5.778c-1.228-3.242-2.32-6.375-1.168-7.847,1.291-1.649,2.75-1.772,4.692-.252l6.6,5.2a1.366,1.366,0,0,0,1.079.242l.035,0,.078.061-2.674,3.416-.078-.063.779-1.48a.725.725,0,0,0-.2-.915l-.746-.585-5.631-4.41c-1.885-1.475-2.936-1.791-3.693-.864-2.3,2.729,5.638,13.5,2.873,17.032-1.276,1.628-2.754,1.738-4.682.2l-6.613-5.179a.63.63,0,0,0-.91.11l-.7.9L9.624,36.6l.107-.137c1.229-1.569-.678-3.663-2.045-3.374l-.078-.061L8.946,31.32A3.95,3.95,0,0,1,10.5,35.481l3.658-4.671.215.169-2.059,2.63a.609.609,0,0,0,.127.89Zm9.047-5.611.078.062-2.674,3.415L25.19,37.3l0-.035a1.36,1.36,0,0,0-.494-.988L23.3,35.183l-.866-2.291c-.131-.357-.015-.425.278-.195l2.964,2.32a.724.724,0,0,0,.954-.044Z"/>
    <path id="Path_5333" data-name="Path 5333" d="M29.741,19.228l4.949-3.705a3.678,3.678,0,0,0-4.742-.466c-4.932,3.6,3.1,13.157,8.176,8.918,1.152-.956,1.906-2.735.691-5.687l.28-.209c1.414,2.8.937,5.618-1.4,7.366-2.752,2.062-6.076,1.282-8.5-1.949-2.393-3.192-2.176-6.686.518-8.7a5.312,5.312,0,0,1,6.5-.045l.036,0-6.325,4.737Z"/>
    <path id="Path_5334" data-name="Path 5334" d="M46.817,19.372l.047.089-3.877,1.946-.045-.09.012-.033a1.363,1.363,0,0,0-.026-1.1L38.2,10.757a1.471,1.471,0,0,0-.883-.7l-.022.011-.044-.089,2.984-1.5.045.089-.512.479a.862.862,0,0,0-.142.993l2.3,4.589c-.884-2.763-1.5-6.385.422-7.547a2.709,2.709,0,0,1,3.815.763l-1.344,3.881-.235-.078c.422-1.326.655-2.084.364-2.886-.5-1.282-1.5-1.759-2.487-1.179-2.05,1.2-.345,7.257.829,9.763l1.06,2.116a.746.746,0,0,0,.859.379Z"/>
    <path id="Path_5335" data-name="Path 5335" d="M55.5,2.253l-.012-.1,4.032-.508.011.1-1.1.415a.43.43,0,0,0-.246.635l5.138,10.081,1.356-5.8L62.135,2.3a1.27,1.27,0,0,0-.725-.563l-.646-.144-.012-.1L65.029.951l.014.1-.881.387a.429.429,0,0,0-.246.634L65.482,5.14l.832-3.371a.782.782,0,0,0-.275-.8L65.982.932l-.011-.1L68.641.5l.013.1-1.324.468a.929.929,0,0,0-.57.649l-.979,3.994,3.3,6.443,2.6-11.033a.4.4,0,0,0-.371-.555L70.117.435,70.1.336,72.775,0l.012.1-.158.145a1.731,1.731,0,0,0-.5.817L69.312,12.6l.334.661-1.558.2L64.967,7.617l-1.418,5.707.359.658-1.557.2L56.371,3.022a1.673,1.673,0,0,0-.662-.67Z"/>
    <path id="Path_5336" data-name="Path 5336" d="M81.447.719c3.543.385,5.631,3.317,5.2,7.257s-3.1,6.357-6.638,5.971c-3.569-.387-5.631-3.317-5.2-7.256C75.24,2.727,77.9.335,81.447.719m-1.4,12.932c2.973.321,4.543-2.365,4.922-5.858s-.6-6.456-3.549-6.777-4.564,2.336-4.947,5.855c-.379,3.493.6,6.457,3.574,6.78"/>
    <path id="Path_5337" data-name="Path 5337" d="M91.254,15.852l-.029.1-4.153-1.253L87.1,14.6l.033-.017a1.359,1.359,0,0,0,.74-.817l3.045-10.1a1.472,1.472,0,0,0-.158-1.115l-.024-.007.028-.1,3.2.964-.029.1-.7,0a.863.863,0,0,0-.786.622L90.963,9.047c1.256-2.615,3.3-5.67,5.5-5.189A2.7,2.7,0,0,1,98.7,7.034L95.061,8.928c-.018-.031-.1-.186-.118-.217,1.219-.673,1.909-1.064,2.248-1.847.516-1.277.125-2.306-1-2.565-2.31-.541-5.24,5.032-6.111,7.66L89.4,14.226a.749.749,0,0,0,.364.865Z"/>
    <path id="Path_5338" data-name="Path 5338" d="M100.711,13.665c2.246-2.508,6.449-5.312,9.076-3.932A2.318,2.318,0,0,1,110.914,13c-1.137,2.162-4.432,2.486-6.8,1.747.043,1.74.01,6.623,1.356,7.331.685.359,1.519-.64,2.1-2.5l.266.084-.9,2.791a2.612,2.612,0,0,1-2.225-.212,4.259,4.259,0,0,1-2.029-3.91l-.207-4.643a4.692,4.692,0,0,0,6.918-1.32,1.665,1.665,0,0,0-.432-2.4c-2.537-1.333-8.019,3.417-9.267,5.633l-.975,1.853a.705.705,0,0,0,.193.919l1.319,1.03-.047.089-3.84-2.019.059-.11a1.3,1.3,0,0,0,.9-.65l7.769-14.784L108.25,3.6l-.047.089-1.375-.385a.728.728,0,0,0-.877.384Z"/>
    <path id="Path_5339" data-name="Path 5339" d="M115.446,26.691c.586-.712.539-1.666-.168-3.071l-2.334-4.63a3.044,3.044,0,0,1,.133-3.5c1.219-1.484,3.451-1.389,5.506.274a4.989,4.989,0,0,1,2.08,5.16l-3.27.424a1.185,1.185,0,0,0-.029-.244,3.933,3.933,0,0,0,2.43-1.173c.781-1,.211-2.585-1.426-3.891-1.561-1.281-3.109-1.443-3.942-.417a2.51,2.51,0,0,0,.014,2.824l2.455,4.757c.772,1.485.76,2.677-.021,3.68-1.342,1.642-3.992,1.473-6.3-.389a6.009,6.009,0,0,1-2.527-5.762l3.691-.316a1.4,1.4,0,0,1,.035.281,3.622,3.622,0,0,0-2.6,1.1c-.893,1.1-.245,2.907,1.554,4.371,1.854,1.475,3.78,1.681,4.719.516"/>
    <path id="Path_5340" data-name="Path 5340" d="M146.946,61.223l1.861,2.339a.247.247,0,0,1-.086.394l-.777.485a.252.252,0,0,1-.379-.137l-1.033-2.834-1.863,2.437a.273.273,0,0,1-.428.022l-.75-.707a.228.228,0,0,1,.035-.385l2.664-1.74-3.1-.841a.229.229,0,0,1-.161-.353l.473-.938a.27.27,0,0,1,.414-.1l2.541,1.72.067-2.894a.234.234,0,0,1,.314-.23l.891.179a.256.256,0,0,1,.209.343l-1,2.748,2.927-1.077a.241.241,0,0,1,.336.2l.2,1.156a.24.24,0,0,1-.252.295Z"/>
    <path id="Path_5341" data-name="Path 5341" d="M145.576,103.149c-1.877,4.565-6.527,6.237-11.529,4.181s-7.118-6.484-5.231-11.071c1.877-4.565,6.494-6.224,11.5-4.166,5.026,2.066,7.129,6.514,5.264,11.056M129.2,96.443c-1.488,3.619.674,7.338,5.492,9.319,4.795,1.972,9,.845,10.483-2.75,1.517-3.689-.666-7.362-5.506-9.352-4.819-1.981-8.971-.859-10.469,2.783"/>
    <path id="Path_5342" data-name="Path 5342" d="M127.172,108.835c-1.894-1.5-3.01-1.877-3.734-.923-.928,1.238-.367,3.611.5,6.238l9.254,7.662a1.407,1.407,0,0,0,1.088.287l.035,0,.078.063-2.768,3.342-.076-.065.8-1.439a.748.748,0,0,0-.178-.956l-7.22-5.978c1.14,3.275,2.146,6.437.955,7.878-1.336,1.612-2.8,1.7-4.7.123l-6.455-5.378a1.366,1.366,0,0,0-1.07-.269l-.035,0-.076-.064,2.765-3.341.076.065-.818,1.457a.725.725,0,0,0,.176.922l.728.6,5.512,4.563c1.842,1.526,2.885,1.871,3.666.966,2.369-2.666-5.267-13.651-2.406-17.106,1.32-1.594,2.8-1.663,4.685-.07l6.471,5.358a.629.629,0,0,0,.912-.086l.731-.883.213.175-.112.134c-1.273,1.536.576,3.681,1.949,3.428l.079.063-1.383,1.671a3.955,3.955,0,0,1-1.442-4.2l-3.783,4.57-.211-.175,2.131-2.573a.609.609,0,0,0-.1-.893Zm-9.2,5.362-.078-.063,2.767-3.341.077.063,0,.035a1.361,1.361,0,0,0,.464,1l1.364,1.129.8,2.315c.123.36,0,.423-.283.185l-2.9-2.4a.727.727,0,0,0-.955.018Z"/>
    <path id="Path_5343" data-name="Path 5343" d="M115.735,128.771l-5.041,3.573a3.675,3.675,0,0,0,4.725.592c5.025-3.469-2.748-13.232-7.936-9.129-1.176.925-1.977,2.684-.84,5.666l-.285.2c-1.34-2.838-.791-5.639,1.59-7.326,2.805-1.988,6.107-1.121,8.441,2.172,2.305,3.254,2,6.741-.748,8.686a5.315,5.315,0,0,1-6.5-.125l-.035-.007,6.446-4.567Z"/>
    <path id="Path_5344" data-name="Path 5344" d="M98.68,128.182l-.043-.09,3.926-1.845.043.091-.012.033a1.358,1.358,0,0,0-.006,1.1l4.487,9.545a1.446,1.446,0,0,0,.863.723l.021-.01.043.09-3.023,1.421-.043-.091.525-.466a.861.861,0,0,0,.168-.988l-2.183-4.649c.812,2.786,1.338,6.423-.62,7.535a2.707,2.707,0,0,1-3.792-.862l1.443-3.846.232.085c-.455,1.315-.709,2.067-.437,2.877.471,1.294,1.451,1.8,2.455,1.241,2.08-1.142.533-7.247-.574-9.782l-1.008-2.144a.743.743,0,0,0-.848-.4Z"/>
    <path id="Path_5345" data-name="Path 5345" d="M89.526,145.068l.01.1-4.043.4-.01-.1,1.115-.386a.428.428,0,0,0,.262-.626l-4.869-10.212-1.506,5.76,2.408,4.844a1.261,1.261,0,0,0,.709.581l.641.162.01.1-4.29.425-.009-.1.89-.363a.432.432,0,0,0,.264-.628l-1.486-3.107-.92,3.346a.786.786,0,0,0,.254.8l.054.044.01.1-2.678.264-.009-.1,1.334-.433a.933.933,0,0,0,.588-.634l1.085-3.964-3.127-6.528-2.9,10.957a.407.407,0,0,0,.357.565l1.192.158.012.1-2.68.265-.01-.1.162-.142a1.749,1.749,0,0,0,.522-.8l3.121-11.454-.317-.67,1.563-.155,2.965,5.917,1.568-5.665-.342-.667,1.563-.155,5.678,11.307a1.665,1.665,0,0,0,.644.688Z"/>
    <path id="Path_5346" data-name="Path 5346" d="M63.559,145.918c-3.531-.479-5.539-3.467-5.008-7.394s3.264-6.272,6.8-5.793c3.555.481,5.539,3.467,5.008,7.394-.535,3.951-3.264,6.272-6.8,5.793m1.748-12.892c-2.963-.4-4.6,2.244-5.076,5.726s.43,6.471,3.369,6.869,4.625-2.215,5.1-5.721c.47-3.482-.432-6.473-3.4-6.874"/>
    <path id="Path_5347" data-name="Path 5347" d="M54.139,130.528l.031-.094,4.117,1.363-.031.093-.031.017a1.357,1.357,0,0,0-.762.8l-3.31,10.01a1.458,1.458,0,0,0,.129,1.119l.023.007-.031.1L51.1,142.886l.033-.094.7.022a.867.867,0,0,0,.8-.6l1.611-4.874c-1.326,2.579-3.447,5.58-5.632,5.041a2.707,2.707,0,0,1-2.159-3.234l3.694-1.8.109.221c-1.234.641-1.935,1.013-2.3,1.785-.549,1.263-.183,2.3.928,2.591,2.295.6,5.373-4.891,6.312-7.493l.743-2.248a.746.746,0,0,0-.34-.874Z"/>
    <path id="Path_5348" data-name="Path 5348" d="M44.641,132.469c-2.313,2.447-6.588,5.136-9.176,3.687a2.317,2.317,0,0,1-1.039-3.3c1.194-2.131,4.494-2.367,6.846-1.565,0-1.739.164-6.619-1.162-7.361-.674-.378-1.533.6-2.166,2.441l-.264-.09.977-2.764a2.6,2.6,0,0,1,2.218.271,4.248,4.248,0,0,1,1.922,3.96l.084,4.645a4.687,4.687,0,0,0-6.947,1.136,1.663,1.663,0,0,0,.367,2.4c2.5,1.4,8.1-3.2,9.41-5.383l1.024-1.827a.7.7,0,0,0-.17-.922l-1.289-1.064.051-.087,3.781,2.118-.061.108a1.306,1.306,0,0,0-.922.627l-8.156,14.565-3.129-1.752.047-.086,1.365.42a.729.729,0,0,0,.887-.361Z"/>
    <path id="Path_5349" data-name="Path 5349" d="M30.276,119.074c-.6.7-.582,1.65.088,3.073l2.209,4.689a3.047,3.047,0,0,1-.227,3.493c-1.258,1.45-3.486,1.3-5.494-.421a4.987,4.987,0,0,1-1.941-5.212l3.277-.337a1.179,1.179,0,0,0,.025.246,3.914,3.914,0,0,0-2.46,1.107c-.807.982-.28,2.577,1.32,3.925,1.529,1.322,3.07,1.525,3.93.522a2.508,2.508,0,0,0,.06-2.821l-2.328-4.82c-.73-1.506-.688-2.7.119-3.677,1.385-1.605,4.029-1.367,6.287.555a6.005,6.005,0,0,1,2.373,5.825l-3.695.219a1.372,1.372,0,0,1-.027-.281,3.631,3.631,0,0,0,2.625-1.034c.921-1.082.32-2.9-1.44-4.411-1.812-1.523-3.732-1.779-4.7-.64"/>
    <path id="Path_5350" data-name="Path 5350" d="M4.045,100.447l-2.3-1.906a.246.246,0,0,1,0-.4L2.4,97.5a.251.251,0,0,1,.4.057l1.6,2.559,1.32-2.769a.272.272,0,0,1,.412-.109l.883.538a.229.229,0,0,1,.043.384l-2.248,2.251,3.2.183a.229.229,0,0,1,.23.311l-.269,1.017a.269.269,0,0,1-.385.179l-2.84-1.159.531,2.844c.016.18-.072.3-.261.29l-.907.009a.257.257,0,0,1-.277-.292l.414-2.9-2.643,1.656a.24.24,0,0,1-.369-.123l-.427-1.089A.24.24,0,0,1,1,101Z"/>
    <path id="Path_5351" data-name="Path 5351" d="M66.136,45.694c2.733,0,5.308,2.041,7.37,5.794,2.012-3.641,4.554-5.794,7.353-5.794,6.677,0,11.906,12.212,11.906,27.8s-5.23,27.8-11.906,27.8c-2.8,0-5.343-2.154-7.355-5.8-2.06,3.747-4.643,5.8-7.368,5.8-6.676,0-11.906-12.211-11.906-27.8s5.23-27.8,11.906-27.8m14.259,35.27c1.291,7.8.065,14.507-2.739,14.971a2.658,2.658,0,0,1-2.09-.728c1.617,2.669,3.479,4.147,5.293,4.147,4.812,0,9.965-10.391,9.965-25.859s-5.153-25.859-9.965-25.859c-4.375,0-9.031,8.592-9.84,21.778a2.915,2.915,0,0,1,1.961-1.74c2.8-.464,6.125,5.487,7.416,13.29M58.454,70.079c2.8-.464,6.124,5.486,7.416,13.29,1.249,7.546.143,14.06-2.466,14.9a4.449,4.449,0,0,0,2.732,1.083c2.219,0,4.438-2.1,6.248-5.921l.048-.14c-2.157-5.006-3.479-11.972-3.479-19.8s1.322-14.814,3.484-19.821c-1.821-3.895-4.047-6.039-6.3-6.039-4.709,0-9.74,9.952-9.954,24.87.551-1.393,1.32-2.27,2.272-2.428"/>
  </g>
</svg>
