<svg xmlns="http://www.w3.org/2000/svg" width="348" height="162" viewBox="0 0 348 162">
  <g id="Group_5" data-name="Group 5" transform="translate(2120.865 980.896)">
    <rect id="Rectangle_9" data-name="Rectangle 9" width="348" height="162" transform="translate(-2120.865 -980.896)" fill="#2b2829"/>
    <path id="Path_2" data-name="Path 2" d="M-1501.112-456.109a45.452,45.452,0,0,0-45.553,45.349,45.452,45.452,0,0,0,45.553,45.349,45.452,45.452,0,0,0,45.553-45.349,45.452,45.452,0,0,0-45.553-45.349" transform="translate(-535.025 -488.982)" fill="#b76749"/>
    <path id="Path_3" data-name="Path 3" d="M-1180.538-105.822l-22.177,16.04,8.472,25.953h27.41l8.47-25.953Z" transform="translate(-855.509 -815.371)" fill="#fff"/>
    <path id="Path_4" data-name="Path 4" d="M-5750.661,2180.928a6.47,6.47,0,0,1-2.467-2.841,9.888,9.888,0,0,1-.851-4.213,11.7,11.7,0,0,1,.866-4.694,6.892,6.892,0,0,1,2.453-3.059,6.485,6.485,0,0,1,3.713-1.071,5.467,5.467,0,0,1,4.305,1.693,7.525,7.525,0,0,1,1.51,5.14h-9.718a15.592,15.592,0,0,0-.106,1.989,8.83,8.83,0,0,0,.674,3.583,5.767,5.767,0,0,0,1.77,2.354,3.791,3.791,0,0,0,2.309.821,4.776,4.776,0,0,0,4.57-3.113l.624.243a6.255,6.255,0,0,1-1.162,2.042,6.1,6.1,0,0,1-1.991,1.541,5.9,5.9,0,0,1-2.665.593A7.092,7.092,0,0,1-5750.661,2180.928Zm1.831-14.669a4.642,4.642,0,0,0-1.359,1.884,9.862,9.862,0,0,0-.707,3.151h6.772a10.151,10.151,0,0,0-.258-2.84,4.684,4.684,0,0,0-1-2.049,2.176,2.176,0,0,0-1.686-.76A2.836,2.836,0,0,0-5748.83,2166.259Zm-52.112,14.791a6.139,6.139,0,0,1-2.5-2.772,10.843,10.843,0,0,1-.92-4.768,10.892,10.892,0,0,1,.92-4.776,6.168,6.168,0,0,1,2.5-2.786,7.269,7.269,0,0,1,3.637-.9,7.265,7.265,0,0,1,3.637.9,6.168,6.168,0,0,1,2.5,2.786,10.892,10.892,0,0,1,.92,4.776,10.843,10.843,0,0,1-.92,4.768,6.139,6.139,0,0,1-2.5,2.772,7.308,7.308,0,0,1-3.637.889A7.312,7.312,0,0,1-5800.942,2181.05Zm.684-13.462a12.43,12.43,0,0,0-1.087,5.923,12.341,12.341,0,0,0,1.087,5.9,3.3,3.3,0,0,0,2.953,1.906,3.3,3.3,0,0,0,2.955-1.906,12.344,12.344,0,0,0,1.085-5.9,12.432,12.432,0,0,0-1.085-5.923,3.3,3.3,0,0,0-2.955-1.913A3.293,3.293,0,0,0-5800.258,2167.587Zm40.22-1.639h-3.432a4.658,4.658,0,0,0-2.292.5,3.307,3.307,0,0,0-1.39,1.6,8.871,8.871,0,0,0-.63,2.909h-.715q0-4.115-.136-5.6,2.446.123,5.786.122,2.977,0,6.287-.151l-8.99,15.7h3.417a3.925,3.925,0,0,0,3.022-1.193,6.185,6.185,0,0,0,1.305-3.8h.713q0,4.054.122,5.589-2.43-.121-5.77-.122-2.977,0-6.287.152Zm-14.381,15.428q-.866,0-3.478.122v-.653a3,3,0,0,0,1.207-.2,1.248,1.248,0,0,0,.637-.684,3.556,3.556,0,0,0,.205-1.352v-8.99a8.616,8.616,0,0,0-.174-1.882,2.224,2.224,0,0,0-.728-1.23,2.442,2.442,0,0,0-1.617-.47,3.685,3.685,0,0,0-2.271.744,4.808,4.808,0,0,0-1.542,2.042,7.343,7.343,0,0,0-.546,2.879v6.908a3.586,3.586,0,0,0,.205,1.352,1.243,1.243,0,0,0,.646.684,3.058,3.058,0,0,0,1.214.2v.653q-2.613-.121-3.492-.122t-3.736.122v-.653a3.984,3.984,0,0,0,1.389-.2,1.345,1.345,0,0,0,.744-.684,3.166,3.166,0,0,0,.234-1.352v-9.734a3.346,3.346,0,0,0-.523-2.095,2.248,2.248,0,0,0-1.845-.653v-.653c.648.062,1.29.091,1.928.091a10.288,10.288,0,0,0,3.234-.425v3.659a5.742,5.742,0,0,1,2.164-2.861,5.692,5.692,0,0,1,3.136-.889,4.367,4.367,0,0,1,3.3,1.169,3.763,3.763,0,0,1,.828,1.572,10.072,10.072,0,0,1,.25,2.514v8.306a3.141,3.141,0,0,0,.236,1.352,1.335,1.335,0,0,0,.744.684,3.971,3.971,0,0,0,1.389.2v.653Q-5773.538,2181.377-5774.419,2181.376Zm-40.047,0q-.82,0-3.674.122v-.653a3.977,3.977,0,0,0,1.389-.2,1.335,1.335,0,0,0,.744-.684,3.163,3.163,0,0,0,.236-1.352v-9.734a3.354,3.354,0,0,0-.524-2.095,2.245,2.245,0,0,0-1.844-.653v-.653q.971.092,1.928.091a10.288,10.288,0,0,0,3.234-.425v3.888a7.542,7.542,0,0,1,1.011-1.882,5.912,5.912,0,0,1,1.57-1.5,3.49,3.49,0,0,1,1.929-.592,3.2,3.2,0,0,1,1.466.327,2.549,2.549,0,0,1,1.009.888,2.217,2.217,0,0,1,.365,1.23,2.067,2.067,0,0,1-.487,1.389,1.613,1.613,0,0,1-1.291.57,1.7,1.7,0,0,1-1.169-.432,1.493,1.493,0,0,1-.486-1.178,1.956,1.956,0,0,1,1.063-1.685.741.741,0,0,0-.653-.3,3.137,3.137,0,0,0-2.218.94,6.571,6.571,0,0,0-1.548,2.323,6.881,6.881,0,0,0-.562,2.583v6.59a2.238,2.238,0,0,0,.82,2,4.461,4.461,0,0,0,2.476.554v.653Q-5813.509,2181.377-5814.466,2181.376Zm-15.474.076q-1.564-.044-3.158-.045-2.553,0-3.858.091v-.623a5.581,5.581,0,0,0,1.633-.242,1.172,1.172,0,0,0,.7-.73,5.523,5.523,0,0,0,.189-1.7v-15.429a5.524,5.524,0,0,0-.189-1.7,1.168,1.168,0,0,0-.7-.729,5.571,5.571,0,0,0-1.633-.243v-.623q1.292.092,3.8.091,1.215,0,2.681-.029t2.011-.031a9.353,9.353,0,0,1,3.6.615,4.835,4.835,0,0,1,2.217,1.715,4.474,4.474,0,0,1,.744,2.559,5.053,5.053,0,0,1-1.131,3.22,7.124,7.124,0,0,1-3.592,2.187v.06a8.171,8.171,0,0,1,4.89,1.968,5.047,5.047,0,0,1,1.458,3.637,5.545,5.545,0,0,1-.9,3.127,5.971,5.971,0,0,1-2.59,2.135,9.531,9.531,0,0,1-3.978.766Q-5828.376,2181.5-5829.939,2181.452Zm-1.61-3.249a5.51,5.51,0,0,0,.182,1.655,1.138,1.138,0,0,0,.669.728,4.186,4.186,0,0,0,1.488.2q5.816,0,5.816-5.452a4.921,4.921,0,0,0-1.329-3.721,5.924,5.924,0,0,0-4.214-1.276h-2.612Zm.851-17.882a1.221,1.221,0,0,0-.669.782,5.756,5.756,0,0,0-.182,1.67v7.031h2.1a4.136,4.136,0,0,0,3.554-1.383,6.082,6.082,0,0,0,1.017-3.69,5.075,5.075,0,0,0-1.033-3.485,4.272,4.272,0,0,0-3.325-1.147A3.7,3.7,0,0,0-5830.7,2160.321Zm146.106-16.144a7.406,7.406,0,0,1-1.276-.837.4.4,0,0,0-.289-.12q-.455,0-.639,1.169h-.713q.123-1.778.122-6.211h.713a15.948,15.948,0,0,0,.653,3.173,4.1,4.1,0,0,0,1.307,1.944,3.707,3.707,0,0,0,2.369.7,3.051,3.051,0,0,0,1.314-.3,2.435,2.435,0,0,0,1.04-.957,3.2,3.2,0,0,0,.41-1.708,2.772,2.772,0,0,0-.434-1.526,4.829,4.829,0,0,0-1.131-1.216q-.7-.538-1.958-1.329-1.534-.971-2.347-1.594a5.716,5.716,0,0,1-1.374-1.519,3.887,3.887,0,0,1-.562-2.111,3.817,3.817,0,0,1,.624-2.224,3.743,3.743,0,0,1,1.661-1.345,5.9,5.9,0,0,1,2.316-.441,5.26,5.26,0,0,1,1.967.35,5.52,5.52,0,0,1,1.419.79,1,1,0,0,0,.548.258q.547,0,.7-1.367h.714q-.123,1.518-.122,5.285h-.715a7.681,7.681,0,0,0-1.32-3.387,3.4,3.4,0,0,0-2.917-1.336,2.667,2.667,0,0,0-1.837.63,2.218,2.218,0,0,0-.715,1.753,2.42,2.42,0,0,0,.737,1.8,10.548,10.548,0,0,0,1.777,1.374q1.042.653,1.481.942a25.679,25.679,0,0,1,2.3,1.647,6.122,6.122,0,0,1,1.413,1.657,4.191,4.191,0,0,1,.538,2.133,3.874,3.874,0,0,1-.721,2.361,4.518,4.518,0,0,1-1.936,1.489,6.809,6.809,0,0,1-2.659.508A6.471,6.471,0,0,1-5684.592,2144.177Zm-18.27-.5a5.934,5.934,0,0,1-2.193-2.824,12.188,12.188,0,0,1-.753-4.661,10.142,10.142,0,0,1,.942-4.632,6.736,6.736,0,0,1,2.559-2.871,6.76,6.76,0,0,1,3.53-.957,5.247,5.247,0,0,1,2.18.448,3.4,3.4,0,0,1,1.556,1.39v-6.044a3.314,3.314,0,0,0-.524-2.089,2.263,2.263,0,0,0-1.845-.645v-.653q.987.09,1.928.091a9.829,9.829,0,0,0,3.236-.439v21a3.317,3.317,0,0,0,.523,2.087,2.263,2.263,0,0,0,1.846.646v.654q-.987-.092-1.928-.092a9.825,9.825,0,0,0-3.236.441v-2.764a4.512,4.512,0,0,1-1.694,2.127,4.883,4.883,0,0,1-2.725.728A6.033,6.033,0,0,1-5702.862,2143.674Zm2.12-14.373a5.678,5.678,0,0,0-1.512,2.6,14.173,14.173,0,0,0-.532,4.291,11.485,11.485,0,0,0,1.056,5.61,3.436,3.436,0,0,0,3.167,1.875,3.006,3.006,0,0,0,1.518-.409,3.724,3.724,0,0,0,1.246-1.223,5.483,5.483,0,0,0,.759-1.951v-9.249a3.38,3.38,0,0,0-3.478-2.4A3.246,3.246,0,0,0-5700.743,2129.3Zm-79.827,15.065a3.3,3.3,0,0,1-1.214-.782,3.779,3.779,0,0,1-.942-1.677,10.535,10.535,0,0,1-.272-2.681v-10.418h-2.993v-.621H-5783v-4.755a8.725,8.725,0,0,0,2.793-.439v5.195h4.6v.621h-4.6v12.043a3.228,3.228,0,0,0,.5,2.027,1.809,1.809,0,0,0,1.488.615,2.131,2.131,0,0,0,1.655-.773,6.409,6.409,0,0,0,1.154-2.552l.608.151q-.76,4.3-4.04,4.3A5.093,5.093,0,0,1-5780.57,2144.366Zm-35.1-.759a6.477,6.477,0,0,1-2.467-2.84,9.9,9.9,0,0,1-.851-4.214,11.694,11.694,0,0,1,.866-4.692,6.906,6.906,0,0,1,2.452-3.06,6.489,6.489,0,0,1,3.713-1.071,5.47,5.47,0,0,1,4.305,1.693,7.53,7.53,0,0,1,1.512,5.14h-9.719a15.446,15.446,0,0,0-.105,1.99,8.837,8.837,0,0,0,.674,3.584,5.777,5.777,0,0,0,1.77,2.354,3.791,3.791,0,0,0,2.309.82,4.777,4.777,0,0,0,4.57-3.114l.624.243a6.221,6.221,0,0,1-1.162,2.043,6.1,6.1,0,0,1-1.991,1.541,5.9,5.9,0,0,1-2.665.592A7.1,7.1,0,0,1-5815.673,2143.607Zm1.831-14.669a4.626,4.626,0,0,0-1.359,1.882,9.9,9.9,0,0,0-.706,3.151h6.772a10.157,10.157,0,0,0-.258-2.84,4.692,4.692,0,0,0-1-2.049,2.179,2.179,0,0,0-1.685-.759A2.837,2.837,0,0,0-5813.842,2128.938Zm88.376,14.7a3.179,3.179,0,0,1-.586-2.011,5.388,5.388,0,0,1-2.186,2.133,5.8,5.8,0,0,1-2.6.632,5.114,5.114,0,0,1-1.975-.372,3.21,3.21,0,0,1-1.436-1.155,3.362,3.362,0,0,1-.538-1.951,3.462,3.462,0,0,1,.577-2.02,5.157,5.157,0,0,1,1.625-1.465,22.9,22.9,0,0,1,2.809-1.375q.305-.121,1.49-.606a5.807,5.807,0,0,0,1.707-.973,1.432,1.432,0,0,0,.524-1.062v-1.929a3.211,3.211,0,0,0-.751-2.468,3.135,3.135,0,0,0-2.133-.661,3.735,3.735,0,0,0-3.083,1.109,1.9,1.9,0,0,1,1.04.661,1.888,1.888,0,0,1,.417,1.238,1.587,1.587,0,0,1-.494,1.238,1.9,1.9,0,0,1-1.329.448,1.53,1.53,0,0,1-1.237-.532,2.1,2.1,0,0,1-.448-1.4,2.772,2.772,0,0,1,1.458-2.216,7.036,7.036,0,0,1,1.875-.835,8.591,8.591,0,0,1,2.483-.335,7.351,7.351,0,0,1,2.247.312,3.706,3.706,0,0,1,1.519.858,3.84,3.84,0,0,1,.98,1.693,10.465,10.465,0,0,1,.267,2.665v8.641a2.171,2.171,0,0,0,.22,1.124.8.8,0,0,0,.735.349,1.482,1.482,0,0,0,.7-.167,3.972,3.972,0,0,0,.7-.485l.349.53c-.363.274-.668.486-.911.639a3.282,3.282,0,0,1-.835.364,3.886,3.886,0,0,1-1.093.138A2.5,2.5,0,0,1-5725.465,2143.636Zm-1.345-8.3q-.532.3-2.218,1.124a9.87,9.87,0,0,0-1.518.875,3.794,3.794,0,0,0-1.063,1.207,3.656,3.656,0,0,0-.439,1.868,2.787,2.787,0,0,0,.683,2.042,2.431,2.431,0,0,0,1.808.691,4.135,4.135,0,0,0,3.507-2.354v-6.106A2.146,2.146,0,0,1-5726.81,2135.338Zm-37.762,8.3a3.2,3.2,0,0,1-.584-2.011,5.388,5.388,0,0,1-2.186,2.133,5.8,5.8,0,0,1-2.6.632,5.112,5.112,0,0,1-1.976-.372,3.2,3.2,0,0,1-1.434-1.155,3.351,3.351,0,0,1-.539-1.951,3.462,3.462,0,0,1,.577-2.02,5.157,5.157,0,0,1,1.625-1.465,22.868,22.868,0,0,1,2.81-1.375q.3-.121,1.488-.606a5.838,5.838,0,0,0,1.708-.973,1.43,1.43,0,0,0,.523-1.062v-1.929a3.211,3.211,0,0,0-.751-2.468,3.132,3.132,0,0,0-2.133-.661,3.735,3.735,0,0,0-3.084,1.109,1.906,1.906,0,0,1,1.042.661,1.888,1.888,0,0,1,.417,1.238,1.592,1.592,0,0,1-.494,1.238,1.9,1.9,0,0,1-1.329.448,1.529,1.529,0,0,1-1.238-.532,2.1,2.1,0,0,1-.448-1.4,2.772,2.772,0,0,1,1.458-2.216,7.057,7.057,0,0,1,1.876-.835,8.587,8.587,0,0,1,2.482-.335,7.367,7.367,0,0,1,2.249.312,3.7,3.7,0,0,1,1.518.858,3.84,3.84,0,0,1,.98,1.693,10.475,10.475,0,0,1,.265,2.665v8.641a2.169,2.169,0,0,0,.221,1.124.8.8,0,0,0,.735.349,1.492,1.492,0,0,0,.7-.167,4.021,4.021,0,0,0,.7-.485l.35.53q-.547.411-.911.639a3.316,3.316,0,0,1-.836.364,3.886,3.886,0,0,1-1.093.138A2.5,2.5,0,0,1-5764.572,2143.636Zm-1.343-8.3q-.532.3-2.218,1.124a9.948,9.948,0,0,0-1.518.875,3.79,3.79,0,0,0-1.062,1.207,3.656,3.656,0,0,0-.441,1.868,2.793,2.793,0,0,0,.683,2.042,2.431,2.431,0,0,0,1.808.691,4.135,4.135,0,0,0,3.507-2.354v-6.106A2.146,2.146,0,0,1-5765.915,2135.338Zm22.946,8.99-4.935-12.513-4.435,12.513h-.516l-5.1-13.773a3.2,3.2,0,0,0-.882-1.421,1.581,1.581,0,0,0-.926-.327v-.652a18.437,18.437,0,0,0,2.733.2q1.38,0,4.04-.2v.652a6.893,6.893,0,0,0-1.512.122.855.855,0,0,0-.637.684,3.486,3.486,0,0,0,.3,1.808l3.113,8.943,4.464-12.33h.715l4.768,12.589,2.917-8.915a5.07,5.07,0,0,0,.287-1.412,1.207,1.207,0,0,0-.539-1.093,3.8,3.8,0,0,0-1.768-.425v-.623q1.639.09,2.612.091,1.382,0,2.369-.091v.623a1.937,1.937,0,0,0-1.154.563,3.938,3.938,0,0,0-.866,1.623l-4.51,13.364Zm27.031-.272q-.82,0-3.675.122v-.654a3.947,3.947,0,0,0,1.39-.2,1.334,1.334,0,0,0,.744-.684,3.158,3.158,0,0,0,.234-1.351v-9.734a3.35,3.35,0,0,0-.523-2.1,2.247,2.247,0,0,0-1.846-.653v-.652q.973.09,1.929.091a10.318,10.318,0,0,0,3.234-.425v3.886a7.628,7.628,0,0,1,1.01-1.882,5.917,5.917,0,0,1,1.573-1.5,3.471,3.471,0,0,1,1.928-.593,3.218,3.218,0,0,1,1.466.327,2.551,2.551,0,0,1,1.009.889,2.208,2.208,0,0,1,.365,1.229,2.071,2.071,0,0,1-.486,1.39,1.613,1.613,0,0,1-1.291.57,1.694,1.694,0,0,1-1.169-.434,1.492,1.492,0,0,1-.486-1.176,1.961,1.961,0,0,1,1.062-1.686.742.742,0,0,0-.653-.3,3.132,3.132,0,0,0-2.216.942,6.594,6.594,0,0,0-1.55,2.323,6.9,6.9,0,0,0-.562,2.581v6.591a2.236,2.236,0,0,0,.821,2,4.444,4.444,0,0,0,2.474.555v.654Q-5714.98,2144.054-5715.938,2144.055Zm-74.381,0q-.866,0-3.478.122v-.654a2.971,2.971,0,0,0,1.207-.2,1.242,1.242,0,0,0,.637-.684,3.548,3.548,0,0,0,.205-1.351v-8.99a8.531,8.531,0,0,0-.174-1.884,2.212,2.212,0,0,0-.728-1.229,2.436,2.436,0,0,0-1.619-.472,3.693,3.693,0,0,0-2.269.744,4.8,4.8,0,0,0-1.541,2.043,7.33,7.33,0,0,0-.548,2.877v6.91a3.577,3.577,0,0,0,.205,1.351,1.242,1.242,0,0,0,.646.684,3.024,3.024,0,0,0,1.214.2v.654q-2.613-.123-3.494-.122t-3.734.122v-.654a3.944,3.944,0,0,0,1.389-.2,1.329,1.329,0,0,0,.744-.684,3.156,3.156,0,0,0,.236-1.351v-9.734a3.359,3.359,0,0,0-.524-2.1,2.247,2.247,0,0,0-1.844-.653v-.652c.646.06,1.291.091,1.928.091a10.331,10.331,0,0,0,3.234-.425v3.659a5.732,5.732,0,0,1,2.165-2.862,5.7,5.7,0,0,1,3.135-.889,4.365,4.365,0,0,1,3.3,1.17,3.737,3.737,0,0,1,.828,1.572,10.067,10.067,0,0,1,.25,2.512v8.307a3.156,3.156,0,0,0,.236,1.351,1.329,1.329,0,0,0,.744.684,3.936,3.936,0,0,0,1.389.2v.654Q-5789.438,2144.054-5790.319,2144.055Zm-42.659.029q-2.672,0-3.979.092v-.623a5.521,5.521,0,0,0,1.633-.243,1.168,1.168,0,0,0,.7-.729,5.523,5.523,0,0,0,.189-1.7v-15.428a5.528,5.528,0,0,0-.189-1.7,1.165,1.165,0,0,0-.7-.728,5.473,5.473,0,0,0-1.633-.243v-.623q1.292.09,3.8.091,1.215,0,2.681-.031t2.011-.031a9.947,9.947,0,0,1,4.131.768,5.541,5.541,0,0,1,2.529,2.149,6.057,6.057,0,0,1,.842,3.22,7.5,7.5,0,0,1-.759,3.28,6.106,6.106,0,0,1-2.589,2.626,9.693,9.693,0,0,1-4.837,1.049h-2.4v5.6a4.36,4.36,0,0,0,.243,1.7,1.345,1.345,0,0,0,.88.729,8.4,8.4,0,0,0,2.02.243v.623Q-5830.016,2144.085-5832.978,2144.085ZM-5830.7,2123a1.221,1.221,0,0,0-.669.782,5.767,5.767,0,0,0-.182,1.671v9.2h2.1q3.037,0,4.206-1.626a7.34,7.34,0,0,0,1.17-4.373,8.967,8.967,0,0,0-.517-3.3,3.759,3.759,0,0,0-1.648-1.937,6.044,6.044,0,0,0-3-.645A3.7,3.7,0,0,0-5830.7,2123Zm12.453-17.215a7.067,7.067,0,0,1-2.688-2.877,9.191,9.191,0,0,1-.973-4.321,9.841,9.841,0,0,1,.98-4.434,7.569,7.569,0,0,1,2.771-3.105,7.579,7.579,0,0,1,4.131-1.131,7.446,7.446,0,0,1,3.879,1.017,7.054,7.054,0,0,1,2.673,2.871,9.142,9.142,0,0,1,.964,4.282,9.836,9.836,0,0,1-.995,4.465,7.679,7.679,0,0,1-2.779,3.122,7.488,7.488,0,0,1-4.093,1.131A7.444,7.444,0,0,1-5818.245,2105.784Zm1.556-14.366a6.274,6.274,0,0,0-1.617,2.771,14.26,14.26,0,0,0-.577,4.305,12.942,12.942,0,0,0,.639,4.412,5.3,5.3,0,0,0,1.723,2.536,4.016,4.016,0,0,0,2.438.8,3.4,3.4,0,0,0,2.377-.964,6.323,6.323,0,0,0,1.617-2.786,14.384,14.384,0,0,0,.577-4.313,12.829,12.829,0,0,0-.639-4.39,5.3,5.3,0,0,0-1.724-2.528,4.021,4.021,0,0,0-2.436-.8A3.418,3.418,0,0,0-5816.689,2091.418Zm35.6,14.943h-7.29v-.532q.516-.56,2.779-2.679a21.328,21.328,0,0,0,3.568-4.214,8.222,8.222,0,0,0,1.307-4.42q0-3.355-3.113-3.356-2.538,0-4.162,2.915l-.5-.272a7.361,7.361,0,0,1,2.324-2.795,6.318,6.318,0,0,1,3.812-1.093,5.218,5.218,0,0,1,3.417,1.025,3.539,3.539,0,0,1,1.245,2.893,5.367,5.367,0,0,1-1.216,3.385,30.692,30.692,0,0,1-3.523,3.637,26.267,26.267,0,0,0-3.067,3.105h6.318a4.1,4.1,0,0,0,1.26-.144.98.98,0,0,0,.577-.464,2.893,2.893,0,0,0,.243-.971h.532q0,2.854.122,4.131A36.637,36.637,0,0,0-5781.085,2106.361Zm-14.9,0h-7.289v-.532q.516-.56,2.779-2.679a21.328,21.328,0,0,0,3.568-4.214,8.222,8.222,0,0,0,1.307-4.42q0-3.355-3.113-3.356-2.538,0-4.162,2.915l-.5-.272a7.347,7.347,0,0,1,2.323-2.795,6.324,6.324,0,0,1,3.812-1.093,5.218,5.218,0,0,1,3.417,1.025,3.535,3.535,0,0,1,1.245,2.893,5.365,5.365,0,0,1-1.214,3.385,30.929,30.929,0,0,1-3.523,3.637,26.029,26.029,0,0,0-3.067,3.105h6.316a4.115,4.115,0,0,0,1.261-.144.985.985,0,0,0,.577-.464,2.934,2.934,0,0,0,.242-.971h.532q0,2.854.122,4.131A36.637,36.637,0,0,0-5795.983,2106.361Zm-33.561,0h-7.291v-.532q.516-.56,2.78-2.679a21.429,21.429,0,0,0,3.568-4.214,8.233,8.233,0,0,0,1.305-4.42q0-3.355-3.113-3.356-2.536,0-4.16,2.915l-.5-.272a7.363,7.363,0,0,1,2.325-2.795,6.318,6.318,0,0,1,3.812-1.093,5.214,5.214,0,0,1,3.416,1.025,3.536,3.536,0,0,1,1.247,2.893,5.367,5.367,0,0,1-1.216,3.385,30.929,30.929,0,0,1-3.523,3.637,26.029,26.029,0,0,0-3.067,3.105h6.318a4.1,4.1,0,0,0,1.26-.144.98.98,0,0,0,.577-.464,2.928,2.928,0,0,0,.243-.971h.532q0,2.854.122,4.131A36.637,36.637,0,0,0-5829.544,2106.361Z" transform="translate(3876.51 -3035.844)" fill="#fff" stroke="rgba(0,0,0,0)" stroke-width="1"/>
  </g>
</svg>
