<?xml version="1.0" encoding="UTF-8"?><svg xmlns="http://www.w3.org/2000/svg" viewBox="0 0 321.18 321.18"><defs><style>.d{fill:#d9ff50;}.e{fill:#794d92;stroke-width:.78px;}.e,.f{stroke:#000;stroke-miterlimit:10;}.f{fill:#e4e4e4;stroke-width:.5px;}</style></defs><g id="a"/><g id="b"><g id="c"><g><path class="e" d="M182.12,319.33l138.67-158.36c.08-44.68-18.37-89.15-54.63-120.9C199.59-18.22,98.36-11.51,40.07,55.06-18.22,121.64-11.51,222.86,55.06,281.15c36.25,31.74,82.78,44.17,127.05,38.19Z"/><path class="f" d="M217.91,209.12c-26.26,29.99-37.72,68.48-35.49,108.07l137.93-157.52c-39.53,3.02-76.17,19.46-102.44,49.45Z"/><g><polygon class="d" points="204.87 35.97 218.51 41.1 206.84 49.82 201.71 63.46 192.99 51.78 179.35 46.66 191.03 37.94 196.15 24.3 204.87 35.97"/><polygon class="d" points="174.94 61.82 182.35 64.98 175.7 69.52 172.54 76.93 168 70.27 160.59 67.12 167.25 62.58 170.4 55.17 174.94 61.82"/></g><g><polygon class="d" points="139.21 272.07 125.57 266.94 137.25 258.22 142.37 244.58 151.09 256.26 164.73 261.38 153.06 270.1 147.93 283.74 139.21 272.07"/><polygon class="d" points="169.14 246.22 161.73 243.06 168.39 238.52 171.54 231.11 176.08 237.77 183.5 240.92 176.84 245.46 173.68 252.87 169.14 246.22"/></g></g><g><path class="d" d="M75.79,179.53l-11.12,1.39,.38,14.42-11.69,1.46-1.4-76.77,21.17-2.65,17.63,74.75-11.78,1.47-3.18-14.07Zm-2.25-10.01l-9.01-39.94-1.24,.15,1.1,40.93,9.14-1.14Z"/><path class="d" d="M125.03,173.29c1.43,11.45-4.68,16.06-14.32,17.26-9.55,1.19-16.7-1.76-18.13-13.21l-5.87-46.94c-1.44-11.53,4.77-16.07,14.32-17.27,9.64-1.2,16.69,1.68,18.13,13.21l1.47,11.78-12.11,1.51-1.46-11.7c-.49-3.95-2.45-4.88-4.76-4.59-2.22,.28-3.97,1.67-3.48,5.62l5.85,46.78c.48,3.87,2.53,4.87,4.76,4.59,2.31-.29,3.96-1.75,3.48-5.62l-1.49-11.94,12.11-1.51,1.51,12.02Z"/><path class="d" d="M163.56,168.47c1.43,11.45-4.68,16.06-14.32,17.26-9.55,1.19-16.7-1.76-18.13-13.21l-5.87-46.94c-1.44-11.53,4.77-16.07,14.32-17.27,9.63-1.2,16.69,1.68,18.13,13.21l1.47,11.78-12.11,1.51-1.46-11.7c-.49-3.95-2.45-4.88-4.76-4.59-2.23,.28-3.97,1.67-3.48,5.62l5.85,46.78c.48,3.87,2.53,4.87,4.75,4.59,2.3-.29,3.96-1.75,3.48-5.62l-1.49-11.94,12.11-1.51,1.51,12.02Z"/><path class="d" d="M175.51,114.95l2.82,22.56,11.36-1.42,1.26,10.05-11.36,1.42,2.84,22.73,11.61-1.45,1.28,10.21-23.72,2.97-9.47-75.77,23.72-2.97,1.28,10.21-11.61,1.45Z"/><path class="d" d="M226.2,113.72l3.54,28.33c1.35,10.79-.4,15.53-11.77,16.95l-6.42,.8,2.12,16.96-12.11,1.51-9.47-75.77,18.53-2.32c11.37-1.42,14.23,2.74,15.58,13.53Zm-11.86,1.48c-.49-3.95-1.71-4.97-5.25-4.53l-3.62,.45,4.82,38.54,3.62-.45c3.54-.44,4.47-1.73,3.97-5.68l-3.54-28.33Z"/><path class="d" d="M260.32,104.35l-9.64,1.2,8.2,65.55-12.19,1.52-8.2-65.55-9.63,1.2-1.28-10.21,31.46-3.93,1.28,10.21Z"/></g></g></g></svg>