<svg id="Group_1759" data-name="Group 1759" xmlns="http://www.w3.org/2000/svg" xmlns:xlink="http://www.w3.org/1999/xlink" width="389.188" height="370.52" viewBox="0 0 389.188 370.52">
  <defs>
    <clipPath id="clip-path">
      <rect id="Rectangle_2254" data-name="Rectangle 2254" width="371.594" height="370.52" fill="#d9ff50"/>
    </clipPath>
  </defs>
  <path id="Path_5083" data-name="Path 5083" d="M130.749,370.184c18.835-11.033,29.581-27.829,42.184-42.02,15.071,18.1,24.6,29.054,40.526,39.835,13.366-16.518,16.743-28.688,22.032-51.417,12.386,13.279,21.29,20.953,37.307,28.373,2.269-15.447.645-32.491-3.581-52.528A155.118,155.118,0,0,0,322.538,303.2q-9.825-25.639-19.649-51.278,30.289-3.268,60.382-8.094a242.533,242.533,0,0,0-36.325-45.7,265.167,265.167,0,0,0,44.314-28.813c-15.24-9.086-48-22.871-48-22.871s25.11-32.732,30.306-55.06c-14.2-1.417-60.7-.609-60.7-.609s11.051-43.6,7.722-61.635c-25.772,7.807-50.366,21.512-50.366,21.512-.686-7.383-7.961-46.892-10.8-47.418s-27.982,31.5-36.595,40c-2.444-10.041-30.42-41.59-34.778-41.177S146.24,42.267,140.126,52.124c-9.422-4.608-47.1-22.33-50.894-20.383s7.52,41.81,8.959,52.247C78.8,79.214,48.363,80.283,28.4,79.553a582.51,582.51,0,0,0,27.855,52.5Q29.667,144.327,2.052,154.2l43.78,33.873c-14.917,15.491-32.842,31.64-42.731,48.3,14.931,8.956,38.08,10.149,57.41,13.96-13.846,12.9-25.606,23.767-36.831,43.027,22.168,3.777,50.908-8.943,67.182-14.834-7.66,19.148-17.818,52.906-14.008,73.2C98.988,342.475,117.6,320.1,117.6,320.1s3.393,30.662,13.154,50.084" transform="translate(17.053 -0.858)" fill="#744e96" stroke="#231f20" stroke-width="1"/>
  <g id="Group_1758" data-name="Group 1758" clip-path="url(#clip-path)">
    <path id="Path_5073" data-name="Path 5073" d="M130.749,370.184c18.835-11.033,29.581-27.829,42.184-42.02,15.071,18.1,24.6,29.054,40.526,39.835,13.366-16.518,16.743-28.688,22.032-51.417,12.386,13.279,21.29,20.953,37.307,28.373,2.269-15.447.645-32.491-3.581-52.528A155.118,155.118,0,0,0,322.538,303.2q-9.825-25.639-19.649-51.278,30.289-3.268,60.382-8.094a242.533,242.533,0,0,0-36.325-45.7,265.167,265.167,0,0,0,44.314-28.813c-15.24-9.086-48-22.871-48-22.871s25.11-32.732,30.306-55.06c-14.2-1.417-60.7-.609-60.7-.609s11.051-43.6,7.722-61.635c-25.772,7.807-50.366,21.512-50.366,21.512-.686-7.383-7.961-46.892-10.8-47.418s-27.982,31.5-36.595,40c-2.444-10.041-30.42-41.59-34.778-41.177S146.24,42.267,140.126,52.124c-9.422-4.608-47.1-22.33-50.894-20.383s7.52,41.81,8.959,52.247C78.8,79.214,48.363,80.283,28.4,79.553a582.51,582.51,0,0,0,27.855,52.5Q29.667,144.327,2.052,154.2l43.78,33.873c-14.917,15.491-32.842,31.64-42.731,48.3,14.931,8.956,38.08,10.149,57.41,13.96-13.846,12.9-25.606,23.767-36.831,43.027,22.168,3.777,50.908-8.943,67.182-14.834-7.66,19.148-17.818,52.906-14.008,73.2C98.988,342.475,117.6,320.1,117.6,320.1s3.393,30.662,13.154,50.084" transform="translate(-0.86 -0.858)" fill="#d9ff50"/>
    <path id="Path_5074" data-name="Path 5074" d="M129.89,370.52a1.191,1.191,0,0,1-1.066-.657c-8.072-16.062-11.855-39.946-12.936-47.847-5.194,5.75-21.2,22.333-39.433,29.958a1.194,1.194,0,0,1-1.633-.881c-3.513-18.714,4.655-49.545,13.1-71.383-1.422.53-2.92,1.1-4.472,1.686-16.421,6.222-41.238,15.621-60.828,12.287a1.194,1.194,0,0,1-.83-1.777c10.842-18.6,22.232-29.485,35.327-41.694-4.369-.806-8.956-1.511-13.415-2.2-15.17-2.332-30.856-4.743-42.074-11.473a1.193,1.193,0,0,1-.413-1.632c7.83-13.192,20.6-26.011,32.941-38.409,3-3.012,6.091-6.117,9.033-9.153L.463,154.289a1.193,1.193,0,0,1,.328-2.067c17.865-6.387,35.655-13.637,52.9-21.556C43.8,114.031,34.638,96.724,26.457,79.2a1.193,1.193,0,0,1,1.125-1.7c4.86.178,10.346.249,16.154.324,17.612.228,37.484.484,52.136,3.738-.639-3.574-1.925-9.106-3.379-15.361-5.944-25.565-7.542-34.9-4.664-36.381.956-.49,2.947-1.511,24.353,7.7,10.427,4.486,21.424,9.673,26.625,12.195,2.167-3.708,5.5-10.437,9.013-17.528,11.643-23.506,16.3-31.9,19.26-32.182,3.78-.335,15.588,12.981,19.123,17.076,6.524,7.561,13.832,17.161,16.273,23.067,3.448-3.624,8.617-9.694,14.05-16.075C233.041,4.681,236.785.837,238.782,1.2c1.064.2,2.672.5,7.157,22.067,2,9.639,3.763,19.791,4.4,24.635,5.833-3.119,27.127-14.127,49.04-20.765a1.194,1.194,0,0,1,1.519.925c3.025,16.392-5.422,52.66-7.366,60.633,8.321-.13,46.478-.638,59.293.64a1.193,1.193,0,0,1,1.044,1.457c-4.689,20.145-24.934,48.049-29.6,54.289,6.456,2.756,33.4,14.4,46.734,22.346a1.193,1.193,0,0,1,.136,1.955,266.8,266.8,0,0,1-43.061,28.188,243.718,243.718,0,0,1,35.342,44.77,1.193,1.193,0,0,1-.827,1.8c-19.473,3.123-39.282,5.792-58.9,7.935l19.095,49.832a1.192,1.192,0,0,1-1.141,1.619,155.365,155.365,0,0,1-51.682-10.059c4.2,20.651,5.2,36.837,3.149,50.8a1.194,1.194,0,0,1-1.682.909c-15.628-7.241-24.7-14.9-36.15-27.015-4.957,21.138-8.54,33.389-21.761,49.726a1.194,1.194,0,0,1-1.6.237c-15.859-10.736-25.638-21.9-39.882-38.99-2.667,3.05-5.3,6.259-7.859,9.373-9.417,11.468-19.155,23.326-33.7,31.844a1.191,1.191,0,0,1-.6.163m-13.154-52.47a1.193,1.193,0,0,1,1.186,1.061c.033.3,3.347,29.475,12.469,48.528,13.572-8.255,22.913-19.63,31.955-30.64,2.864-3.487,5.825-7.094,8.836-10.484a1.262,1.262,0,0,1,.911-.4,1.2,1.2,0,0,1,.9.429c14.319,17.2,23.98,28.4,39.369,38.99,12.766-16.056,16.048-28.327,21.11-50.08a1.193,1.193,0,0,1,2.034-.543c11.858,12.713,20.345,20.2,35.473,27.417,1.771-13.8.558-29.914-3.787-50.512a1.193,1.193,0,0,1,1.6-1.356,153,153,0,0,0,51.13,10.635l-19.009-49.607a1.192,1.192,0,0,1,.986-1.613c19.49-2.1,39.18-4.727,58.553-7.8a241.333,241.333,0,0,0-35.2-43.954,1.193,1.193,0,0,1,.29-1.909,264.432,264.432,0,0,0,42.758-27.6c-15.552-8.93-46.039-21.79-46.355-21.922a1.194,1.194,0,0,1-.484-1.826c.245-.318,24.023-31.487,29.76-53.268-15.385-1.225-58.742-.49-59.192-.482a1.179,1.179,0,0,1-.956-.452,1.193,1.193,0,0,1-.221-1.034c.107-.423,10.429-41.482,7.919-59.8-24.877,7.74-48.584,20.876-48.825,21.01a1.193,1.193,0,0,1-1.768-.931c-.826-8.89-7.292-41.99-9.905-46.181-2.7,1.668-12.6,13.3-19.929,21.9-6.229,7.314-12.111,14.222-15.534,17.6a1.193,1.193,0,0,1-2-.567c-1.014-4.165-7.356-13.473-16.158-23.712-9.49-11.041-15.9-16.363-17.333-16.554-2.611,1.077-11.838,19.7-17.363,30.861-3.853,7.778-7.492,15.125-9.676,18.648a1.193,1.193,0,0,1-1.538.443C120.554,43.443,92.634,31.205,89,31.929c-.243.51-.644,2.705,1.068,11.974,1.205,6.522,3.087,14.618,4.748,21.76,1.729,7.435,3.222,13.857,3.7,17.3a1.193,1.193,0,0,1-1.467,1.321C82.52,80.713,61.9,80.447,43.7,80.212c-5.06-.066-9.877-.127-14.26-.26,8.124,17.249,17.193,34.273,26.972,50.63a1.193,1.193,0,0,1-.524,1.7c-17.024,7.86-34.592,15.074-52.25,21.455L45.7,186.275a1.192,1.192,0,0,1,.13,1.771c-3.228,3.352-6.663,6.8-9.985,10.138C23.931,210.151,11.619,222.516,3.891,235.1c10.754,6.037,25.7,8.336,40.175,10.56,5.274.81,10.727,1.648,15.818,2.652a1.193,1.193,0,0,1,.582,2.044l-.424.394c-13.139,12.242-24.536,22.86-35.294,40.841C43.439,294,66.91,285.11,82.6,279.164c2.5-.947,4.859-1.841,6.994-2.614a1.192,1.192,0,0,1,1.514,1.565c-8.432,21.077-17.045,51.977-14.192,71.059,21-9.368,38.719-30.477,38.9-30.694a1.192,1.192,0,0,1,.917-.431" transform="translate(0 0)"/>
    <path id="Path_5075" data-name="Path 5075" d="M226.609,382.2a78.928,78.928,0,0,0,135.479-55.879" transform="translate(-94.944 -136.722)" fill="#d9ff50" stroke="#231f20" stroke-width="2"/>
    <path id="Path_5076" data-name="Path 5076" d="M212.535,417.706a7.135,7.135,0,0,0,10.849-7.6" transform="translate(-89.047 -171.823)" fill="#d9ff50" stroke="#231f20" stroke-width="2"/>
    <path id="Path_5077" data-name="Path 5077" d="M461.99,316.416a7.135,7.135,0,0,1-13.054,2.256" transform="translate(-188.093 -132.571)" fill="#d9ff50" stroke="#231f20" stroke-width="2"/>
    <path id="Path_5078" data-name="Path 5078" d="M262.051,287.2c2.737,10.763,14.807,5.4,23.677,5.627-18.99-29.857-25.91-65.073-27.622-100.464-29.435,8.289-9.721,51.937-4.7,72.832,2.55,7.42,5.522,14.76,8.646,22" transform="translate(-101.512 -80.595)" fill="#231f20"/>
    <path id="Path_5079" data-name="Path 5079" d="M336.575,255.006c3.361,6.387,12.4,7.984,18.9,6.5,11.591-2.64,1-11.5-2.041-18.984a80.842,80.842,0,0,1-5.319-24.388c-.708-9.472,1.473-19.789,1.718-29.617.08-3.181,1.584-10.421-.455-13.077-8.122-10.573-22.895,20.051-23.727,25.178-2.988,18.4,2.368,38.129,10.92,54.385" transform="translate(-136.092 -72.583)" fill="#231f20"/>
  </g>
  <g id="Group_1760" data-name="Group 1760" transform="matrix(0.978, -0.208, 0.208, 0.978, 239.324, 76.076)">
    <path id="Path_5081" data-name="Path 5081" d="M15.593,0,9.915,9.519,0,14.471l9.519,5.677,4.952,9.915,5.674-9.516,9.918-4.955L20.545,9.918Z" transform="translate(0 0)" fill="#744e96"/>
    <path id="Path_5082" data-name="Path 5082" d="M4.556,4.376,0,6.652,4.376,9.259l2.273,4.556L9.259,9.441l4.556-2.273L9.438,4.556,7.165,0Z" transform="translate(19.642 36.921)" fill="#744e96"/>
  </g>
</svg>
