<svg xmlns="http://www.w3.org/2000/svg" width="408.643" height="289.513" viewBox="0 0 408.643 289.513">
  <g id="Group_1964" data-name="Group 1964" transform="translate(48.514 -30.601) rotate(11)">
    <g id="Group_1965" data-name="Group 1965" transform="translate(1.033 0)">
      <path id="Yazi" d="M-1908.088-1322.865c.02-1.8.045-3.592.063-5.36.051-4.888.064-8.718.064-11.46,0-4.874-.071-9.775-.094-14.629,0-.8-.012-1.615-.032-2.423q8.757.942,17.432,2.5v11.984c-4.062-.867-8.17-1.622-12.275-2.259v2.942q5.22.865,10.5,1.971v4.884q-5.284-1.176-10.5-2.1v3.384c4.256.781,8.513,1.687,12.718,2.711v12C-1896.145-1320.259-1902.084-1321.635-1908.088-1322.865Zm-217.859.825a17.145,17.145,0,0,1-5.932-1.06,5.7,5.7,0,0,1-2.943-2.394,7.361,7.361,0,0,1-.711-3.676c.01-.469,0-.977,0-1.479-.021-3.043-.1-5.107-.159-6.131,2.126-.06,3.189-.1,5.315-.19q-.159,3.658-.158,6.85a2.2,2.2,0,0,0,.427,1.4,2.74,2.74,0,0,0,1.44.83,10.356,10.356,0,0,0,2.72.3,9.938,9.938,0,0,0,2.721-.293,2.637,2.637,0,0,0,1.439-.879,2.459,2.459,0,0,0,.427-1.5q0-2.588-.159-7.191c2.139-.138,3.208-.214,5.348-.379q-.065,1.394-.111,3.345t-.047,3.74v1.455a8.65,8.65,0,0,1-.744,4.1,5.223,5.223,0,0,1-2.942,2.448,13.86,13.86,0,0,1-4.919.718Q-2125.424-1322.022-2125.947-1322.04Zm11.8-.088c0-.408.033-1.061.063-1.926.035-1,.042-2.02.063-3.027s.032-2,.032-2.982q0-3.062-.158-7.923c4.417-.359,6.625-.565,11.042-1.019a12.605,12.605,0,0,1,6.627.723,4.266,4.266,0,0,1,2.484,4.211,4.785,4.785,0,0,1-.348,1.815,4.285,4.285,0,0,1-1.075,1.533,6.184,6.184,0,0,1-1.836,1.141v.075a4.706,4.706,0,0,1,2.532,1.319,3.441,3.441,0,0,1,.79,2.345q0,2.266.031,3.449c-2.138.065-3.208.094-5.346.141q.031-.516.031-1.913a3.058,3.058,0,0,0-.775-2.309,3.224,3.224,0,0,0-1.9-.866,19.008,19.008,0,0,0-2.863-.061c-1.671.068-2.506.1-4.176.15,0,.544.022.974.031,1.258.021.584.011,1.236.031,1.889s.042,1.314.064,1.981c-.976,0-1.73.007-2.464.007C-2112.137-1322.117-2112.983-1322.121-2114.146-1322.128Zm12.181-11.339c-2.8.211-4.195.309-6.992.483v2.261c2.67-.135,4-.211,6.675-.379a4.414,4.414,0,0,0,1.978-.481,1.125,1.125,0,0,0,.649-.937.854.854,0,0,0-.585-.75,2.836,2.836,0,0,0-1.22-.217Q-2101.7-1333.487-2101.965-1333.466Zm10.25,8.176c.05-2.573.064-4.595.064-6.038,0-1.6-.064-4.188-.1-7.679,0-.42-.011-.848-.031-1.269q8.728-1.06,17.432-2.309v6.547q-6.131.7-12.275,1.3v1.566q5.219-.476,10.5-1.025v2.658q-5.284.482-10.5.9v1.8q6.361-.444,12.718-.992v6.561q-8.933.495-17.875.809C-2091.757-1323.413-2091.733-1324.359-2091.715-1325.291Zm-56.885,1.488q.158-3.619.159-6.342,0-1.378-.032-2.022c-2.607-.1-3.91-.167-6.517-.324v-4.284c6.048.134,12.079.139,18.128.027v4.836c-2.606-.013-3.91-.031-6.517-.094q-.031.664-.031,2.09,0,3.362.158,6.587C-2145.391-1323.5-2146.461-1323.6-2148.6-1323.8Zm231.02-.032a12.419,12.419,0,0,1-6.359-2.852,13.657,13.657,0,0,1-3.86-6.091,29.406,29.406,0,0,1-1.3-9.332,27.547,27.547,0,0,1,1.3-9.13,10.51,10.51,0,0,1,3.875-5.4,9.891,9.891,0,0,1,6.406-1.5,14.6,14.6,0,0,1,3.908.8,11.8,11.8,0,0,1,3.116,1.61v12.118l-.253-.13a31.886,31.886,0,0,0-3.527-1.393,16.751,16.751,0,0,0-3.307-.647,9.332,9.332,0,0,0-3.243.155,3.962,3.962,0,0,0-2.135,1.3,4.146,4.146,0,0,0-.791,2.717,4.731,4.731,0,0,0,.775,2.75,5.284,5.284,0,0,0,2.135,1.772,10.5,10.5,0,0,0,3.195.881,16.232,16.232,0,0,0,3.1.129q1.393-.093,3.227-.349.57-.107,1.076-.174v11.982a9.22,9.22,0,0,1-3.26.926,12.942,12.942,0,0,1-1.47.082A16.445,16.445,0,0,1-1917.58-1323.835Zm-140.536-11.466c-2.126-3.639-3.189-5.416-5.314-8.887,2.366-.357,3.549-.537,5.916-.9,1.24,2.211,1.86,3.332,3.1,5.6l1.36-.178c1.24-2.609,1.86-3.929,3.1-6.6,2.556-.4,3.834-.6,6.392-1q-2.672,5.576-5.443,11.108,3.02,5.408,5.916,10.888l-5.948.415c-1.417-2.833-2.126-4.229-3.544-6.978l-1.487.146c-1.441,3.012-2.163,4.5-3.606,7.42-2.556.17-3.834.253-6.392.414Q-2061.024-1329.542-2058.116-1335.3Zm16.484,5.329c.031-1.072.068-2.163.078-3.243s.016-2.159.016-3.237q0-2-.063-6.3-.034-2.466-.064-4.811c4.062-.64,6.094-.96,10.156-1.592,3.227-.5,5.632-.15,7.213,1.09s2.373,3.189,2.373,5.809a9.152,9.152,0,0,1-1.281,5.12,7.36,7.36,0,0,1-3.417,2.808,17.653,17.653,0,0,1-5.015,1.145c-1.937.185-2.9.277-4.84.464.02.8.02,1.6.031,2.391.021,1.508.074,3.057.1,4.589l-5.347.373C-2041.694-1326.384-2041.692-1327.937-2041.632-1329.972Zm11.959-11.7c-2.746.346-4.119.521-6.865.871v3.3c2.581-.3,3.872-.444,6.454-.737a3.406,3.406,0,0,0,1.9-.7,1.78,1.78,0,0,0,.633-1.394,1.356,1.356,0,0,0-.254-.838,1.279,1.279,0,0,0-.743-.46,2.685,2.685,0,0,0-.647-.073A3.809,3.809,0,0,0-2029.673-1341.675Zm-136.264,15.94a23.161,23.161,0,0,1-5.933-1.61,6.833,6.833,0,0,1-2.943-2.219,4.866,4.866,0,0,1-.711-2.86c.01-.349,0-.732,0-1.109-.021-2.284-.095-3.844-.159-4.619,2.126.224,3.189.324,5.315.5q-.159,2.754-.158,5.17a1.594,1.594,0,0,0,.427,1.12,3.5,3.5,0,0,0,1.439.814,13.9,13.9,0,0,0,2.721.566,12.378,12.378,0,0,0,2.72.1,2.486,2.486,0,0,0,1.439-.509,1.436,1.436,0,0,0,.427-1.1q0-1.994-.158-5.556c2.138.112,3.208.157,5.347.229q-.064,1.078-.111,2.589t-.047,2.9v1.13a5.05,5.05,0,0,1-.744,3.1,4.36,4.36,0,0,1-2.942,1.557,11.121,11.121,0,0,1-1.969.155A25.9,25.9,0,0,1-2165.937-1325.735Zm226.147-1.486q-2.507-9.885-5.094-19.749c-.493-.008-.74-.011-1.234-.016q-.032,4.364,0,7.572c.021,2.138.045,4.614.1,7.4.018.958.031,1.676.031,2.141s.011,1.195.032,2.186c-2.1-.14-3.151-.2-5.253-.311.026-2.923.039-4.384.064-7.309.02-2.608.057-5.232.064-7.828.012-4.959-.111-9.976-.19-14.963,3.594-.128,5.391-.171,8.985-.207q2.519,9.87,4.968,19.759l1.2.075c.013-1.094.02-1.642.032-2.736q.032-3.5,0-7.34t-.126-9.765c2.088.016,3.132.034,5.22.086q-.032,2.914-.063,5.87-.034,3.457-.032,5.256c0,1.2-.031,2.926-.031,5.119,0,2.165.042,4.372.064,6.559.038,3.627.057,5.441.094,9.07C-1934.493-1326.75-1936.258-1326.922-1939.789-1327.221Zm-80.835-3.384c.05-3.474.064-6.2.064-8.144,0-2.152-.064-5.637-.1-10.357,0-.568-.01-1.143-.031-1.712q8.708-1.313,17.433-2.5v8.651q-6.142.645-12.276,1.372v2.1q5.22-.573,10.5-1.1v3.52q-5.284.463-10.5.977v2.412q6.355-.57,12.719-1.059v8.665q-8.943.423-17.876,1C-2020.667-1328.073-2020.642-1329.348-2020.624-1330.605Zm19.679-.4c.035-1.629.042-3.282.063-4.915s.031-3.247.031-4.842c0-4.287-.082-8.574-.158-12.86,4.417-.585,6.625-.863,11.042-1.381a8.537,8.537,0,0,1,6.628,1.52c1.655,1.344,2.484,3.611,2.484,6.755a10.992,10.992,0,0,1-.349,2.813,7.119,7.119,0,0,1-1.075,2.339,6.286,6.286,0,0,1-1.835,1.706v.116a4.875,4.875,0,0,1,2.531,2.176,7.705,7.705,0,0,1,.791,3.7q0,3.537.031,5.385c-2.139.031-3.208.051-5.347.1q.031-.812.031-3.015a6.79,6.79,0,0,0-.775-3.655,2.979,2.979,0,0,0-1.9-1.4,11.456,11.456,0,0,0-2.864-.123c-1.67.1-2.505.152-4.176.262,0,.874.021,1.558.032,2.02.021.951.01,1.984.031,3.031s.042,2.109.064,3.18c-2.138.082-3.208.126-5.347.222C-2001.009-1328.534-2000.976-1329.589-2000.945-1331Zm12.117-15.168c-2.8.241-4.2.369-6.992.64v3.631c2.67-.225,4.006-.332,6.675-.531a3.172,3.172,0,0,0,1.978-.7,1.921,1.921,0,0,0,.648-1.456,1.483,1.483,0,0,0-.585-1.207,2.088,2.088,0,0,0-1.347-.391Q-1988.631-1346.188-1988.828-1346.171Zm17.875,17.63c.021-1.513.046-3.016.064-4.5.051-4.1.064-7.315.064-9.612,0-4.078-.073-8.18-.1-12.24,0-.672-.011-1.351-.032-2.025q8.7-.72,17.433-1.094v10.123q-6.136.065-12.276.334v2.471q5.221-.179,10.5-.229v4.122q-5.284-.016-10.5.1v2.841q6.355-.1,12.719.021v10.136Q-1962.01-1328.51-1970.954-1328.541Zm-7.529-13.839c0-4.606-.083-9.23-.159-13.844,2.126-.207,3.19-.307,5.315-.493-.079,4.7-.158,9.4-.158,14.091s.08,9.385.158,14.078c-2.126,0-3.189.006-5.315.028C-1978.567-1333.139-1978.483-1337.768-1978.483-1342.38Zm-215.739,10.432c.021-.467.046-.933.064-1.389.05-1.263.063-2.269.063-2.987,0-.793-.063-2.107-.095-3.844,0-.207-.011-.424-.032-.639q8.558,1.565,17.211,2.512v3.6c-4.029-.555-8.061-1.222-12.054-1.993v.812q5.284,1.048,10.282,1.816v1.56q-5-.844-10.282-1.953c0,.471.015,1.208.064,2.2.036.732.063,1.3.063,1.68C-2191.051-1331.1-2192.108-1331.377-2194.222-1331.948Zm-22.087-16.037a8.355,8.355,0,0,1-5.933-2.12,11.133,11.133,0,0,1-2.943-5.814,44.279,44.279,0,0,1-.712-9.36c.011-1.215,0-2.489,0-3.779-.016-5.216-.047-10.466-.158-15.7,2.126.3,3.19.441,5.315.714-.084,5.564-.149,11.135-.159,16.691a11.517,11.517,0,0,0,.428,3.452,3.96,3.96,0,0,0,1.439,2.075,4.984,4.984,0,0,0,2.721.827,4.712,4.712,0,0,0,2.72-.53,3.374,3.374,0,0,0,1.439-1.895,10.739,10.739,0,0,0,.427-3.334c0-5.41-.083-10.824-.158-16.236,2.138.233,3.208.344,5.347.553q-.064,2.986-.111,7.18t-.048,8.056v3.137a37.878,37.878,0,0,1-.743,8.82,10.039,10.039,0,0,1-2.942,5.381,8.3,8.3,0,0,1-5.731,1.882Zm17.5-17.078q0-3.532-.032-5.184c-2.607-.123-3.91-.193-6.517-.35v-11.729q9.059.823,18.129,1.422v11.085c-2.607-.069-3.911-.112-6.517-.211-.021,1.082-.035,2.786-.032,5.1q.013,8.012.159,16.043c-2.139.061-3.208.087-5.348.127C-2198.879-1354.193-2198.814-1359.629-2198.813-1365.063Zm16.563,14.646a8.659,8.659,0,0,1-2.943-4.931,34.246,34.246,0,0,1-.712-8.239c.01-1.075,0-2.2,0-3.347-.013-4.618-.047-9.265-.158-13.9,2.126.128,3.189.188,5.315.3-.084,4.923-.16,9.847-.158,14.768a8.915,8.915,0,0,0,.427,3.024,3.224,3.224,0,0,0,1.439,1.735,5.221,5.221,0,0,0,2.721.546,5.472,5.472,0,0,0,2.72-.649,3.347,3.347,0,0,0,1.44-1.764,8.635,8.635,0,0,0,.426-2.965c0-4.763-.074-9.531-.158-14.3,2.138.083,3.208.12,5.347.188q-.064,2.629-.111,6.319t-.047,7.087v2.758a30.06,30.06,0,0,1-.743,7.8,9.409,9.409,0,0,1-2.943,4.932,9.764,9.764,0,0,1-5.932,2.073q-.452.027-.88.027A7.979,7.979,0,0,1-2182.251-1350.417Zm-62.343.28c.021-2.006.046-4,.064-5.964.037-4.237.063-8.493.063-12.737,0-5.415-.073-10.857-.1-16.254,0-.892-.011-1.794-.031-2.7q8.573,1.6,17.211,2.842v12.46c-4.822-.522-7.232-.817-12.054-1.484v3.235q5.283.685,10.282,1.2v5.513q-5-.439-10.282-1.037c0,1.875.013,4.784.063,8.7.037,2.9.064,5.113.064,6.632C-2241.424-1349.874-2242.481-1349.957-2244.594-1350.137Zm80.139-3.849c.035-1.867.042-3.757.063-5.624s.032-3.713.031-5.538c0-4.912-.082-9.825-.157-14.738,4.416.128,6.625.175,11.042.245a9.63,9.63,0,0,1,6.628,2.376c1.655,1.53,2.483,3.839,2.483,6.974a10.83,10.83,0,0,1-.348,2.794,7.1,7.1,0,0,1-1.075,2.325,6.351,6.351,0,0,1-1.835,1.706v.119a5.009,5.009,0,0,1,2.531,2.189,7.6,7.6,0,0,1,.791,3.673q0,3.524.031,5.363c-2.139.2-3.208.3-5.347.5q.031-.843.031-3.119a7.144,7.144,0,0,0-.774-3.764,3.02,3.02,0,0,0-1.9-1.454,11.326,11.326,0,0,0-2.864-.148c-1.67.086-2.505.129-4.176.208,0,.965.021,1.72.032,2.232.021,1.052.01,2.19.031,3.347s.042,2.327.063,3.509c-2.138.17-3.208.252-5.346.409C-2164.518-1351.16-2164.485-1352.367-2164.455-1353.986Zm12.117-16.2c-2.8.054-4.2.077-6.992.109v4.012c2.67-.069,4.006-.108,6.676-.2a2.969,2.969,0,0,0,1.977-.65,1.942,1.942,0,0,0,.648-1.483,1.67,1.67,0,0,0-.584-1.286,2.362,2.362,0,0,0-1.634-.507Zm10.25,13.54c.05-3.932.063-7.009.063-9.211,0-2.433-.063-6.373-.095-11.73,0-.643-.011-1.295-.032-1.943q8.718.041,17.433-.033c0,3.443,0,5.165,0,8.608q-6.137.263-12.276.47v2.287q5.219-.223,10.5-.489v3.548q-5.284.339-10.5.638v2.629q6.361-.423,12.719-.908c0,3.437,0,5.155,0,8.592q-8.932.984-17.876,1.86C-2142.13-1353.776-2142.105-1355.218-2142.087-1356.641Zm33.6-12q-2.713-5.486-5.315-11.03c2.367-.03,3.55-.047,5.917-.083,1.24,2.718,1.86,4.059,3.1,6.7l1.361-.061c1.24-2.74,1.86-4.092,3.1-6.76,2.556-.042,3.834-.064,6.391-.107q-2.778,5.448-5.442,10.957,2.886,5.67,5.916,11.271l-5.948.706c-1.416-2.938-2.126-4.432-3.543-7.47l-1.487.123c-1.442,3.3-2.164,4.969-3.606,8.364-2.556.3-3.834.446-6.391.739Q-2111.5-1361.984-2108.488-1368.642ZM-2092-1362.5c.031-1.068.068-2.152.078-3.225s.016-2.146.016-3.218q0-1.988-.064-6.274-.033-2.458-.063-4.8c4.063-.068,6.094-.1,10.156-.167,3.227-.052,5.632.558,7.213,1.779a6.066,6.066,0,0,1,2.373,5.107,6.687,6.687,0,0,1-1.281,4.277,7.429,7.429,0,0,1-3.417,2.387,20.1,20.1,0,0,1-5.014,1.018c-1.936.167-2.9.251-4.841.42.021.758.021,1.529.032,2.277.021,1.433.073,2.907.094,4.362l-5.347.635C-2092.067-1358.927-2092.064-1360.475-2092-1362.5Zm11.959-10.732c-2.746.136-4.12.2-6.865.345v3.142c2.582-.169,3.872-.254,6.454-.42a3.594,3.594,0,0,0,1.9-.551,1.437,1.437,0,0,0,.633-1.205,1.157,1.157,0,0,0-.253-.753,1.42,1.42,0,0,0-.744-.45,3.31,3.31,0,0,0-.9-.113Q-2079.929-1373.238-2080.045-1373.232Zm9.048,9.677c.05-2.882.064-5.142.064-6.756,0-1.784-.064-4.681-.1-8.6,0-.471-.011-.949-.032-1.424q8.716-.112,17.433-.149v6.154q-6.138.231-12.276.512v1.665q5.22-.28,10.5-.536v2.543q-5.284.329-10.5.685v1.914q6.357-.5,12.719-.948v6.137q-8.943.942-17.876,1.974C-2071.04-1361.451-2071.015-1362.511-2071-1363.555Zm19.679-1.178c.034-1.132.042-2.288.063-3.425s.032-2.26.032-3.37q0-3.457-.159-8.964c4.417-.009,6.625,0,11.042.027a14.1,14.1,0,0,1,6.628,1.407,4.345,4.345,0,0,1,2.484,4.057,3.849,3.849,0,0,1-.348,1.621,3.827,3.827,0,0,1-1.076,1.36,6.491,6.491,0,0,1-1.835,1.022v.069a5.037,5.037,0,0,1,2.531,1.231,2.927,2.927,0,0,1,.791,2.115q0,2.041.031,3.1c-2.138.183-3.208.278-5.347.472q.031-.5.031-1.832a2.788,2.788,0,0,0-.775-2.189,3.24,3.24,0,0,0-1.9-.8,18.449,18.449,0,0,0-2.863,0c-1.67.107-2.505.163-4.176.275,0,.581.022,1.038.031,1.341.022.625.011,1.317.032,2.012s.042,1.4.063,2.107c-2.139.214-3.208.322-5.347.544C-2051.382-1363.009-2051.348-1363.75-2051.318-1364.733Zm12.118-10.139c-2.8.071-4.2.112-6.993.2v2.413c2.67-.123,4.006-.181,6.676-.288a4.52,4.52,0,0,0,1.977-.42,1.044,1.044,0,0,0,.649-.881c0-.3-.2-.547-.585-.749a3.39,3.39,0,0,0-1.529-.278Zm10.345,2.38q0-2.257-.159-7.826c2.126.04,3.19.063,5.315.116q-.158,5.18-.158,7.564,0,2.314.158,7.557c-2.126.163-3.189.248-5.315.426Q-2028.856-1370.308-2028.855-1372.492Zm7.592,4.869c.051-2.146.064-3.833.064-5.036,0-1.331-.064-3.5-.095-6.415,0-.35-.011-.709-.031-1.064q8.72.244,17.432.7c0,1.775,0,2.662,0,4.436q-6.136-.117-12.276-.11v1.231q5.22-.045,10.5-.012v1.841q-5.285.039-10.5.16v1.415q6.356-.216,12.719-.3c0,1.768,0,2.652,0,4.421q-8.944.436-17.875,1.1C-2021.305-1366.054-2021.281-1366.845-2021.263-1367.623Zm62.8.936c.021-.451.046-.9.064-1.339.049-1.214.064-2.174.064-2.859,0-.756-.064-2-.1-3.66,0-.2-.01-.4-.031-.61q8.746,1.243,17.433,2.855v2.265q-6.119-.938-12.276-1.665v.681q5.22.581,10.5,1.309v.952q-5.285-.656-10.5-1.161v.783q6.366.543,12.719,1.314v2.249Q-1949.509-1366.335-1958.461-1366.687Zm-43.059-2.89c.021-1.115.053-2.24.064-3.344.01-.957-.064-3.094-.19-6.4,3.594.2,5.391.315,8.986.573,1.987,3.161,2.98,4.682,4.967,7.605l1.2.02.031-.986q.032-1.261,0-2.644t-.127-3.529c2.088.172,3.132.263,5.22.456-.021.657-.044,1.321-.063,1.987-.023.78-.031,1.376-.031,1.782s-.032,1.006-.032,1.737.042,1.485.064,2.226c.038,1.229.057,1.844.1,3.072-3.531.034-5.3.066-8.828.158-2.038-2.9-3.056-4.413-5.093-7.56l-1.234-.035q-.033,1.763,0,3.06c.021.864.044,1.869.1,2.987.017.385.031.675.031.863s.01.482.031.88c-2.1.078-3.151.121-5.252.218C-2001.558-1367.7-2001.545-1368.328-2001.52-1369.578Zm33.568,2.816a30.249,30.249,0,0,1-6.359-.651,8.314,8.314,0,0,1-3.859-1.844,4.08,4.08,0,0,1-1.3-3.069,3.708,3.708,0,0,1,1.3-2.948,7.246,7.246,0,0,1,3.876-1.436,26.976,26.976,0,0,1,6.407.156q2.056.252,3.907.63t3.116.758v3.136l-.253-.05q-2.087-.375-3.527-.583c-.961-.139-2.062-.264-3.307-.368a29.539,29.539,0,0,0-3.243-.122,7.7,7.7,0,0,0-2.135.3c-.528.174-.791.446-.791.811,0,.335.258.625.775.864a8.293,8.293,0,0,0,2.135.57c.906.142,1.972.242,3.2.308q1.709.094,3.1.1c.928.005,2,0,3.227,0q.57-.008,1.075-.008v3.091q-1.36.194-3.259.29-1.411.072-2.981.072Q-1967.393-1366.753-1967.953-1366.762Zm59.864-23.327c.02-1.8.045-3.592.063-5.36.051-4.887.064-8.718.064-11.46,0-4.875-.072-9.776-.1-14.629,0-.8-.011-1.614-.031-2.423q8.757.942,17.432,2.5v11.984c-4.062-.867-8.17-1.621-12.275-2.259v2.942q5.219.865,10.5,1.972v4.883q-5.284-1.175-10.5-2.1v3.384c4.256.781,8.513,1.687,12.718,2.712v12C-1896.145-1387.483-1902.083-1388.859-1908.088-1390.089Zm-217.858.825a17.145,17.145,0,0,1-5.933-1.061,5.7,5.7,0,0,1-2.942-2.393,7.366,7.366,0,0,1-.713-3.677c.011-.469,0-.976,0-1.479-.02-3.043-.094-5.107-.158-6.131,2.126-.061,3.19-.1,5.315-.19q-.158,3.658-.158,6.849a2.192,2.192,0,0,0,.427,1.4,2.731,2.731,0,0,0,1.439.83,10.333,10.333,0,0,0,2.721.3,9.9,9.9,0,0,0,2.72-.293,2.628,2.628,0,0,0,1.439-.879,2.458,2.458,0,0,0,.427-1.5q0-2.589-.159-7.19c2.139-.139,3.208-.214,5.348-.379q-.064,1.394-.111,3.344t-.047,3.74v1.455a8.649,8.649,0,0,1-.744,4.1,5.22,5.22,0,0,1-2.942,2.448,13.859,13.859,0,0,1-4.915.718Q-2125.422-1389.245-2125.946-1389.264Zm11.8-.088c0-.408.033-1.061.064-1.926.034-1,.042-2.021.063-3.026s.031-2,.031-2.983q0-3.062-.158-7.923c4.417-.358,6.625-.565,11.042-1.019a12.625,12.625,0,0,1,6.628.723,4.268,4.268,0,0,1,2.484,4.212,4.763,4.763,0,0,1-.348,1.814,4.29,4.29,0,0,1-1.076,1.534,6.159,6.159,0,0,1-1.835,1.141v.074a4.71,4.71,0,0,1,2.532,1.319,3.449,3.449,0,0,1,.79,2.346q0,2.265.032,3.449c-2.139.065-3.208.094-5.346.141q.031-.515.031-1.913a3.055,3.055,0,0,0-.775-2.308,3.217,3.217,0,0,0-1.9-.866,18.929,18.929,0,0,0-2.863-.06c-1.67.067-2.505.1-4.176.15,0,.544.021.973.032,1.258.021.584.01,1.235.031,1.888s.042,1.314.064,1.981c-.962,0-1.708.007-2.432.007C-2112.116-1389.341-2112.969-1389.344-2114.146-1389.352Zm12.181-11.338c-2.8.211-4.195.309-6.992.483v2.261c2.67-.135,4.006-.211,6.675-.379a4.412,4.412,0,0,0,1.978-.482,1.124,1.124,0,0,0,.648-.937.855.855,0,0,0-.585-.75,2.829,2.829,0,0,0-1.218-.216Q-2101.7-1400.71-2101.965-1400.689Zm10.25,8.175c.049-2.573.064-4.595.064-6.038,0-1.6-.064-4.188-.1-7.679,0-.42-.011-.847-.031-1.269q8.728-1.061,17.433-2.309v6.547q-6.132.7-12.275,1.3v1.566q5.22-.476,10.5-1.025v2.658q-5.284.482-10.5.9v1.8q6.362-.444,12.719-.992v6.56q-8.933.495-17.876.809C-2091.758-1390.637-2091.733-1391.583-2091.715-1392.515Zm-56.885,1.488q.158-3.619.159-6.341,0-1.378-.032-2.023c-2.607-.1-3.91-.167-6.517-.324V-1404c6.048.133,12.079.14,18.128.027v4.836c-2.606-.013-3.91-.031-6.517-.094q-.031.666-.031,2.09,0,3.363.158,6.587C-2145.391-1390.725-2146.461-1390.819-2148.6-1391.027Zm231.02-.032a12.408,12.408,0,0,1-6.359-2.853,13.658,13.658,0,0,1-3.86-6.091,29.4,29.4,0,0,1-1.3-9.331,27.527,27.527,0,0,1,1.3-9.131,10.509,10.509,0,0,1,3.875-5.4,9.9,9.9,0,0,1,6.406-1.5,14.638,14.638,0,0,1,3.908.8,11.791,11.791,0,0,1,3.116,1.609v12.118l-.253-.13a32.032,32.032,0,0,0-3.528-1.393,16.8,16.8,0,0,0-3.306-.646,9.354,9.354,0,0,0-3.244.154,3.957,3.957,0,0,0-2.134,1.3,4.143,4.143,0,0,0-.791,2.717,4.724,4.724,0,0,0,.775,2.75,5.278,5.278,0,0,0,2.135,1.772,10.5,10.5,0,0,0,3.195.881,16.123,16.123,0,0,0,3.1.129q1.392-.093,3.227-.349.569-.107,1.076-.174v11.982a9.224,9.224,0,0,1-3.259.927,12.984,12.984,0,0,1-1.468.081A16.482,16.482,0,0,1-1917.58-1391.059Zm-140.535-11.465c-2.126-3.639-3.189-5.417-5.315-8.888,2.366-.356,3.55-.537,5.916-.9,1.24,2.211,1.861,3.332,3.1,5.6l1.36-.177c1.24-2.609,1.86-3.93,3.1-6.6,2.557-.4,3.835-.6,6.392-1q-2.672,5.577-5.442,11.108,3.021,5.408,5.917,10.888l-5.949.415c-1.416-2.833-2.126-4.228-3.543-6.978l-1.487.145c-1.442,3.012-2.164,4.5-3.607,7.42-2.556.17-3.834.253-6.391.414Q-2061.025-1396.766-2058.115-1402.524Zm16.483,5.328c.032-1.072.068-2.163.079-3.243s.016-2.158.016-3.237q0-2-.064-6.3-.034-2.468-.063-4.812c4.062-.639,6.094-.959,10.155-1.592,3.228-.5,5.632-.15,7.214,1.09s2.372,3.19,2.372,5.809a9.149,9.149,0,0,1-1.281,5.121,7.361,7.361,0,0,1-3.417,2.808,17.592,17.592,0,0,1-5.015,1.145c-1.936.185-2.9.277-4.84.464.02.8.02,1.605.031,2.392.021,1.508.074,3.057.1,4.588l-5.347.373C-2041.694-1393.607-2041.692-1395.16-2041.632-1397.2Zm11.96-11.7c-2.746.346-4.12.52-6.866.871v3.3c2.581-.3,3.873-.445,6.454-.737a3.413,3.413,0,0,0,1.9-.7,1.781,1.781,0,0,0,.633-1.4,1.356,1.356,0,0,0-.254-.838,1.279,1.279,0,0,0-.743-.459,2.684,2.684,0,0,0-.646-.074A3.841,3.841,0,0,0-2029.672-1408.9Zm-136.265,15.939a23.166,23.166,0,0,1-5.932-1.609,6.825,6.825,0,0,1-2.943-2.219,4.868,4.868,0,0,1-.712-2.86c.01-.35,0-.733,0-1.109-.021-2.284-.094-3.844-.158-4.619,2.126.223,3.189.324,5.315.5q-.159,2.754-.159,5.171a1.6,1.6,0,0,0,.427,1.119,3.5,3.5,0,0,0,1.44.814,13.886,13.886,0,0,0,2.72.567,12.379,12.379,0,0,0,2.721.1,2.5,2.5,0,0,0,1.439-.509,1.437,1.437,0,0,0,.427-1.1q0-1.994-.159-5.556c2.139.112,3.208.157,5.347.23q-.065,1.077-.111,2.588t-.047,2.9v1.13a5.048,5.048,0,0,1-.743,3.1,4.358,4.358,0,0,1-2.942,1.557,11.116,11.116,0,0,1-1.967.155A25.976,25.976,0,0,1-2165.937-1392.959Zm226.147-1.486q-2.507-9.886-5.094-19.749l-1.234-.016q-.032,4.363,0,7.572c.021,2.138.044,4.614.1,7.4.017.958.031,1.675.031,2.14s.011,1.195.032,2.186c-2.1-.14-3.152-.2-5.253-.311.025-2.922.038-4.384.064-7.308.02-2.608.057-5.232.064-7.828.012-4.96-.111-9.976-.191-14.964,3.594-.128,5.391-.171,8.986-.207q2.519,9.87,4.967,19.76c.481.028.721.044,1.2.074.013-1.094.019-1.642.032-2.736q.031-3.5,0-7.34t-.126-9.765c2.087.017,3.132.034,5.22.086q-.032,2.913-.064,5.871-.034,3.456-.031,5.256c0,1.2-.031,2.926-.031,5.118,0,2.165.042,4.373.063,6.56.038,3.626.057,5.44.1,9.069C-1934.494-1393.974-1936.259-1394.146-1939.789-1394.445Zm-80.835-3.384c.05-3.474.064-6.2.064-8.143,0-2.152-.064-5.637-.1-10.358,0-.568-.01-1.142-.031-1.712q8.708-1.313,17.433-2.5v8.651q-6.142.644-12.276,1.372v2.1q5.22-.573,10.5-1.1v3.52q-5.285.463-10.5.976v2.413q6.355-.571,12.719-1.06v8.665q-8.943.423-17.876,1C-2020.667-1395.3-2020.642-1396.571-2020.624-1397.829Zm19.678-.4c.035-1.629.042-3.282.064-4.915s.031-3.247.031-4.842c0-4.287-.082-8.574-.158-12.86,4.417-.585,6.625-.864,11.041-1.381a8.541,8.541,0,0,1,6.628,1.519c1.656,1.345,2.484,3.612,2.484,6.756a10.987,10.987,0,0,1-.348,2.812,7.13,7.13,0,0,1-1.075,2.339,6.283,6.283,0,0,1-1.835,1.706v.116a4.877,4.877,0,0,1,2.531,2.176,7.7,7.7,0,0,1,.79,3.7q0,3.536.032,5.385c-2.139.031-3.208.051-5.348.1q.032-.812.032-3.015a6.781,6.781,0,0,0-.775-3.655,2.977,2.977,0,0,0-1.9-1.4,11.412,11.412,0,0,0-2.864-.123c-1.67.1-2.506.152-4.176.262,0,.874.021,1.558.031,2.019.021.951.01,1.984.031,3.032s.042,2.109.064,3.181c-2.139.081-3.208.126-5.347.222C-2001.009-1395.757-2000.976-1396.812-2000.946-1398.227Zm12.118-15.167c-2.8.24-4.2.369-6.992.639v3.631c2.67-.225,4.006-.332,6.675-.531a3.172,3.172,0,0,0,1.978-.7,1.921,1.921,0,0,0,.648-1.456,1.483,1.483,0,0,0-.585-1.206,2.09,2.09,0,0,0-1.347-.391Q-1988.631-1413.411-1988.828-1413.394Zm17.875,17.629c.02-1.513.045-3.016.063-4.5.051-4.1.064-7.314.064-9.612,0-4.078-.073-8.179-.1-12.24,0-.672-.011-1.35-.031-2.024q8.7-.721,17.432-1.094v10.124q-6.136.064-12.275.333v2.471q5.22-.178,10.5-.229v4.122q-5.285-.016-10.5.1v2.841q6.354-.1,12.718.021v10.137Q-1962.008-1395.733-1970.953-1395.765Zm-7.53-13.839c0-4.606-.083-9.229-.159-13.843,2.126-.209,3.19-.307,5.315-.493-.079,4.7-.158,9.4-.158,14.092s.08,9.385.158,14.077c-2.126,0-3.189.006-5.315.028C-1978.567-1400.363-1978.483-1404.992-1978.483-1409.6Zm-215.739,10.432c.021-.467.046-.932.064-1.389.05-1.263.063-2.268.063-2.986,0-.794-.063-2.108-.095-3.845,0-.207-.011-.424-.032-.64q8.558,1.566,17.211,2.513v3.6c-4.029-.555-8.061-1.221-12.054-1.993v.812q5.284,1.048,10.282,1.816v1.56q-5-.845-10.282-1.954c0,.471.014,1.209.064,2.2.037.732.063,1.3.063,1.679C-2191.051-1398.326-2192.108-1398.6-2194.222-1399.172Zm4.691-15.4a8.358,8.358,0,0,1-5.933-2.12,11.134,11.134,0,0,1-2.942-5.815,44.188,44.188,0,0,1-.712-9.359c.01-1.216,0-2.49,0-3.779-.017-5.216-.048-10.466-.158-15.7,2.127.3,3.189.442,5.315.715-.084,5.564-.149,11.135-.159,16.69a11.531,11.531,0,0,0,.427,3.453,3.972,3.972,0,0,0,1.44,2.075,4.991,4.991,0,0,0,2.721.827,4.717,4.717,0,0,0,2.72-.531,3.38,3.38,0,0,0,1.44-1.894,10.779,10.779,0,0,0,.427-3.336c0-5.409-.083-10.822-.158-16.234,2.138.233,3.208.343,5.347.553q-.063,2.985-.111,7.179t-.048,8.056v3.138a37.893,37.893,0,0,1-.743,8.82,10.036,10.036,0,0,1-2.943,5.38,8.294,8.294,0,0,1-5.73,1.882Zm17.5-17.078q0-3.533-.032-5.185c-2.606-.123-3.911-.193-6.517-.35v-11.728q9.059.821,18.128,1.422v11.085c-2.606-.07-3.911-.112-6.517-.211-.021,1.083-.035,2.786-.032,5.1q.014,8.011.158,16.043c-2.138.061-3.207.086-5.346.127C-2172.1-1420.777-2172.037-1426.213-2172.036-1431.647Zm16.562,14.646a8.665,8.665,0,0,1-2.942-4.931,34.12,34.12,0,0,1-.712-8.239c.01-1.076,0-2.2,0-3.348-.013-4.619-.048-9.265-.159-13.9,2.127.128,3.19.188,5.315.3-.084,4.922-.161,9.846-.158,14.768a8.893,8.893,0,0,0,.427,3.024,3.223,3.223,0,0,0,1.44,1.735,5.228,5.228,0,0,0,2.721.546,5.485,5.485,0,0,0,2.72-.649,3.352,3.352,0,0,0,1.44-1.764,8.636,8.636,0,0,0,.426-2.966c0-4.763-.074-9.531-.157-14.3,2.138.083,3.208.12,5.347.188q-.064,2.629-.111,6.318t-.047,7.086v2.759a30.023,30.023,0,0,1-.744,7.8,9.4,9.4,0,0,1-2.943,4.931,9.763,9.763,0,0,1-5.931,2.074q-.451.027-.879.027A7.986,7.986,0,0,1-2155.474-1417Zm-62.342.28c.02-2,.045-4,.063-5.963.038-4.237.064-8.493.063-12.736,0-5.416-.073-10.858-.095-16.255,0-.893-.011-1.8-.031-2.7q8.573,1.606,17.211,2.842v12.46c-4.821-.522-7.232-.817-12.053-1.484v3.235q5.283.683,10.282,1.2v5.514q-5-.441-10.282-1.037c0,1.875.013,4.783.063,8.7.037,2.9.063,5.113.063,6.633C-2214.646-1416.458-2215.7-1416.541-2217.816-1416.722Zm80.139-3.849c.035-1.867.042-3.756.063-5.624s.031-3.712.031-5.537c0-4.912-.082-9.826-.158-14.738,4.417.127,6.625.175,11.042.245a9.632,9.632,0,0,1,6.628,2.376c1.655,1.53,2.483,3.839,2.483,6.974a10.836,10.836,0,0,1-.348,2.8,7.092,7.092,0,0,1-1.075,2.324,6.366,6.366,0,0,1-1.835,1.707v.119a5.018,5.018,0,0,1,2.531,2.189,7.592,7.592,0,0,1,.79,3.673q0,3.525.032,5.363c-2.139.2-3.208.3-5.346.5q.031-.841.031-3.118a7.146,7.146,0,0,0-.775-3.765,3.013,3.013,0,0,0-1.9-1.453,11.3,11.3,0,0,0-2.864-.148c-1.67.087-2.505.129-4.176.208,0,.965.021,1.72.031,2.232.021,1.053.011,2.191.032,3.347s.042,2.326.064,3.509c-2.139.171-3.208.252-5.348.409C-2137.741-1417.745-2137.708-1418.95-2137.677-1420.57Zm12.118-16.2c-2.8.054-4.2.076-6.993.108v4.013c2.67-.069,4.006-.108,6.676-.2a2.978,2.978,0,0,0,1.977-.649,1.947,1.947,0,0,0,.648-1.482,1.668,1.668,0,0,0-.584-1.287,2.366,2.366,0,0,0-1.633-.507Zm10.25,13.541c.05-3.931.064-7.009.064-9.21,0-2.434-.064-6.373-.1-11.73,0-.643-.011-1.3-.032-1.944q8.716.041,17.433-.033v8.609q-6.135.261-12.275.47v2.288q5.221-.224,10.5-.49v3.548q-5.284.339-10.5.637v2.629q6.362-.423,12.719-.909v8.593q-8.932.983-17.876,1.859C-2115.352-1420.36-2115.328-1421.8-2115.31-1423.226Zm33.6-12q-2.713-5.487-5.315-11.03c2.367-.031,3.55-.047,5.917-.082,1.24,2.717,1.86,4.058,3.1,6.7l1.361-.061c1.24-2.74,1.86-4.092,3.1-6.76l6.391-.107q-2.779,5.448-5.442,10.956,2.886,5.672,5.917,11.272l-5.948.706c-1.418-2.938-2.126-4.433-3.544-7.47l-1.487.123c-1.442,3.3-2.163,4.969-3.607,8.364-2.556.3-3.834.447-6.391.74Q-2084.721-1428.569-2081.71-1435.227Zm16.483,6.142c.031-1.067.068-2.152.079-3.225s.016-2.145.016-3.219q0-1.986-.064-6.274-.034-2.457-.063-4.794c4.062-.069,6.093-.1,10.155-.168,3.227-.051,5.632.558,7.213,1.779a6.064,6.064,0,0,1,2.373,5.108,6.681,6.681,0,0,1-1.281,4.277,7.424,7.424,0,0,1-3.417,2.387,20.081,20.081,0,0,1-5.015,1.018c-1.936.167-2.9.251-4.84.42.02.757.02,1.527.031,2.276.021,1.434.074,2.908.1,4.362l-5.348.635C-2065.291-1425.512-2065.287-1427.059-2065.227-1429.085Zm11.959-10.733c-2.746.137-4.12.206-6.865.345v3.143c2.581-.17,3.872-.254,6.454-.42a3.576,3.576,0,0,0,1.9-.552,1.435,1.435,0,0,0,.633-1.2,1.156,1.156,0,0,0-.253-.753,1.418,1.418,0,0,0-.743-.45,3.291,3.291,0,0,0-.9-.114C-2053.117-1439.823-2053.192-1439.821-2053.268-1439.817Zm9.048,9.678c.05-2.882.063-5.142.063-6.757,0-1.785-.063-4.68-.094-8.6,0-.47-.012-.95-.032-1.424q8.717-.113,17.432-.149v6.153q-6.138.232-12.275.513v1.665q5.22-.281,10.5-.536v2.543q-5.285.329-10.5.685v1.915q6.358-.5,12.719-.948v6.137q-8.944.942-17.876,1.974C-2044.262-1428.036-2044.238-1429.095-2044.219-1430.14Zm19.679-1.178c.035-1.131.042-2.288.063-3.425s.031-2.259.031-3.369q0-3.457-.158-8.964c4.417-.009,6.625,0,11.042.027a14.1,14.1,0,0,1,6.628,1.407,4.346,4.346,0,0,1,2.483,4.057,3.852,3.852,0,0,1-.348,1.622,3.844,3.844,0,0,1-1.075,1.36,6.508,6.508,0,0,1-1.836,1.022v.069a5.034,5.034,0,0,1,2.532,1.231,2.928,2.928,0,0,1,.79,2.114q0,2.041.032,3.105c-2.139.183-3.208.278-5.347.472q.031-.495.031-1.833a2.792,2.792,0,0,0-.775-2.189,3.243,3.243,0,0,0-1.9-.8,18.33,18.33,0,0,0-2.863,0c-1.67.108-2.505.163-4.176.276,0,.581.021,1.038.031,1.341.021.625.011,1.318.032,2.011s.042,1.4.063,2.108c-2.138.213-3.208.322-5.347.544C-2024.6-1429.594-2024.57-1430.334-2024.54-1431.317Zm12.118-10.139c-2.8.072-4.2.113-6.992.2v2.413c2.67-.123,4.006-.181,6.676-.288a4.523,4.523,0,0,0,1.977-.42,1.044,1.044,0,0,0,.648-.881c0-.3-.2-.548-.584-.749a3.392,3.392,0,0,0-1.529-.278Zm10.345,2.38q0-2.258-.158-7.827c2.126.04,3.19.064,5.315.117q-.158,5.18-.158,7.564,0,2.313.158,7.556c-2.125.163-3.189.249-5.315.425Q-2002.078-1436.891-2002.078-1439.076Zm7.594,4.868c.05-2.146.064-3.833.064-5.036,0-1.331-.064-3.5-.095-6.416,0-.35-.011-.708-.032-1.063q8.72.243,17.433.7v4.436q-6.135-.118-12.276-.111v1.231q5.22-.045,10.5-.012v1.841q-5.284.039-10.5.16v1.414q6.355-.216,12.719-.3v4.421q-8.945.436-17.876,1.1C-1994.527-1432.639-1994.5-1433.43-1994.484-1434.207Zm62.8.936c.021-.451.046-.9.064-1.339.051-1.213.064-2.174.064-2.858,0-.757-.064-2.006-.1-3.661,0-.2-.011-.4-.032-.609q8.746,1.242,17.433,2.855v2.264q-6.118-.937-12.276-1.665v.681q5.22.581,10.5,1.309v.952q-5.284-.655-10.5-1.16v.782q6.367.544,12.719,1.314v2.249Q-1922.731-1432.919-1931.683-1433.272Zm-43.059-2.89c.021-1.115.053-2.24.064-3.343.009-.958-.064-3.1-.19-6.4,3.594.2,5.391.316,8.986.573,1.986,3.161,2.98,4.682,4.967,7.605l1.2.021c.013-.394.02-.592.032-.986q.03-1.261,0-2.644t-.127-3.529c2.088.172,3.132.263,5.22.456-.021.657-.044,1.321-.064,1.987-.022.779-.031,1.375-.031,1.782s-.032,1.006-.032,1.736.042,1.485.063,2.226c.039,1.229.057,1.844.1,3.072-3.531.034-5.3.066-8.828.158-2.038-2.9-3.056-4.414-5.094-7.559l-1.233-.035q-.033,1.763,0,3.06c.021.864.043,1.87.094,2.988.017.384.032.675.032.863s.01.482.031.88c-2.1.077-3.151.121-5.253.217C-1974.78-1434.287-1974.768-1434.912-1974.742-1436.162Zm33.568,2.815a30.2,30.2,0,0,1-6.36-.65,8.315,8.315,0,0,1-3.86-1.844,4.08,4.08,0,0,1-1.3-3.068,3.706,3.706,0,0,1,1.3-2.948,7.247,7.247,0,0,1,3.876-1.436,26.977,26.977,0,0,1,6.406.156c1.371.167,2.673.38,3.907.63s2.272.5,3.116.757v3.136l-.253-.049q-2.088-.375-3.529-.583c-.959-.139-2.061-.264-3.3-.368a29.558,29.558,0,0,0-3.244-.122,7.734,7.734,0,0,0-2.135.3c-.527.174-.791.447-.791.811,0,.335.258.625.775.864a8.262,8.262,0,0,0,2.136.57c.906.142,1.971.243,3.195.309q1.709.093,3.1.1t3.227,0q.57-.008,1.076-.008v3.09q-1.361.194-3.259.29-1.4.071-2.961.072Q-1940.6-1433.338-1941.174-1433.347Z" transform="translate(2244.594 1574.992)" fill="#d9ff50" stroke="rgba(0,0,0,0)" stroke-width="1"/>
      <g id="Rocket" transform="translate(94.75)">
        <path id="Path_5572" data-name="Path 5572" d="M300.083,229.586a.526.526,0,0,0-.368-.073c-2.708.451-32.294,5.734-37.411,22.161a119.23,119.23,0,0,0-4.607,26,.542.542,0,0,1-.255.433c-2.191,1.37-18.613,11.912-18,19.734.657,8.381,1.972,14.461,1.972,18.4,0,3.5-15.266,22.911-18.707,27.242a.562.562,0,0,0,.43.913c3.993.047,18.814-.993,45.883-16.16,13.048-7.311,28.757-1.807,34.837-12.653s.794-16.813,4.094-18.841,32.879-8.929,38.959-21.582c5.88-12.235-43.556-43.523-46.827-45.576" transform="translate(-221.459 -129.72)" fill="#fff"/>
        <path id="Path_5573" data-name="Path 5573" d="M222.04,344.175a13.194,13.194,0,0,1-1.55-.071.565.565,0,0,1-.369-.913c7.744-9.647,19.266-25,19.266-27.746a64.642,64.642,0,0,0-.772-7.747c-.412-3.064-.878-6.536-1.2-10.613-.623-7.954,14.967-18.183,18.021-20.106a.538.538,0,0,0,.252-.425,120.713,120.713,0,0,1,4.613-25.846c2.246-7.21,9.56-13.4,21.151-17.912a91.255,91.255,0,0,1,16.912-4.671l.207-.032.178.11c.133.083,13.439,8.386,25.829,18.132,16.838,13.243,24.03,22.756,21.378,28.274-4.8,10-23.516,16.33-33.569,19.731a45.307,45.307,0,0,0-5.6,2.088c-1.031.633-1,1.779-.831,4.1a23.33,23.33,0,0,1-3.066,14.533c-3.617,6.452-10.607,7.352-18.007,8.306-5.682.732-11.557,1.489-17.046,4.564-26.505,14.851-41.215,16.243-45.793,16.243m.393-2.076a.56.56,0,0,0,.46.907c5.265-.22,19.789-2.277,44.387-16.059,5.679-3.182,11.934-3.988,17.454-4.7,7.42-.956,13.828-1.781,17.167-7.738a22.047,22.047,0,0,0,2.925-13.9c-.165-2.3-.295-4.126,1.367-5.146a41.9,41.9,0,0,1,5.832-2.2c9.9-3.348,28.315-9.581,32.913-19.151,2.357-4.906-4.922-14.205-21.052-26.893-11.224-8.829-23.208-16.473-25.385-17.847a.512.512,0,0,0-.367-.072c-3.717.65-31.878,6.08-36.754,21.735a119.652,119.652,0,0,0-4.6,26.14l-.014.3-.257.157c-.186.113-18.593,11.417-17.971,19.357.317,4.046.782,7.5,1.191,10.551a65.117,65.117,0,0,1,.783,7.9c0,3.517-13.372,20.709-18.082,26.655" transform="translate(-219.996 -128.92)" stroke="#000" stroke-linecap="round" stroke-width="1"/>
        <path id="Path_5574" data-name="Path 5574" d="M369.678,290.273a.56.56,0,0,1,.15.757c-3.613,5.6-10.121,8.7-16.487,10.781-6.535,2.139-13.438,3.608-19.181,7.39-5.72,3.767-9.8,9.517-14.912,14.08-4.99,4.457-20.413,15.853-27.155,14.281a.571.571,0,0,1-.437-.608c.6-7.045,9.644-22.237,14.056-27.23,3.624-4.1,9.382-6.048,12.456-10.577,4.114-6.061,2.016-14.464,4.789-21.244,3.416-8.351,12.984-11.989,21.639-14.671a.55.55,0,0,1,.63.233c6.053,9.593,15.224,20.2,24.453,26.806" transform="translate(-260.497 -148.769)"/>
        <path id="Path_5575" data-name="Path 5575" d="M292.707,337.278a6.22,6.22,0,0,1-2.05-.314l-.391-.136.013-.414c.217-7.036,9.608-22.836,14.225-28.061a30.612,30.612,0,0,1,5.855-4.753c2.534-1.73,4.927-3.365,6.557-5.767,2.227-3.28,2.564-7.249,2.92-11.451a32.79,32.79,0,0,1,1.813-9.69c3.554-8.688,13.426-12.361,22.4-15.122l.415-.128.23.368c6.712,10.748,16.274,21.211,24.955,27.308l.431.3-.272.451c-3.961,6.574-11.643,9.7-17.077,11.477-1.489.488-3.02.947-4.5,1.392-5,1.5-10.174,3.055-14.545,5.934a54.426,54.426,0,0,0-9.3,8.463c-1.767,1.877-3.6,3.819-5.552,5.567-3.519,3.143-18.133,14.573-26.132,14.573m-1.215-1.8a.557.557,0,0,0,.482.634c6.265.73,20.058-8.836,26.113-14.245,1.92-1.715,3.73-3.638,5.482-5.5a55.271,55.271,0,0,1,9.5-8.632c4.509-2.97,9.762-4.547,14.842-6.072,1.473-.443,3-.9,4.474-1.383,5.007-1.639,11.977-4.446,15.887-10.1a.549.549,0,0,0-.133-.755c-8.364-6.106-17.406-16.03-23.939-26.286a.554.554,0,0,0-.633-.233c-8.5,2.657-17.606,6.241-20.868,14.217a31.923,31.923,0,0,0-1.733,9.358c-.353,4.162-.719,8.464-3.111,11.989-1.751,2.579-4.346,4.352-6.855,6.066a29.757,29.757,0,0,0-5.646,4.567c-4.373,4.949-12.9,19.356-13.858,26.373" transform="translate(-259.713 -147.771)"/>
        <path id="Path_5576" data-name="Path 5576" d="M497.207,12.976a4.36,4.36,0,0,0-1.989.811l-99.51,73.452.107.131c-8.471,8.506-5.8,28.1,6.61,45.373,13.177,18.34,32.344,27.112,42.81,19.592a13.642,13.642,0,0,0,2.074-1.843l.167.2L551.257,75.232a4.368,4.368,0,0,0,1.364-1.634l31.8-65.94a4.365,4.365,0,0,0-4.534-6.219Z" transform="translate(-316.596 -0.788)"/>
        <path id="Path_5577" data-name="Path 5577" d="M435.736,154.661a28.21,28.21,0,0,1-11.595-2.838c-8.15-3.73-16.171-10.7-22.585-19.628-6.014-8.37-9.995-17.659-11.208-26.155-1.19-8.333.366-15.231,4.383-19.481l-.149-.182L495.415,11.948l.1-.014L580.752.041A3.989,3.989,0,0,1,584.9,5.725L551.934,74.069l-.083.061L446.868,150.471l-.118-.145a14.037,14.037,0,0,1-1.811,1.555,15.474,15.474,0,0,1-9.2,2.78M395.764,86.525l.069.084-.261.263c-4.022,4.038-5.588,10.8-4.41,19.051,1.2,8.368,5.124,17.528,11.062,25.792,6.332,8.813,14.237,15.688,22.259,19.36,7.946,3.636,15.041,3.686,19.978.139a13.287,13.287,0,0,0,2.011-1.787l.321-.349.221.271L551.169,73.61a.565.565,0,0,0,.176-.211l32.4-67.183A3.671,3.671,0,0,0,579.934.985L495.877,12.713a.559.559,0,0,0-.257.1Z" transform="translate(-316.061 0)" fill="#fff" stroke="#fff" stroke-linecap="round" stroke-linejoin="round" stroke-width="3"/>
        <path id="Path_5578" data-name="Path 5578" d="M687.795,89.842a.417.417,0,0,1-.486.324c-12.444-2.216-23.092-6.8-31.653-13.639A60.649,60.649,0,0,1,639.069,55.71a71.224,71.224,0,0,1-7.112-26.917.4.4,0,0,1,.41-.411h0a.4.4,0,0,1,.416.38A70.393,70.393,0,0,0,639.83,55.4c6.3,12.775,19.673,29.009,47.632,33.987a.4.4,0,0,1,.333.461" transform="translate(-452.841 -16.043)" fill="#fff" stroke="#fff" stroke-linejoin="bevel" stroke-width="3"/>
        <path id="Path_5579" data-name="Path 5579" d="M422.5,125.834l78.091-61.044a.564.564,0,0,1,.895.306l2.654,10.467a.565.565,0,0,1-.2.587l-78.993,60.5a.565.565,0,0,1-.9-.35l-1.751-9.925a.565.565,0,0,1,.208-.543" transform="translate(-334.334 -36.553)" fill="#fff" stroke="#000" stroke-width="6"/>
      </g>
    </g>
  </g>
</svg>
