<svg xmlns="http://www.w3.org/2000/svg" width="160.813" height="142.601" viewBox="0 0 160.813 142.601">
  <path id="see_all_arrow" d="M-2885.8-5033.515l.091-.065a.41.41,0,0,1,.421,0l.091.065a.6.6,0,0,1-.3,1.114A.6.6,0,0,1-2885.8-5033.515Zm-4.8-1.608a1.017,1.017,0,0,1,0,2.033A1.017,1.017,0,0,1-2890.592-5035.123Zm-5.609.433c-.07-.019-.137-.035-.208-.051a1.885,1.885,0,0,1,0-3.607c.071-.017.139-.033.208-.052a1.954,1.954,0,0,1,2.435,1.856,1.933,1.933,0,0,1-1.963,1.91A2.012,2.012,0,0,1-2896.2-5034.69Zm-19-16.784c-2.637-7.855-.3-13.569,8.736-12.488,10.548,1.264,18.985,7.506,28.907,10.569,5.821,1.793,16.134,2.46,17.691-5.62,1.055-5.477-5.315-7.541-9.209-9.711-6.708-3.735-13.911-10.231-15.092-18.312-1.323-9.052,7.885-10.113,14.63-10.747a183.96,183.96,0,0,1,20.288-.391c15.579.268,31.246.535,44.906-7.968,9.229-5.743,14.134-15.171,15.076-25.875.487-5.523-.24-11.159-.718-16.763-.811,1.253-1.6,2.439-2.328,3.537-4.365,6.587-10.208,14.485-18.219,16.584a1.144,1.144,0,0,1-1.275-1.656c3.376-7.43,9.179-13.9,13.006-21.18,3.533-6.723,5.636-16.424,11.394-21.5a3.609,3.609,0,0,1,6.073,2.349c2.294,2.021,2.355,3.75,3.153,6.632,1.1,3.988,3.276,7,5.849,10.154,4.605,5.638,8.8,10.483,12.013,17.069.665,1.359-.741,3.083-2.19,2.188a64.975,64.975,0,0,1-13.438-10.85,74.6,74.6,0,0,1-.106,14.561c-1.068,10.266-4.492,20.107-11.49,27.863-13.322,14.773-34.307,17.488-53.107,17.054-5.631-.132-11.251-.5-16.876-.689-2.406-.077-4.81-.127-7.217-.1-2.355.031-5.533.895-7.875.549.457.849.866,1.7,1.39,2.512a19.246,19.246,0,0,0,4.529,4.857c3.05,2.343,6.608,3.933,9.466,6.554,11.838,10.855.912,26.936-13.281,26.5-10.249-.314-18.75-6.842-28.059-10.271-2.488-.917-5.979-2.406-8.68-2.07-2.042.252-2.828.213-2.705,2.967a12.6,12.6,0,0,0,1.057,3.073c1.726,4.578,3.8,7.563,7.342,9.936l-.03-.874a.036.036,0,0,1,.049-.049,6.734,6.734,0,0,1,3.406,3.169,1.836,1.836,0,0,1-1.09,2.678,11.788,11.788,0,0,1-1.627.115C-2908.436-5037.113-2912.982-5044.868-2915.2-5051.474Zm83.4-25.3c-.443-.142-.543-.921,0-1,7.65-1.151,15.27-1.556,22.744-3.778,8.145-2.418,14.905-7.038,22.51-10.574a1.462,1.462,0,0,1,1.763,2.284c-7.586,9.12-22.521,14.693-35.69,14.692A37.388,37.388,0,0,1-2831.8-5076.772Zm-59.638-6.4c-6.538-6.289-1.793-24.766,8.836-22.67,1.559.307,1.57,2.423.415,3.18-3.44,2.256-6.179,3.841-7.513,8.062-1.137,3.6-.317,7.07.035,10.7a.963.963,0,0,1-1.047,1.008A1.039,1.039,0,0,1-2891.433-5083.176Zm13.462-21.187a1.576,1.576,0,0,1,.559-2.129l.22-.113a1.588,1.588,0,0,1,2.134.559,1.573,1.573,0,0,1-.56,2.132c-.074.037-.148.074-.223.109a1.853,1.853,0,0,1-.808.19A1.494,1.494,0,0,1-2877.971-5104.362Zm7.108-1.037a.805.805,0,0,1,0,1.609A.805.805,0,0,1-2870.863-5105.4Zm113.93-22.547a.521.521,0,0,1,0,1.042A.521.521,0,0,1-2756.932-5127.946Zm-2.216-5.054a1.365,1.365,0,0,1,0,2.728A1.365,1.365,0,0,1-2759.148-5133Z" transform="translate(2916.742 5174.501)" stroke="rgba(0,0,0,0)" stroke-width="1"/>
</svg>
