<svg xmlns="http://www.w3.org/2000/svg" xmlns:xlink="http://www.w3.org/1999/xlink" width="808.738" height="808.739" viewBox="0 0 808.738 808.739">
  <defs>
    <clipPath id="clip-path">
      <rect id="Rectangle_23" data-name="Rectangle 23" width="578.989" height="578.997" fill="#f8f9fa"/>
    </clipPath>
  </defs>
  <g id="Group_70" data-name="Group 70" transform="matrix(0.809, 0.588, -0.588, 0.809, 342.354, 11.713)">
    <text id="T" transform="matrix(0.762, -0.648, 0.648, 0.762, 138.017, 142.253)" fill="#f8f9fa" font-size="104" font-family="VanguardCF-Medium, Vanguard CF" font-weight="500"><tspan x="0" y="0">T</tspan></text>
    <text id="A" transform="translate(159.518 121.502) rotate(-31.121)" fill="#f8f9fa" font-size="103" font-family="VanguardCF-Medium, Vanguard CF" font-weight="500"><tspan x="0" y="0">A</tspan></text>
    <text id="K" transform="translate(193.535 98.441) rotate(-19.624)" fill="#f8f9fa" font-size="101" font-family="VanguardCF-Medium, Vanguard CF" font-weight="500"><tspan x="0" y="0">K</tspan></text>
    <g id="Group_63" data-name="Group 63" transform="translate(-8.525 -8.284)">
      <g id="Group_62" data-name="Group 62" transform="translate(0 0)" clip-path="url(#clip-path)">
        <text id="E" transform="translate(240.185 95.514) rotate(-9.633)" fill="#f8f9fa" font-size="103" font-family="VanguardCF-Medium, Vanguard CF" font-weight="500"><tspan x="0" y="0">E</tspan></text>
        <text id="_" data-name=" " transform="translate(269.544 79.84) rotate(-3.423)" fill="#f8f9fa" font-size="93" font-family="VanguardCF-Medium, Vanguard CF" font-weight="500"><tspan x="0" y="0"> </tspan></text>
        <text id="A-2" data-name="A" transform="translate(282.854 88.985) rotate(4.227)" fill="#f8f9fa" font-size="103" font-family="VanguardCF-Medium, Vanguard CF" font-weight="500"><tspan x="0" y="0">A</tspan></text>
        <text id="_2" data-name=" " transform="translate(326.34 82.119) rotate(11.985)" fill="#f8f9fa" font-size="93" font-family="VanguardCF-Medium, Vanguard CF" font-weight="500"><tspan x="0" y="0"> </tspan></text>
      </g>
    </g>
    <text id="L" transform="translate(328.348 86.707) rotate(18.386)" fill="#f8f9fa" font-size="103" font-family="VanguardCF-Medium, Vanguard CF" font-weight="500"><tspan x="0" y="0">L</tspan></text>
    <text id="O" transform="matrix(0.883, 0.468, -0.468, 0.883, 356.479, 95.431)" fill="#f8f9fa" font-size="103" font-family="VanguardCF-Medium, Vanguard CF" font-weight="500"><tspan x="0" y="0">O</tspan></text>
    <text id="O-2" data-name="O" transform="translate(390.073 112.991) rotate(38.773)" fill="#f8f9fa" font-size="103" font-family="VanguardCF-Medium, Vanguard CF" font-weight="500"><tspan x="0" y="0">O</tspan></text>
    <text id="K-2" data-name="K" transform="matrix(0.646, 0.764, -0.764, 0.646, 421.337, 135.185)" fill="#f8f9fa" font-size="101" font-family="VanguardCF-Medium, Vanguard CF" font-weight="500"><tspan x="0" y="0">K</tspan></text>
    <text id="_3" data-name=" " transform="translate(454.4 161.718) rotate(57.346)" fill="#f8f9fa" font-size="93" font-family="VanguardCF-Medium, Vanguard CF" font-weight="500"><tspan x="0" y="0"> </tspan></text>
    <text id="A-3" data-name="A" transform="translate(452.92 177.767) rotate(65.114)" fill="#f8f9fa" font-size="103" font-family="VanguardCF-Medium, Vanguard CF" font-weight="500"><tspan x="0" y="0">A</tspan></text>
    <g id="Group_65" data-name="Group 65" transform="translate(-8.525 -8.284)">
      <g id="Group_64" data-name="Group 64" transform="translate(0 0)" clip-path="url(#clip-path)">
        <text id="T-2" data-name="T" transform="translate(475.674 218.026) rotate(74.468)" fill="#f8f9fa" font-size="104" font-family="VanguardCF-Medium, Vanguard CF" font-weight="500"><tspan x="0" y="0">T</tspan></text>
        <text id="_4" data-name=" " transform="matrix(0.147, 0.989, -0.989, 0.147, 496.595, 251.104)" fill="#f8f9fa" font-size="93" font-family="VanguardCF-Medium, Vanguard CF" font-weight="500"><tspan x="0" y="0"> </tspan></text>
        <text id="W" transform="translate(489.158 264.371) rotate(92.335)" fill="#f8f9fa" font-size="104" font-family="VanguardCF-Medium, Vanguard CF" font-weight="500"><tspan x="0" y="0">W</tspan></text>
        <text id="H" transform="matrix(-0.289, 0.957, -0.957, -0.289, 488.252, 328.405)" fill="#f8f9fa" font-size="101" font-family="VanguardCF-Medium, Vanguard CF" font-weight="500"><tspan x="0" y="0">H</tspan></text>
      </g>
    </g>
    <text id="A-4" data-name="A" transform="matrix(-0.471, 0.882, -0.882, -0.471, 467.189, 356.046)" fill="#f8f9fa" font-size="103" font-family="VanguardCF-Medium, Vanguard CF" font-weight="500"><tspan x="0" y="0">A</tspan></text>
    <text id="T-3" data-name="T" transform="translate(450.208 386.645) rotate(127.402)" fill="#f8f9fa" font-size="104" font-family="VanguardCF-Medium, Vanguard CF" font-weight="500"><tspan x="0" y="0">T</tspan></text>
    <text id="_5" data-name=" " transform="matrix(-0.7, 0.715, -0.715, -0.7, 436.411, 423.299)" fill="#f8f9fa" font-size="93" font-family="VanguardCF-Medium, Vanguard CF" font-weight="500"><tspan x="0" y="0"> </tspan></text>
    <text id="W-2" data-name="W" transform="translate(421.345 425.42) rotate(145.269)" fill="#f8f9fa" font-size="104" font-family="VanguardCF-Medium, Vanguard CF" font-weight="500"><tspan x="0" y="0">W</tspan></text>
    <text id="E-2" data-name="E" transform="translate(368.668 461.131) rotate(158.562)" fill="#f8f9fa" font-size="103" font-family="VanguardCF-Medium, Vanguard CF" font-weight="500"><tspan x="0" y="0">E</tspan></text>
    <g id="Group_67" data-name="Group 67" transform="translate(-8.525 -8.284)">
      <g id="Group_66" data-name="Group 66" transform="translate(0 0)" clip-path="url(#clip-path)">
        <text id="_6" data-name="’" transform="translate(351.215 488.926) rotate(165.566)" fill="#f8f9fa" font-size="95" font-family="VanguardCF-Medium, Vanguard CF" font-weight="500"><tspan x="0" y="0">’</tspan></text>
        <text id="V" transform="translate(331.828 485.66) rotate(174.071)" fill="#f8f9fa" font-size="103" font-family="VanguardCF-Medium, Vanguard CF" font-weight="500"><tspan x="0" y="0">V</tspan></text>
        <text id="E-3" data-name="E" transform="translate(291.088 489.589) rotate(-175.949)" fill="#f8f9fa" font-size="103" font-family="VanguardCF-Medium, Vanguard CF" font-weight="500"><tspan x="0" y="0">E</tspan></text>
        <text id="_7" data-name=" " transform="translate(258.834 497.873) rotate(-169.726)" fill="#f8f9fa" font-size="93" font-family="VanguardCF-Medium, Vanguard CF" font-weight="500"><tspan x="0" y="0"> </tspan></text>
      </g>
    </g>
    <text id="D" transform="translate(239.546 477.418) rotate(-162.335)" fill="#f8f9fa" font-size="103" font-family="VanguardCF-Medium, Vanguard CF" font-weight="500"><tspan x="0" y="0">D</tspan></text>
    <text id="O-3" data-name="O" transform="matrix(-0.878, -0.478, 0.478, -0.878, 203.431, 466.158)" fill="#f8f9fa" font-size="103" font-family="VanguardCF-Medium, Vanguard CF" font-weight="500"><tspan x="0" y="0">O</tspan></text>
    <text id="N" transform="translate(168.722 450.063) rotate(-139.944)" fill="#f8f9fa" font-size="101" font-family="VanguardCF-Medium, Vanguard CF" font-weight="500"><tspan x="0" y="0">N</tspan></text>
    <text id="E-4" data-name="E" transform="translate(137.395 420.595) rotate(-129.617)" fill="#f8f9fa" font-size="103" font-family="VanguardCF-Medium, Vanguard CF" font-weight="500"><tspan x="0" y="0">E</tspan></text>
    <text id="_8" data-name=" " transform="translate(109.155 403.017) rotate(-123.418)" fill="#f8f9fa" font-size="93" font-family="VanguardCF-Medium, Vanguard CF" font-weight="500"><tspan x="0" y="0"> </tspan></text>
    <text id="S" transform="matrix(-0.441, -0.898, 0.898, -0.441, 110.526, 386.765)" fill="#f8f9fa" font-size="103" font-family="VanguardCF-Medium, Vanguard CF" font-weight="500"><tspan x="0" y="0">S</tspan></text>
    <g id="Group_69" data-name="Group 69" transform="translate(-8.525 -8.284)">
      <g id="Group_68" data-name="Group 68" transform="translate(0 0)" clip-path="url(#clip-path)">
        <text id="O-4" data-name="O" transform="translate(102.424 361.771) rotate(-105.32)" fill="#f8f9fa" font-size="103" font-family="VanguardCF-Medium, Vanguard CF" font-weight="500"><tspan x="0" y="0">O</tspan></text>
        <text id="_9" data-name=" " transform="translate(82.038 325.897) rotate(-97.921)" fill="#f8f9fa" font-size="93" font-family="VanguardCF-Medium, Vanguard CF" font-weight="500"><tspan x="0" y="0"> </tspan></text>
        <text id="F" transform="translate(90.598 311.542) rotate(-91.729)" fill="#f8f9fa" font-size="103" font-family="VanguardCF-Medium, Vanguard CF" font-weight="500"><tspan x="0" y="0">F</tspan></text>
        <text id="A-5" data-name="A" transform="translate(88.943 283.797) rotate(-82.259)" fill="#f8f9fa" font-size="103" font-family="VanguardCF-Medium, Vanguard CF" font-weight="500"><tspan x="0" y="0">A</tspan></text>
      </g>
    </g>
    <text id="R" transform="translate(87.723 235.818) rotate(-71.072)" fill="#f8f9fa" font-size="105" font-family="VanguardCF-Medium, Vanguard CF" font-weight="500"><tspan x="0" y="0">R</tspan></text>
  </g>
</svg>
