<svg xmlns="http://www.w3.org/2000/svg" xmlns:xlink="http://www.w3.org/1999/xlink" width="125.056" height="136.143" viewBox="0 0 125.056 136.143">
  <defs>
    <clipPath id="clip-path">
      <rect id="Rectangle_2231" data-name="Rectangle 2231" width="125.056" height="108.222" fill="none"/>
    </clipPath>
  </defs>
  <g id="Group_1753" data-name="Group 1753" transform="translate(-93.471 -1574.009)">
    <path id="Path_4922" data-name="Path 4922" d="M153.037,74.943c-6.7,1.695-6.881,3.533-8.286,10.4a.449.449,0,0,1-.879,0c-1.405-6.865-1.588-8.7-8.286-10.4a.447.447,0,0,1,0-.866c6.7-1.695,6.881-3.533,8.286-10.4a.449.449,0,0,1,.879,0c1.405,6.865,1.588,8.7,8.286,10.4a.447.447,0,0,1,0,.866" transform="translate(56.457 1510.688)" fill="#fff"/>
    <g id="Group_1722" data-name="Group 1722" transform="translate(93.471 1601.93)">
      <g id="Group_1721" data-name="Group 1721" clip-path="url(#clip-path)">
        <path id="Path_4924" data-name="Path 4924" d="M119.725,62.145c-6.305,5.374-11.693,11.329-15.007,18.935A55.34,55.34,0,0,1,81.08,104.719c-7.363,5.055-16.721,3.353-21.826-4.3-5.1-7.373-7.09-15.314-13.9-20.7-8.507-7.373-18.433,1.418-27.792,3.119C7.074,84.534,2.253,73.19,1.345,64.689A55.174,55.174,0,0,1,64.689,1.345,54.149,54.149,0,0,1,73.2,3.464c19.8,7.9,32.849,25.486,47.028,41.084,2.836,3.4,5.388,7.94,3.624,12.6A16.516,16.516,0,0,1,119.725,62.145Z" fill="none" stroke="#fff" stroke-width="1.248"/>
        <path id="Path_4925" data-name="Path 4925" d="M18.256,63.015a6.514,6.514,0,0,0,4.982,2.519c11.911.283,25.24-3.12,33.181,9.075,4.821,7.088,11.343,16.163,20.7,12.476a25.893,25.893,0,0,0,9.114-7,41.685,41.685,0,0,0,4.142-5.342A46.433,46.433,0,0,0,94.2,67.528" fill="none" stroke="#fff" stroke-width="1.248"/>
        <path id="Path_4926" data-name="Path 4926" d="M13.563,63.785c3.153,1.465,6.273-1.655,7.629-4.348" fill="none" stroke="#fff" stroke-width="1.248"/>
        <path id="Path_4927" data-name="Path 4927" d="M99.114,66.449a4.855,4.855,0,0,1-4.372,1.192,3.733,3.733,0,0,1-2.89-3.061" fill="none" stroke="#fff" stroke-width="1.248"/>
        <path id="Path_4928" data-name="Path 4928" d="M41.6,46.13c.921,2.955,6.593,1.253,9.429,1.82-1.7-8.791.851-21.269-3.687-25.239-5.955-5.1-8.507,10.493-6.765,17.977.318,1.844.694,3.649,1.023,5.442" fill="#fff"/>
        <path id="Path_4929" data-name="Path 4929" d="M61.644,48.288c.163,3.916,5.835,3.065,8.671,4.767-.567-7.941-.851-15.6-.831-23.477-.025-2.825-.06-5.666-.1-8.435-3.966.024-6.288,1.6-7.6,4.253-2.245,4.972-1.394,10.927-.854,16.392.236,2.129.5,4.307.715,6.5" fill="#fff"/>
      </g>
    </g>
    <path id="Path_5070" data-name="Path 5070" d="M144.5,69.362c-3.481.881-3.577,1.836-4.307,5.4a.233.233,0,0,1-.457,0c-.73-3.568-.826-4.524-4.307-5.4a.232.232,0,0,1,0-.45c3.481-.881,3.577-1.836,4.307-5.4a.233.233,0,0,1,.457,0c.73,3.568.826,4.524,4.307,5.4a.232.232,0,0,1,0,.45" transform="translate(72.457 1538.064)" fill="#fff"/>
  </g>
</svg>
