<svg id="Group_1623" data-name="Group 1623" xmlns="http://www.w3.org/2000/svg" xmlns:xlink="http://www.w3.org/1999/xlink" width="140.289" height="202.419" viewBox="0 0 140.289 202.419">
  <defs>
    <clipPath id="clip-path">
      <rect id="Rectangle_1980" data-name="Rectangle 1980" width="140.289" height="202.419" fill="#d9ff50"/>
    </clipPath>
  </defs>
  <g id="Group_1622" data-name="Group 1622">
    <path id="Path_4468" data-name="Path 4468" d="M43.345,0C53.538,0,62.8,7.84,70.122,21.1,77.621,7.462,87.028,0,96.944,0c24.307,0,43.345,44.457,43.345,101.21S121.251,202.419,96.944,202.419c-9.948,0-19.323-7.431-26.829-21.093-7.324,13.257-16.58,21.093-26.769,21.093C19.04,202.419,0,157.962,0,101.21S19.04,0,43.345,0m53.6,195.351c17.142,0,35.46-36.228,36.241-90.54-2.007,5.07-4.807,8.265-8.271,8.838-10.209,1.688-22.3-19.973-27-48.384-4.546-27.47-.522-51.187,8.977-54.255-3.27-2.581-6.63-3.942-9.948-3.942-8.077,0-16.155,7.656-22.745,21.555l-.172.515C81.88,47.36,86.691,72.72,86.691,101.21c0,28.519-4.811,53.929-12.68,72.157,6.627,14.18,14.735,21.984,22.933,21.984m-53.6,0c15.929,0,32.877-31.279,35.825-79.281-1.882,3.61-4.283,5.858-7.138,6.331-10.209,1.688-22.3-19.973-27-48.384S44.8,21.2,55.007,19.515c2.469-.407,5.05.56,7.608,2.652-5.886-9.718-12.665-15.1-19.27-15.1C25.825,7.068,7.068,44.9,7.068,101.21s18.757,94.14,36.277,94.14" transform="translate(0 0)" fill="#d9ff50"/>
  </g>
</svg>
