<svg xmlns="http://www.w3.org/2000/svg" width="140.29" height="202.419" viewBox="0 0 140.29 202.419">
  <path id="Path_4470" data-name="Path 4470" d="M278.046,0c-9.95,0-19.325,7.431-26.829,21.093C243.893,7.836,234.637,0,224.448,0,200.14,0,181.1,44.458,181.1,101.21S200.14,202.42,224.448,202.42c10.193,0,19.451-7.84,26.776-21.1,7.5,13.642,16.905,21.1,26.822,21.1,24.305,0,43.346-44.455,43.346-101.209S302.352,0,278.046,0m-51.91,128.4c-4.7,28.41-.237,52.812,9.972,54.5,2.471.409,5.05-.562,7.61-2.65-5.887,9.716-12.666,15.1-19.27,15.1-17.52,0-36.279-37.831-36.279-94.143S206.928,7.067,224.448,7.067c15.929,0,32.877,31.279,35.825,79.284-1.882-3.61-4.285-5.858-7.138-6.333-10.209-1.688-22.3,19.975-27,48.385m79.879-39.632c-10.209-1.69-22.3,19.973-27,48.383-4.546,27.47-.522,51.188,8.977,54.257-3.269,2.581-6.63,3.942-9.946,3.942-8.077,0-16.157-7.656-22.745-21.557l-.173-.511c7.853-18.225,12.666-43.585,12.666-72.075,0-28.521-4.813-53.931-12.682-72.159,6.628-14.178,14.735-21.984,22.935-21.984,17.142,0,35.458,36.23,36.239,90.542-2.007-5.072-4.807-8.265-8.271-8.839" transform="translate(-181.102 -0.001)" fill="#d9ff50"/>
</svg>
