<svg xmlns="http://www.w3.org/2000/svg" width="610.208" height="195.417" viewBox="0 0 610.208 195.417">
  <path id="Path_5158" data-name="Path 5158" d="M-164.583-191.666l-7.292,144.375h-2.083l-9.167-144.375h-61.25l-9.167,144.375h-2.083l-7.292-144.375h-42.708L-290.833,0h67.708l8.333-144.167h2.083L-204.375,0h67.708l14.792-191.666Zm97.708-1.875c-30,0-49.375,11.042-49.375,43.542V-41.667c0,32.5,19.375,43.542,49.375,43.542C-37.083,1.875-17.5-9.167-17.5-41.667V-150C-17.5-182.5-37.083-193.541-66.875-193.541Zm5.417,43.75V-41.875c0,5.417-2.5,7.083-5.417,7.083-3.125,0-5.417-1.667-5.417-7.083V-149.792c0-5.417,2.292-7.083,5.417-7.083C-63.958-156.875-61.458-155.208-61.458-149.792ZM94.167,0,77.292-63.958C85-70.208,89.792-80,89.792-94.375v-53.75c0-31.875-6.667-43.542-39.167-43.542H-8.333V0H35.625V-53.542h6.042L54.792,0ZM35.625-155.208h4.583c5.208,0,6.667,2.083,6.667,7.5v53.333c0,4.583-1.042,6.667-4.792,7.083l-6.458.208ZM165.833,0H207.5L181.875-101.458l23.75-90.208h-43.75L144.792-121.25h-1.875v-70.417H99.167V0h43.75V-51.458l6.667-22.708ZM303.958-122.708v-27.5c0-32.083-18.333-43.333-47.917-43.333-29.375,0-48.125,11.25-48.125,43.333v25.833c0,46.875,53.542,37.5,53.542,59.583v23.125c0,5.417-2.292,7.083-5.417,7.083-3.542,0-5.625-1.667-5.625-7.083V-68.958H208.125v27.5c0,32.083,18.542,43.333,48.125,43.333s48.333-11.25,48.333-43.333V-67.292c0-46.875-53.75-37.5-53.75-59.583V-150c0-5.417,2.083-7.083,5.417-7.083s5.417,1.667,5.417,7.083v27.292Z" transform="translate(305.625 193.542)"/>
</svg>
